G04 #@! TF.GenerationSoftware,KiCad,Pcbnew,5.1.5-52549c5~86~ubuntu19.10.1*
G04 #@! TF.CreationDate,2020-04-09T14:04:23+02:00*
G04 #@! TF.ProjectId,multi_CH,6d756c74-695f-4434-982e-6b696361645f,rev?*
G04 #@! TF.SameCoordinates,Original*
G04 #@! TF.FileFunction,Paste,Bot*
G04 #@! TF.FilePolarity,Positive*
%FSLAX46Y46*%
G04 Gerber Fmt 4.6, Leading zero omitted, Abs format (unit mm)*
G04 Created by KiCad (PCBNEW 5.1.5-52549c5~86~ubuntu19.10.1) date 2020-04-09 14:04:23*
%MOMM*%
%LPD*%
G04 APERTURE LIST*
%ADD10C,0.100000*%
%ADD11R,1.300000X1.700000*%
%ADD12R,0.900000X0.800000*%
G04 APERTURE END LIST*
D10*
G36*
X187602882Y-98890934D02*
G01*
X187626543Y-98894444D01*
X187649747Y-98900256D01*
X187672269Y-98908314D01*
X187693893Y-98918542D01*
X187714410Y-98930839D01*
X187733623Y-98945089D01*
X187751347Y-98961153D01*
X187767411Y-98978877D01*
X187781661Y-98998090D01*
X187793958Y-99018607D01*
X187804186Y-99040231D01*
X187812244Y-99062753D01*
X187818056Y-99085957D01*
X187821566Y-99109618D01*
X187822740Y-99133510D01*
X187822740Y-99621010D01*
X187821566Y-99644902D01*
X187818056Y-99668563D01*
X187812244Y-99691767D01*
X187804186Y-99714289D01*
X187793958Y-99735913D01*
X187781661Y-99756430D01*
X187767411Y-99775643D01*
X187751347Y-99793367D01*
X187733623Y-99809431D01*
X187714410Y-99823681D01*
X187693893Y-99835978D01*
X187672269Y-99846206D01*
X187649747Y-99854264D01*
X187626543Y-99860076D01*
X187602882Y-99863586D01*
X187578990Y-99864760D01*
X186666490Y-99864760D01*
X186642598Y-99863586D01*
X186618937Y-99860076D01*
X186595733Y-99854264D01*
X186573211Y-99846206D01*
X186551587Y-99835978D01*
X186531070Y-99823681D01*
X186511857Y-99809431D01*
X186494133Y-99793367D01*
X186478069Y-99775643D01*
X186463819Y-99756430D01*
X186451522Y-99735913D01*
X186441294Y-99714289D01*
X186433236Y-99691767D01*
X186427424Y-99668563D01*
X186423914Y-99644902D01*
X186422740Y-99621010D01*
X186422740Y-99133510D01*
X186423914Y-99109618D01*
X186427424Y-99085957D01*
X186433236Y-99062753D01*
X186441294Y-99040231D01*
X186451522Y-99018607D01*
X186463819Y-98998090D01*
X186478069Y-98978877D01*
X186494133Y-98961153D01*
X186511857Y-98945089D01*
X186531070Y-98930839D01*
X186551587Y-98918542D01*
X186573211Y-98908314D01*
X186595733Y-98900256D01*
X186618937Y-98894444D01*
X186642598Y-98890934D01*
X186666490Y-98889760D01*
X187578990Y-98889760D01*
X187602882Y-98890934D01*
G37*
G36*
X187602882Y-100765934D02*
G01*
X187626543Y-100769444D01*
X187649747Y-100775256D01*
X187672269Y-100783314D01*
X187693893Y-100793542D01*
X187714410Y-100805839D01*
X187733623Y-100820089D01*
X187751347Y-100836153D01*
X187767411Y-100853877D01*
X187781661Y-100873090D01*
X187793958Y-100893607D01*
X187804186Y-100915231D01*
X187812244Y-100937753D01*
X187818056Y-100960957D01*
X187821566Y-100984618D01*
X187822740Y-101008510D01*
X187822740Y-101496010D01*
X187821566Y-101519902D01*
X187818056Y-101543563D01*
X187812244Y-101566767D01*
X187804186Y-101589289D01*
X187793958Y-101610913D01*
X187781661Y-101631430D01*
X187767411Y-101650643D01*
X187751347Y-101668367D01*
X187733623Y-101684431D01*
X187714410Y-101698681D01*
X187693893Y-101710978D01*
X187672269Y-101721206D01*
X187649747Y-101729264D01*
X187626543Y-101735076D01*
X187602882Y-101738586D01*
X187578990Y-101739760D01*
X186666490Y-101739760D01*
X186642598Y-101738586D01*
X186618937Y-101735076D01*
X186595733Y-101729264D01*
X186573211Y-101721206D01*
X186551587Y-101710978D01*
X186531070Y-101698681D01*
X186511857Y-101684431D01*
X186494133Y-101668367D01*
X186478069Y-101650643D01*
X186463819Y-101631430D01*
X186451522Y-101610913D01*
X186441294Y-101589289D01*
X186433236Y-101566767D01*
X186427424Y-101543563D01*
X186423914Y-101519902D01*
X186422740Y-101496010D01*
X186422740Y-101008510D01*
X186423914Y-100984618D01*
X186427424Y-100960957D01*
X186433236Y-100937753D01*
X186441294Y-100915231D01*
X186451522Y-100893607D01*
X186463819Y-100873090D01*
X186478069Y-100853877D01*
X186494133Y-100836153D01*
X186511857Y-100820089D01*
X186531070Y-100805839D01*
X186551587Y-100793542D01*
X186573211Y-100783314D01*
X186595733Y-100775256D01*
X186618937Y-100769444D01*
X186642598Y-100765934D01*
X186666490Y-100764760D01*
X187578990Y-100764760D01*
X187602882Y-100765934D01*
G37*
G36*
X165272882Y-98890934D02*
G01*
X165296543Y-98894444D01*
X165319747Y-98900256D01*
X165342269Y-98908314D01*
X165363893Y-98918542D01*
X165384410Y-98930839D01*
X165403623Y-98945089D01*
X165421347Y-98961153D01*
X165437411Y-98978877D01*
X165451661Y-98998090D01*
X165463958Y-99018607D01*
X165474186Y-99040231D01*
X165482244Y-99062753D01*
X165488056Y-99085957D01*
X165491566Y-99109618D01*
X165492740Y-99133510D01*
X165492740Y-99621010D01*
X165491566Y-99644902D01*
X165488056Y-99668563D01*
X165482244Y-99691767D01*
X165474186Y-99714289D01*
X165463958Y-99735913D01*
X165451661Y-99756430D01*
X165437411Y-99775643D01*
X165421347Y-99793367D01*
X165403623Y-99809431D01*
X165384410Y-99823681D01*
X165363893Y-99835978D01*
X165342269Y-99846206D01*
X165319747Y-99854264D01*
X165296543Y-99860076D01*
X165272882Y-99863586D01*
X165248990Y-99864760D01*
X164336490Y-99864760D01*
X164312598Y-99863586D01*
X164288937Y-99860076D01*
X164265733Y-99854264D01*
X164243211Y-99846206D01*
X164221587Y-99835978D01*
X164201070Y-99823681D01*
X164181857Y-99809431D01*
X164164133Y-99793367D01*
X164148069Y-99775643D01*
X164133819Y-99756430D01*
X164121522Y-99735913D01*
X164111294Y-99714289D01*
X164103236Y-99691767D01*
X164097424Y-99668563D01*
X164093914Y-99644902D01*
X164092740Y-99621010D01*
X164092740Y-99133510D01*
X164093914Y-99109618D01*
X164097424Y-99085957D01*
X164103236Y-99062753D01*
X164111294Y-99040231D01*
X164121522Y-99018607D01*
X164133819Y-98998090D01*
X164148069Y-98978877D01*
X164164133Y-98961153D01*
X164181857Y-98945089D01*
X164201070Y-98930839D01*
X164221587Y-98918542D01*
X164243211Y-98908314D01*
X164265733Y-98900256D01*
X164288937Y-98894444D01*
X164312598Y-98890934D01*
X164336490Y-98889760D01*
X165248990Y-98889760D01*
X165272882Y-98890934D01*
G37*
G36*
X165272882Y-100765934D02*
G01*
X165296543Y-100769444D01*
X165319747Y-100775256D01*
X165342269Y-100783314D01*
X165363893Y-100793542D01*
X165384410Y-100805839D01*
X165403623Y-100820089D01*
X165421347Y-100836153D01*
X165437411Y-100853877D01*
X165451661Y-100873090D01*
X165463958Y-100893607D01*
X165474186Y-100915231D01*
X165482244Y-100937753D01*
X165488056Y-100960957D01*
X165491566Y-100984618D01*
X165492740Y-101008510D01*
X165492740Y-101496010D01*
X165491566Y-101519902D01*
X165488056Y-101543563D01*
X165482244Y-101566767D01*
X165474186Y-101589289D01*
X165463958Y-101610913D01*
X165451661Y-101631430D01*
X165437411Y-101650643D01*
X165421347Y-101668367D01*
X165403623Y-101684431D01*
X165384410Y-101698681D01*
X165363893Y-101710978D01*
X165342269Y-101721206D01*
X165319747Y-101729264D01*
X165296543Y-101735076D01*
X165272882Y-101738586D01*
X165248990Y-101739760D01*
X164336490Y-101739760D01*
X164312598Y-101738586D01*
X164288937Y-101735076D01*
X164265733Y-101729264D01*
X164243211Y-101721206D01*
X164221587Y-101710978D01*
X164201070Y-101698681D01*
X164181857Y-101684431D01*
X164164133Y-101668367D01*
X164148069Y-101650643D01*
X164133819Y-101631430D01*
X164121522Y-101610913D01*
X164111294Y-101589289D01*
X164103236Y-101566767D01*
X164097424Y-101543563D01*
X164093914Y-101519902D01*
X164092740Y-101496010D01*
X164092740Y-101008510D01*
X164093914Y-100984618D01*
X164097424Y-100960957D01*
X164103236Y-100937753D01*
X164111294Y-100915231D01*
X164121522Y-100893607D01*
X164133819Y-100873090D01*
X164148069Y-100853877D01*
X164164133Y-100836153D01*
X164181857Y-100820089D01*
X164201070Y-100805839D01*
X164221587Y-100793542D01*
X164243211Y-100783314D01*
X164265733Y-100775256D01*
X164288937Y-100769444D01*
X164312598Y-100765934D01*
X164336490Y-100764760D01*
X165248990Y-100764760D01*
X165272882Y-100765934D01*
G37*
G36*
X142942882Y-98890934D02*
G01*
X142966543Y-98894444D01*
X142989747Y-98900256D01*
X143012269Y-98908314D01*
X143033893Y-98918542D01*
X143054410Y-98930839D01*
X143073623Y-98945089D01*
X143091347Y-98961153D01*
X143107411Y-98978877D01*
X143121661Y-98998090D01*
X143133958Y-99018607D01*
X143144186Y-99040231D01*
X143152244Y-99062753D01*
X143158056Y-99085957D01*
X143161566Y-99109618D01*
X143162740Y-99133510D01*
X143162740Y-99621010D01*
X143161566Y-99644902D01*
X143158056Y-99668563D01*
X143152244Y-99691767D01*
X143144186Y-99714289D01*
X143133958Y-99735913D01*
X143121661Y-99756430D01*
X143107411Y-99775643D01*
X143091347Y-99793367D01*
X143073623Y-99809431D01*
X143054410Y-99823681D01*
X143033893Y-99835978D01*
X143012269Y-99846206D01*
X142989747Y-99854264D01*
X142966543Y-99860076D01*
X142942882Y-99863586D01*
X142918990Y-99864760D01*
X142006490Y-99864760D01*
X141982598Y-99863586D01*
X141958937Y-99860076D01*
X141935733Y-99854264D01*
X141913211Y-99846206D01*
X141891587Y-99835978D01*
X141871070Y-99823681D01*
X141851857Y-99809431D01*
X141834133Y-99793367D01*
X141818069Y-99775643D01*
X141803819Y-99756430D01*
X141791522Y-99735913D01*
X141781294Y-99714289D01*
X141773236Y-99691767D01*
X141767424Y-99668563D01*
X141763914Y-99644902D01*
X141762740Y-99621010D01*
X141762740Y-99133510D01*
X141763914Y-99109618D01*
X141767424Y-99085957D01*
X141773236Y-99062753D01*
X141781294Y-99040231D01*
X141791522Y-99018607D01*
X141803819Y-98998090D01*
X141818069Y-98978877D01*
X141834133Y-98961153D01*
X141851857Y-98945089D01*
X141871070Y-98930839D01*
X141891587Y-98918542D01*
X141913211Y-98908314D01*
X141935733Y-98900256D01*
X141958937Y-98894444D01*
X141982598Y-98890934D01*
X142006490Y-98889760D01*
X142918990Y-98889760D01*
X142942882Y-98890934D01*
G37*
G36*
X142942882Y-100765934D02*
G01*
X142966543Y-100769444D01*
X142989747Y-100775256D01*
X143012269Y-100783314D01*
X143033893Y-100793542D01*
X143054410Y-100805839D01*
X143073623Y-100820089D01*
X143091347Y-100836153D01*
X143107411Y-100853877D01*
X143121661Y-100873090D01*
X143133958Y-100893607D01*
X143144186Y-100915231D01*
X143152244Y-100937753D01*
X143158056Y-100960957D01*
X143161566Y-100984618D01*
X143162740Y-101008510D01*
X143162740Y-101496010D01*
X143161566Y-101519902D01*
X143158056Y-101543563D01*
X143152244Y-101566767D01*
X143144186Y-101589289D01*
X143133958Y-101610913D01*
X143121661Y-101631430D01*
X143107411Y-101650643D01*
X143091347Y-101668367D01*
X143073623Y-101684431D01*
X143054410Y-101698681D01*
X143033893Y-101710978D01*
X143012269Y-101721206D01*
X142989747Y-101729264D01*
X142966543Y-101735076D01*
X142942882Y-101738586D01*
X142918990Y-101739760D01*
X142006490Y-101739760D01*
X141982598Y-101738586D01*
X141958937Y-101735076D01*
X141935733Y-101729264D01*
X141913211Y-101721206D01*
X141891587Y-101710978D01*
X141871070Y-101698681D01*
X141851857Y-101684431D01*
X141834133Y-101668367D01*
X141818069Y-101650643D01*
X141803819Y-101631430D01*
X141791522Y-101610913D01*
X141781294Y-101589289D01*
X141773236Y-101566767D01*
X141767424Y-101543563D01*
X141763914Y-101519902D01*
X141762740Y-101496010D01*
X141762740Y-101008510D01*
X141763914Y-100984618D01*
X141767424Y-100960957D01*
X141773236Y-100937753D01*
X141781294Y-100915231D01*
X141791522Y-100893607D01*
X141803819Y-100873090D01*
X141818069Y-100853877D01*
X141834133Y-100836153D01*
X141851857Y-100820089D01*
X141871070Y-100805839D01*
X141891587Y-100793542D01*
X141913211Y-100783314D01*
X141935733Y-100775256D01*
X141958937Y-100769444D01*
X141982598Y-100765934D01*
X142006490Y-100764760D01*
X142918990Y-100764760D01*
X142942882Y-100765934D01*
G37*
G36*
X120612882Y-98890934D02*
G01*
X120636543Y-98894444D01*
X120659747Y-98900256D01*
X120682269Y-98908314D01*
X120703893Y-98918542D01*
X120724410Y-98930839D01*
X120743623Y-98945089D01*
X120761347Y-98961153D01*
X120777411Y-98978877D01*
X120791661Y-98998090D01*
X120803958Y-99018607D01*
X120814186Y-99040231D01*
X120822244Y-99062753D01*
X120828056Y-99085957D01*
X120831566Y-99109618D01*
X120832740Y-99133510D01*
X120832740Y-99621010D01*
X120831566Y-99644902D01*
X120828056Y-99668563D01*
X120822244Y-99691767D01*
X120814186Y-99714289D01*
X120803958Y-99735913D01*
X120791661Y-99756430D01*
X120777411Y-99775643D01*
X120761347Y-99793367D01*
X120743623Y-99809431D01*
X120724410Y-99823681D01*
X120703893Y-99835978D01*
X120682269Y-99846206D01*
X120659747Y-99854264D01*
X120636543Y-99860076D01*
X120612882Y-99863586D01*
X120588990Y-99864760D01*
X119676490Y-99864760D01*
X119652598Y-99863586D01*
X119628937Y-99860076D01*
X119605733Y-99854264D01*
X119583211Y-99846206D01*
X119561587Y-99835978D01*
X119541070Y-99823681D01*
X119521857Y-99809431D01*
X119504133Y-99793367D01*
X119488069Y-99775643D01*
X119473819Y-99756430D01*
X119461522Y-99735913D01*
X119451294Y-99714289D01*
X119443236Y-99691767D01*
X119437424Y-99668563D01*
X119433914Y-99644902D01*
X119432740Y-99621010D01*
X119432740Y-99133510D01*
X119433914Y-99109618D01*
X119437424Y-99085957D01*
X119443236Y-99062753D01*
X119451294Y-99040231D01*
X119461522Y-99018607D01*
X119473819Y-98998090D01*
X119488069Y-98978877D01*
X119504133Y-98961153D01*
X119521857Y-98945089D01*
X119541070Y-98930839D01*
X119561587Y-98918542D01*
X119583211Y-98908314D01*
X119605733Y-98900256D01*
X119628937Y-98894444D01*
X119652598Y-98890934D01*
X119676490Y-98889760D01*
X120588990Y-98889760D01*
X120612882Y-98890934D01*
G37*
G36*
X120612882Y-100765934D02*
G01*
X120636543Y-100769444D01*
X120659747Y-100775256D01*
X120682269Y-100783314D01*
X120703893Y-100793542D01*
X120724410Y-100805839D01*
X120743623Y-100820089D01*
X120761347Y-100836153D01*
X120777411Y-100853877D01*
X120791661Y-100873090D01*
X120803958Y-100893607D01*
X120814186Y-100915231D01*
X120822244Y-100937753D01*
X120828056Y-100960957D01*
X120831566Y-100984618D01*
X120832740Y-101008510D01*
X120832740Y-101496010D01*
X120831566Y-101519902D01*
X120828056Y-101543563D01*
X120822244Y-101566767D01*
X120814186Y-101589289D01*
X120803958Y-101610913D01*
X120791661Y-101631430D01*
X120777411Y-101650643D01*
X120761347Y-101668367D01*
X120743623Y-101684431D01*
X120724410Y-101698681D01*
X120703893Y-101710978D01*
X120682269Y-101721206D01*
X120659747Y-101729264D01*
X120636543Y-101735076D01*
X120612882Y-101738586D01*
X120588990Y-101739760D01*
X119676490Y-101739760D01*
X119652598Y-101738586D01*
X119628937Y-101735076D01*
X119605733Y-101729264D01*
X119583211Y-101721206D01*
X119561587Y-101710978D01*
X119541070Y-101698681D01*
X119521857Y-101684431D01*
X119504133Y-101668367D01*
X119488069Y-101650643D01*
X119473819Y-101631430D01*
X119461522Y-101610913D01*
X119451294Y-101589289D01*
X119443236Y-101566767D01*
X119437424Y-101543563D01*
X119433914Y-101519902D01*
X119432740Y-101496010D01*
X119432740Y-101008510D01*
X119433914Y-100984618D01*
X119437424Y-100960957D01*
X119443236Y-100937753D01*
X119451294Y-100915231D01*
X119461522Y-100893607D01*
X119473819Y-100873090D01*
X119488069Y-100853877D01*
X119504133Y-100836153D01*
X119521857Y-100820089D01*
X119541070Y-100805839D01*
X119561587Y-100793542D01*
X119583211Y-100783314D01*
X119605733Y-100775256D01*
X119628937Y-100769444D01*
X119652598Y-100765934D01*
X119676490Y-100764760D01*
X120588990Y-100764760D01*
X120612882Y-100765934D01*
G37*
G36*
X98282882Y-98890934D02*
G01*
X98306543Y-98894444D01*
X98329747Y-98900256D01*
X98352269Y-98908314D01*
X98373893Y-98918542D01*
X98394410Y-98930839D01*
X98413623Y-98945089D01*
X98431347Y-98961153D01*
X98447411Y-98978877D01*
X98461661Y-98998090D01*
X98473958Y-99018607D01*
X98484186Y-99040231D01*
X98492244Y-99062753D01*
X98498056Y-99085957D01*
X98501566Y-99109618D01*
X98502740Y-99133510D01*
X98502740Y-99621010D01*
X98501566Y-99644902D01*
X98498056Y-99668563D01*
X98492244Y-99691767D01*
X98484186Y-99714289D01*
X98473958Y-99735913D01*
X98461661Y-99756430D01*
X98447411Y-99775643D01*
X98431347Y-99793367D01*
X98413623Y-99809431D01*
X98394410Y-99823681D01*
X98373893Y-99835978D01*
X98352269Y-99846206D01*
X98329747Y-99854264D01*
X98306543Y-99860076D01*
X98282882Y-99863586D01*
X98258990Y-99864760D01*
X97346490Y-99864760D01*
X97322598Y-99863586D01*
X97298937Y-99860076D01*
X97275733Y-99854264D01*
X97253211Y-99846206D01*
X97231587Y-99835978D01*
X97211070Y-99823681D01*
X97191857Y-99809431D01*
X97174133Y-99793367D01*
X97158069Y-99775643D01*
X97143819Y-99756430D01*
X97131522Y-99735913D01*
X97121294Y-99714289D01*
X97113236Y-99691767D01*
X97107424Y-99668563D01*
X97103914Y-99644902D01*
X97102740Y-99621010D01*
X97102740Y-99133510D01*
X97103914Y-99109618D01*
X97107424Y-99085957D01*
X97113236Y-99062753D01*
X97121294Y-99040231D01*
X97131522Y-99018607D01*
X97143819Y-98998090D01*
X97158069Y-98978877D01*
X97174133Y-98961153D01*
X97191857Y-98945089D01*
X97211070Y-98930839D01*
X97231587Y-98918542D01*
X97253211Y-98908314D01*
X97275733Y-98900256D01*
X97298937Y-98894444D01*
X97322598Y-98890934D01*
X97346490Y-98889760D01*
X98258990Y-98889760D01*
X98282882Y-98890934D01*
G37*
G36*
X98282882Y-100765934D02*
G01*
X98306543Y-100769444D01*
X98329747Y-100775256D01*
X98352269Y-100783314D01*
X98373893Y-100793542D01*
X98394410Y-100805839D01*
X98413623Y-100820089D01*
X98431347Y-100836153D01*
X98447411Y-100853877D01*
X98461661Y-100873090D01*
X98473958Y-100893607D01*
X98484186Y-100915231D01*
X98492244Y-100937753D01*
X98498056Y-100960957D01*
X98501566Y-100984618D01*
X98502740Y-101008510D01*
X98502740Y-101496010D01*
X98501566Y-101519902D01*
X98498056Y-101543563D01*
X98492244Y-101566767D01*
X98484186Y-101589289D01*
X98473958Y-101610913D01*
X98461661Y-101631430D01*
X98447411Y-101650643D01*
X98431347Y-101668367D01*
X98413623Y-101684431D01*
X98394410Y-101698681D01*
X98373893Y-101710978D01*
X98352269Y-101721206D01*
X98329747Y-101729264D01*
X98306543Y-101735076D01*
X98282882Y-101738586D01*
X98258990Y-101739760D01*
X97346490Y-101739760D01*
X97322598Y-101738586D01*
X97298937Y-101735076D01*
X97275733Y-101729264D01*
X97253211Y-101721206D01*
X97231587Y-101710978D01*
X97211070Y-101698681D01*
X97191857Y-101684431D01*
X97174133Y-101668367D01*
X97158069Y-101650643D01*
X97143819Y-101631430D01*
X97131522Y-101610913D01*
X97121294Y-101589289D01*
X97113236Y-101566767D01*
X97107424Y-101543563D01*
X97103914Y-101519902D01*
X97102740Y-101496010D01*
X97102740Y-101008510D01*
X97103914Y-100984618D01*
X97107424Y-100960957D01*
X97113236Y-100937753D01*
X97121294Y-100915231D01*
X97131522Y-100893607D01*
X97143819Y-100873090D01*
X97158069Y-100853877D01*
X97174133Y-100836153D01*
X97191857Y-100820089D01*
X97211070Y-100805839D01*
X97231587Y-100793542D01*
X97253211Y-100783314D01*
X97275733Y-100775256D01*
X97298937Y-100769444D01*
X97322598Y-100765934D01*
X97346490Y-100764760D01*
X98258990Y-100764760D01*
X98282882Y-100765934D01*
G37*
G36*
X75952882Y-98890934D02*
G01*
X75976543Y-98894444D01*
X75999747Y-98900256D01*
X76022269Y-98908314D01*
X76043893Y-98918542D01*
X76064410Y-98930839D01*
X76083623Y-98945089D01*
X76101347Y-98961153D01*
X76117411Y-98978877D01*
X76131661Y-98998090D01*
X76143958Y-99018607D01*
X76154186Y-99040231D01*
X76162244Y-99062753D01*
X76168056Y-99085957D01*
X76171566Y-99109618D01*
X76172740Y-99133510D01*
X76172740Y-99621010D01*
X76171566Y-99644902D01*
X76168056Y-99668563D01*
X76162244Y-99691767D01*
X76154186Y-99714289D01*
X76143958Y-99735913D01*
X76131661Y-99756430D01*
X76117411Y-99775643D01*
X76101347Y-99793367D01*
X76083623Y-99809431D01*
X76064410Y-99823681D01*
X76043893Y-99835978D01*
X76022269Y-99846206D01*
X75999747Y-99854264D01*
X75976543Y-99860076D01*
X75952882Y-99863586D01*
X75928990Y-99864760D01*
X75016490Y-99864760D01*
X74992598Y-99863586D01*
X74968937Y-99860076D01*
X74945733Y-99854264D01*
X74923211Y-99846206D01*
X74901587Y-99835978D01*
X74881070Y-99823681D01*
X74861857Y-99809431D01*
X74844133Y-99793367D01*
X74828069Y-99775643D01*
X74813819Y-99756430D01*
X74801522Y-99735913D01*
X74791294Y-99714289D01*
X74783236Y-99691767D01*
X74777424Y-99668563D01*
X74773914Y-99644902D01*
X74772740Y-99621010D01*
X74772740Y-99133510D01*
X74773914Y-99109618D01*
X74777424Y-99085957D01*
X74783236Y-99062753D01*
X74791294Y-99040231D01*
X74801522Y-99018607D01*
X74813819Y-98998090D01*
X74828069Y-98978877D01*
X74844133Y-98961153D01*
X74861857Y-98945089D01*
X74881070Y-98930839D01*
X74901587Y-98918542D01*
X74923211Y-98908314D01*
X74945733Y-98900256D01*
X74968937Y-98894444D01*
X74992598Y-98890934D01*
X75016490Y-98889760D01*
X75928990Y-98889760D01*
X75952882Y-98890934D01*
G37*
G36*
X75952882Y-100765934D02*
G01*
X75976543Y-100769444D01*
X75999747Y-100775256D01*
X76022269Y-100783314D01*
X76043893Y-100793542D01*
X76064410Y-100805839D01*
X76083623Y-100820089D01*
X76101347Y-100836153D01*
X76117411Y-100853877D01*
X76131661Y-100873090D01*
X76143958Y-100893607D01*
X76154186Y-100915231D01*
X76162244Y-100937753D01*
X76168056Y-100960957D01*
X76171566Y-100984618D01*
X76172740Y-101008510D01*
X76172740Y-101496010D01*
X76171566Y-101519902D01*
X76168056Y-101543563D01*
X76162244Y-101566767D01*
X76154186Y-101589289D01*
X76143958Y-101610913D01*
X76131661Y-101631430D01*
X76117411Y-101650643D01*
X76101347Y-101668367D01*
X76083623Y-101684431D01*
X76064410Y-101698681D01*
X76043893Y-101710978D01*
X76022269Y-101721206D01*
X75999747Y-101729264D01*
X75976543Y-101735076D01*
X75952882Y-101738586D01*
X75928990Y-101739760D01*
X75016490Y-101739760D01*
X74992598Y-101738586D01*
X74968937Y-101735076D01*
X74945733Y-101729264D01*
X74923211Y-101721206D01*
X74901587Y-101710978D01*
X74881070Y-101698681D01*
X74861857Y-101684431D01*
X74844133Y-101668367D01*
X74828069Y-101650643D01*
X74813819Y-101631430D01*
X74801522Y-101610913D01*
X74791294Y-101589289D01*
X74783236Y-101566767D01*
X74777424Y-101543563D01*
X74773914Y-101519902D01*
X74772740Y-101496010D01*
X74772740Y-101008510D01*
X74773914Y-100984618D01*
X74777424Y-100960957D01*
X74783236Y-100937753D01*
X74791294Y-100915231D01*
X74801522Y-100893607D01*
X74813819Y-100873090D01*
X74828069Y-100853877D01*
X74844133Y-100836153D01*
X74861857Y-100820089D01*
X74881070Y-100805839D01*
X74901587Y-100793542D01*
X74923211Y-100783314D01*
X74945733Y-100775256D01*
X74968937Y-100769444D01*
X74992598Y-100765934D01*
X75016490Y-100764760D01*
X75928990Y-100764760D01*
X75952882Y-100765934D01*
G37*
G36*
X53622882Y-98890934D02*
G01*
X53646543Y-98894444D01*
X53669747Y-98900256D01*
X53692269Y-98908314D01*
X53713893Y-98918542D01*
X53734410Y-98930839D01*
X53753623Y-98945089D01*
X53771347Y-98961153D01*
X53787411Y-98978877D01*
X53801661Y-98998090D01*
X53813958Y-99018607D01*
X53824186Y-99040231D01*
X53832244Y-99062753D01*
X53838056Y-99085957D01*
X53841566Y-99109618D01*
X53842740Y-99133510D01*
X53842740Y-99621010D01*
X53841566Y-99644902D01*
X53838056Y-99668563D01*
X53832244Y-99691767D01*
X53824186Y-99714289D01*
X53813958Y-99735913D01*
X53801661Y-99756430D01*
X53787411Y-99775643D01*
X53771347Y-99793367D01*
X53753623Y-99809431D01*
X53734410Y-99823681D01*
X53713893Y-99835978D01*
X53692269Y-99846206D01*
X53669747Y-99854264D01*
X53646543Y-99860076D01*
X53622882Y-99863586D01*
X53598990Y-99864760D01*
X52686490Y-99864760D01*
X52662598Y-99863586D01*
X52638937Y-99860076D01*
X52615733Y-99854264D01*
X52593211Y-99846206D01*
X52571587Y-99835978D01*
X52551070Y-99823681D01*
X52531857Y-99809431D01*
X52514133Y-99793367D01*
X52498069Y-99775643D01*
X52483819Y-99756430D01*
X52471522Y-99735913D01*
X52461294Y-99714289D01*
X52453236Y-99691767D01*
X52447424Y-99668563D01*
X52443914Y-99644902D01*
X52442740Y-99621010D01*
X52442740Y-99133510D01*
X52443914Y-99109618D01*
X52447424Y-99085957D01*
X52453236Y-99062753D01*
X52461294Y-99040231D01*
X52471522Y-99018607D01*
X52483819Y-98998090D01*
X52498069Y-98978877D01*
X52514133Y-98961153D01*
X52531857Y-98945089D01*
X52551070Y-98930839D01*
X52571587Y-98918542D01*
X52593211Y-98908314D01*
X52615733Y-98900256D01*
X52638937Y-98894444D01*
X52662598Y-98890934D01*
X52686490Y-98889760D01*
X53598990Y-98889760D01*
X53622882Y-98890934D01*
G37*
G36*
X53622882Y-100765934D02*
G01*
X53646543Y-100769444D01*
X53669747Y-100775256D01*
X53692269Y-100783314D01*
X53713893Y-100793542D01*
X53734410Y-100805839D01*
X53753623Y-100820089D01*
X53771347Y-100836153D01*
X53787411Y-100853877D01*
X53801661Y-100873090D01*
X53813958Y-100893607D01*
X53824186Y-100915231D01*
X53832244Y-100937753D01*
X53838056Y-100960957D01*
X53841566Y-100984618D01*
X53842740Y-101008510D01*
X53842740Y-101496010D01*
X53841566Y-101519902D01*
X53838056Y-101543563D01*
X53832244Y-101566767D01*
X53824186Y-101589289D01*
X53813958Y-101610913D01*
X53801661Y-101631430D01*
X53787411Y-101650643D01*
X53771347Y-101668367D01*
X53753623Y-101684431D01*
X53734410Y-101698681D01*
X53713893Y-101710978D01*
X53692269Y-101721206D01*
X53669747Y-101729264D01*
X53646543Y-101735076D01*
X53622882Y-101738586D01*
X53598990Y-101739760D01*
X52686490Y-101739760D01*
X52662598Y-101738586D01*
X52638937Y-101735076D01*
X52615733Y-101729264D01*
X52593211Y-101721206D01*
X52571587Y-101710978D01*
X52551070Y-101698681D01*
X52531857Y-101684431D01*
X52514133Y-101668367D01*
X52498069Y-101650643D01*
X52483819Y-101631430D01*
X52471522Y-101610913D01*
X52461294Y-101589289D01*
X52453236Y-101566767D01*
X52447424Y-101543563D01*
X52443914Y-101519902D01*
X52442740Y-101496010D01*
X52442740Y-101008510D01*
X52443914Y-100984618D01*
X52447424Y-100960957D01*
X52453236Y-100937753D01*
X52461294Y-100915231D01*
X52471522Y-100893607D01*
X52483819Y-100873090D01*
X52498069Y-100853877D01*
X52514133Y-100836153D01*
X52531857Y-100820089D01*
X52551070Y-100805839D01*
X52571587Y-100793542D01*
X52593211Y-100783314D01*
X52615733Y-100775256D01*
X52638937Y-100769444D01*
X52662598Y-100765934D01*
X52686490Y-100764760D01*
X53598990Y-100764760D01*
X53622882Y-100765934D01*
G37*
D11*
X187122740Y-97330260D03*
X190622740Y-97330260D03*
X164792740Y-97330260D03*
X168292740Y-97330260D03*
X142462740Y-97330260D03*
X145962740Y-97330260D03*
X120132740Y-97330260D03*
X123632740Y-97330260D03*
X97802740Y-97330260D03*
X101302740Y-97330260D03*
X75472740Y-97330260D03*
X78972740Y-97330260D03*
X53142740Y-97330260D03*
X56642740Y-97330260D03*
D12*
X189599240Y-101267260D03*
X189599240Y-99367260D03*
X191599240Y-100317260D03*
X167269240Y-101267260D03*
X167269240Y-99367260D03*
X169269240Y-100317260D03*
X144939240Y-101267260D03*
X144939240Y-99367260D03*
X146939240Y-100317260D03*
X122609240Y-101267260D03*
X122609240Y-99367260D03*
X124609240Y-100317260D03*
X100279240Y-101267260D03*
X100279240Y-99367260D03*
X102279240Y-100317260D03*
X77949240Y-101267260D03*
X77949240Y-99367260D03*
X79949240Y-100317260D03*
X55619240Y-101267260D03*
X55619240Y-99367260D03*
X57619240Y-100317260D03*
D10*
G36*
X31292882Y-100765934D02*
G01*
X31316543Y-100769444D01*
X31339747Y-100775256D01*
X31362269Y-100783314D01*
X31383893Y-100793542D01*
X31404410Y-100805839D01*
X31423623Y-100820089D01*
X31441347Y-100836153D01*
X31457411Y-100853877D01*
X31471661Y-100873090D01*
X31483958Y-100893607D01*
X31494186Y-100915231D01*
X31502244Y-100937753D01*
X31508056Y-100960957D01*
X31511566Y-100984618D01*
X31512740Y-101008510D01*
X31512740Y-101496010D01*
X31511566Y-101519902D01*
X31508056Y-101543563D01*
X31502244Y-101566767D01*
X31494186Y-101589289D01*
X31483958Y-101610913D01*
X31471661Y-101631430D01*
X31457411Y-101650643D01*
X31441347Y-101668367D01*
X31423623Y-101684431D01*
X31404410Y-101698681D01*
X31383893Y-101710978D01*
X31362269Y-101721206D01*
X31339747Y-101729264D01*
X31316543Y-101735076D01*
X31292882Y-101738586D01*
X31268990Y-101739760D01*
X30356490Y-101739760D01*
X30332598Y-101738586D01*
X30308937Y-101735076D01*
X30285733Y-101729264D01*
X30263211Y-101721206D01*
X30241587Y-101710978D01*
X30221070Y-101698681D01*
X30201857Y-101684431D01*
X30184133Y-101668367D01*
X30168069Y-101650643D01*
X30153819Y-101631430D01*
X30141522Y-101610913D01*
X30131294Y-101589289D01*
X30123236Y-101566767D01*
X30117424Y-101543563D01*
X30113914Y-101519902D01*
X30112740Y-101496010D01*
X30112740Y-101008510D01*
X30113914Y-100984618D01*
X30117424Y-100960957D01*
X30123236Y-100937753D01*
X30131294Y-100915231D01*
X30141522Y-100893607D01*
X30153819Y-100873090D01*
X30168069Y-100853877D01*
X30184133Y-100836153D01*
X30201857Y-100820089D01*
X30221070Y-100805839D01*
X30241587Y-100793542D01*
X30263211Y-100783314D01*
X30285733Y-100775256D01*
X30308937Y-100769444D01*
X30332598Y-100765934D01*
X30356490Y-100764760D01*
X31268990Y-100764760D01*
X31292882Y-100765934D01*
G37*
G36*
X31292882Y-98890934D02*
G01*
X31316543Y-98894444D01*
X31339747Y-98900256D01*
X31362269Y-98908314D01*
X31383893Y-98918542D01*
X31404410Y-98930839D01*
X31423623Y-98945089D01*
X31441347Y-98961153D01*
X31457411Y-98978877D01*
X31471661Y-98998090D01*
X31483958Y-99018607D01*
X31494186Y-99040231D01*
X31502244Y-99062753D01*
X31508056Y-99085957D01*
X31511566Y-99109618D01*
X31512740Y-99133510D01*
X31512740Y-99621010D01*
X31511566Y-99644902D01*
X31508056Y-99668563D01*
X31502244Y-99691767D01*
X31494186Y-99714289D01*
X31483958Y-99735913D01*
X31471661Y-99756430D01*
X31457411Y-99775643D01*
X31441347Y-99793367D01*
X31423623Y-99809431D01*
X31404410Y-99823681D01*
X31383893Y-99835978D01*
X31362269Y-99846206D01*
X31339747Y-99854264D01*
X31316543Y-99860076D01*
X31292882Y-99863586D01*
X31268990Y-99864760D01*
X30356490Y-99864760D01*
X30332598Y-99863586D01*
X30308937Y-99860076D01*
X30285733Y-99854264D01*
X30263211Y-99846206D01*
X30241587Y-99835978D01*
X30221070Y-99823681D01*
X30201857Y-99809431D01*
X30184133Y-99793367D01*
X30168069Y-99775643D01*
X30153819Y-99756430D01*
X30141522Y-99735913D01*
X30131294Y-99714289D01*
X30123236Y-99691767D01*
X30117424Y-99668563D01*
X30113914Y-99644902D01*
X30112740Y-99621010D01*
X30112740Y-99133510D01*
X30113914Y-99109618D01*
X30117424Y-99085957D01*
X30123236Y-99062753D01*
X30131294Y-99040231D01*
X30141522Y-99018607D01*
X30153819Y-98998090D01*
X30168069Y-98978877D01*
X30184133Y-98961153D01*
X30201857Y-98945089D01*
X30221070Y-98930839D01*
X30241587Y-98918542D01*
X30263211Y-98908314D01*
X30285733Y-98900256D01*
X30308937Y-98894444D01*
X30332598Y-98890934D01*
X30356490Y-98889760D01*
X31268990Y-98889760D01*
X31292882Y-98890934D01*
G37*
D11*
X34312740Y-97330260D03*
X30812740Y-97330260D03*
D12*
X35289240Y-100317260D03*
X33289240Y-99367260D03*
X33289240Y-101267260D03*
M02*
