M48
; DRILL file {KiCad 5.1.5-52549c5~86~ubuntu19.10.1} date Thu 09 Apr 2020 14:04:25 CEST
; FORMAT={-:-/ absolute / inch / decimal}
; #@! TF.CreationDate,2020-04-09T14:04:25+02:00
; #@! TF.GenerationSoftware,Kicad,Pcbnew,5.1.5-52549c5~86~ubuntu19.10.1
; #@! TF.FileFunction,NonPlated,1,2,NPTH
FMAT,2
INCH
T1C0.0118
T2C0.0827
%
G90
G05
T1
X4.25Y-3.0334
X4.25Y-3.0834
X4.25Y-3.1334
X4.31Y-3.0334
X4.31Y-3.0834
X4.31Y-3.1334
X6.0081Y-4.0433
X6.0081Y-4.0933
X6.0081Y-4.1433
X6.0681Y-4.0433
X6.0681Y-4.0933
X6.0681Y-4.1433
X3.3709Y-3.0334
X3.3709Y-3.0834
X3.3709Y-3.1334
X3.4309Y-3.0334
X3.4309Y-3.0834
X3.4309Y-3.1334
X2.4915Y-4.0433
X2.4915Y-4.0933
X2.4915Y-4.1433
X2.5515Y-4.0433
X2.5515Y-4.0933
X2.5515Y-4.1433
X3.3707Y-4.0433
X3.3707Y-4.0933
X3.3707Y-4.1433
X3.4307Y-4.0433
X3.4307Y-4.0933
X3.4307Y-4.1433
X4.2498Y-4.0433
X4.2498Y-4.0933
X4.2498Y-4.1433
X4.3098Y-4.0433
X4.3098Y-4.0933
X4.3098Y-4.1433
X1.6124Y-4.0433
X1.6124Y-4.0933
X1.6124Y-4.1433
X1.6724Y-4.0433
X1.6724Y-4.0933
X1.6724Y-4.1433
X1.6126Y-3.0334
X1.6126Y-3.0834
X1.6126Y-3.1334
X1.6726Y-3.0334
X1.6726Y-3.0834
X1.6726Y-3.1334
X6.8872Y-4.0433
X6.8872Y-4.0933
X6.8872Y-4.1433
X6.9472Y-4.0433
X6.9472Y-4.0933
X6.9472Y-4.1433
X5.1291Y-3.0334
X5.1291Y-3.0834
X5.1291Y-3.1334
X5.1891Y-3.0334
X5.1891Y-3.0834
X5.1891Y-3.1334
X5.1289Y-4.0433
X5.1289Y-4.0933
X5.1289Y-4.1433
X5.1889Y-4.0433
X5.1889Y-4.0933
X5.1889Y-4.1433
X6.8874Y-3.0334
X6.8874Y-3.0834
X6.8874Y-3.1334
X6.9474Y-3.0334
X6.9474Y-3.0834
X6.9474Y-3.1334
X2.4917Y-3.0334
X2.4917Y-3.0834
X2.4917Y-3.1334
X2.5517Y-3.0334
X2.5517Y-3.0834
X2.5517Y-3.1334
X6.0083Y-3.0334
X6.0083Y-3.0834
X6.0083Y-3.1334
X6.0683Y-3.0334
X6.0683Y-3.0834
X6.0683Y-3.1334
T2
X7.057Y-4.0644
X6.7929Y-3.1794
X2.6614Y-4.0644
X7.672Y-3.1794
X1.5181Y-3.1794
X7.672Y-4.0644
X3.5405Y-4.0644
X5.0346Y-3.1794
X4.4196Y-4.0644
X3.2764Y-3.1794
X5.0346Y-4.0644
X5.2988Y-4.0644
X6.1779Y-4.0644
X1.5181Y-4.0644
X4.1555Y-3.1794
X6.7929Y-4.0644
X3.2764Y-4.0644
X4.1555Y-4.0644
X1.7822Y-4.0644
X5.9138Y-4.0644
X2.3972Y-4.0644
X5.9138Y-3.1794
X2.3972Y-3.1794
X0.9031Y-4.0644
T0
M30
