G04 #@! TF.GenerationSoftware,KiCad,Pcbnew,5.1.5-52549c5~86~ubuntu19.10.1*
G04 #@! TF.CreationDate,2020-04-09T14:04:23+02:00*
G04 #@! TF.ProjectId,multi_CH,6d756c74-695f-4434-982e-6b696361645f,rev?*
G04 #@! TF.SameCoordinates,Original*
G04 #@! TF.FileFunction,Profile,NP*
%FSLAX46Y46*%
G04 Gerber Fmt 4.6, Leading zero omitted, Abs format (unit mm)*
G04 Created by KiCad (PCBNEW 5.1.5-52549c5~86~ubuntu19.10.1) date 2020-04-09 14:04:23*
%MOMM*%
%LPD*%
G04 APERTURE LIST*
%ADD10C,0.050000*%
G04 APERTURE END LIST*
D10*
X176700260Y-101959260D02*
G75*
G02X174698740Y-101959260I-1000760J0D01*
G01*
X154370260Y-101959260D02*
G75*
G02X152368740Y-101959260I-1000760J0D01*
G01*
X132040260Y-101959260D02*
G75*
G02X130038740Y-101959260I-1000760J0D01*
G01*
X109710260Y-101959260D02*
G75*
G02X107708740Y-101959260I-1000760J0D01*
G01*
X87380260Y-101959260D02*
G75*
G02X85378740Y-101959260I-1000760J0D01*
G01*
X65050260Y-101959260D02*
G75*
G02X63048740Y-101959260I-1000760J0D01*
G01*
X42720260Y-101959260D02*
G75*
G02X40718740Y-101959260I-1000760J0D01*
G01*
X174701280Y-80318760D02*
G75*
G02X176702800Y-80318760I1000760J0D01*
G01*
X152371280Y-80318760D02*
G75*
G02X154372800Y-80318760I1000760J0D01*
G01*
X130041280Y-80318760D02*
G75*
G02X132042800Y-80318760I1000760J0D01*
G01*
X107711280Y-80318760D02*
G75*
G02X109712800Y-80318760I1000760J0D01*
G01*
X85381280Y-80318760D02*
G75*
G02X87382800Y-80318760I1000760J0D01*
G01*
X63051280Y-80318760D02*
G75*
G02X65052800Y-80318760I1000760J0D01*
G01*
X40721280Y-80318760D02*
G75*
G02X42722800Y-80318760I1000760J0D01*
G01*
X174690260Y-105966260D02*
G75*
G02X176708740Y-105966260I1009240J0D01*
G01*
X152360260Y-105966260D02*
G75*
G02X154378740Y-105966260I1009240J0D01*
G01*
X130030260Y-105966260D02*
G75*
G02X132048740Y-105966260I1009240J0D01*
G01*
X107700260Y-105966260D02*
G75*
G02X109718740Y-105966260I1009240J0D01*
G01*
X85370260Y-105966260D02*
G75*
G02X87388740Y-105966260I1009240J0D01*
G01*
X63040260Y-105966260D02*
G75*
G02X65058740Y-105966260I1009240J0D01*
G01*
X40710260Y-105966260D02*
G75*
G02X42728740Y-105966260I1009240J0D01*
G01*
X176700260Y-101959260D02*
X176702800Y-80318760D01*
X154370260Y-101959260D02*
X154372800Y-80318760D01*
X132040260Y-101959260D02*
X132042800Y-80318760D01*
X109710260Y-101959260D02*
X109712800Y-80318760D01*
X87380260Y-101959260D02*
X87382800Y-80318760D01*
X65050260Y-101959260D02*
X65052800Y-80318760D01*
X42720260Y-101959260D02*
X42722800Y-80318760D01*
X176700260Y-76311760D02*
G75*
G02X174698740Y-76311760I-1000760J0D01*
G01*
X154370260Y-76311760D02*
G75*
G02X152368740Y-76311760I-1000760J0D01*
G01*
X132040260Y-76311760D02*
G75*
G02X130038740Y-76311760I-1000760J0D01*
G01*
X109710260Y-76311760D02*
G75*
G02X107708740Y-76311760I-1000760J0D01*
G01*
X87380260Y-76311760D02*
G75*
G02X85378740Y-76311760I-1000760J0D01*
G01*
X65050260Y-76311760D02*
G75*
G02X63048740Y-76311760I-1000760J0D01*
G01*
X42720260Y-76311760D02*
G75*
G02X40718740Y-76311760I-1000760J0D01*
G01*
X197028740Y-76311760D02*
X197028740Y-105966260D01*
X174701280Y-80318760D02*
X174698740Y-101959260D01*
X152371280Y-80318760D02*
X152368740Y-101959260D01*
X130041280Y-80318760D02*
X130038740Y-101959260D01*
X107711280Y-80318760D02*
X107708740Y-101959260D01*
X85381280Y-80318760D02*
X85378740Y-101959260D01*
X63051280Y-80318760D02*
X63048740Y-101959260D01*
X197028740Y-105966260D02*
X176708740Y-105966260D01*
X174690260Y-105966260D02*
X154378740Y-105966260D01*
X152360260Y-105966260D02*
X132048740Y-105966260D01*
X130030260Y-105966260D02*
X109718740Y-105966260D01*
X107700260Y-105966260D02*
X87388740Y-105966260D01*
X85370260Y-105966260D02*
X65058740Y-105966260D01*
X63040260Y-105966260D02*
X42728740Y-105966260D01*
X176700260Y-76311760D02*
X197028740Y-76311760D01*
X154370260Y-76311760D02*
X174698740Y-76311760D01*
X132040260Y-76311760D02*
X152368740Y-76311760D01*
X109710260Y-76311760D02*
X130038740Y-76311760D01*
X87380260Y-76311760D02*
X107708740Y-76311760D01*
X65050260Y-76311760D02*
X85378740Y-76311760D01*
X42720260Y-76311760D02*
X63048740Y-76311760D01*
X20390260Y-105966260D02*
X20390260Y-76311760D01*
X40721280Y-80318760D02*
X40718740Y-101959260D01*
X40710260Y-105966260D02*
X20390260Y-105966260D01*
X20390260Y-76311760D02*
X40718740Y-76311760D01*
M02*
