G04 #@! TF.GenerationSoftware,KiCad,Pcbnew,5.1.5-52549c5~86~ubuntu19.10.1*
G04 #@! TF.CreationDate,2020-04-09T14:04:23+02:00*
G04 #@! TF.ProjectId,multi_CH,6d756c74-695f-4434-982e-6b696361645f,rev?*
G04 #@! TF.SameCoordinates,Original*
G04 #@! TF.FileFunction,Soldermask,Top*
G04 #@! TF.FilePolarity,Negative*
%FSLAX46Y46*%
G04 Gerber Fmt 4.6, Leading zero omitted, Abs format (unit mm)*
G04 Created by KiCad (PCBNEW 5.1.5-52549c5~86~ubuntu19.10.1) date 2020-04-09 14:04:23*
%MOMM*%
%LPD*%
G04 APERTURE LIST*
%ADD10C,0.100000*%
G04 APERTURE END LIST*
D10*
G36*
X176517586Y-105046543D02*
G01*
X176517587Y-105046543D01*
X176517590Y-105046544D01*
X176554169Y-105061696D01*
X176587090Y-105083693D01*
X176615087Y-105111690D01*
X176637084Y-105144611D01*
X176652236Y-105181190D01*
X176659960Y-105220023D01*
X176659960Y-105259617D01*
X176652236Y-105298450D01*
X176637084Y-105335029D01*
X176615087Y-105367950D01*
X176587090Y-105395947D01*
X176554169Y-105417944D01*
X176517590Y-105433096D01*
X176517587Y-105433097D01*
X176517586Y-105433097D01*
X176478758Y-105440820D01*
X176439162Y-105440820D01*
X176400334Y-105433097D01*
X176400333Y-105433097D01*
X176400330Y-105433096D01*
X176363751Y-105417944D01*
X176330830Y-105395947D01*
X176302833Y-105367950D01*
X176280836Y-105335029D01*
X176265684Y-105298450D01*
X176257960Y-105259617D01*
X176257960Y-105220023D01*
X176265684Y-105181190D01*
X176280836Y-105144611D01*
X176302833Y-105111690D01*
X176330830Y-105083693D01*
X176363751Y-105061696D01*
X176400330Y-105046544D01*
X176400333Y-105046543D01*
X176400334Y-105046543D01*
X176439162Y-105038820D01*
X176478758Y-105038820D01*
X176517586Y-105046543D01*
G37*
G36*
X174993586Y-105046543D02*
G01*
X174993587Y-105046543D01*
X174993590Y-105046544D01*
X175030169Y-105061696D01*
X175063090Y-105083693D01*
X175091087Y-105111690D01*
X175113084Y-105144611D01*
X175128236Y-105181190D01*
X175135960Y-105220023D01*
X175135960Y-105259617D01*
X175128236Y-105298450D01*
X175113084Y-105335029D01*
X175091087Y-105367950D01*
X175063090Y-105395947D01*
X175030169Y-105417944D01*
X174993590Y-105433096D01*
X174993587Y-105433097D01*
X174993586Y-105433097D01*
X174954758Y-105440820D01*
X174915162Y-105440820D01*
X174876334Y-105433097D01*
X174876333Y-105433097D01*
X174876330Y-105433096D01*
X174839751Y-105417944D01*
X174806830Y-105395947D01*
X174778833Y-105367950D01*
X174756836Y-105335029D01*
X174741684Y-105298450D01*
X174733960Y-105259617D01*
X174733960Y-105220023D01*
X174741684Y-105181190D01*
X174756836Y-105144611D01*
X174778833Y-105111690D01*
X174806830Y-105083693D01*
X174839751Y-105061696D01*
X174876330Y-105046544D01*
X174876333Y-105046543D01*
X174876334Y-105046543D01*
X174915162Y-105038820D01*
X174954758Y-105038820D01*
X174993586Y-105046543D01*
G37*
G36*
X64867586Y-105046543D02*
G01*
X64867587Y-105046543D01*
X64867590Y-105046544D01*
X64904169Y-105061696D01*
X64937090Y-105083693D01*
X64965087Y-105111690D01*
X64987084Y-105144611D01*
X65002236Y-105181190D01*
X65009960Y-105220023D01*
X65009960Y-105259617D01*
X65002236Y-105298450D01*
X64987084Y-105335029D01*
X64965087Y-105367950D01*
X64937090Y-105395947D01*
X64904169Y-105417944D01*
X64867590Y-105433096D01*
X64867587Y-105433097D01*
X64867586Y-105433097D01*
X64828758Y-105440820D01*
X64789162Y-105440820D01*
X64750334Y-105433097D01*
X64750333Y-105433097D01*
X64750330Y-105433096D01*
X64713751Y-105417944D01*
X64680830Y-105395947D01*
X64652833Y-105367950D01*
X64630836Y-105335029D01*
X64615684Y-105298450D01*
X64607960Y-105259617D01*
X64607960Y-105220023D01*
X64615684Y-105181190D01*
X64630836Y-105144611D01*
X64652833Y-105111690D01*
X64680830Y-105083693D01*
X64713751Y-105061696D01*
X64750330Y-105046544D01*
X64750333Y-105046543D01*
X64750334Y-105046543D01*
X64789162Y-105038820D01*
X64828758Y-105038820D01*
X64867586Y-105046543D01*
G37*
G36*
X63343586Y-105046543D02*
G01*
X63343587Y-105046543D01*
X63343590Y-105046544D01*
X63380169Y-105061696D01*
X63413090Y-105083693D01*
X63441087Y-105111690D01*
X63463084Y-105144611D01*
X63478236Y-105181190D01*
X63485960Y-105220023D01*
X63485960Y-105259617D01*
X63478236Y-105298450D01*
X63463084Y-105335029D01*
X63441087Y-105367950D01*
X63413090Y-105395947D01*
X63380169Y-105417944D01*
X63343590Y-105433096D01*
X63343587Y-105433097D01*
X63343586Y-105433097D01*
X63304758Y-105440820D01*
X63265162Y-105440820D01*
X63226334Y-105433097D01*
X63226333Y-105433097D01*
X63226330Y-105433096D01*
X63189751Y-105417944D01*
X63156830Y-105395947D01*
X63128833Y-105367950D01*
X63106836Y-105335029D01*
X63091684Y-105298450D01*
X63083960Y-105259617D01*
X63083960Y-105220023D01*
X63091684Y-105181190D01*
X63106836Y-105144611D01*
X63128833Y-105111690D01*
X63156830Y-105083693D01*
X63189751Y-105061696D01*
X63226330Y-105046544D01*
X63226333Y-105046543D01*
X63226334Y-105046543D01*
X63265162Y-105038820D01*
X63304758Y-105038820D01*
X63343586Y-105046543D01*
G37*
G36*
X87197586Y-105046543D02*
G01*
X87197587Y-105046543D01*
X87197590Y-105046544D01*
X87234169Y-105061696D01*
X87267090Y-105083693D01*
X87295087Y-105111690D01*
X87317084Y-105144611D01*
X87332236Y-105181190D01*
X87339960Y-105220023D01*
X87339960Y-105259617D01*
X87332236Y-105298450D01*
X87317084Y-105335029D01*
X87295087Y-105367950D01*
X87267090Y-105395947D01*
X87234169Y-105417944D01*
X87197590Y-105433096D01*
X87197587Y-105433097D01*
X87197586Y-105433097D01*
X87158758Y-105440820D01*
X87119162Y-105440820D01*
X87080334Y-105433097D01*
X87080333Y-105433097D01*
X87080330Y-105433096D01*
X87043751Y-105417944D01*
X87010830Y-105395947D01*
X86982833Y-105367950D01*
X86960836Y-105335029D01*
X86945684Y-105298450D01*
X86937960Y-105259617D01*
X86937960Y-105220023D01*
X86945684Y-105181190D01*
X86960836Y-105144611D01*
X86982833Y-105111690D01*
X87010830Y-105083693D01*
X87043751Y-105061696D01*
X87080330Y-105046544D01*
X87080333Y-105046543D01*
X87080334Y-105046543D01*
X87119162Y-105038820D01*
X87158758Y-105038820D01*
X87197586Y-105046543D01*
G37*
G36*
X85673586Y-105046543D02*
G01*
X85673587Y-105046543D01*
X85673590Y-105046544D01*
X85710169Y-105061696D01*
X85743090Y-105083693D01*
X85771087Y-105111690D01*
X85793084Y-105144611D01*
X85808236Y-105181190D01*
X85815960Y-105220023D01*
X85815960Y-105259617D01*
X85808236Y-105298450D01*
X85793084Y-105335029D01*
X85771087Y-105367950D01*
X85743090Y-105395947D01*
X85710169Y-105417944D01*
X85673590Y-105433096D01*
X85673587Y-105433097D01*
X85673586Y-105433097D01*
X85634758Y-105440820D01*
X85595162Y-105440820D01*
X85556334Y-105433097D01*
X85556333Y-105433097D01*
X85556330Y-105433096D01*
X85519751Y-105417944D01*
X85486830Y-105395947D01*
X85458833Y-105367950D01*
X85436836Y-105335029D01*
X85421684Y-105298450D01*
X85413960Y-105259617D01*
X85413960Y-105220023D01*
X85421684Y-105181190D01*
X85436836Y-105144611D01*
X85458833Y-105111690D01*
X85486830Y-105083693D01*
X85519751Y-105061696D01*
X85556330Y-105046544D01*
X85556333Y-105046543D01*
X85556334Y-105046543D01*
X85595162Y-105038820D01*
X85634758Y-105038820D01*
X85673586Y-105046543D01*
G37*
G36*
X109527586Y-105046543D02*
G01*
X109527587Y-105046543D01*
X109527590Y-105046544D01*
X109564169Y-105061696D01*
X109597090Y-105083693D01*
X109625087Y-105111690D01*
X109647084Y-105144611D01*
X109662236Y-105181190D01*
X109669960Y-105220023D01*
X109669960Y-105259617D01*
X109662236Y-105298450D01*
X109647084Y-105335029D01*
X109625087Y-105367950D01*
X109597090Y-105395947D01*
X109564169Y-105417944D01*
X109527590Y-105433096D01*
X109527587Y-105433097D01*
X109527586Y-105433097D01*
X109488758Y-105440820D01*
X109449162Y-105440820D01*
X109410334Y-105433097D01*
X109410333Y-105433097D01*
X109410330Y-105433096D01*
X109373751Y-105417944D01*
X109340830Y-105395947D01*
X109312833Y-105367950D01*
X109290836Y-105335029D01*
X109275684Y-105298450D01*
X109267960Y-105259617D01*
X109267960Y-105220023D01*
X109275684Y-105181190D01*
X109290836Y-105144611D01*
X109312833Y-105111690D01*
X109340830Y-105083693D01*
X109373751Y-105061696D01*
X109410330Y-105046544D01*
X109410333Y-105046543D01*
X109410334Y-105046543D01*
X109449162Y-105038820D01*
X109488758Y-105038820D01*
X109527586Y-105046543D01*
G37*
G36*
X108003586Y-105046543D02*
G01*
X108003587Y-105046543D01*
X108003590Y-105046544D01*
X108040169Y-105061696D01*
X108073090Y-105083693D01*
X108101087Y-105111690D01*
X108123084Y-105144611D01*
X108138236Y-105181190D01*
X108145960Y-105220023D01*
X108145960Y-105259617D01*
X108138236Y-105298450D01*
X108123084Y-105335029D01*
X108101087Y-105367950D01*
X108073090Y-105395947D01*
X108040169Y-105417944D01*
X108003590Y-105433096D01*
X108003587Y-105433097D01*
X108003586Y-105433097D01*
X107964758Y-105440820D01*
X107925162Y-105440820D01*
X107886334Y-105433097D01*
X107886333Y-105433097D01*
X107886330Y-105433096D01*
X107849751Y-105417944D01*
X107816830Y-105395947D01*
X107788833Y-105367950D01*
X107766836Y-105335029D01*
X107751684Y-105298450D01*
X107743960Y-105259617D01*
X107743960Y-105220023D01*
X107751684Y-105181190D01*
X107766836Y-105144611D01*
X107788833Y-105111690D01*
X107816830Y-105083693D01*
X107849751Y-105061696D01*
X107886330Y-105046544D01*
X107886333Y-105046543D01*
X107886334Y-105046543D01*
X107925162Y-105038820D01*
X107964758Y-105038820D01*
X108003586Y-105046543D01*
G37*
G36*
X130333586Y-105046543D02*
G01*
X130333587Y-105046543D01*
X130333590Y-105046544D01*
X130370169Y-105061696D01*
X130403090Y-105083693D01*
X130431087Y-105111690D01*
X130453084Y-105144611D01*
X130468236Y-105181190D01*
X130475960Y-105220023D01*
X130475960Y-105259617D01*
X130468236Y-105298450D01*
X130453084Y-105335029D01*
X130431087Y-105367950D01*
X130403090Y-105395947D01*
X130370169Y-105417944D01*
X130333590Y-105433096D01*
X130333587Y-105433097D01*
X130333586Y-105433097D01*
X130294758Y-105440820D01*
X130255162Y-105440820D01*
X130216334Y-105433097D01*
X130216333Y-105433097D01*
X130216330Y-105433096D01*
X130179751Y-105417944D01*
X130146830Y-105395947D01*
X130118833Y-105367950D01*
X130096836Y-105335029D01*
X130081684Y-105298450D01*
X130073960Y-105259617D01*
X130073960Y-105220023D01*
X130081684Y-105181190D01*
X130096836Y-105144611D01*
X130118833Y-105111690D01*
X130146830Y-105083693D01*
X130179751Y-105061696D01*
X130216330Y-105046544D01*
X130216333Y-105046543D01*
X130216334Y-105046543D01*
X130255162Y-105038820D01*
X130294758Y-105038820D01*
X130333586Y-105046543D01*
G37*
G36*
X154187586Y-105046543D02*
G01*
X154187587Y-105046543D01*
X154187590Y-105046544D01*
X154224169Y-105061696D01*
X154257090Y-105083693D01*
X154285087Y-105111690D01*
X154307084Y-105144611D01*
X154322236Y-105181190D01*
X154329960Y-105220023D01*
X154329960Y-105259617D01*
X154322236Y-105298450D01*
X154307084Y-105335029D01*
X154285087Y-105367950D01*
X154257090Y-105395947D01*
X154224169Y-105417944D01*
X154187590Y-105433096D01*
X154187587Y-105433097D01*
X154187586Y-105433097D01*
X154148758Y-105440820D01*
X154109162Y-105440820D01*
X154070334Y-105433097D01*
X154070333Y-105433097D01*
X154070330Y-105433096D01*
X154033751Y-105417944D01*
X154000830Y-105395947D01*
X153972833Y-105367950D01*
X153950836Y-105335029D01*
X153935684Y-105298450D01*
X153927960Y-105259617D01*
X153927960Y-105220023D01*
X153935684Y-105181190D01*
X153950836Y-105144611D01*
X153972833Y-105111690D01*
X154000830Y-105083693D01*
X154033751Y-105061696D01*
X154070330Y-105046544D01*
X154070333Y-105046543D01*
X154070334Y-105046543D01*
X154109162Y-105038820D01*
X154148758Y-105038820D01*
X154187586Y-105046543D01*
G37*
G36*
X152663586Y-105046543D02*
G01*
X152663587Y-105046543D01*
X152663590Y-105046544D01*
X152700169Y-105061696D01*
X152733090Y-105083693D01*
X152761087Y-105111690D01*
X152783084Y-105144611D01*
X152798236Y-105181190D01*
X152805960Y-105220023D01*
X152805960Y-105259617D01*
X152798236Y-105298450D01*
X152783084Y-105335029D01*
X152761087Y-105367950D01*
X152733090Y-105395947D01*
X152700169Y-105417944D01*
X152663590Y-105433096D01*
X152663587Y-105433097D01*
X152663586Y-105433097D01*
X152624758Y-105440820D01*
X152585162Y-105440820D01*
X152546334Y-105433097D01*
X152546333Y-105433097D01*
X152546330Y-105433096D01*
X152509751Y-105417944D01*
X152476830Y-105395947D01*
X152448833Y-105367950D01*
X152426836Y-105335029D01*
X152411684Y-105298450D01*
X152403960Y-105259617D01*
X152403960Y-105220023D01*
X152411684Y-105181190D01*
X152426836Y-105144611D01*
X152448833Y-105111690D01*
X152476830Y-105083693D01*
X152509751Y-105061696D01*
X152546330Y-105046544D01*
X152546333Y-105046543D01*
X152546334Y-105046543D01*
X152585162Y-105038820D01*
X152624758Y-105038820D01*
X152663586Y-105046543D01*
G37*
G36*
X42537586Y-105046543D02*
G01*
X42537587Y-105046543D01*
X42537590Y-105046544D01*
X42574169Y-105061696D01*
X42607090Y-105083693D01*
X42635087Y-105111690D01*
X42657084Y-105144611D01*
X42672236Y-105181190D01*
X42679960Y-105220023D01*
X42679960Y-105259617D01*
X42672236Y-105298450D01*
X42657084Y-105335029D01*
X42635087Y-105367950D01*
X42607090Y-105395947D01*
X42574169Y-105417944D01*
X42537590Y-105433096D01*
X42537587Y-105433097D01*
X42537586Y-105433097D01*
X42498758Y-105440820D01*
X42459162Y-105440820D01*
X42420334Y-105433097D01*
X42420333Y-105433097D01*
X42420330Y-105433096D01*
X42383751Y-105417944D01*
X42350830Y-105395947D01*
X42322833Y-105367950D01*
X42300836Y-105335029D01*
X42285684Y-105298450D01*
X42277960Y-105259617D01*
X42277960Y-105220023D01*
X42285684Y-105181190D01*
X42300836Y-105144611D01*
X42322833Y-105111690D01*
X42350830Y-105083693D01*
X42383751Y-105061696D01*
X42420330Y-105046544D01*
X42420333Y-105046543D01*
X42420334Y-105046543D01*
X42459162Y-105038820D01*
X42498758Y-105038820D01*
X42537586Y-105046543D01*
G37*
G36*
X41013586Y-105046543D02*
G01*
X41013587Y-105046543D01*
X41013590Y-105046544D01*
X41050169Y-105061696D01*
X41083090Y-105083693D01*
X41111087Y-105111690D01*
X41133084Y-105144611D01*
X41148236Y-105181190D01*
X41155960Y-105220023D01*
X41155960Y-105259617D01*
X41148236Y-105298450D01*
X41133084Y-105335029D01*
X41111087Y-105367950D01*
X41083090Y-105395947D01*
X41050169Y-105417944D01*
X41013590Y-105433096D01*
X41013587Y-105433097D01*
X41013586Y-105433097D01*
X40974758Y-105440820D01*
X40935162Y-105440820D01*
X40896334Y-105433097D01*
X40896333Y-105433097D01*
X40896330Y-105433096D01*
X40859751Y-105417944D01*
X40826830Y-105395947D01*
X40798833Y-105367950D01*
X40776836Y-105335029D01*
X40761684Y-105298450D01*
X40753960Y-105259617D01*
X40753960Y-105220023D01*
X40761684Y-105181190D01*
X40776836Y-105144611D01*
X40798833Y-105111690D01*
X40826830Y-105083693D01*
X40859751Y-105061696D01*
X40896330Y-105046544D01*
X40896333Y-105046543D01*
X40896334Y-105046543D01*
X40935162Y-105038820D01*
X40974758Y-105038820D01*
X41013586Y-105046543D01*
G37*
G36*
X131857586Y-105046543D02*
G01*
X131857587Y-105046543D01*
X131857590Y-105046544D01*
X131894169Y-105061696D01*
X131927090Y-105083693D01*
X131955087Y-105111690D01*
X131977084Y-105144611D01*
X131992236Y-105181190D01*
X131999960Y-105220023D01*
X131999960Y-105259617D01*
X131992236Y-105298450D01*
X131977084Y-105335029D01*
X131955087Y-105367950D01*
X131927090Y-105395947D01*
X131894169Y-105417944D01*
X131857590Y-105433096D01*
X131857587Y-105433097D01*
X131857586Y-105433097D01*
X131818758Y-105440820D01*
X131779162Y-105440820D01*
X131740334Y-105433097D01*
X131740333Y-105433097D01*
X131740330Y-105433096D01*
X131703751Y-105417944D01*
X131670830Y-105395947D01*
X131642833Y-105367950D01*
X131620836Y-105335029D01*
X131605684Y-105298450D01*
X131597960Y-105259617D01*
X131597960Y-105220023D01*
X131605684Y-105181190D01*
X131620836Y-105144611D01*
X131642833Y-105111690D01*
X131670830Y-105083693D01*
X131703751Y-105061696D01*
X131740330Y-105046544D01*
X131740333Y-105046543D01*
X131740334Y-105046543D01*
X131779162Y-105038820D01*
X131818758Y-105038820D01*
X131857586Y-105046543D01*
G37*
G36*
X168614740Y-105025760D02*
G01*
X166812740Y-105025760D01*
X166812740Y-103223760D01*
X168614740Y-103223760D01*
X168614740Y-105025760D01*
G37*
G36*
X120627252Y-103228687D02*
G01*
X120776552Y-103258384D01*
X120940524Y-103326304D01*
X121088094Y-103424907D01*
X121213593Y-103550406D01*
X121312196Y-103697976D01*
X121380116Y-103861948D01*
X121409813Y-104011248D01*
X121413235Y-104028450D01*
X121414740Y-104036019D01*
X121414740Y-104213501D01*
X121380116Y-104387572D01*
X121312196Y-104551544D01*
X121213593Y-104699114D01*
X121088094Y-104824613D01*
X120940524Y-104923216D01*
X120776552Y-104991136D01*
X120627252Y-105020833D01*
X120602482Y-105025760D01*
X120424998Y-105025760D01*
X120400228Y-105020833D01*
X120250928Y-104991136D01*
X120086956Y-104923216D01*
X119939386Y-104824613D01*
X119813887Y-104699114D01*
X119715284Y-104551544D01*
X119647364Y-104387572D01*
X119612740Y-104213501D01*
X119612740Y-104036019D01*
X119614246Y-104028450D01*
X119617667Y-104011248D01*
X119647364Y-103861948D01*
X119715284Y-103697976D01*
X119813887Y-103550406D01*
X119939386Y-103424907D01*
X120086956Y-103326304D01*
X120250928Y-103258384D01*
X120400228Y-103228687D01*
X120424998Y-103223760D01*
X120602482Y-103223760D01*
X120627252Y-103228687D01*
G37*
G36*
X118087252Y-103228687D02*
G01*
X118236552Y-103258384D01*
X118400524Y-103326304D01*
X118548094Y-103424907D01*
X118673593Y-103550406D01*
X118772196Y-103697976D01*
X118840116Y-103861948D01*
X118869813Y-104011248D01*
X118873235Y-104028450D01*
X118874740Y-104036019D01*
X118874740Y-104213501D01*
X118840116Y-104387572D01*
X118772196Y-104551544D01*
X118673593Y-104699114D01*
X118548094Y-104824613D01*
X118400524Y-104923216D01*
X118236552Y-104991136D01*
X118087252Y-105020833D01*
X118062482Y-105025760D01*
X117884998Y-105025760D01*
X117860228Y-105020833D01*
X117710928Y-104991136D01*
X117546956Y-104923216D01*
X117399386Y-104824613D01*
X117273887Y-104699114D01*
X117175284Y-104551544D01*
X117107364Y-104387572D01*
X117072740Y-104213501D01*
X117072740Y-104036019D01*
X117074246Y-104028450D01*
X117077667Y-104011248D01*
X117107364Y-103861948D01*
X117175284Y-103697976D01*
X117273887Y-103550406D01*
X117399386Y-103424907D01*
X117546956Y-103326304D01*
X117710928Y-103258384D01*
X117860228Y-103228687D01*
X117884998Y-103223760D01*
X118062482Y-103223760D01*
X118087252Y-103228687D01*
G37*
G36*
X146284740Y-105025760D02*
G01*
X144482740Y-105025760D01*
X144482740Y-103223760D01*
X146284740Y-103223760D01*
X146284740Y-105025760D01*
G37*
G36*
X142957252Y-103228687D02*
G01*
X143106552Y-103258384D01*
X143270524Y-103326304D01*
X143418094Y-103424907D01*
X143543593Y-103550406D01*
X143642196Y-103697976D01*
X143710116Y-103861948D01*
X143739813Y-104011248D01*
X143743235Y-104028450D01*
X143744740Y-104036019D01*
X143744740Y-104213501D01*
X143710116Y-104387572D01*
X143642196Y-104551544D01*
X143543593Y-104699114D01*
X143418094Y-104824613D01*
X143270524Y-104923216D01*
X143106552Y-104991136D01*
X142957252Y-105020833D01*
X142932482Y-105025760D01*
X142754998Y-105025760D01*
X142730228Y-105020833D01*
X142580928Y-104991136D01*
X142416956Y-104923216D01*
X142269386Y-104824613D01*
X142143887Y-104699114D01*
X142045284Y-104551544D01*
X141977364Y-104387572D01*
X141942740Y-104213501D01*
X141942740Y-104036019D01*
X141944246Y-104028450D01*
X141947667Y-104011248D01*
X141977364Y-103861948D01*
X142045284Y-103697976D01*
X142143887Y-103550406D01*
X142269386Y-103424907D01*
X142416956Y-103326304D01*
X142580928Y-103258384D01*
X142730228Y-103228687D01*
X142754998Y-103223760D01*
X142932482Y-103223760D01*
X142957252Y-103228687D01*
G37*
G36*
X140417252Y-103228687D02*
G01*
X140566552Y-103258384D01*
X140730524Y-103326304D01*
X140878094Y-103424907D01*
X141003593Y-103550406D01*
X141102196Y-103697976D01*
X141170116Y-103861948D01*
X141199813Y-104011248D01*
X141203235Y-104028450D01*
X141204740Y-104036019D01*
X141204740Y-104213501D01*
X141170116Y-104387572D01*
X141102196Y-104551544D01*
X141003593Y-104699114D01*
X140878094Y-104824613D01*
X140730524Y-104923216D01*
X140566552Y-104991136D01*
X140417252Y-105020833D01*
X140392482Y-105025760D01*
X140214998Y-105025760D01*
X140190228Y-105020833D01*
X140040928Y-104991136D01*
X139876956Y-104923216D01*
X139729386Y-104824613D01*
X139603887Y-104699114D01*
X139505284Y-104551544D01*
X139437364Y-104387572D01*
X139402740Y-104213501D01*
X139402740Y-104036019D01*
X139404246Y-104028450D01*
X139407667Y-104011248D01*
X139437364Y-103861948D01*
X139505284Y-103697976D01*
X139603887Y-103550406D01*
X139729386Y-103424907D01*
X139876956Y-103326304D01*
X140040928Y-103258384D01*
X140190228Y-103228687D01*
X140214998Y-103223760D01*
X140392482Y-103223760D01*
X140417252Y-103228687D01*
G37*
G36*
X165287252Y-103228687D02*
G01*
X165436552Y-103258384D01*
X165600524Y-103326304D01*
X165748094Y-103424907D01*
X165873593Y-103550406D01*
X165972196Y-103697976D01*
X166040116Y-103861948D01*
X166069813Y-104011248D01*
X166073235Y-104028450D01*
X166074740Y-104036019D01*
X166074740Y-104213501D01*
X166040116Y-104387572D01*
X165972196Y-104551544D01*
X165873593Y-104699114D01*
X165748094Y-104824613D01*
X165600524Y-104923216D01*
X165436552Y-104991136D01*
X165287252Y-105020833D01*
X165262482Y-105025760D01*
X165084998Y-105025760D01*
X165060228Y-105020833D01*
X164910928Y-104991136D01*
X164746956Y-104923216D01*
X164599386Y-104824613D01*
X164473887Y-104699114D01*
X164375284Y-104551544D01*
X164307364Y-104387572D01*
X164272740Y-104213501D01*
X164272740Y-104036019D01*
X164274246Y-104028450D01*
X164277667Y-104011248D01*
X164307364Y-103861948D01*
X164375284Y-103697976D01*
X164473887Y-103550406D01*
X164599386Y-103424907D01*
X164746956Y-103326304D01*
X164910928Y-103258384D01*
X165060228Y-103228687D01*
X165084998Y-103223760D01*
X165262482Y-103223760D01*
X165287252Y-103228687D01*
G37*
G36*
X162747252Y-103228687D02*
G01*
X162896552Y-103258384D01*
X163060524Y-103326304D01*
X163208094Y-103424907D01*
X163333593Y-103550406D01*
X163432196Y-103697976D01*
X163500116Y-103861948D01*
X163529813Y-104011248D01*
X163533235Y-104028450D01*
X163534740Y-104036019D01*
X163534740Y-104213501D01*
X163500116Y-104387572D01*
X163432196Y-104551544D01*
X163333593Y-104699114D01*
X163208094Y-104824613D01*
X163060524Y-104923216D01*
X162896552Y-104991136D01*
X162747252Y-105020833D01*
X162722482Y-105025760D01*
X162544998Y-105025760D01*
X162520228Y-105020833D01*
X162370928Y-104991136D01*
X162206956Y-104923216D01*
X162059386Y-104824613D01*
X161933887Y-104699114D01*
X161835284Y-104551544D01*
X161767364Y-104387572D01*
X161732740Y-104213501D01*
X161732740Y-104036019D01*
X161734246Y-104028450D01*
X161737667Y-104011248D01*
X161767364Y-103861948D01*
X161835284Y-103697976D01*
X161933887Y-103550406D01*
X162059386Y-103424907D01*
X162206956Y-103326304D01*
X162370928Y-103258384D01*
X162520228Y-103228687D01*
X162544998Y-103223760D01*
X162722482Y-103223760D01*
X162747252Y-103228687D01*
G37*
G36*
X190944740Y-105025760D02*
G01*
X189142740Y-105025760D01*
X189142740Y-103223760D01*
X190944740Y-103223760D01*
X190944740Y-105025760D01*
G37*
G36*
X187617252Y-103228687D02*
G01*
X187766552Y-103258384D01*
X187930524Y-103326304D01*
X188078094Y-103424907D01*
X188203593Y-103550406D01*
X188302196Y-103697976D01*
X188370116Y-103861948D01*
X188399813Y-104011248D01*
X188403235Y-104028450D01*
X188404740Y-104036019D01*
X188404740Y-104213501D01*
X188370116Y-104387572D01*
X188302196Y-104551544D01*
X188203593Y-104699114D01*
X188078094Y-104824613D01*
X187930524Y-104923216D01*
X187766552Y-104991136D01*
X187617252Y-105020833D01*
X187592482Y-105025760D01*
X187414998Y-105025760D01*
X187390228Y-105020833D01*
X187240928Y-104991136D01*
X187076956Y-104923216D01*
X186929386Y-104824613D01*
X186803887Y-104699114D01*
X186705284Y-104551544D01*
X186637364Y-104387572D01*
X186602740Y-104213501D01*
X186602740Y-104036019D01*
X186604246Y-104028450D01*
X186607667Y-104011248D01*
X186637364Y-103861948D01*
X186705284Y-103697976D01*
X186803887Y-103550406D01*
X186929386Y-103424907D01*
X187076956Y-103326304D01*
X187240928Y-103258384D01*
X187390228Y-103228687D01*
X187414998Y-103223760D01*
X187592482Y-103223760D01*
X187617252Y-103228687D01*
G37*
G36*
X185077252Y-103228687D02*
G01*
X185226552Y-103258384D01*
X185390524Y-103326304D01*
X185538094Y-103424907D01*
X185663593Y-103550406D01*
X185762196Y-103697976D01*
X185830116Y-103861948D01*
X185859813Y-104011248D01*
X185863235Y-104028450D01*
X185864740Y-104036019D01*
X185864740Y-104213501D01*
X185830116Y-104387572D01*
X185762196Y-104551544D01*
X185663593Y-104699114D01*
X185538094Y-104824613D01*
X185390524Y-104923216D01*
X185226552Y-104991136D01*
X185077252Y-105020833D01*
X185052482Y-105025760D01*
X184874998Y-105025760D01*
X184850228Y-105020833D01*
X184700928Y-104991136D01*
X184536956Y-104923216D01*
X184389386Y-104824613D01*
X184263887Y-104699114D01*
X184165284Y-104551544D01*
X184097364Y-104387572D01*
X184062740Y-104213501D01*
X184062740Y-104036019D01*
X184064246Y-104028450D01*
X184067667Y-104011248D01*
X184097364Y-103861948D01*
X184165284Y-103697976D01*
X184263887Y-103550406D01*
X184389386Y-103424907D01*
X184536956Y-103326304D01*
X184700928Y-103258384D01*
X184850228Y-103228687D01*
X184874998Y-103223760D01*
X185052482Y-103223760D01*
X185077252Y-103228687D01*
G37*
G36*
X53637252Y-103228687D02*
G01*
X53786552Y-103258384D01*
X53950524Y-103326304D01*
X54098094Y-103424907D01*
X54223593Y-103550406D01*
X54322196Y-103697976D01*
X54390116Y-103861948D01*
X54419813Y-104011248D01*
X54423235Y-104028450D01*
X54424740Y-104036019D01*
X54424740Y-104213501D01*
X54390116Y-104387572D01*
X54322196Y-104551544D01*
X54223593Y-104699114D01*
X54098094Y-104824613D01*
X53950524Y-104923216D01*
X53786552Y-104991136D01*
X53637252Y-105020833D01*
X53612482Y-105025760D01*
X53434998Y-105025760D01*
X53410228Y-105020833D01*
X53260928Y-104991136D01*
X53096956Y-104923216D01*
X52949386Y-104824613D01*
X52823887Y-104699114D01*
X52725284Y-104551544D01*
X52657364Y-104387572D01*
X52622740Y-104213501D01*
X52622740Y-104036019D01*
X52624246Y-104028450D01*
X52627667Y-104011248D01*
X52657364Y-103861948D01*
X52725284Y-103697976D01*
X52823887Y-103550406D01*
X52949386Y-103424907D01*
X53096956Y-103326304D01*
X53260928Y-103258384D01*
X53410228Y-103228687D01*
X53434998Y-103223760D01*
X53612482Y-103223760D01*
X53637252Y-103228687D01*
G37*
G36*
X34634740Y-105025760D02*
G01*
X32832740Y-105025760D01*
X32832740Y-103223760D01*
X34634740Y-103223760D01*
X34634740Y-105025760D01*
G37*
G36*
X123954740Y-105025760D02*
G01*
X122152740Y-105025760D01*
X122152740Y-103223760D01*
X123954740Y-103223760D01*
X123954740Y-105025760D01*
G37*
G36*
X28767252Y-103228687D02*
G01*
X28916552Y-103258384D01*
X29080524Y-103326304D01*
X29228094Y-103424907D01*
X29353593Y-103550406D01*
X29452196Y-103697976D01*
X29520116Y-103861948D01*
X29549813Y-104011248D01*
X29553235Y-104028450D01*
X29554740Y-104036019D01*
X29554740Y-104213501D01*
X29520116Y-104387572D01*
X29452196Y-104551544D01*
X29353593Y-104699114D01*
X29228094Y-104824613D01*
X29080524Y-104923216D01*
X28916552Y-104991136D01*
X28767252Y-105020833D01*
X28742482Y-105025760D01*
X28564998Y-105025760D01*
X28540228Y-105020833D01*
X28390928Y-104991136D01*
X28226956Y-104923216D01*
X28079386Y-104824613D01*
X27953887Y-104699114D01*
X27855284Y-104551544D01*
X27787364Y-104387572D01*
X27752740Y-104213501D01*
X27752740Y-104036019D01*
X27754246Y-104028450D01*
X27757667Y-104011248D01*
X27787364Y-103861948D01*
X27855284Y-103697976D01*
X27953887Y-103550406D01*
X28079386Y-103424907D01*
X28226956Y-103326304D01*
X28390928Y-103258384D01*
X28540228Y-103228687D01*
X28564998Y-103223760D01*
X28742482Y-103223760D01*
X28767252Y-103228687D01*
G37*
G36*
X95757252Y-103228687D02*
G01*
X95906552Y-103258384D01*
X96070524Y-103326304D01*
X96218094Y-103424907D01*
X96343593Y-103550406D01*
X96442196Y-103697976D01*
X96510116Y-103861948D01*
X96539813Y-104011248D01*
X96543235Y-104028450D01*
X96544740Y-104036019D01*
X96544740Y-104213501D01*
X96510116Y-104387572D01*
X96442196Y-104551544D01*
X96343593Y-104699114D01*
X96218094Y-104824613D01*
X96070524Y-104923216D01*
X95906552Y-104991136D01*
X95757252Y-105020833D01*
X95732482Y-105025760D01*
X95554998Y-105025760D01*
X95530228Y-105020833D01*
X95380928Y-104991136D01*
X95216956Y-104923216D01*
X95069386Y-104824613D01*
X94943887Y-104699114D01*
X94845284Y-104551544D01*
X94777364Y-104387572D01*
X94742740Y-104213501D01*
X94742740Y-104036019D01*
X94744246Y-104028450D01*
X94747667Y-104011248D01*
X94777364Y-103861948D01*
X94845284Y-103697976D01*
X94943887Y-103550406D01*
X95069386Y-103424907D01*
X95216956Y-103326304D01*
X95380928Y-103258384D01*
X95530228Y-103228687D01*
X95554998Y-103223760D01*
X95732482Y-103223760D01*
X95757252Y-103228687D01*
G37*
G36*
X98297252Y-103228687D02*
G01*
X98446552Y-103258384D01*
X98610524Y-103326304D01*
X98758094Y-103424907D01*
X98883593Y-103550406D01*
X98982196Y-103697976D01*
X99050116Y-103861948D01*
X99079813Y-104011248D01*
X99083235Y-104028450D01*
X99084740Y-104036019D01*
X99084740Y-104213501D01*
X99050116Y-104387572D01*
X98982196Y-104551544D01*
X98883593Y-104699114D01*
X98758094Y-104824613D01*
X98610524Y-104923216D01*
X98446552Y-104991136D01*
X98297252Y-105020833D01*
X98272482Y-105025760D01*
X98094998Y-105025760D01*
X98070228Y-105020833D01*
X97920928Y-104991136D01*
X97756956Y-104923216D01*
X97609386Y-104824613D01*
X97483887Y-104699114D01*
X97385284Y-104551544D01*
X97317364Y-104387572D01*
X97282740Y-104213501D01*
X97282740Y-104036019D01*
X97284246Y-104028450D01*
X97287667Y-104011248D01*
X97317364Y-103861948D01*
X97385284Y-103697976D01*
X97483887Y-103550406D01*
X97609386Y-103424907D01*
X97756956Y-103326304D01*
X97920928Y-103258384D01*
X98070228Y-103228687D01*
X98094998Y-103223760D01*
X98272482Y-103223760D01*
X98297252Y-103228687D01*
G37*
G36*
X101624740Y-105025760D02*
G01*
X99822740Y-105025760D01*
X99822740Y-103223760D01*
X101624740Y-103223760D01*
X101624740Y-105025760D01*
G37*
G36*
X73427252Y-103228687D02*
G01*
X73576552Y-103258384D01*
X73740524Y-103326304D01*
X73888094Y-103424907D01*
X74013593Y-103550406D01*
X74112196Y-103697976D01*
X74180116Y-103861948D01*
X74209813Y-104011248D01*
X74213235Y-104028450D01*
X74214740Y-104036019D01*
X74214740Y-104213501D01*
X74180116Y-104387572D01*
X74112196Y-104551544D01*
X74013593Y-104699114D01*
X73888094Y-104824613D01*
X73740524Y-104923216D01*
X73576552Y-104991136D01*
X73427252Y-105020833D01*
X73402482Y-105025760D01*
X73224998Y-105025760D01*
X73200228Y-105020833D01*
X73050928Y-104991136D01*
X72886956Y-104923216D01*
X72739386Y-104824613D01*
X72613887Y-104699114D01*
X72515284Y-104551544D01*
X72447364Y-104387572D01*
X72412740Y-104213501D01*
X72412740Y-104036019D01*
X72414246Y-104028450D01*
X72417667Y-104011248D01*
X72447364Y-103861948D01*
X72515284Y-103697976D01*
X72613887Y-103550406D01*
X72739386Y-103424907D01*
X72886956Y-103326304D01*
X73050928Y-103258384D01*
X73200228Y-103228687D01*
X73224998Y-103223760D01*
X73402482Y-103223760D01*
X73427252Y-103228687D01*
G37*
G36*
X75967252Y-103228687D02*
G01*
X76116552Y-103258384D01*
X76280524Y-103326304D01*
X76428094Y-103424907D01*
X76553593Y-103550406D01*
X76652196Y-103697976D01*
X76720116Y-103861948D01*
X76749813Y-104011248D01*
X76753235Y-104028450D01*
X76754740Y-104036019D01*
X76754740Y-104213501D01*
X76720116Y-104387572D01*
X76652196Y-104551544D01*
X76553593Y-104699114D01*
X76428094Y-104824613D01*
X76280524Y-104923216D01*
X76116552Y-104991136D01*
X75967252Y-105020833D01*
X75942482Y-105025760D01*
X75764998Y-105025760D01*
X75740228Y-105020833D01*
X75590928Y-104991136D01*
X75426956Y-104923216D01*
X75279386Y-104824613D01*
X75153887Y-104699114D01*
X75055284Y-104551544D01*
X74987364Y-104387572D01*
X74952740Y-104213501D01*
X74952740Y-104036019D01*
X74954246Y-104028450D01*
X74957667Y-104011248D01*
X74987364Y-103861948D01*
X75055284Y-103697976D01*
X75153887Y-103550406D01*
X75279386Y-103424907D01*
X75426956Y-103326304D01*
X75590928Y-103258384D01*
X75740228Y-103228687D01*
X75764998Y-103223760D01*
X75942482Y-103223760D01*
X75967252Y-103228687D01*
G37*
G36*
X79294740Y-105025760D02*
G01*
X77492740Y-105025760D01*
X77492740Y-103223760D01*
X79294740Y-103223760D01*
X79294740Y-105025760D01*
G37*
G36*
X51097252Y-103228687D02*
G01*
X51246552Y-103258384D01*
X51410524Y-103326304D01*
X51558094Y-103424907D01*
X51683593Y-103550406D01*
X51782196Y-103697976D01*
X51850116Y-103861948D01*
X51879813Y-104011248D01*
X51883235Y-104028450D01*
X51884740Y-104036019D01*
X51884740Y-104213501D01*
X51850116Y-104387572D01*
X51782196Y-104551544D01*
X51683593Y-104699114D01*
X51558094Y-104824613D01*
X51410524Y-104923216D01*
X51246552Y-104991136D01*
X51097252Y-105020833D01*
X51072482Y-105025760D01*
X50894998Y-105025760D01*
X50870228Y-105020833D01*
X50720928Y-104991136D01*
X50556956Y-104923216D01*
X50409386Y-104824613D01*
X50283887Y-104699114D01*
X50185284Y-104551544D01*
X50117364Y-104387572D01*
X50082740Y-104213501D01*
X50082740Y-104036019D01*
X50084246Y-104028450D01*
X50087667Y-104011248D01*
X50117364Y-103861948D01*
X50185284Y-103697976D01*
X50283887Y-103550406D01*
X50409386Y-103424907D01*
X50556956Y-103326304D01*
X50720928Y-103258384D01*
X50870228Y-103228687D01*
X50894998Y-103223760D01*
X51072482Y-103223760D01*
X51097252Y-103228687D01*
G37*
G36*
X56964740Y-105025760D02*
G01*
X55162740Y-105025760D01*
X55162740Y-103223760D01*
X56964740Y-103223760D01*
X56964740Y-105025760D01*
G37*
G36*
X31307252Y-103228687D02*
G01*
X31456552Y-103258384D01*
X31620524Y-103326304D01*
X31768094Y-103424907D01*
X31893593Y-103550406D01*
X31992196Y-103697976D01*
X32060116Y-103861948D01*
X32089813Y-104011248D01*
X32093235Y-104028450D01*
X32094740Y-104036019D01*
X32094740Y-104213501D01*
X32060116Y-104387572D01*
X31992196Y-104551544D01*
X31893593Y-104699114D01*
X31768094Y-104824613D01*
X31620524Y-104923216D01*
X31456552Y-104991136D01*
X31307252Y-105020833D01*
X31282482Y-105025760D01*
X31104998Y-105025760D01*
X31080228Y-105020833D01*
X30930928Y-104991136D01*
X30766956Y-104923216D01*
X30619386Y-104824613D01*
X30493887Y-104699114D01*
X30395284Y-104551544D01*
X30327364Y-104387572D01*
X30292740Y-104213501D01*
X30292740Y-104036019D01*
X30294246Y-104028450D01*
X30297667Y-104011248D01*
X30327364Y-103861948D01*
X30395284Y-103697976D01*
X30493887Y-103550406D01*
X30619386Y-103424907D01*
X30766956Y-103326304D01*
X30930928Y-103258384D01*
X31080228Y-103228687D01*
X31104998Y-103223760D01*
X31282482Y-103223760D01*
X31307252Y-103228687D01*
G37*
G36*
X172754535Y-102155916D02*
G01*
X172860890Y-102177071D01*
X173061260Y-102260067D01*
X173241584Y-102380555D01*
X173394945Y-102533916D01*
X173515433Y-102714240D01*
X173533745Y-102758450D01*
X173598429Y-102914610D01*
X173640740Y-103127321D01*
X173640740Y-103344199D01*
X173599723Y-103550407D01*
X173598429Y-103556909D01*
X173515433Y-103757280D01*
X173394945Y-103937604D01*
X173241584Y-104090965D01*
X173061260Y-104211453D01*
X172961074Y-104252951D01*
X172860890Y-104294449D01*
X172754535Y-104315604D01*
X172648180Y-104336760D01*
X172431300Y-104336760D01*
X172324946Y-104315605D01*
X172218590Y-104294449D01*
X172118406Y-104252951D01*
X172018220Y-104211453D01*
X171837896Y-104090965D01*
X171684535Y-103937604D01*
X171564047Y-103757280D01*
X171481051Y-103556909D01*
X171479758Y-103550407D01*
X171438740Y-103344199D01*
X171438740Y-103127321D01*
X171481051Y-102914610D01*
X171545735Y-102758450D01*
X171564047Y-102714240D01*
X171684535Y-102533916D01*
X171837896Y-102380555D01*
X172018220Y-102260067D01*
X172218590Y-102177071D01*
X172324945Y-102155916D01*
X172431300Y-102134760D01*
X172648180Y-102134760D01*
X172754535Y-102155916D01*
G37*
G36*
X38774535Y-102155916D02*
G01*
X38880890Y-102177071D01*
X39081260Y-102260067D01*
X39261584Y-102380555D01*
X39414945Y-102533916D01*
X39535433Y-102714240D01*
X39553745Y-102758450D01*
X39618429Y-102914610D01*
X39660740Y-103127321D01*
X39660740Y-103344199D01*
X39619723Y-103550407D01*
X39618429Y-103556909D01*
X39535433Y-103757280D01*
X39414945Y-103937604D01*
X39261584Y-104090965D01*
X39081260Y-104211453D01*
X38981074Y-104252951D01*
X38880890Y-104294449D01*
X38774535Y-104315604D01*
X38668180Y-104336760D01*
X38451300Y-104336760D01*
X38344946Y-104315605D01*
X38238590Y-104294449D01*
X38138406Y-104252951D01*
X38038220Y-104211453D01*
X37857896Y-104090965D01*
X37704535Y-103937604D01*
X37584047Y-103757280D01*
X37501051Y-103556909D01*
X37499758Y-103550407D01*
X37458740Y-103344199D01*
X37458740Y-103127321D01*
X37501051Y-102914610D01*
X37565735Y-102758450D01*
X37584047Y-102714240D01*
X37704535Y-102533916D01*
X37857896Y-102380555D01*
X38038220Y-102260067D01*
X38238590Y-102177071D01*
X38344945Y-102155916D01*
X38451300Y-102134760D01*
X38668180Y-102134760D01*
X38774535Y-102155916D01*
G37*
G36*
X195084535Y-102155916D02*
G01*
X195190890Y-102177071D01*
X195391260Y-102260067D01*
X195571584Y-102380555D01*
X195724945Y-102533916D01*
X195845433Y-102714240D01*
X195863745Y-102758450D01*
X195928429Y-102914610D01*
X195970740Y-103127321D01*
X195970740Y-103344199D01*
X195929723Y-103550407D01*
X195928429Y-103556909D01*
X195845433Y-103757280D01*
X195724945Y-103937604D01*
X195571584Y-104090965D01*
X195391260Y-104211453D01*
X195291074Y-104252951D01*
X195190890Y-104294449D01*
X195084535Y-104315604D01*
X194978180Y-104336760D01*
X194761300Y-104336760D01*
X194654946Y-104315605D01*
X194548590Y-104294449D01*
X194448406Y-104252951D01*
X194348220Y-104211453D01*
X194167896Y-104090965D01*
X194014535Y-103937604D01*
X193894047Y-103757280D01*
X193811051Y-103556909D01*
X193809758Y-103550407D01*
X193768740Y-103344199D01*
X193768740Y-103127321D01*
X193811051Y-102914610D01*
X193875735Y-102758450D01*
X193894047Y-102714240D01*
X194014535Y-102533916D01*
X194167896Y-102380555D01*
X194348220Y-102260067D01*
X194548590Y-102177071D01*
X194654945Y-102155916D01*
X194761300Y-102134760D01*
X194978180Y-102134760D01*
X195084535Y-102155916D01*
G37*
G36*
X150424535Y-102155916D02*
G01*
X150530890Y-102177071D01*
X150731260Y-102260067D01*
X150911584Y-102380555D01*
X151064945Y-102533916D01*
X151185433Y-102714240D01*
X151203745Y-102758450D01*
X151268429Y-102914610D01*
X151310740Y-103127321D01*
X151310740Y-103344199D01*
X151269723Y-103550407D01*
X151268429Y-103556909D01*
X151185433Y-103757280D01*
X151064945Y-103937604D01*
X150911584Y-104090965D01*
X150731260Y-104211453D01*
X150631074Y-104252951D01*
X150530890Y-104294449D01*
X150424535Y-104315604D01*
X150318180Y-104336760D01*
X150101300Y-104336760D01*
X149994946Y-104315605D01*
X149888590Y-104294449D01*
X149788406Y-104252951D01*
X149688220Y-104211453D01*
X149507896Y-104090965D01*
X149354535Y-103937604D01*
X149234047Y-103757280D01*
X149151051Y-103556909D01*
X149149758Y-103550407D01*
X149108740Y-103344199D01*
X149108740Y-103127321D01*
X149151051Y-102914610D01*
X149215735Y-102758450D01*
X149234047Y-102714240D01*
X149354535Y-102533916D01*
X149507896Y-102380555D01*
X149688220Y-102260067D01*
X149888590Y-102177071D01*
X149994945Y-102155916D01*
X150101300Y-102134760D01*
X150318180Y-102134760D01*
X150424535Y-102155916D01*
G37*
G36*
X128094535Y-102155916D02*
G01*
X128200890Y-102177071D01*
X128401260Y-102260067D01*
X128581584Y-102380555D01*
X128734945Y-102533916D01*
X128855433Y-102714240D01*
X128873745Y-102758450D01*
X128938429Y-102914610D01*
X128980740Y-103127321D01*
X128980740Y-103344199D01*
X128939723Y-103550407D01*
X128938429Y-103556909D01*
X128855433Y-103757280D01*
X128734945Y-103937604D01*
X128581584Y-104090965D01*
X128401260Y-104211453D01*
X128301074Y-104252951D01*
X128200890Y-104294449D01*
X128094535Y-104315604D01*
X127988180Y-104336760D01*
X127771300Y-104336760D01*
X127664946Y-104315605D01*
X127558590Y-104294449D01*
X127458406Y-104252951D01*
X127358220Y-104211453D01*
X127177896Y-104090965D01*
X127024535Y-103937604D01*
X126904047Y-103757280D01*
X126821051Y-103556909D01*
X126819758Y-103550407D01*
X126778740Y-103344199D01*
X126778740Y-103127321D01*
X126821051Y-102914610D01*
X126885735Y-102758450D01*
X126904047Y-102714240D01*
X127024535Y-102533916D01*
X127177896Y-102380555D01*
X127358220Y-102260067D01*
X127558590Y-102177071D01*
X127664945Y-102155916D01*
X127771300Y-102134760D01*
X127988180Y-102134760D01*
X128094535Y-102155916D01*
G37*
G36*
X105764535Y-102155916D02*
G01*
X105870890Y-102177071D01*
X106071260Y-102260067D01*
X106251584Y-102380555D01*
X106404945Y-102533916D01*
X106525433Y-102714240D01*
X106543745Y-102758450D01*
X106608429Y-102914610D01*
X106650740Y-103127321D01*
X106650740Y-103344199D01*
X106609723Y-103550407D01*
X106608429Y-103556909D01*
X106525433Y-103757280D01*
X106404945Y-103937604D01*
X106251584Y-104090965D01*
X106071260Y-104211453D01*
X105971074Y-104252951D01*
X105870890Y-104294449D01*
X105764535Y-104315604D01*
X105658180Y-104336760D01*
X105441300Y-104336760D01*
X105334946Y-104315605D01*
X105228590Y-104294449D01*
X105128406Y-104252951D01*
X105028220Y-104211453D01*
X104847896Y-104090965D01*
X104694535Y-103937604D01*
X104574047Y-103757280D01*
X104491051Y-103556909D01*
X104489758Y-103550407D01*
X104448740Y-103344199D01*
X104448740Y-103127321D01*
X104491051Y-102914610D01*
X104555735Y-102758450D01*
X104574047Y-102714240D01*
X104694535Y-102533916D01*
X104847896Y-102380555D01*
X105028220Y-102260067D01*
X105228590Y-102177071D01*
X105334945Y-102155916D01*
X105441300Y-102134760D01*
X105658180Y-102134760D01*
X105764535Y-102155916D01*
G37*
G36*
X83434535Y-102155916D02*
G01*
X83540890Y-102177071D01*
X83741260Y-102260067D01*
X83921584Y-102380555D01*
X84074945Y-102533916D01*
X84195433Y-102714240D01*
X84213745Y-102758450D01*
X84278429Y-102914610D01*
X84320740Y-103127321D01*
X84320740Y-103344199D01*
X84279723Y-103550407D01*
X84278429Y-103556909D01*
X84195433Y-103757280D01*
X84074945Y-103937604D01*
X83921584Y-104090965D01*
X83741260Y-104211453D01*
X83641074Y-104252951D01*
X83540890Y-104294449D01*
X83434535Y-104315604D01*
X83328180Y-104336760D01*
X83111300Y-104336760D01*
X83004946Y-104315605D01*
X82898590Y-104294449D01*
X82798406Y-104252951D01*
X82698220Y-104211453D01*
X82517896Y-104090965D01*
X82364535Y-103937604D01*
X82244047Y-103757280D01*
X82161051Y-103556909D01*
X82159758Y-103550407D01*
X82118740Y-103344199D01*
X82118740Y-103127321D01*
X82161051Y-102914610D01*
X82225735Y-102758450D01*
X82244047Y-102714240D01*
X82364535Y-102533916D01*
X82517896Y-102380555D01*
X82698220Y-102260067D01*
X82898590Y-102177071D01*
X83004945Y-102155916D01*
X83111300Y-102134760D01*
X83328180Y-102134760D01*
X83434535Y-102155916D01*
G37*
G36*
X61104535Y-102155916D02*
G01*
X61210890Y-102177071D01*
X61411260Y-102260067D01*
X61591584Y-102380555D01*
X61744945Y-102533916D01*
X61865433Y-102714240D01*
X61883745Y-102758450D01*
X61948429Y-102914610D01*
X61990740Y-103127321D01*
X61990740Y-103344199D01*
X61949723Y-103550407D01*
X61948429Y-103556909D01*
X61865433Y-103757280D01*
X61744945Y-103937604D01*
X61591584Y-104090965D01*
X61411260Y-104211453D01*
X61311074Y-104252951D01*
X61210890Y-104294449D01*
X61104535Y-104315604D01*
X60998180Y-104336760D01*
X60781300Y-104336760D01*
X60674946Y-104315605D01*
X60568590Y-104294449D01*
X60468406Y-104252951D01*
X60368220Y-104211453D01*
X60187896Y-104090965D01*
X60034535Y-103937604D01*
X59914047Y-103757280D01*
X59831051Y-103556909D01*
X59829758Y-103550407D01*
X59788740Y-103344199D01*
X59788740Y-103127321D01*
X59831051Y-102914610D01*
X59895735Y-102758450D01*
X59914047Y-102714240D01*
X60034535Y-102533916D01*
X60187896Y-102380555D01*
X60368220Y-102260067D01*
X60568590Y-102177071D01*
X60674945Y-102155916D01*
X60781300Y-102134760D01*
X60998180Y-102134760D01*
X61104535Y-102155916D01*
G37*
G36*
X134803535Y-102155916D02*
G01*
X134909890Y-102177071D01*
X135110260Y-102260067D01*
X135290584Y-102380555D01*
X135443945Y-102533916D01*
X135564433Y-102714240D01*
X135582745Y-102758450D01*
X135647429Y-102914610D01*
X135689740Y-103127321D01*
X135689740Y-103344199D01*
X135648723Y-103550407D01*
X135647429Y-103556909D01*
X135564433Y-103757280D01*
X135443945Y-103937604D01*
X135290584Y-104090965D01*
X135110260Y-104211453D01*
X135010074Y-104252951D01*
X134909890Y-104294449D01*
X134803535Y-104315604D01*
X134697180Y-104336760D01*
X134480300Y-104336760D01*
X134373946Y-104315605D01*
X134267590Y-104294449D01*
X134167406Y-104252951D01*
X134067220Y-104211453D01*
X133886896Y-104090965D01*
X133733535Y-103937604D01*
X133613047Y-103757280D01*
X133530051Y-103556909D01*
X133528758Y-103550407D01*
X133487740Y-103344199D01*
X133487740Y-103127321D01*
X133530051Y-102914610D01*
X133594735Y-102758450D01*
X133613047Y-102714240D01*
X133733535Y-102533916D01*
X133886896Y-102380555D01*
X134067220Y-102260067D01*
X134267590Y-102177071D01*
X134373945Y-102155916D01*
X134480300Y-102134760D01*
X134697180Y-102134760D01*
X134803535Y-102155916D01*
G37*
G36*
X179463535Y-102155916D02*
G01*
X179569890Y-102177071D01*
X179770260Y-102260067D01*
X179950584Y-102380555D01*
X180103945Y-102533916D01*
X180224433Y-102714240D01*
X180242745Y-102758450D01*
X180307429Y-102914610D01*
X180349740Y-103127321D01*
X180349740Y-103344199D01*
X180308723Y-103550407D01*
X180307429Y-103556909D01*
X180224433Y-103757280D01*
X180103945Y-103937604D01*
X179950584Y-104090965D01*
X179770260Y-104211453D01*
X179670074Y-104252951D01*
X179569890Y-104294449D01*
X179463535Y-104315604D01*
X179357180Y-104336760D01*
X179140300Y-104336760D01*
X179033946Y-104315605D01*
X178927590Y-104294449D01*
X178827406Y-104252951D01*
X178727220Y-104211453D01*
X178546896Y-104090965D01*
X178393535Y-103937604D01*
X178273047Y-103757280D01*
X178190051Y-103556909D01*
X178188758Y-103550407D01*
X178147740Y-103344199D01*
X178147740Y-103127321D01*
X178190051Y-102914610D01*
X178254735Y-102758450D01*
X178273047Y-102714240D01*
X178393535Y-102533916D01*
X178546896Y-102380555D01*
X178727220Y-102260067D01*
X178927590Y-102177071D01*
X179033945Y-102155916D01*
X179140300Y-102134760D01*
X179357180Y-102134760D01*
X179463535Y-102155916D01*
G37*
G36*
X45483535Y-102155916D02*
G01*
X45589890Y-102177071D01*
X45790260Y-102260067D01*
X45970584Y-102380555D01*
X46123945Y-102533916D01*
X46244433Y-102714240D01*
X46262745Y-102758450D01*
X46327429Y-102914610D01*
X46369740Y-103127321D01*
X46369740Y-103344199D01*
X46328723Y-103550407D01*
X46327429Y-103556909D01*
X46244433Y-103757280D01*
X46123945Y-103937604D01*
X45970584Y-104090965D01*
X45790260Y-104211453D01*
X45690074Y-104252951D01*
X45589890Y-104294449D01*
X45483535Y-104315604D01*
X45377180Y-104336760D01*
X45160300Y-104336760D01*
X45053946Y-104315605D01*
X44947590Y-104294449D01*
X44847406Y-104252951D01*
X44747220Y-104211453D01*
X44566896Y-104090965D01*
X44413535Y-103937604D01*
X44293047Y-103757280D01*
X44210051Y-103556909D01*
X44208758Y-103550407D01*
X44167740Y-103344199D01*
X44167740Y-103127321D01*
X44210051Y-102914610D01*
X44274735Y-102758450D01*
X44293047Y-102714240D01*
X44413535Y-102533916D01*
X44566896Y-102380555D01*
X44747220Y-102260067D01*
X44947590Y-102177071D01*
X45053945Y-102155916D01*
X45160300Y-102134760D01*
X45377180Y-102134760D01*
X45483535Y-102155916D01*
G37*
G36*
X23153535Y-102155916D02*
G01*
X23259890Y-102177071D01*
X23460260Y-102260067D01*
X23640584Y-102380555D01*
X23793945Y-102533916D01*
X23914433Y-102714240D01*
X23932745Y-102758450D01*
X23997429Y-102914610D01*
X24039740Y-103127321D01*
X24039740Y-103344199D01*
X23998723Y-103550407D01*
X23997429Y-103556909D01*
X23914433Y-103757280D01*
X23793945Y-103937604D01*
X23640584Y-104090965D01*
X23460260Y-104211453D01*
X23360074Y-104252951D01*
X23259890Y-104294449D01*
X23153535Y-104315604D01*
X23047180Y-104336760D01*
X22830300Y-104336760D01*
X22723946Y-104315605D01*
X22617590Y-104294449D01*
X22517406Y-104252951D01*
X22417220Y-104211453D01*
X22236896Y-104090965D01*
X22083535Y-103937604D01*
X21963047Y-103757280D01*
X21880051Y-103556909D01*
X21878758Y-103550407D01*
X21837740Y-103344199D01*
X21837740Y-103127321D01*
X21880051Y-102914610D01*
X21944735Y-102758450D01*
X21963047Y-102714240D01*
X22083535Y-102533916D01*
X22236896Y-102380555D01*
X22417220Y-102260067D01*
X22617590Y-102177071D01*
X22723945Y-102155916D01*
X22830300Y-102134760D01*
X23047180Y-102134760D01*
X23153535Y-102155916D01*
G37*
G36*
X157133535Y-102155916D02*
G01*
X157239890Y-102177071D01*
X157440260Y-102260067D01*
X157620584Y-102380555D01*
X157773945Y-102533916D01*
X157894433Y-102714240D01*
X157912745Y-102758450D01*
X157977429Y-102914610D01*
X158019740Y-103127321D01*
X158019740Y-103344199D01*
X157978723Y-103550407D01*
X157977429Y-103556909D01*
X157894433Y-103757280D01*
X157773945Y-103937604D01*
X157620584Y-104090965D01*
X157440260Y-104211453D01*
X157340074Y-104252951D01*
X157239890Y-104294449D01*
X157133535Y-104315604D01*
X157027180Y-104336760D01*
X156810300Y-104336760D01*
X156703946Y-104315605D01*
X156597590Y-104294449D01*
X156497406Y-104252951D01*
X156397220Y-104211453D01*
X156216896Y-104090965D01*
X156063535Y-103937604D01*
X155943047Y-103757280D01*
X155860051Y-103556909D01*
X155858758Y-103550407D01*
X155817740Y-103344199D01*
X155817740Y-103127321D01*
X155860051Y-102914610D01*
X155924735Y-102758450D01*
X155943047Y-102714240D01*
X156063535Y-102533916D01*
X156216896Y-102380555D01*
X156397220Y-102260067D01*
X156597590Y-102177071D01*
X156703945Y-102155916D01*
X156810300Y-102134760D01*
X157027180Y-102134760D01*
X157133535Y-102155916D01*
G37*
G36*
X90143535Y-102155916D02*
G01*
X90249890Y-102177071D01*
X90450260Y-102260067D01*
X90630584Y-102380555D01*
X90783945Y-102533916D01*
X90904433Y-102714240D01*
X90922745Y-102758450D01*
X90987429Y-102914610D01*
X91029740Y-103127321D01*
X91029740Y-103344199D01*
X90988723Y-103550407D01*
X90987429Y-103556909D01*
X90904433Y-103757280D01*
X90783945Y-103937604D01*
X90630584Y-104090965D01*
X90450260Y-104211453D01*
X90350074Y-104252951D01*
X90249890Y-104294449D01*
X90143535Y-104315604D01*
X90037180Y-104336760D01*
X89820300Y-104336760D01*
X89713946Y-104315605D01*
X89607590Y-104294449D01*
X89507406Y-104252951D01*
X89407220Y-104211453D01*
X89226896Y-104090965D01*
X89073535Y-103937604D01*
X88953047Y-103757280D01*
X88870051Y-103556909D01*
X88868758Y-103550407D01*
X88827740Y-103344199D01*
X88827740Y-103127321D01*
X88870051Y-102914610D01*
X88934735Y-102758450D01*
X88953047Y-102714240D01*
X89073535Y-102533916D01*
X89226896Y-102380555D01*
X89407220Y-102260067D01*
X89607590Y-102177071D01*
X89713945Y-102155916D01*
X89820300Y-102134760D01*
X90037180Y-102134760D01*
X90143535Y-102155916D01*
G37*
G36*
X112473535Y-102155916D02*
G01*
X112579890Y-102177071D01*
X112780260Y-102260067D01*
X112960584Y-102380555D01*
X113113945Y-102533916D01*
X113234433Y-102714240D01*
X113252745Y-102758450D01*
X113317429Y-102914610D01*
X113359740Y-103127321D01*
X113359740Y-103344199D01*
X113318723Y-103550407D01*
X113317429Y-103556909D01*
X113234433Y-103757280D01*
X113113945Y-103937604D01*
X112960584Y-104090965D01*
X112780260Y-104211453D01*
X112680074Y-104252951D01*
X112579890Y-104294449D01*
X112473535Y-104315604D01*
X112367180Y-104336760D01*
X112150300Y-104336760D01*
X112043946Y-104315605D01*
X111937590Y-104294449D01*
X111837406Y-104252951D01*
X111737220Y-104211453D01*
X111556896Y-104090965D01*
X111403535Y-103937604D01*
X111283047Y-103757280D01*
X111200051Y-103556909D01*
X111198758Y-103550407D01*
X111157740Y-103344199D01*
X111157740Y-103127321D01*
X111200051Y-102914610D01*
X111264735Y-102758450D01*
X111283047Y-102714240D01*
X111403535Y-102533916D01*
X111556896Y-102380555D01*
X111737220Y-102260067D01*
X111937590Y-102177071D01*
X112043945Y-102155916D01*
X112150300Y-102134760D01*
X112367180Y-102134760D01*
X112473535Y-102155916D01*
G37*
G36*
X67813535Y-102155916D02*
G01*
X67919890Y-102177071D01*
X68120260Y-102260067D01*
X68300584Y-102380555D01*
X68453945Y-102533916D01*
X68574433Y-102714240D01*
X68592745Y-102758450D01*
X68657429Y-102914610D01*
X68699740Y-103127321D01*
X68699740Y-103344199D01*
X68658723Y-103550407D01*
X68657429Y-103556909D01*
X68574433Y-103757280D01*
X68453945Y-103937604D01*
X68300584Y-104090965D01*
X68120260Y-104211453D01*
X68020074Y-104252951D01*
X67919890Y-104294449D01*
X67813535Y-104315604D01*
X67707180Y-104336760D01*
X67490300Y-104336760D01*
X67383946Y-104315605D01*
X67277590Y-104294449D01*
X67177406Y-104252951D01*
X67077220Y-104211453D01*
X66896896Y-104090965D01*
X66743535Y-103937604D01*
X66623047Y-103757280D01*
X66540051Y-103556909D01*
X66538758Y-103550407D01*
X66497740Y-103344199D01*
X66497740Y-103127321D01*
X66540051Y-102914610D01*
X66604735Y-102758450D01*
X66623047Y-102714240D01*
X66743535Y-102533916D01*
X66896896Y-102380555D01*
X67077220Y-102260067D01*
X67277590Y-102177071D01*
X67383945Y-102155916D01*
X67490300Y-102134760D01*
X67707180Y-102134760D01*
X67813535Y-102155916D01*
G37*
G36*
X109527586Y-103776543D02*
G01*
X109527587Y-103776543D01*
X109527590Y-103776544D01*
X109564169Y-103791696D01*
X109597090Y-103813693D01*
X109625087Y-103841690D01*
X109647084Y-103874611D01*
X109662236Y-103911190D01*
X109669960Y-103950023D01*
X109669960Y-103989617D01*
X109662236Y-104028450D01*
X109647084Y-104065029D01*
X109625087Y-104097950D01*
X109597090Y-104125947D01*
X109564169Y-104147944D01*
X109527590Y-104163096D01*
X109527587Y-104163097D01*
X109527586Y-104163097D01*
X109488758Y-104170820D01*
X109449162Y-104170820D01*
X109410334Y-104163097D01*
X109410333Y-104163097D01*
X109410330Y-104163096D01*
X109373751Y-104147944D01*
X109340830Y-104125947D01*
X109312833Y-104097950D01*
X109290836Y-104065029D01*
X109275684Y-104028450D01*
X109267960Y-103989617D01*
X109267960Y-103950023D01*
X109275684Y-103911190D01*
X109290836Y-103874611D01*
X109312833Y-103841690D01*
X109340830Y-103813693D01*
X109373751Y-103791696D01*
X109410330Y-103776544D01*
X109410333Y-103776543D01*
X109410334Y-103776543D01*
X109449162Y-103768820D01*
X109488758Y-103768820D01*
X109527586Y-103776543D01*
G37*
G36*
X63343586Y-103776543D02*
G01*
X63343587Y-103776543D01*
X63343590Y-103776544D01*
X63380169Y-103791696D01*
X63413090Y-103813693D01*
X63441087Y-103841690D01*
X63463084Y-103874611D01*
X63478236Y-103911190D01*
X63485960Y-103950023D01*
X63485960Y-103989617D01*
X63478236Y-104028450D01*
X63463084Y-104065029D01*
X63441087Y-104097950D01*
X63413090Y-104125947D01*
X63380169Y-104147944D01*
X63343590Y-104163096D01*
X63343587Y-104163097D01*
X63343586Y-104163097D01*
X63304758Y-104170820D01*
X63265162Y-104170820D01*
X63226334Y-104163097D01*
X63226333Y-104163097D01*
X63226330Y-104163096D01*
X63189751Y-104147944D01*
X63156830Y-104125947D01*
X63128833Y-104097950D01*
X63106836Y-104065029D01*
X63091684Y-104028450D01*
X63083960Y-103989617D01*
X63083960Y-103950023D01*
X63091684Y-103911190D01*
X63106836Y-103874611D01*
X63128833Y-103841690D01*
X63156830Y-103813693D01*
X63189751Y-103791696D01*
X63226330Y-103776544D01*
X63226333Y-103776543D01*
X63226334Y-103776543D01*
X63265162Y-103768820D01*
X63304758Y-103768820D01*
X63343586Y-103776543D01*
G37*
G36*
X64867586Y-103776543D02*
G01*
X64867587Y-103776543D01*
X64867590Y-103776544D01*
X64904169Y-103791696D01*
X64937090Y-103813693D01*
X64965087Y-103841690D01*
X64987084Y-103874611D01*
X65002236Y-103911190D01*
X65009960Y-103950023D01*
X65009960Y-103989617D01*
X65002236Y-104028450D01*
X64987084Y-104065029D01*
X64965087Y-104097950D01*
X64937090Y-104125947D01*
X64904169Y-104147944D01*
X64867590Y-104163096D01*
X64867587Y-104163097D01*
X64867586Y-104163097D01*
X64828758Y-104170820D01*
X64789162Y-104170820D01*
X64750334Y-104163097D01*
X64750333Y-104163097D01*
X64750330Y-104163096D01*
X64713751Y-104147944D01*
X64680830Y-104125947D01*
X64652833Y-104097950D01*
X64630836Y-104065029D01*
X64615684Y-104028450D01*
X64607960Y-103989617D01*
X64607960Y-103950023D01*
X64615684Y-103911190D01*
X64630836Y-103874611D01*
X64652833Y-103841690D01*
X64680830Y-103813693D01*
X64713751Y-103791696D01*
X64750330Y-103776544D01*
X64750333Y-103776543D01*
X64750334Y-103776543D01*
X64789162Y-103768820D01*
X64828758Y-103768820D01*
X64867586Y-103776543D01*
G37*
G36*
X85673586Y-103776543D02*
G01*
X85673587Y-103776543D01*
X85673590Y-103776544D01*
X85710169Y-103791696D01*
X85743090Y-103813693D01*
X85771087Y-103841690D01*
X85793084Y-103874611D01*
X85808236Y-103911190D01*
X85815960Y-103950023D01*
X85815960Y-103989617D01*
X85808236Y-104028450D01*
X85793084Y-104065029D01*
X85771087Y-104097950D01*
X85743090Y-104125947D01*
X85710169Y-104147944D01*
X85673590Y-104163096D01*
X85673587Y-104163097D01*
X85673586Y-104163097D01*
X85634758Y-104170820D01*
X85595162Y-104170820D01*
X85556334Y-104163097D01*
X85556333Y-104163097D01*
X85556330Y-104163096D01*
X85519751Y-104147944D01*
X85486830Y-104125947D01*
X85458833Y-104097950D01*
X85436836Y-104065029D01*
X85421684Y-104028450D01*
X85413960Y-103989617D01*
X85413960Y-103950023D01*
X85421684Y-103911190D01*
X85436836Y-103874611D01*
X85458833Y-103841690D01*
X85486830Y-103813693D01*
X85519751Y-103791696D01*
X85556330Y-103776544D01*
X85556333Y-103776543D01*
X85556334Y-103776543D01*
X85595162Y-103768820D01*
X85634758Y-103768820D01*
X85673586Y-103776543D01*
G37*
G36*
X87197586Y-103776543D02*
G01*
X87197587Y-103776543D01*
X87197590Y-103776544D01*
X87234169Y-103791696D01*
X87267090Y-103813693D01*
X87295087Y-103841690D01*
X87317084Y-103874611D01*
X87332236Y-103911190D01*
X87339960Y-103950023D01*
X87339960Y-103989617D01*
X87332236Y-104028450D01*
X87317084Y-104065029D01*
X87295087Y-104097950D01*
X87267090Y-104125947D01*
X87234169Y-104147944D01*
X87197590Y-104163096D01*
X87197587Y-104163097D01*
X87197586Y-104163097D01*
X87158758Y-104170820D01*
X87119162Y-104170820D01*
X87080334Y-104163097D01*
X87080333Y-104163097D01*
X87080330Y-104163096D01*
X87043751Y-104147944D01*
X87010830Y-104125947D01*
X86982833Y-104097950D01*
X86960836Y-104065029D01*
X86945684Y-104028450D01*
X86937960Y-103989617D01*
X86937960Y-103950023D01*
X86945684Y-103911190D01*
X86960836Y-103874611D01*
X86982833Y-103841690D01*
X87010830Y-103813693D01*
X87043751Y-103791696D01*
X87080330Y-103776544D01*
X87080333Y-103776543D01*
X87080334Y-103776543D01*
X87119162Y-103768820D01*
X87158758Y-103768820D01*
X87197586Y-103776543D01*
G37*
G36*
X176517586Y-103776543D02*
G01*
X176517587Y-103776543D01*
X176517590Y-103776544D01*
X176554169Y-103791696D01*
X176587090Y-103813693D01*
X176615087Y-103841690D01*
X176637084Y-103874611D01*
X176652236Y-103911190D01*
X176659960Y-103950023D01*
X176659960Y-103989617D01*
X176652236Y-104028450D01*
X176637084Y-104065029D01*
X176615087Y-104097950D01*
X176587090Y-104125947D01*
X176554169Y-104147944D01*
X176517590Y-104163096D01*
X176517587Y-104163097D01*
X176517586Y-104163097D01*
X176478758Y-104170820D01*
X176439162Y-104170820D01*
X176400334Y-104163097D01*
X176400333Y-104163097D01*
X176400330Y-104163096D01*
X176363751Y-104147944D01*
X176330830Y-104125947D01*
X176302833Y-104097950D01*
X176280836Y-104065029D01*
X176265684Y-104028450D01*
X176257960Y-103989617D01*
X176257960Y-103950023D01*
X176265684Y-103911190D01*
X176280836Y-103874611D01*
X176302833Y-103841690D01*
X176330830Y-103813693D01*
X176363751Y-103791696D01*
X176400330Y-103776544D01*
X176400333Y-103776543D01*
X176400334Y-103776543D01*
X176439162Y-103768820D01*
X176478758Y-103768820D01*
X176517586Y-103776543D01*
G37*
G36*
X108003586Y-103776543D02*
G01*
X108003587Y-103776543D01*
X108003590Y-103776544D01*
X108040169Y-103791696D01*
X108073090Y-103813693D01*
X108101087Y-103841690D01*
X108123084Y-103874611D01*
X108138236Y-103911190D01*
X108145960Y-103950023D01*
X108145960Y-103989617D01*
X108138236Y-104028450D01*
X108123084Y-104065029D01*
X108101087Y-104097950D01*
X108073090Y-104125947D01*
X108040169Y-104147944D01*
X108003590Y-104163096D01*
X108003587Y-104163097D01*
X108003586Y-104163097D01*
X107964758Y-104170820D01*
X107925162Y-104170820D01*
X107886334Y-104163097D01*
X107886333Y-104163097D01*
X107886330Y-104163096D01*
X107849751Y-104147944D01*
X107816830Y-104125947D01*
X107788833Y-104097950D01*
X107766836Y-104065029D01*
X107751684Y-104028450D01*
X107743960Y-103989617D01*
X107743960Y-103950023D01*
X107751684Y-103911190D01*
X107766836Y-103874611D01*
X107788833Y-103841690D01*
X107816830Y-103813693D01*
X107849751Y-103791696D01*
X107886330Y-103776544D01*
X107886333Y-103776543D01*
X107886334Y-103776543D01*
X107925162Y-103768820D01*
X107964758Y-103768820D01*
X108003586Y-103776543D01*
G37*
G36*
X41013586Y-103776543D02*
G01*
X41013587Y-103776543D01*
X41013590Y-103776544D01*
X41050169Y-103791696D01*
X41083090Y-103813693D01*
X41111087Y-103841690D01*
X41133084Y-103874611D01*
X41148236Y-103911190D01*
X41155960Y-103950023D01*
X41155960Y-103989617D01*
X41148236Y-104028450D01*
X41133084Y-104065029D01*
X41111087Y-104097950D01*
X41083090Y-104125947D01*
X41050169Y-104147944D01*
X41013590Y-104163096D01*
X41013587Y-104163097D01*
X41013586Y-104163097D01*
X40974758Y-104170820D01*
X40935162Y-104170820D01*
X40896334Y-104163097D01*
X40896333Y-104163097D01*
X40896330Y-104163096D01*
X40859751Y-104147944D01*
X40826830Y-104125947D01*
X40798833Y-104097950D01*
X40776836Y-104065029D01*
X40761684Y-104028450D01*
X40753960Y-103989617D01*
X40753960Y-103950023D01*
X40761684Y-103911190D01*
X40776836Y-103874611D01*
X40798833Y-103841690D01*
X40826830Y-103813693D01*
X40859751Y-103791696D01*
X40896330Y-103776544D01*
X40896333Y-103776543D01*
X40896334Y-103776543D01*
X40935162Y-103768820D01*
X40974758Y-103768820D01*
X41013586Y-103776543D01*
G37*
G36*
X42537586Y-103776543D02*
G01*
X42537587Y-103776543D01*
X42537590Y-103776544D01*
X42574169Y-103791696D01*
X42607090Y-103813693D01*
X42635087Y-103841690D01*
X42657084Y-103874611D01*
X42672236Y-103911190D01*
X42679960Y-103950023D01*
X42679960Y-103989617D01*
X42672236Y-104028450D01*
X42657084Y-104065029D01*
X42635087Y-104097950D01*
X42607090Y-104125947D01*
X42574169Y-104147944D01*
X42537590Y-104163096D01*
X42537587Y-104163097D01*
X42537586Y-104163097D01*
X42498758Y-104170820D01*
X42459162Y-104170820D01*
X42420334Y-104163097D01*
X42420333Y-104163097D01*
X42420330Y-104163096D01*
X42383751Y-104147944D01*
X42350830Y-104125947D01*
X42322833Y-104097950D01*
X42300836Y-104065029D01*
X42285684Y-104028450D01*
X42277960Y-103989617D01*
X42277960Y-103950023D01*
X42285684Y-103911190D01*
X42300836Y-103874611D01*
X42322833Y-103841690D01*
X42350830Y-103813693D01*
X42383751Y-103791696D01*
X42420330Y-103776544D01*
X42420333Y-103776543D01*
X42420334Y-103776543D01*
X42459162Y-103768820D01*
X42498758Y-103768820D01*
X42537586Y-103776543D01*
G37*
G36*
X154187586Y-103776543D02*
G01*
X154187587Y-103776543D01*
X154187590Y-103776544D01*
X154224169Y-103791696D01*
X154257090Y-103813693D01*
X154285087Y-103841690D01*
X154307084Y-103874611D01*
X154322236Y-103911190D01*
X154329960Y-103950023D01*
X154329960Y-103989617D01*
X154322236Y-104028450D01*
X154307084Y-104065029D01*
X154285087Y-104097950D01*
X154257090Y-104125947D01*
X154224169Y-104147944D01*
X154187590Y-104163096D01*
X154187587Y-104163097D01*
X154187586Y-104163097D01*
X154148758Y-104170820D01*
X154109162Y-104170820D01*
X154070334Y-104163097D01*
X154070333Y-104163097D01*
X154070330Y-104163096D01*
X154033751Y-104147944D01*
X154000830Y-104125947D01*
X153972833Y-104097950D01*
X153950836Y-104065029D01*
X153935684Y-104028450D01*
X153927960Y-103989617D01*
X153927960Y-103950023D01*
X153935684Y-103911190D01*
X153950836Y-103874611D01*
X153972833Y-103841690D01*
X154000830Y-103813693D01*
X154033751Y-103791696D01*
X154070330Y-103776544D01*
X154070333Y-103776543D01*
X154070334Y-103776543D01*
X154109162Y-103768820D01*
X154148758Y-103768820D01*
X154187586Y-103776543D01*
G37*
G36*
X131857586Y-103776543D02*
G01*
X131857587Y-103776543D01*
X131857590Y-103776544D01*
X131894169Y-103791696D01*
X131927090Y-103813693D01*
X131955087Y-103841690D01*
X131977084Y-103874611D01*
X131992236Y-103911190D01*
X131999960Y-103950023D01*
X131999960Y-103989617D01*
X131992236Y-104028450D01*
X131977084Y-104065029D01*
X131955087Y-104097950D01*
X131927090Y-104125947D01*
X131894169Y-104147944D01*
X131857590Y-104163096D01*
X131857587Y-104163097D01*
X131857586Y-104163097D01*
X131818758Y-104170820D01*
X131779162Y-104170820D01*
X131740334Y-104163097D01*
X131740333Y-104163097D01*
X131740330Y-104163096D01*
X131703751Y-104147944D01*
X131670830Y-104125947D01*
X131642833Y-104097950D01*
X131620836Y-104065029D01*
X131605684Y-104028450D01*
X131597960Y-103989617D01*
X131597960Y-103950023D01*
X131605684Y-103911190D01*
X131620836Y-103874611D01*
X131642833Y-103841690D01*
X131670830Y-103813693D01*
X131703751Y-103791696D01*
X131740330Y-103776544D01*
X131740333Y-103776543D01*
X131740334Y-103776543D01*
X131779162Y-103768820D01*
X131818758Y-103768820D01*
X131857586Y-103776543D01*
G37*
G36*
X130333586Y-103776543D02*
G01*
X130333587Y-103776543D01*
X130333590Y-103776544D01*
X130370169Y-103791696D01*
X130403090Y-103813693D01*
X130431087Y-103841690D01*
X130453084Y-103874611D01*
X130468236Y-103911190D01*
X130475960Y-103950023D01*
X130475960Y-103989617D01*
X130468236Y-104028450D01*
X130453084Y-104065029D01*
X130431087Y-104097950D01*
X130403090Y-104125947D01*
X130370169Y-104147944D01*
X130333590Y-104163096D01*
X130333587Y-104163097D01*
X130333586Y-104163097D01*
X130294758Y-104170820D01*
X130255162Y-104170820D01*
X130216334Y-104163097D01*
X130216333Y-104163097D01*
X130216330Y-104163096D01*
X130179751Y-104147944D01*
X130146830Y-104125947D01*
X130118833Y-104097950D01*
X130096836Y-104065029D01*
X130081684Y-104028450D01*
X130073960Y-103989617D01*
X130073960Y-103950023D01*
X130081684Y-103911190D01*
X130096836Y-103874611D01*
X130118833Y-103841690D01*
X130146830Y-103813693D01*
X130179751Y-103791696D01*
X130216330Y-103776544D01*
X130216333Y-103776543D01*
X130216334Y-103776543D01*
X130255162Y-103768820D01*
X130294758Y-103768820D01*
X130333586Y-103776543D01*
G37*
G36*
X174993586Y-103776543D02*
G01*
X174993587Y-103776543D01*
X174993590Y-103776544D01*
X175030169Y-103791696D01*
X175063090Y-103813693D01*
X175091087Y-103841690D01*
X175113084Y-103874611D01*
X175128236Y-103911190D01*
X175135960Y-103950023D01*
X175135960Y-103989617D01*
X175128236Y-104028450D01*
X175113084Y-104065029D01*
X175091087Y-104097950D01*
X175063090Y-104125947D01*
X175030169Y-104147944D01*
X174993590Y-104163096D01*
X174993587Y-104163097D01*
X174993586Y-104163097D01*
X174954758Y-104170820D01*
X174915162Y-104170820D01*
X174876334Y-104163097D01*
X174876333Y-104163097D01*
X174876330Y-104163096D01*
X174839751Y-104147944D01*
X174806830Y-104125947D01*
X174778833Y-104097950D01*
X174756836Y-104065029D01*
X174741684Y-104028450D01*
X174733960Y-103989617D01*
X174733960Y-103950023D01*
X174741684Y-103911190D01*
X174756836Y-103874611D01*
X174778833Y-103841690D01*
X174806830Y-103813693D01*
X174839751Y-103791696D01*
X174876330Y-103776544D01*
X174876333Y-103776543D01*
X174876334Y-103776543D01*
X174915162Y-103768820D01*
X174954758Y-103768820D01*
X174993586Y-103776543D01*
G37*
G36*
X152663586Y-103776543D02*
G01*
X152663587Y-103776543D01*
X152663590Y-103776544D01*
X152700169Y-103791696D01*
X152733090Y-103813693D01*
X152761087Y-103841690D01*
X152783084Y-103874611D01*
X152798236Y-103911190D01*
X152805960Y-103950023D01*
X152805960Y-103989617D01*
X152798236Y-104028450D01*
X152783084Y-104065029D01*
X152761087Y-104097950D01*
X152733090Y-104125947D01*
X152700169Y-104147944D01*
X152663590Y-104163096D01*
X152663587Y-104163097D01*
X152663586Y-104163097D01*
X152624758Y-104170820D01*
X152585162Y-104170820D01*
X152546334Y-104163097D01*
X152546333Y-104163097D01*
X152546330Y-104163096D01*
X152509751Y-104147944D01*
X152476830Y-104125947D01*
X152448833Y-104097950D01*
X152426836Y-104065029D01*
X152411684Y-104028450D01*
X152403960Y-103989617D01*
X152403960Y-103950023D01*
X152411684Y-103911190D01*
X152426836Y-103874611D01*
X152448833Y-103841690D01*
X152476830Y-103813693D01*
X152509751Y-103791696D01*
X152546330Y-103776544D01*
X152546333Y-103776543D01*
X152546334Y-103776543D01*
X152585162Y-103768820D01*
X152624758Y-103768820D01*
X152663586Y-103776543D01*
G37*
G36*
X87197586Y-102506543D02*
G01*
X87197587Y-102506543D01*
X87197590Y-102506544D01*
X87234169Y-102521696D01*
X87267090Y-102543693D01*
X87295087Y-102571690D01*
X87317084Y-102604611D01*
X87332236Y-102641190D01*
X87339960Y-102680023D01*
X87339960Y-102719617D01*
X87332236Y-102758450D01*
X87317084Y-102795029D01*
X87295087Y-102827950D01*
X87267090Y-102855947D01*
X87234169Y-102877944D01*
X87197590Y-102893096D01*
X87197587Y-102893097D01*
X87197586Y-102893097D01*
X87158758Y-102900820D01*
X87119162Y-102900820D01*
X87080334Y-102893097D01*
X87080333Y-102893097D01*
X87080330Y-102893096D01*
X87043751Y-102877944D01*
X87010830Y-102855947D01*
X86982833Y-102827950D01*
X86960836Y-102795029D01*
X86945684Y-102758450D01*
X86937960Y-102719617D01*
X86937960Y-102680023D01*
X86945684Y-102641190D01*
X86960836Y-102604611D01*
X86982833Y-102571690D01*
X87010830Y-102543693D01*
X87043751Y-102521696D01*
X87080330Y-102506544D01*
X87080333Y-102506543D01*
X87080334Y-102506543D01*
X87119162Y-102498820D01*
X87158758Y-102498820D01*
X87197586Y-102506543D01*
G37*
G36*
X109527586Y-102506543D02*
G01*
X109527587Y-102506543D01*
X109527590Y-102506544D01*
X109564169Y-102521696D01*
X109597090Y-102543693D01*
X109625087Y-102571690D01*
X109647084Y-102604611D01*
X109662236Y-102641190D01*
X109669960Y-102680023D01*
X109669960Y-102719617D01*
X109662236Y-102758450D01*
X109647084Y-102795029D01*
X109625087Y-102827950D01*
X109597090Y-102855947D01*
X109564169Y-102877944D01*
X109527590Y-102893096D01*
X109527587Y-102893097D01*
X109527586Y-102893097D01*
X109488758Y-102900820D01*
X109449162Y-102900820D01*
X109410334Y-102893097D01*
X109410333Y-102893097D01*
X109410330Y-102893096D01*
X109373751Y-102877944D01*
X109340830Y-102855947D01*
X109312833Y-102827950D01*
X109290836Y-102795029D01*
X109275684Y-102758450D01*
X109267960Y-102719617D01*
X109267960Y-102680023D01*
X109275684Y-102641190D01*
X109290836Y-102604611D01*
X109312833Y-102571690D01*
X109340830Y-102543693D01*
X109373751Y-102521696D01*
X109410330Y-102506544D01*
X109410333Y-102506543D01*
X109410334Y-102506543D01*
X109449162Y-102498820D01*
X109488758Y-102498820D01*
X109527586Y-102506543D01*
G37*
G36*
X63343586Y-102506543D02*
G01*
X63343587Y-102506543D01*
X63343590Y-102506544D01*
X63380169Y-102521696D01*
X63413090Y-102543693D01*
X63441087Y-102571690D01*
X63463084Y-102604611D01*
X63478236Y-102641190D01*
X63485960Y-102680023D01*
X63485960Y-102719617D01*
X63478236Y-102758450D01*
X63463084Y-102795029D01*
X63441087Y-102827950D01*
X63413090Y-102855947D01*
X63380169Y-102877944D01*
X63343590Y-102893096D01*
X63343587Y-102893097D01*
X63343586Y-102893097D01*
X63304758Y-102900820D01*
X63265162Y-102900820D01*
X63226334Y-102893097D01*
X63226333Y-102893097D01*
X63226330Y-102893096D01*
X63189751Y-102877944D01*
X63156830Y-102855947D01*
X63128833Y-102827950D01*
X63106836Y-102795029D01*
X63091684Y-102758450D01*
X63083960Y-102719617D01*
X63083960Y-102680023D01*
X63091684Y-102641190D01*
X63106836Y-102604611D01*
X63128833Y-102571690D01*
X63156830Y-102543693D01*
X63189751Y-102521696D01*
X63226330Y-102506544D01*
X63226333Y-102506543D01*
X63226334Y-102506543D01*
X63265162Y-102498820D01*
X63304758Y-102498820D01*
X63343586Y-102506543D01*
G37*
G36*
X108003586Y-102506543D02*
G01*
X108003587Y-102506543D01*
X108003590Y-102506544D01*
X108040169Y-102521696D01*
X108073090Y-102543693D01*
X108101087Y-102571690D01*
X108123084Y-102604611D01*
X108138236Y-102641190D01*
X108145960Y-102680023D01*
X108145960Y-102719617D01*
X108138236Y-102758450D01*
X108123084Y-102795029D01*
X108101087Y-102827950D01*
X108073090Y-102855947D01*
X108040169Y-102877944D01*
X108003590Y-102893096D01*
X108003587Y-102893097D01*
X108003586Y-102893097D01*
X107964758Y-102900820D01*
X107925162Y-102900820D01*
X107886334Y-102893097D01*
X107886333Y-102893097D01*
X107886330Y-102893096D01*
X107849751Y-102877944D01*
X107816830Y-102855947D01*
X107788833Y-102827950D01*
X107766836Y-102795029D01*
X107751684Y-102758450D01*
X107743960Y-102719617D01*
X107743960Y-102680023D01*
X107751684Y-102641190D01*
X107766836Y-102604611D01*
X107788833Y-102571690D01*
X107816830Y-102543693D01*
X107849751Y-102521696D01*
X107886330Y-102506544D01*
X107886333Y-102506543D01*
X107886334Y-102506543D01*
X107925162Y-102498820D01*
X107964758Y-102498820D01*
X108003586Y-102506543D01*
G37*
G36*
X64867586Y-102506543D02*
G01*
X64867587Y-102506543D01*
X64867590Y-102506544D01*
X64904169Y-102521696D01*
X64937090Y-102543693D01*
X64965087Y-102571690D01*
X64987084Y-102604611D01*
X65002236Y-102641190D01*
X65009960Y-102680023D01*
X65009960Y-102719617D01*
X65002236Y-102758450D01*
X64987084Y-102795029D01*
X64965087Y-102827950D01*
X64937090Y-102855947D01*
X64904169Y-102877944D01*
X64867590Y-102893096D01*
X64867587Y-102893097D01*
X64867586Y-102893097D01*
X64828758Y-102900820D01*
X64789162Y-102900820D01*
X64750334Y-102893097D01*
X64750333Y-102893097D01*
X64750330Y-102893096D01*
X64713751Y-102877944D01*
X64680830Y-102855947D01*
X64652833Y-102827950D01*
X64630836Y-102795029D01*
X64615684Y-102758450D01*
X64607960Y-102719617D01*
X64607960Y-102680023D01*
X64615684Y-102641190D01*
X64630836Y-102604611D01*
X64652833Y-102571690D01*
X64680830Y-102543693D01*
X64713751Y-102521696D01*
X64750330Y-102506544D01*
X64750333Y-102506543D01*
X64750334Y-102506543D01*
X64789162Y-102498820D01*
X64828758Y-102498820D01*
X64867586Y-102506543D01*
G37*
G36*
X131857586Y-102506543D02*
G01*
X131857587Y-102506543D01*
X131857590Y-102506544D01*
X131894169Y-102521696D01*
X131927090Y-102543693D01*
X131955087Y-102571690D01*
X131977084Y-102604611D01*
X131992236Y-102641190D01*
X131999960Y-102680023D01*
X131999960Y-102719617D01*
X131992236Y-102758450D01*
X131977084Y-102795029D01*
X131955087Y-102827950D01*
X131927090Y-102855947D01*
X131894169Y-102877944D01*
X131857590Y-102893096D01*
X131857587Y-102893097D01*
X131857586Y-102893097D01*
X131818758Y-102900820D01*
X131779162Y-102900820D01*
X131740334Y-102893097D01*
X131740333Y-102893097D01*
X131740330Y-102893096D01*
X131703751Y-102877944D01*
X131670830Y-102855947D01*
X131642833Y-102827950D01*
X131620836Y-102795029D01*
X131605684Y-102758450D01*
X131597960Y-102719617D01*
X131597960Y-102680023D01*
X131605684Y-102641190D01*
X131620836Y-102604611D01*
X131642833Y-102571690D01*
X131670830Y-102543693D01*
X131703751Y-102521696D01*
X131740330Y-102506544D01*
X131740333Y-102506543D01*
X131740334Y-102506543D01*
X131779162Y-102498820D01*
X131818758Y-102498820D01*
X131857586Y-102506543D01*
G37*
G36*
X154187586Y-102506543D02*
G01*
X154187587Y-102506543D01*
X154187590Y-102506544D01*
X154224169Y-102521696D01*
X154257090Y-102543693D01*
X154285087Y-102571690D01*
X154307084Y-102604611D01*
X154322236Y-102641190D01*
X154329960Y-102680023D01*
X154329960Y-102719617D01*
X154322236Y-102758450D01*
X154307084Y-102795029D01*
X154285087Y-102827950D01*
X154257090Y-102855947D01*
X154224169Y-102877944D01*
X154187590Y-102893096D01*
X154187587Y-102893097D01*
X154187586Y-102893097D01*
X154148758Y-102900820D01*
X154109162Y-102900820D01*
X154070334Y-102893097D01*
X154070333Y-102893097D01*
X154070330Y-102893096D01*
X154033751Y-102877944D01*
X154000830Y-102855947D01*
X153972833Y-102827950D01*
X153950836Y-102795029D01*
X153935684Y-102758450D01*
X153927960Y-102719617D01*
X153927960Y-102680023D01*
X153935684Y-102641190D01*
X153950836Y-102604611D01*
X153972833Y-102571690D01*
X154000830Y-102543693D01*
X154033751Y-102521696D01*
X154070330Y-102506544D01*
X154070333Y-102506543D01*
X154070334Y-102506543D01*
X154109162Y-102498820D01*
X154148758Y-102498820D01*
X154187586Y-102506543D01*
G37*
G36*
X152663586Y-102506543D02*
G01*
X152663587Y-102506543D01*
X152663590Y-102506544D01*
X152700169Y-102521696D01*
X152733090Y-102543693D01*
X152761087Y-102571690D01*
X152783084Y-102604611D01*
X152798236Y-102641190D01*
X152805960Y-102680023D01*
X152805960Y-102719617D01*
X152798236Y-102758450D01*
X152783084Y-102795029D01*
X152761087Y-102827950D01*
X152733090Y-102855947D01*
X152700169Y-102877944D01*
X152663590Y-102893096D01*
X152663587Y-102893097D01*
X152663586Y-102893097D01*
X152624758Y-102900820D01*
X152585162Y-102900820D01*
X152546334Y-102893097D01*
X152546333Y-102893097D01*
X152546330Y-102893096D01*
X152509751Y-102877944D01*
X152476830Y-102855947D01*
X152448833Y-102827950D01*
X152426836Y-102795029D01*
X152411684Y-102758450D01*
X152403960Y-102719617D01*
X152403960Y-102680023D01*
X152411684Y-102641190D01*
X152426836Y-102604611D01*
X152448833Y-102571690D01*
X152476830Y-102543693D01*
X152509751Y-102521696D01*
X152546330Y-102506544D01*
X152546333Y-102506543D01*
X152546334Y-102506543D01*
X152585162Y-102498820D01*
X152624758Y-102498820D01*
X152663586Y-102506543D01*
G37*
G36*
X85673586Y-102506543D02*
G01*
X85673587Y-102506543D01*
X85673590Y-102506544D01*
X85710169Y-102521696D01*
X85743090Y-102543693D01*
X85771087Y-102571690D01*
X85793084Y-102604611D01*
X85808236Y-102641190D01*
X85815960Y-102680023D01*
X85815960Y-102719617D01*
X85808236Y-102758450D01*
X85793084Y-102795029D01*
X85771087Y-102827950D01*
X85743090Y-102855947D01*
X85710169Y-102877944D01*
X85673590Y-102893096D01*
X85673587Y-102893097D01*
X85673586Y-102893097D01*
X85634758Y-102900820D01*
X85595162Y-102900820D01*
X85556334Y-102893097D01*
X85556333Y-102893097D01*
X85556330Y-102893096D01*
X85519751Y-102877944D01*
X85486830Y-102855947D01*
X85458833Y-102827950D01*
X85436836Y-102795029D01*
X85421684Y-102758450D01*
X85413960Y-102719617D01*
X85413960Y-102680023D01*
X85421684Y-102641190D01*
X85436836Y-102604611D01*
X85458833Y-102571690D01*
X85486830Y-102543693D01*
X85519751Y-102521696D01*
X85556330Y-102506544D01*
X85556333Y-102506543D01*
X85556334Y-102506543D01*
X85595162Y-102498820D01*
X85634758Y-102498820D01*
X85673586Y-102506543D01*
G37*
G36*
X176517586Y-102506543D02*
G01*
X176517587Y-102506543D01*
X176517590Y-102506544D01*
X176554169Y-102521696D01*
X176587090Y-102543693D01*
X176615087Y-102571690D01*
X176637084Y-102604611D01*
X176652236Y-102641190D01*
X176659960Y-102680023D01*
X176659960Y-102719617D01*
X176652236Y-102758450D01*
X176637084Y-102795029D01*
X176615087Y-102827950D01*
X176587090Y-102855947D01*
X176554169Y-102877944D01*
X176517590Y-102893096D01*
X176517587Y-102893097D01*
X176517586Y-102893097D01*
X176478758Y-102900820D01*
X176439162Y-102900820D01*
X176400334Y-102893097D01*
X176400333Y-102893097D01*
X176400330Y-102893096D01*
X176363751Y-102877944D01*
X176330830Y-102855947D01*
X176302833Y-102827950D01*
X176280836Y-102795029D01*
X176265684Y-102758450D01*
X176257960Y-102719617D01*
X176257960Y-102680023D01*
X176265684Y-102641190D01*
X176280836Y-102604611D01*
X176302833Y-102571690D01*
X176330830Y-102543693D01*
X176363751Y-102521696D01*
X176400330Y-102506544D01*
X176400333Y-102506543D01*
X176400334Y-102506543D01*
X176439162Y-102498820D01*
X176478758Y-102498820D01*
X176517586Y-102506543D01*
G37*
G36*
X42537586Y-102506543D02*
G01*
X42537587Y-102506543D01*
X42537590Y-102506544D01*
X42574169Y-102521696D01*
X42607090Y-102543693D01*
X42635087Y-102571690D01*
X42657084Y-102604611D01*
X42672236Y-102641190D01*
X42679960Y-102680023D01*
X42679960Y-102719617D01*
X42672236Y-102758450D01*
X42657084Y-102795029D01*
X42635087Y-102827950D01*
X42607090Y-102855947D01*
X42574169Y-102877944D01*
X42537590Y-102893096D01*
X42537587Y-102893097D01*
X42537586Y-102893097D01*
X42498758Y-102900820D01*
X42459162Y-102900820D01*
X42420334Y-102893097D01*
X42420333Y-102893097D01*
X42420330Y-102893096D01*
X42383751Y-102877944D01*
X42350830Y-102855947D01*
X42322833Y-102827950D01*
X42300836Y-102795029D01*
X42285684Y-102758450D01*
X42277960Y-102719617D01*
X42277960Y-102680023D01*
X42285684Y-102641190D01*
X42300836Y-102604611D01*
X42322833Y-102571690D01*
X42350830Y-102543693D01*
X42383751Y-102521696D01*
X42420330Y-102506544D01*
X42420333Y-102506543D01*
X42420334Y-102506543D01*
X42459162Y-102498820D01*
X42498758Y-102498820D01*
X42537586Y-102506543D01*
G37*
G36*
X174993586Y-102506543D02*
G01*
X174993587Y-102506543D01*
X174993590Y-102506544D01*
X175030169Y-102521696D01*
X175063090Y-102543693D01*
X175091087Y-102571690D01*
X175113084Y-102604611D01*
X175128236Y-102641190D01*
X175135960Y-102680023D01*
X175135960Y-102719617D01*
X175128236Y-102758450D01*
X175113084Y-102795029D01*
X175091087Y-102827950D01*
X175063090Y-102855947D01*
X175030169Y-102877944D01*
X174993590Y-102893096D01*
X174993587Y-102893097D01*
X174993586Y-102893097D01*
X174954758Y-102900820D01*
X174915162Y-102900820D01*
X174876334Y-102893097D01*
X174876333Y-102893097D01*
X174876330Y-102893096D01*
X174839751Y-102877944D01*
X174806830Y-102855947D01*
X174778833Y-102827950D01*
X174756836Y-102795029D01*
X174741684Y-102758450D01*
X174733960Y-102719617D01*
X174733960Y-102680023D01*
X174741684Y-102641190D01*
X174756836Y-102604611D01*
X174778833Y-102571690D01*
X174806830Y-102543693D01*
X174839751Y-102521696D01*
X174876330Y-102506544D01*
X174876333Y-102506543D01*
X174876334Y-102506543D01*
X174915162Y-102498820D01*
X174954758Y-102498820D01*
X174993586Y-102506543D01*
G37*
G36*
X41013586Y-102506543D02*
G01*
X41013587Y-102506543D01*
X41013590Y-102506544D01*
X41050169Y-102521696D01*
X41083090Y-102543693D01*
X41111087Y-102571690D01*
X41133084Y-102604611D01*
X41148236Y-102641190D01*
X41155960Y-102680023D01*
X41155960Y-102719617D01*
X41148236Y-102758450D01*
X41133084Y-102795029D01*
X41111087Y-102827950D01*
X41083090Y-102855947D01*
X41050169Y-102877944D01*
X41013590Y-102893096D01*
X41013587Y-102893097D01*
X41013586Y-102893097D01*
X40974758Y-102900820D01*
X40935162Y-102900820D01*
X40896334Y-102893097D01*
X40896333Y-102893097D01*
X40896330Y-102893096D01*
X40859751Y-102877944D01*
X40826830Y-102855947D01*
X40798833Y-102827950D01*
X40776836Y-102795029D01*
X40761684Y-102758450D01*
X40753960Y-102719617D01*
X40753960Y-102680023D01*
X40761684Y-102641190D01*
X40776836Y-102604611D01*
X40798833Y-102571690D01*
X40826830Y-102543693D01*
X40859751Y-102521696D01*
X40896330Y-102506544D01*
X40896333Y-102506543D01*
X40896334Y-102506543D01*
X40935162Y-102498820D01*
X40974758Y-102498820D01*
X41013586Y-102506543D01*
G37*
G36*
X130333586Y-102506543D02*
G01*
X130333587Y-102506543D01*
X130333590Y-102506544D01*
X130370169Y-102521696D01*
X130403090Y-102543693D01*
X130431087Y-102571690D01*
X130453084Y-102604611D01*
X130468236Y-102641190D01*
X130475960Y-102680023D01*
X130475960Y-102719617D01*
X130468236Y-102758450D01*
X130453084Y-102795029D01*
X130431087Y-102827950D01*
X130403090Y-102855947D01*
X130370169Y-102877944D01*
X130333590Y-102893096D01*
X130333587Y-102893097D01*
X130333586Y-102893097D01*
X130294758Y-102900820D01*
X130255162Y-102900820D01*
X130216334Y-102893097D01*
X130216333Y-102893097D01*
X130216330Y-102893096D01*
X130179751Y-102877944D01*
X130146830Y-102855947D01*
X130118833Y-102827950D01*
X130096836Y-102795029D01*
X130081684Y-102758450D01*
X130073960Y-102719617D01*
X130073960Y-102680023D01*
X130081684Y-102641190D01*
X130096836Y-102604611D01*
X130118833Y-102571690D01*
X130146830Y-102543693D01*
X130179751Y-102521696D01*
X130216330Y-102506544D01*
X130216333Y-102506543D01*
X130216334Y-102506543D01*
X130255162Y-102498820D01*
X130294758Y-102498820D01*
X130333586Y-102506543D01*
G37*
G36*
X92151325Y-97300562D02*
G01*
X92301150Y-97330364D01*
X92583414Y-97447281D01*
X92837445Y-97617019D01*
X93053481Y-97833055D01*
X93223219Y-98087086D01*
X93340136Y-98369350D01*
X93399740Y-98669000D01*
X93399740Y-98974520D01*
X93340136Y-99274170D01*
X93223219Y-99556434D01*
X93053481Y-99810465D01*
X92837445Y-100026501D01*
X92583414Y-100196239D01*
X92301150Y-100313156D01*
X92151325Y-100342958D01*
X92001501Y-100372760D01*
X91695979Y-100372760D01*
X91546155Y-100342958D01*
X91396330Y-100313156D01*
X91114066Y-100196239D01*
X90860035Y-100026501D01*
X90643999Y-99810465D01*
X90474261Y-99556434D01*
X90357344Y-99274170D01*
X90297740Y-98974520D01*
X90297740Y-98669000D01*
X90357344Y-98369350D01*
X90474261Y-98087086D01*
X90643999Y-97833055D01*
X90860035Y-97617019D01*
X91114066Y-97447281D01*
X91396330Y-97330364D01*
X91546155Y-97300562D01*
X91695979Y-97270760D01*
X92001501Y-97270760D01*
X92151325Y-97300562D01*
G37*
G36*
X25161325Y-97300562D02*
G01*
X25311150Y-97330364D01*
X25593414Y-97447281D01*
X25847445Y-97617019D01*
X26063481Y-97833055D01*
X26233219Y-98087086D01*
X26350136Y-98369350D01*
X26409740Y-98669000D01*
X26409740Y-98974520D01*
X26350136Y-99274170D01*
X26233219Y-99556434D01*
X26063481Y-99810465D01*
X25847445Y-100026501D01*
X25593414Y-100196239D01*
X25311150Y-100313156D01*
X25161325Y-100342958D01*
X25011501Y-100372760D01*
X24705979Y-100372760D01*
X24556155Y-100342958D01*
X24406330Y-100313156D01*
X24124066Y-100196239D01*
X23870035Y-100026501D01*
X23653999Y-99810465D01*
X23484261Y-99556434D01*
X23367344Y-99274170D01*
X23307740Y-98974520D01*
X23307740Y-98669000D01*
X23367344Y-98369350D01*
X23484261Y-98087086D01*
X23653999Y-97833055D01*
X23870035Y-97617019D01*
X24124066Y-97447281D01*
X24406330Y-97330364D01*
X24556155Y-97300562D01*
X24705979Y-97270760D01*
X25011501Y-97270760D01*
X25161325Y-97300562D01*
G37*
G36*
X114481325Y-97300562D02*
G01*
X114631150Y-97330364D01*
X114913414Y-97447281D01*
X115167445Y-97617019D01*
X115383481Y-97833055D01*
X115553219Y-98087086D01*
X115670136Y-98369350D01*
X115729740Y-98669000D01*
X115729740Y-98974520D01*
X115670136Y-99274170D01*
X115553219Y-99556434D01*
X115383481Y-99810465D01*
X115167445Y-100026501D01*
X114913414Y-100196239D01*
X114631150Y-100313156D01*
X114481325Y-100342958D01*
X114331501Y-100372760D01*
X114025979Y-100372760D01*
X113876155Y-100342958D01*
X113726330Y-100313156D01*
X113444066Y-100196239D01*
X113190035Y-100026501D01*
X112973999Y-99810465D01*
X112804261Y-99556434D01*
X112687344Y-99274170D01*
X112627740Y-98974520D01*
X112627740Y-98669000D01*
X112687344Y-98369350D01*
X112804261Y-98087086D01*
X112973999Y-97833055D01*
X113190035Y-97617019D01*
X113444066Y-97447281D01*
X113726330Y-97330364D01*
X113876155Y-97300562D01*
X114025979Y-97270760D01*
X114331501Y-97270760D01*
X114481325Y-97300562D01*
G37*
G36*
X136811325Y-97300562D02*
G01*
X136961150Y-97330364D01*
X137243414Y-97447281D01*
X137497445Y-97617019D01*
X137713481Y-97833055D01*
X137883219Y-98087086D01*
X138000136Y-98369350D01*
X138059740Y-98669000D01*
X138059740Y-98974520D01*
X138000136Y-99274170D01*
X137883219Y-99556434D01*
X137713481Y-99810465D01*
X137497445Y-100026501D01*
X137243414Y-100196239D01*
X136961150Y-100313156D01*
X136811325Y-100342958D01*
X136661501Y-100372760D01*
X136355979Y-100372760D01*
X136206155Y-100342958D01*
X136056330Y-100313156D01*
X135774066Y-100196239D01*
X135520035Y-100026501D01*
X135303999Y-99810465D01*
X135134261Y-99556434D01*
X135017344Y-99274170D01*
X134957740Y-98974520D01*
X134957740Y-98669000D01*
X135017344Y-98369350D01*
X135134261Y-98087086D01*
X135303999Y-97833055D01*
X135520035Y-97617019D01*
X135774066Y-97447281D01*
X136056330Y-97330364D01*
X136206155Y-97300562D01*
X136355979Y-97270760D01*
X136661501Y-97270760D01*
X136811325Y-97300562D01*
G37*
G36*
X159141325Y-97300562D02*
G01*
X159291150Y-97330364D01*
X159573414Y-97447281D01*
X159827445Y-97617019D01*
X160043481Y-97833055D01*
X160213219Y-98087086D01*
X160330136Y-98369350D01*
X160389740Y-98669000D01*
X160389740Y-98974520D01*
X160330136Y-99274170D01*
X160213219Y-99556434D01*
X160043481Y-99810465D01*
X159827445Y-100026501D01*
X159573414Y-100196239D01*
X159291150Y-100313156D01*
X159141325Y-100342958D01*
X158991501Y-100372760D01*
X158685979Y-100372760D01*
X158536155Y-100342958D01*
X158386330Y-100313156D01*
X158104066Y-100196239D01*
X157850035Y-100026501D01*
X157633999Y-99810465D01*
X157464261Y-99556434D01*
X157347344Y-99274170D01*
X157287740Y-98974520D01*
X157287740Y-98669000D01*
X157347344Y-98369350D01*
X157464261Y-98087086D01*
X157633999Y-97833055D01*
X157850035Y-97617019D01*
X158104066Y-97447281D01*
X158386330Y-97330364D01*
X158536155Y-97300562D01*
X158685979Y-97270760D01*
X158991501Y-97270760D01*
X159141325Y-97300562D01*
G37*
G36*
X47491325Y-97300562D02*
G01*
X47641150Y-97330364D01*
X47923414Y-97447281D01*
X48177445Y-97617019D01*
X48393481Y-97833055D01*
X48563219Y-98087086D01*
X48680136Y-98369350D01*
X48739740Y-98669000D01*
X48739740Y-98974520D01*
X48680136Y-99274170D01*
X48563219Y-99556434D01*
X48393481Y-99810465D01*
X48177445Y-100026501D01*
X47923414Y-100196239D01*
X47641150Y-100313156D01*
X47491325Y-100342958D01*
X47341501Y-100372760D01*
X47035979Y-100372760D01*
X46886155Y-100342958D01*
X46736330Y-100313156D01*
X46454066Y-100196239D01*
X46200035Y-100026501D01*
X45983999Y-99810465D01*
X45814261Y-99556434D01*
X45697344Y-99274170D01*
X45637740Y-98974520D01*
X45637740Y-98669000D01*
X45697344Y-98369350D01*
X45814261Y-98087086D01*
X45983999Y-97833055D01*
X46200035Y-97617019D01*
X46454066Y-97447281D01*
X46736330Y-97330364D01*
X46886155Y-97300562D01*
X47035979Y-97270760D01*
X47341501Y-97270760D01*
X47491325Y-97300562D01*
G37*
G36*
X69821325Y-97300562D02*
G01*
X69971150Y-97330364D01*
X70253414Y-97447281D01*
X70507445Y-97617019D01*
X70723481Y-97833055D01*
X70893219Y-98087086D01*
X71010136Y-98369350D01*
X71069740Y-98669000D01*
X71069740Y-98974520D01*
X71010136Y-99274170D01*
X70893219Y-99556434D01*
X70723481Y-99810465D01*
X70507445Y-100026501D01*
X70253414Y-100196239D01*
X69971150Y-100313156D01*
X69821325Y-100342958D01*
X69671501Y-100372760D01*
X69365979Y-100372760D01*
X69216155Y-100342958D01*
X69066330Y-100313156D01*
X68784066Y-100196239D01*
X68530035Y-100026501D01*
X68313999Y-99810465D01*
X68144261Y-99556434D01*
X68027344Y-99274170D01*
X67967740Y-98974520D01*
X67967740Y-98669000D01*
X68027344Y-98369350D01*
X68144261Y-98087086D01*
X68313999Y-97833055D01*
X68530035Y-97617019D01*
X68784066Y-97447281D01*
X69066330Y-97330364D01*
X69216155Y-97300562D01*
X69365979Y-97270760D01*
X69671501Y-97270760D01*
X69821325Y-97300562D01*
G37*
G36*
X181471325Y-97300562D02*
G01*
X181621150Y-97330364D01*
X181903414Y-97447281D01*
X182157445Y-97617019D01*
X182373481Y-97833055D01*
X182543219Y-98087086D01*
X182660136Y-98369350D01*
X182719740Y-98669000D01*
X182719740Y-98974520D01*
X182660136Y-99274170D01*
X182543219Y-99556434D01*
X182373481Y-99810465D01*
X182157445Y-100026501D01*
X181903414Y-100196239D01*
X181621150Y-100313156D01*
X181471325Y-100342958D01*
X181321501Y-100372760D01*
X181015979Y-100372760D01*
X180866155Y-100342958D01*
X180716330Y-100313156D01*
X180434066Y-100196239D01*
X180180035Y-100026501D01*
X179963999Y-99810465D01*
X179794261Y-99556434D01*
X179677344Y-99274170D01*
X179617740Y-98974520D01*
X179617740Y-98669000D01*
X179677344Y-98369350D01*
X179794261Y-98087086D01*
X179963999Y-97833055D01*
X180180035Y-97617019D01*
X180434066Y-97447281D01*
X180716330Y-97330364D01*
X180866155Y-97300562D01*
X181015979Y-97270760D01*
X181321501Y-97270760D01*
X181471325Y-97300562D01*
G37*
G36*
X149138227Y-97520756D02*
G01*
X149370628Y-97617020D01*
X149374995Y-97618829D01*
X149588079Y-97761207D01*
X149769293Y-97942421D01*
X149911672Y-98155507D01*
X150009744Y-98392273D01*
X150059740Y-98643621D01*
X150059740Y-98899899D01*
X150009744Y-99151247D01*
X149958828Y-99274169D01*
X149911671Y-99388015D01*
X149769293Y-99601099D01*
X149588079Y-99782313D01*
X149374995Y-99924691D01*
X149374994Y-99924692D01*
X149374993Y-99924692D01*
X149138227Y-100022764D01*
X148886879Y-100072760D01*
X148630601Y-100072760D01*
X148379253Y-100022764D01*
X148142487Y-99924692D01*
X148142486Y-99924692D01*
X148142485Y-99924691D01*
X147929401Y-99782313D01*
X147748187Y-99601099D01*
X147605809Y-99388015D01*
X147558652Y-99274169D01*
X147507736Y-99151247D01*
X147457740Y-98899899D01*
X147457740Y-98643621D01*
X147507736Y-98392273D01*
X147605808Y-98155507D01*
X147748187Y-97942421D01*
X147929401Y-97761207D01*
X148142485Y-97618829D01*
X148146852Y-97617020D01*
X148379253Y-97520756D01*
X148630601Y-97470760D01*
X148886879Y-97470760D01*
X149138227Y-97520756D01*
G37*
G36*
X193798227Y-97520756D02*
G01*
X194030628Y-97617020D01*
X194034995Y-97618829D01*
X194248079Y-97761207D01*
X194429293Y-97942421D01*
X194571672Y-98155507D01*
X194669744Y-98392273D01*
X194719740Y-98643621D01*
X194719740Y-98899899D01*
X194669744Y-99151247D01*
X194618828Y-99274169D01*
X194571671Y-99388015D01*
X194429293Y-99601099D01*
X194248079Y-99782313D01*
X194034995Y-99924691D01*
X194034994Y-99924692D01*
X194034993Y-99924692D01*
X193798227Y-100022764D01*
X193546879Y-100072760D01*
X193290601Y-100072760D01*
X193039253Y-100022764D01*
X192802487Y-99924692D01*
X192802486Y-99924692D01*
X192802485Y-99924691D01*
X192589401Y-99782313D01*
X192408187Y-99601099D01*
X192265809Y-99388015D01*
X192218652Y-99274169D01*
X192167736Y-99151247D01*
X192117740Y-98899899D01*
X192117740Y-98643621D01*
X192167736Y-98392273D01*
X192265808Y-98155507D01*
X192408187Y-97942421D01*
X192589401Y-97761207D01*
X192802485Y-97618829D01*
X192806852Y-97617020D01*
X193039253Y-97520756D01*
X193290601Y-97470760D01*
X193546879Y-97470760D01*
X193798227Y-97520756D01*
G37*
G36*
X171468227Y-97520756D02*
G01*
X171700628Y-97617020D01*
X171704995Y-97618829D01*
X171918079Y-97761207D01*
X172099293Y-97942421D01*
X172241672Y-98155507D01*
X172339744Y-98392273D01*
X172389740Y-98643621D01*
X172389740Y-98899899D01*
X172339744Y-99151247D01*
X172288828Y-99274169D01*
X172241671Y-99388015D01*
X172099293Y-99601099D01*
X171918079Y-99782313D01*
X171704995Y-99924691D01*
X171704994Y-99924692D01*
X171704993Y-99924692D01*
X171468227Y-100022764D01*
X171216879Y-100072760D01*
X170960601Y-100072760D01*
X170709253Y-100022764D01*
X170472487Y-99924692D01*
X170472486Y-99924692D01*
X170472485Y-99924691D01*
X170259401Y-99782313D01*
X170078187Y-99601099D01*
X169935809Y-99388015D01*
X169888652Y-99274169D01*
X169837736Y-99151247D01*
X169787740Y-98899899D01*
X169787740Y-98643621D01*
X169837736Y-98392273D01*
X169935808Y-98155507D01*
X170078187Y-97942421D01*
X170259401Y-97761207D01*
X170472485Y-97618829D01*
X170476852Y-97617020D01*
X170709253Y-97520756D01*
X170960601Y-97470760D01*
X171216879Y-97470760D01*
X171468227Y-97520756D01*
G37*
G36*
X126808227Y-97520756D02*
G01*
X127040628Y-97617020D01*
X127044995Y-97618829D01*
X127258079Y-97761207D01*
X127439293Y-97942421D01*
X127581672Y-98155507D01*
X127679744Y-98392273D01*
X127729740Y-98643621D01*
X127729740Y-98899899D01*
X127679744Y-99151247D01*
X127628828Y-99274169D01*
X127581671Y-99388015D01*
X127439293Y-99601099D01*
X127258079Y-99782313D01*
X127044995Y-99924691D01*
X127044994Y-99924692D01*
X127044993Y-99924692D01*
X126808227Y-100022764D01*
X126556879Y-100072760D01*
X126300601Y-100072760D01*
X126049253Y-100022764D01*
X125812487Y-99924692D01*
X125812486Y-99924692D01*
X125812485Y-99924691D01*
X125599401Y-99782313D01*
X125418187Y-99601099D01*
X125275809Y-99388015D01*
X125228652Y-99274169D01*
X125177736Y-99151247D01*
X125127740Y-98899899D01*
X125127740Y-98643621D01*
X125177736Y-98392273D01*
X125275808Y-98155507D01*
X125418187Y-97942421D01*
X125599401Y-97761207D01*
X125812485Y-97618829D01*
X125816852Y-97617020D01*
X126049253Y-97520756D01*
X126300601Y-97470760D01*
X126556879Y-97470760D01*
X126808227Y-97520756D01*
G37*
G36*
X82148227Y-97520756D02*
G01*
X82380628Y-97617020D01*
X82384995Y-97618829D01*
X82598079Y-97761207D01*
X82779293Y-97942421D01*
X82921672Y-98155507D01*
X83019744Y-98392273D01*
X83069740Y-98643621D01*
X83069740Y-98899899D01*
X83019744Y-99151247D01*
X82968828Y-99274169D01*
X82921671Y-99388015D01*
X82779293Y-99601099D01*
X82598079Y-99782313D01*
X82384995Y-99924691D01*
X82384994Y-99924692D01*
X82384993Y-99924692D01*
X82148227Y-100022764D01*
X81896879Y-100072760D01*
X81640601Y-100072760D01*
X81389253Y-100022764D01*
X81152487Y-99924692D01*
X81152486Y-99924692D01*
X81152485Y-99924691D01*
X80939401Y-99782313D01*
X80758187Y-99601099D01*
X80615809Y-99388015D01*
X80568652Y-99274169D01*
X80517736Y-99151247D01*
X80467740Y-98899899D01*
X80467740Y-98643621D01*
X80517736Y-98392273D01*
X80615808Y-98155507D01*
X80758187Y-97942421D01*
X80939401Y-97761207D01*
X81152485Y-97618829D01*
X81156852Y-97617020D01*
X81389253Y-97520756D01*
X81640601Y-97470760D01*
X81896879Y-97470760D01*
X82148227Y-97520756D01*
G37*
G36*
X59818227Y-97520756D02*
G01*
X60050628Y-97617020D01*
X60054995Y-97618829D01*
X60268079Y-97761207D01*
X60449293Y-97942421D01*
X60591672Y-98155507D01*
X60689744Y-98392273D01*
X60739740Y-98643621D01*
X60739740Y-98899899D01*
X60689744Y-99151247D01*
X60638828Y-99274169D01*
X60591671Y-99388015D01*
X60449293Y-99601099D01*
X60268079Y-99782313D01*
X60054995Y-99924691D01*
X60054994Y-99924692D01*
X60054993Y-99924692D01*
X59818227Y-100022764D01*
X59566879Y-100072760D01*
X59310601Y-100072760D01*
X59059253Y-100022764D01*
X58822487Y-99924692D01*
X58822486Y-99924692D01*
X58822485Y-99924691D01*
X58609401Y-99782313D01*
X58428187Y-99601099D01*
X58285809Y-99388015D01*
X58238652Y-99274169D01*
X58187736Y-99151247D01*
X58137740Y-98899899D01*
X58137740Y-98643621D01*
X58187736Y-98392273D01*
X58285808Y-98155507D01*
X58428187Y-97942421D01*
X58609401Y-97761207D01*
X58822485Y-97618829D01*
X58826852Y-97617020D01*
X59059253Y-97520756D01*
X59310601Y-97470760D01*
X59566879Y-97470760D01*
X59818227Y-97520756D01*
G37*
G36*
X37488227Y-97520756D02*
G01*
X37720628Y-97617020D01*
X37724995Y-97618829D01*
X37938079Y-97761207D01*
X38119293Y-97942421D01*
X38261672Y-98155507D01*
X38359744Y-98392273D01*
X38409740Y-98643621D01*
X38409740Y-98899899D01*
X38359744Y-99151247D01*
X38308828Y-99274169D01*
X38261671Y-99388015D01*
X38119293Y-99601099D01*
X37938079Y-99782313D01*
X37724995Y-99924691D01*
X37724994Y-99924692D01*
X37724993Y-99924692D01*
X37488227Y-100022764D01*
X37236879Y-100072760D01*
X36980601Y-100072760D01*
X36729253Y-100022764D01*
X36492487Y-99924692D01*
X36492486Y-99924692D01*
X36492485Y-99924691D01*
X36279401Y-99782313D01*
X36098187Y-99601099D01*
X35955809Y-99388015D01*
X35908652Y-99274169D01*
X35857736Y-99151247D01*
X35807740Y-98899899D01*
X35807740Y-98643621D01*
X35857736Y-98392273D01*
X35955808Y-98155507D01*
X36098187Y-97942421D01*
X36279401Y-97761207D01*
X36492485Y-97618829D01*
X36496852Y-97617020D01*
X36729253Y-97520756D01*
X36980601Y-97470760D01*
X37236879Y-97470760D01*
X37488227Y-97520756D01*
G37*
G36*
X104478227Y-97520756D02*
G01*
X104710628Y-97617020D01*
X104714995Y-97618829D01*
X104928079Y-97761207D01*
X105109293Y-97942421D01*
X105251672Y-98155507D01*
X105349744Y-98392273D01*
X105399740Y-98643621D01*
X105399740Y-98899899D01*
X105349744Y-99151247D01*
X105298828Y-99274169D01*
X105251671Y-99388015D01*
X105109293Y-99601099D01*
X104928079Y-99782313D01*
X104714995Y-99924691D01*
X104714994Y-99924692D01*
X104714993Y-99924692D01*
X104478227Y-100022764D01*
X104226879Y-100072760D01*
X103970601Y-100072760D01*
X103719253Y-100022764D01*
X103482487Y-99924692D01*
X103482486Y-99924692D01*
X103482485Y-99924691D01*
X103269401Y-99782313D01*
X103088187Y-99601099D01*
X102945809Y-99388015D01*
X102898652Y-99274169D01*
X102847736Y-99151247D01*
X102797740Y-98899899D01*
X102797740Y-98643621D01*
X102847736Y-98392273D01*
X102945808Y-98155507D01*
X103088187Y-97942421D01*
X103269401Y-97761207D01*
X103482485Y-97618829D01*
X103486852Y-97617020D01*
X103719253Y-97520756D01*
X103970601Y-97470760D01*
X104226879Y-97470760D01*
X104478227Y-97520756D01*
G37*
G36*
X151011325Y-91300562D02*
G01*
X151161150Y-91330364D01*
X151443414Y-91447281D01*
X151697445Y-91617019D01*
X151913481Y-91833055D01*
X152083219Y-92087086D01*
X152200136Y-92369350D01*
X152259740Y-92669000D01*
X152259740Y-92974520D01*
X152200136Y-93274170D01*
X152083219Y-93556434D01*
X151913481Y-93810465D01*
X151697445Y-94026501D01*
X151443414Y-94196239D01*
X151161150Y-94313156D01*
X151011325Y-94342958D01*
X150861501Y-94372760D01*
X150555979Y-94372760D01*
X150406155Y-94342958D01*
X150256330Y-94313156D01*
X149974066Y-94196239D01*
X149720035Y-94026501D01*
X149503999Y-93810465D01*
X149334261Y-93556434D01*
X149217344Y-93274170D01*
X149157740Y-92974520D01*
X149157740Y-92669000D01*
X149217344Y-92369350D01*
X149334261Y-92087086D01*
X149503999Y-91833055D01*
X149720035Y-91617019D01*
X149974066Y-91447281D01*
X150256330Y-91330364D01*
X150406155Y-91300562D01*
X150555979Y-91270760D01*
X150861501Y-91270760D01*
X151011325Y-91300562D01*
G37*
G36*
X39361325Y-91300562D02*
G01*
X39511150Y-91330364D01*
X39793414Y-91447281D01*
X40047445Y-91617019D01*
X40263481Y-91833055D01*
X40433219Y-92087086D01*
X40550136Y-92369350D01*
X40609740Y-92669000D01*
X40609740Y-92974520D01*
X40550136Y-93274170D01*
X40433219Y-93556434D01*
X40263481Y-93810465D01*
X40047445Y-94026501D01*
X39793414Y-94196239D01*
X39511150Y-94313156D01*
X39361325Y-94342958D01*
X39211501Y-94372760D01*
X38905979Y-94372760D01*
X38756155Y-94342958D01*
X38606330Y-94313156D01*
X38324066Y-94196239D01*
X38070035Y-94026501D01*
X37853999Y-93810465D01*
X37684261Y-93556434D01*
X37567344Y-93274170D01*
X37507740Y-92974520D01*
X37507740Y-92669000D01*
X37567344Y-92369350D01*
X37684261Y-92087086D01*
X37853999Y-91833055D01*
X38070035Y-91617019D01*
X38324066Y-91447281D01*
X38606330Y-91330364D01*
X38756155Y-91300562D01*
X38905979Y-91270760D01*
X39211501Y-91270760D01*
X39361325Y-91300562D01*
G37*
G36*
X195671325Y-91300562D02*
G01*
X195821150Y-91330364D01*
X196103414Y-91447281D01*
X196357445Y-91617019D01*
X196573481Y-91833055D01*
X196743219Y-92087086D01*
X196860136Y-92369350D01*
X196919740Y-92669000D01*
X196919740Y-92974520D01*
X196860136Y-93274170D01*
X196743219Y-93556434D01*
X196573481Y-93810465D01*
X196357445Y-94026501D01*
X196103414Y-94196239D01*
X195821150Y-94313156D01*
X195671325Y-94342958D01*
X195521501Y-94372760D01*
X195215979Y-94372760D01*
X195066155Y-94342958D01*
X194916330Y-94313156D01*
X194634066Y-94196239D01*
X194380035Y-94026501D01*
X194163999Y-93810465D01*
X193994261Y-93556434D01*
X193877344Y-93274170D01*
X193817740Y-92974520D01*
X193817740Y-92669000D01*
X193877344Y-92369350D01*
X193994261Y-92087086D01*
X194163999Y-91833055D01*
X194380035Y-91617019D01*
X194634066Y-91447281D01*
X194916330Y-91330364D01*
X195066155Y-91300562D01*
X195215979Y-91270760D01*
X195521501Y-91270760D01*
X195671325Y-91300562D01*
G37*
G36*
X61691325Y-91300562D02*
G01*
X61841150Y-91330364D01*
X62123414Y-91447281D01*
X62377445Y-91617019D01*
X62593481Y-91833055D01*
X62763219Y-92087086D01*
X62880136Y-92369350D01*
X62939740Y-92669000D01*
X62939740Y-92974520D01*
X62880136Y-93274170D01*
X62763219Y-93556434D01*
X62593481Y-93810465D01*
X62377445Y-94026501D01*
X62123414Y-94196239D01*
X61841150Y-94313156D01*
X61691325Y-94342958D01*
X61541501Y-94372760D01*
X61235979Y-94372760D01*
X61086155Y-94342958D01*
X60936330Y-94313156D01*
X60654066Y-94196239D01*
X60400035Y-94026501D01*
X60183999Y-93810465D01*
X60014261Y-93556434D01*
X59897344Y-93274170D01*
X59837740Y-92974520D01*
X59837740Y-92669000D01*
X59897344Y-92369350D01*
X60014261Y-92087086D01*
X60183999Y-91833055D01*
X60400035Y-91617019D01*
X60654066Y-91447281D01*
X60936330Y-91330364D01*
X61086155Y-91300562D01*
X61235979Y-91270760D01*
X61541501Y-91270760D01*
X61691325Y-91300562D01*
G37*
G36*
X84021325Y-91300562D02*
G01*
X84171150Y-91330364D01*
X84453414Y-91447281D01*
X84707445Y-91617019D01*
X84923481Y-91833055D01*
X85093219Y-92087086D01*
X85210136Y-92369350D01*
X85269740Y-92669000D01*
X85269740Y-92974520D01*
X85210136Y-93274170D01*
X85093219Y-93556434D01*
X84923481Y-93810465D01*
X84707445Y-94026501D01*
X84453414Y-94196239D01*
X84171150Y-94313156D01*
X84021325Y-94342958D01*
X83871501Y-94372760D01*
X83565979Y-94372760D01*
X83416155Y-94342958D01*
X83266330Y-94313156D01*
X82984066Y-94196239D01*
X82730035Y-94026501D01*
X82513999Y-93810465D01*
X82344261Y-93556434D01*
X82227344Y-93274170D01*
X82167740Y-92974520D01*
X82167740Y-92669000D01*
X82227344Y-92369350D01*
X82344261Y-92087086D01*
X82513999Y-91833055D01*
X82730035Y-91617019D01*
X82984066Y-91447281D01*
X83266330Y-91330364D01*
X83416155Y-91300562D01*
X83565979Y-91270760D01*
X83871501Y-91270760D01*
X84021325Y-91300562D01*
G37*
G36*
X173341325Y-91300562D02*
G01*
X173491150Y-91330364D01*
X173773414Y-91447281D01*
X174027445Y-91617019D01*
X174243481Y-91833055D01*
X174413219Y-92087086D01*
X174530136Y-92369350D01*
X174589740Y-92669000D01*
X174589740Y-92974520D01*
X174530136Y-93274170D01*
X174413219Y-93556434D01*
X174243481Y-93810465D01*
X174027445Y-94026501D01*
X173773414Y-94196239D01*
X173491150Y-94313156D01*
X173341325Y-94342958D01*
X173191501Y-94372760D01*
X172885979Y-94372760D01*
X172736155Y-94342958D01*
X172586330Y-94313156D01*
X172304066Y-94196239D01*
X172050035Y-94026501D01*
X171833999Y-93810465D01*
X171664261Y-93556434D01*
X171547344Y-93274170D01*
X171487740Y-92974520D01*
X171487740Y-92669000D01*
X171547344Y-92369350D01*
X171664261Y-92087086D01*
X171833999Y-91833055D01*
X172050035Y-91617019D01*
X172304066Y-91447281D01*
X172586330Y-91330364D01*
X172736155Y-91300562D01*
X172885979Y-91270760D01*
X173191501Y-91270760D01*
X173341325Y-91300562D01*
G37*
G36*
X128681325Y-91300562D02*
G01*
X128831150Y-91330364D01*
X129113414Y-91447281D01*
X129367445Y-91617019D01*
X129583481Y-91833055D01*
X129753219Y-92087086D01*
X129870136Y-92369350D01*
X129929740Y-92669000D01*
X129929740Y-92974520D01*
X129870136Y-93274170D01*
X129753219Y-93556434D01*
X129583481Y-93810465D01*
X129367445Y-94026501D01*
X129113414Y-94196239D01*
X128831150Y-94313156D01*
X128681325Y-94342958D01*
X128531501Y-94372760D01*
X128225979Y-94372760D01*
X128076155Y-94342958D01*
X127926330Y-94313156D01*
X127644066Y-94196239D01*
X127390035Y-94026501D01*
X127173999Y-93810465D01*
X127004261Y-93556434D01*
X126887344Y-93274170D01*
X126827740Y-92974520D01*
X126827740Y-92669000D01*
X126887344Y-92369350D01*
X127004261Y-92087086D01*
X127173999Y-91833055D01*
X127390035Y-91617019D01*
X127644066Y-91447281D01*
X127926330Y-91330364D01*
X128076155Y-91300562D01*
X128225979Y-91270760D01*
X128531501Y-91270760D01*
X128681325Y-91300562D01*
G37*
G36*
X106351325Y-91300562D02*
G01*
X106501150Y-91330364D01*
X106783414Y-91447281D01*
X107037445Y-91617019D01*
X107253481Y-91833055D01*
X107423219Y-92087086D01*
X107540136Y-92369350D01*
X107599740Y-92669000D01*
X107599740Y-92974520D01*
X107540136Y-93274170D01*
X107423219Y-93556434D01*
X107253481Y-93810465D01*
X107037445Y-94026501D01*
X106783414Y-94196239D01*
X106501150Y-94313156D01*
X106351325Y-94342958D01*
X106201501Y-94372760D01*
X105895979Y-94372760D01*
X105746155Y-94342958D01*
X105596330Y-94313156D01*
X105314066Y-94196239D01*
X105060035Y-94026501D01*
X104843999Y-93810465D01*
X104674261Y-93556434D01*
X104557344Y-93274170D01*
X104497740Y-92974520D01*
X104497740Y-92669000D01*
X104557344Y-92369350D01*
X104674261Y-92087086D01*
X104843999Y-91833055D01*
X105060035Y-91617019D01*
X105314066Y-91447281D01*
X105596330Y-91330364D01*
X105746155Y-91300562D01*
X105895979Y-91270760D01*
X106201501Y-91270760D01*
X106351325Y-91300562D01*
G37*
G36*
X47541325Y-85250562D02*
G01*
X47691150Y-85280364D01*
X47973414Y-85397281D01*
X48227445Y-85567019D01*
X48443481Y-85783055D01*
X48613219Y-86037086D01*
X48730136Y-86319350D01*
X48789740Y-86619000D01*
X48789740Y-86924520D01*
X48730136Y-87224170D01*
X48613219Y-87506434D01*
X48443481Y-87760465D01*
X48227445Y-87976501D01*
X47973414Y-88146239D01*
X47691150Y-88263156D01*
X47541325Y-88292958D01*
X47391501Y-88322760D01*
X47085979Y-88322760D01*
X46936155Y-88292958D01*
X46786330Y-88263156D01*
X46504066Y-88146239D01*
X46250035Y-87976501D01*
X46033999Y-87760465D01*
X45864261Y-87506434D01*
X45747344Y-87224170D01*
X45687740Y-86924520D01*
X45687740Y-86619000D01*
X45747344Y-86319350D01*
X45864261Y-86037086D01*
X46033999Y-85783055D01*
X46250035Y-85567019D01*
X46504066Y-85397281D01*
X46786330Y-85280364D01*
X46936155Y-85250562D01*
X47085979Y-85220760D01*
X47391501Y-85220760D01*
X47541325Y-85250562D01*
G37*
G36*
X136861325Y-85250562D02*
G01*
X137011150Y-85280364D01*
X137293414Y-85397281D01*
X137547445Y-85567019D01*
X137763481Y-85783055D01*
X137933219Y-86037086D01*
X138050136Y-86319350D01*
X138109740Y-86619000D01*
X138109740Y-86924520D01*
X138050136Y-87224170D01*
X137933219Y-87506434D01*
X137763481Y-87760465D01*
X137547445Y-87976501D01*
X137293414Y-88146239D01*
X137011150Y-88263156D01*
X136861325Y-88292958D01*
X136711501Y-88322760D01*
X136405979Y-88322760D01*
X136256155Y-88292958D01*
X136106330Y-88263156D01*
X135824066Y-88146239D01*
X135570035Y-87976501D01*
X135353999Y-87760465D01*
X135184261Y-87506434D01*
X135067344Y-87224170D01*
X135007740Y-86924520D01*
X135007740Y-86619000D01*
X135067344Y-86319350D01*
X135184261Y-86037086D01*
X135353999Y-85783055D01*
X135570035Y-85567019D01*
X135824066Y-85397281D01*
X136106330Y-85280364D01*
X136256155Y-85250562D01*
X136405979Y-85220760D01*
X136711501Y-85220760D01*
X136861325Y-85250562D01*
G37*
G36*
X159191325Y-85250562D02*
G01*
X159341150Y-85280364D01*
X159623414Y-85397281D01*
X159877445Y-85567019D01*
X160093481Y-85783055D01*
X160263219Y-86037086D01*
X160380136Y-86319350D01*
X160439740Y-86619000D01*
X160439740Y-86924520D01*
X160380136Y-87224170D01*
X160263219Y-87506434D01*
X160093481Y-87760465D01*
X159877445Y-87976501D01*
X159623414Y-88146239D01*
X159341150Y-88263156D01*
X159191325Y-88292958D01*
X159041501Y-88322760D01*
X158735979Y-88322760D01*
X158586155Y-88292958D01*
X158436330Y-88263156D01*
X158154066Y-88146239D01*
X157900035Y-87976501D01*
X157683999Y-87760465D01*
X157514261Y-87506434D01*
X157397344Y-87224170D01*
X157337740Y-86924520D01*
X157337740Y-86619000D01*
X157397344Y-86319350D01*
X157514261Y-86037086D01*
X157683999Y-85783055D01*
X157900035Y-85567019D01*
X158154066Y-85397281D01*
X158436330Y-85280364D01*
X158586155Y-85250562D01*
X158735979Y-85220760D01*
X159041501Y-85220760D01*
X159191325Y-85250562D01*
G37*
G36*
X25211325Y-85250562D02*
G01*
X25361150Y-85280364D01*
X25643414Y-85397281D01*
X25897445Y-85567019D01*
X26113481Y-85783055D01*
X26283219Y-86037086D01*
X26400136Y-86319350D01*
X26459740Y-86619000D01*
X26459740Y-86924520D01*
X26400136Y-87224170D01*
X26283219Y-87506434D01*
X26113481Y-87760465D01*
X25897445Y-87976501D01*
X25643414Y-88146239D01*
X25361150Y-88263156D01*
X25211325Y-88292958D01*
X25061501Y-88322760D01*
X24755979Y-88322760D01*
X24606155Y-88292958D01*
X24456330Y-88263156D01*
X24174066Y-88146239D01*
X23920035Y-87976501D01*
X23703999Y-87760465D01*
X23534261Y-87506434D01*
X23417344Y-87224170D01*
X23357740Y-86924520D01*
X23357740Y-86619000D01*
X23417344Y-86319350D01*
X23534261Y-86037086D01*
X23703999Y-85783055D01*
X23920035Y-85567019D01*
X24174066Y-85397281D01*
X24456330Y-85280364D01*
X24606155Y-85250562D01*
X24755979Y-85220760D01*
X25061501Y-85220760D01*
X25211325Y-85250562D01*
G37*
G36*
X114531325Y-85250562D02*
G01*
X114681150Y-85280364D01*
X114963414Y-85397281D01*
X115217445Y-85567019D01*
X115433481Y-85783055D01*
X115603219Y-86037086D01*
X115720136Y-86319350D01*
X115779740Y-86619000D01*
X115779740Y-86924520D01*
X115720136Y-87224170D01*
X115603219Y-87506434D01*
X115433481Y-87760465D01*
X115217445Y-87976501D01*
X114963414Y-88146239D01*
X114681150Y-88263156D01*
X114531325Y-88292958D01*
X114381501Y-88322760D01*
X114075979Y-88322760D01*
X113926155Y-88292958D01*
X113776330Y-88263156D01*
X113494066Y-88146239D01*
X113240035Y-87976501D01*
X113023999Y-87760465D01*
X112854261Y-87506434D01*
X112737344Y-87224170D01*
X112677740Y-86924520D01*
X112677740Y-86619000D01*
X112737344Y-86319350D01*
X112854261Y-86037086D01*
X113023999Y-85783055D01*
X113240035Y-85567019D01*
X113494066Y-85397281D01*
X113776330Y-85280364D01*
X113926155Y-85250562D01*
X114075979Y-85220760D01*
X114381501Y-85220760D01*
X114531325Y-85250562D01*
G37*
G36*
X92201325Y-85250562D02*
G01*
X92351150Y-85280364D01*
X92633414Y-85397281D01*
X92887445Y-85567019D01*
X93103481Y-85783055D01*
X93273219Y-86037086D01*
X93390136Y-86319350D01*
X93449740Y-86619000D01*
X93449740Y-86924520D01*
X93390136Y-87224170D01*
X93273219Y-87506434D01*
X93103481Y-87760465D01*
X92887445Y-87976501D01*
X92633414Y-88146239D01*
X92351150Y-88263156D01*
X92201325Y-88292958D01*
X92051501Y-88322760D01*
X91745979Y-88322760D01*
X91596155Y-88292958D01*
X91446330Y-88263156D01*
X91164066Y-88146239D01*
X90910035Y-87976501D01*
X90693999Y-87760465D01*
X90524261Y-87506434D01*
X90407344Y-87224170D01*
X90347740Y-86924520D01*
X90347740Y-86619000D01*
X90407344Y-86319350D01*
X90524261Y-86037086D01*
X90693999Y-85783055D01*
X90910035Y-85567019D01*
X91164066Y-85397281D01*
X91446330Y-85280364D01*
X91596155Y-85250562D01*
X91745979Y-85220760D01*
X92051501Y-85220760D01*
X92201325Y-85250562D01*
G37*
G36*
X181521325Y-85250562D02*
G01*
X181671150Y-85280364D01*
X181953414Y-85397281D01*
X182207445Y-85567019D01*
X182423481Y-85783055D01*
X182593219Y-86037086D01*
X182710136Y-86319350D01*
X182769740Y-86619000D01*
X182769740Y-86924520D01*
X182710136Y-87224170D01*
X182593219Y-87506434D01*
X182423481Y-87760465D01*
X182207445Y-87976501D01*
X181953414Y-88146239D01*
X181671150Y-88263156D01*
X181521325Y-88292958D01*
X181371501Y-88322760D01*
X181065979Y-88322760D01*
X180916155Y-88292958D01*
X180766330Y-88263156D01*
X180484066Y-88146239D01*
X180230035Y-87976501D01*
X180013999Y-87760465D01*
X179844261Y-87506434D01*
X179727344Y-87224170D01*
X179667740Y-86924520D01*
X179667740Y-86619000D01*
X179727344Y-86319350D01*
X179844261Y-86037086D01*
X180013999Y-85783055D01*
X180230035Y-85567019D01*
X180484066Y-85397281D01*
X180766330Y-85280364D01*
X180916155Y-85250562D01*
X181065979Y-85220760D01*
X181371501Y-85220760D01*
X181521325Y-85250562D01*
G37*
G36*
X69871325Y-85250562D02*
G01*
X70021150Y-85280364D01*
X70303414Y-85397281D01*
X70557445Y-85567019D01*
X70773481Y-85783055D01*
X70943219Y-86037086D01*
X71060136Y-86319350D01*
X71119740Y-86619000D01*
X71119740Y-86924520D01*
X71060136Y-87224170D01*
X70943219Y-87506434D01*
X70773481Y-87760465D01*
X70557445Y-87976501D01*
X70303414Y-88146239D01*
X70021150Y-88263156D01*
X69871325Y-88292958D01*
X69721501Y-88322760D01*
X69415979Y-88322760D01*
X69266155Y-88292958D01*
X69116330Y-88263156D01*
X68834066Y-88146239D01*
X68580035Y-87976501D01*
X68363999Y-87760465D01*
X68194261Y-87506434D01*
X68077344Y-87224170D01*
X68017740Y-86924520D01*
X68017740Y-86619000D01*
X68077344Y-86319350D01*
X68194261Y-86037086D01*
X68363999Y-85783055D01*
X68580035Y-85567019D01*
X68834066Y-85397281D01*
X69116330Y-85280364D01*
X69266155Y-85250562D01*
X69415979Y-85220760D01*
X69721501Y-85220760D01*
X69871325Y-85250562D01*
G37*
G36*
X82148227Y-85520756D02*
G01*
X82384993Y-85618828D01*
X82384995Y-85618829D01*
X82598079Y-85761207D01*
X82779293Y-85942421D01*
X82921672Y-86155507D01*
X83019744Y-86392273D01*
X83069740Y-86643621D01*
X83069740Y-86899899D01*
X83019744Y-87151247D01*
X82989538Y-87224170D01*
X82921671Y-87388015D01*
X82779293Y-87601099D01*
X82598079Y-87782313D01*
X82384995Y-87924691D01*
X82384994Y-87924692D01*
X82384993Y-87924692D01*
X82148227Y-88022764D01*
X81896879Y-88072760D01*
X81640601Y-88072760D01*
X81389253Y-88022764D01*
X81152487Y-87924692D01*
X81152486Y-87924692D01*
X81152485Y-87924691D01*
X80939401Y-87782313D01*
X80758187Y-87601099D01*
X80615809Y-87388015D01*
X80547942Y-87224170D01*
X80517736Y-87151247D01*
X80467740Y-86899899D01*
X80467740Y-86643621D01*
X80517736Y-86392273D01*
X80615808Y-86155507D01*
X80758187Y-85942421D01*
X80939401Y-85761207D01*
X81152485Y-85618829D01*
X81152487Y-85618828D01*
X81389253Y-85520756D01*
X81640601Y-85470760D01*
X81896879Y-85470760D01*
X82148227Y-85520756D01*
G37*
G36*
X59818227Y-85520756D02*
G01*
X60054993Y-85618828D01*
X60054995Y-85618829D01*
X60268079Y-85761207D01*
X60449293Y-85942421D01*
X60591672Y-86155507D01*
X60689744Y-86392273D01*
X60739740Y-86643621D01*
X60739740Y-86899899D01*
X60689744Y-87151247D01*
X60659538Y-87224170D01*
X60591671Y-87388015D01*
X60449293Y-87601099D01*
X60268079Y-87782313D01*
X60054995Y-87924691D01*
X60054994Y-87924692D01*
X60054993Y-87924692D01*
X59818227Y-88022764D01*
X59566879Y-88072760D01*
X59310601Y-88072760D01*
X59059253Y-88022764D01*
X58822487Y-87924692D01*
X58822486Y-87924692D01*
X58822485Y-87924691D01*
X58609401Y-87782313D01*
X58428187Y-87601099D01*
X58285809Y-87388015D01*
X58217942Y-87224170D01*
X58187736Y-87151247D01*
X58137740Y-86899899D01*
X58137740Y-86643621D01*
X58187736Y-86392273D01*
X58285808Y-86155507D01*
X58428187Y-85942421D01*
X58609401Y-85761207D01*
X58822485Y-85618829D01*
X58822487Y-85618828D01*
X59059253Y-85520756D01*
X59310601Y-85470760D01*
X59566879Y-85470760D01*
X59818227Y-85520756D01*
G37*
G36*
X37488227Y-85520756D02*
G01*
X37724993Y-85618828D01*
X37724995Y-85618829D01*
X37938079Y-85761207D01*
X38119293Y-85942421D01*
X38261672Y-86155507D01*
X38359744Y-86392273D01*
X38409740Y-86643621D01*
X38409740Y-86899899D01*
X38359744Y-87151247D01*
X38329538Y-87224170D01*
X38261671Y-87388015D01*
X38119293Y-87601099D01*
X37938079Y-87782313D01*
X37724995Y-87924691D01*
X37724994Y-87924692D01*
X37724993Y-87924692D01*
X37488227Y-88022764D01*
X37236879Y-88072760D01*
X36980601Y-88072760D01*
X36729253Y-88022764D01*
X36492487Y-87924692D01*
X36492486Y-87924692D01*
X36492485Y-87924691D01*
X36279401Y-87782313D01*
X36098187Y-87601099D01*
X35955809Y-87388015D01*
X35887942Y-87224170D01*
X35857736Y-87151247D01*
X35807740Y-86899899D01*
X35807740Y-86643621D01*
X35857736Y-86392273D01*
X35955808Y-86155507D01*
X36098187Y-85942421D01*
X36279401Y-85761207D01*
X36492485Y-85618829D01*
X36492487Y-85618828D01*
X36729253Y-85520756D01*
X36980601Y-85470760D01*
X37236879Y-85470760D01*
X37488227Y-85520756D01*
G37*
G36*
X104478227Y-85520756D02*
G01*
X104714993Y-85618828D01*
X104714995Y-85618829D01*
X104928079Y-85761207D01*
X105109293Y-85942421D01*
X105251672Y-86155507D01*
X105349744Y-86392273D01*
X105399740Y-86643621D01*
X105399740Y-86899899D01*
X105349744Y-87151247D01*
X105319538Y-87224170D01*
X105251671Y-87388015D01*
X105109293Y-87601099D01*
X104928079Y-87782313D01*
X104714995Y-87924691D01*
X104714994Y-87924692D01*
X104714993Y-87924692D01*
X104478227Y-88022764D01*
X104226879Y-88072760D01*
X103970601Y-88072760D01*
X103719253Y-88022764D01*
X103482487Y-87924692D01*
X103482486Y-87924692D01*
X103482485Y-87924691D01*
X103269401Y-87782313D01*
X103088187Y-87601099D01*
X102945809Y-87388015D01*
X102877942Y-87224170D01*
X102847736Y-87151247D01*
X102797740Y-86899899D01*
X102797740Y-86643621D01*
X102847736Y-86392273D01*
X102945808Y-86155507D01*
X103088187Y-85942421D01*
X103269401Y-85761207D01*
X103482485Y-85618829D01*
X103482487Y-85618828D01*
X103719253Y-85520756D01*
X103970601Y-85470760D01*
X104226879Y-85470760D01*
X104478227Y-85520756D01*
G37*
G36*
X193798227Y-85520756D02*
G01*
X194034993Y-85618828D01*
X194034995Y-85618829D01*
X194248079Y-85761207D01*
X194429293Y-85942421D01*
X194571672Y-86155507D01*
X194669744Y-86392273D01*
X194719740Y-86643621D01*
X194719740Y-86899899D01*
X194669744Y-87151247D01*
X194639538Y-87224170D01*
X194571671Y-87388015D01*
X194429293Y-87601099D01*
X194248079Y-87782313D01*
X194034995Y-87924691D01*
X194034994Y-87924692D01*
X194034993Y-87924692D01*
X193798227Y-88022764D01*
X193546879Y-88072760D01*
X193290601Y-88072760D01*
X193039253Y-88022764D01*
X192802487Y-87924692D01*
X192802486Y-87924692D01*
X192802485Y-87924691D01*
X192589401Y-87782313D01*
X192408187Y-87601099D01*
X192265809Y-87388015D01*
X192197942Y-87224170D01*
X192167736Y-87151247D01*
X192117740Y-86899899D01*
X192117740Y-86643621D01*
X192167736Y-86392273D01*
X192265808Y-86155507D01*
X192408187Y-85942421D01*
X192589401Y-85761207D01*
X192802485Y-85618829D01*
X192802487Y-85618828D01*
X193039253Y-85520756D01*
X193290601Y-85470760D01*
X193546879Y-85470760D01*
X193798227Y-85520756D01*
G37*
G36*
X126808227Y-85520756D02*
G01*
X127044993Y-85618828D01*
X127044995Y-85618829D01*
X127258079Y-85761207D01*
X127439293Y-85942421D01*
X127581672Y-86155507D01*
X127679744Y-86392273D01*
X127729740Y-86643621D01*
X127729740Y-86899899D01*
X127679744Y-87151247D01*
X127649538Y-87224170D01*
X127581671Y-87388015D01*
X127439293Y-87601099D01*
X127258079Y-87782313D01*
X127044995Y-87924691D01*
X127044994Y-87924692D01*
X127044993Y-87924692D01*
X126808227Y-88022764D01*
X126556879Y-88072760D01*
X126300601Y-88072760D01*
X126049253Y-88022764D01*
X125812487Y-87924692D01*
X125812486Y-87924692D01*
X125812485Y-87924691D01*
X125599401Y-87782313D01*
X125418187Y-87601099D01*
X125275809Y-87388015D01*
X125207942Y-87224170D01*
X125177736Y-87151247D01*
X125127740Y-86899899D01*
X125127740Y-86643621D01*
X125177736Y-86392273D01*
X125275808Y-86155507D01*
X125418187Y-85942421D01*
X125599401Y-85761207D01*
X125812485Y-85618829D01*
X125812487Y-85618828D01*
X126049253Y-85520756D01*
X126300601Y-85470760D01*
X126556879Y-85470760D01*
X126808227Y-85520756D01*
G37*
G36*
X149138227Y-85520756D02*
G01*
X149374993Y-85618828D01*
X149374995Y-85618829D01*
X149588079Y-85761207D01*
X149769293Y-85942421D01*
X149911672Y-86155507D01*
X150009744Y-86392273D01*
X150059740Y-86643621D01*
X150059740Y-86899899D01*
X150009744Y-87151247D01*
X149979538Y-87224170D01*
X149911671Y-87388015D01*
X149769293Y-87601099D01*
X149588079Y-87782313D01*
X149374995Y-87924691D01*
X149374994Y-87924692D01*
X149374993Y-87924692D01*
X149138227Y-88022764D01*
X148886879Y-88072760D01*
X148630601Y-88072760D01*
X148379253Y-88022764D01*
X148142487Y-87924692D01*
X148142486Y-87924692D01*
X148142485Y-87924691D01*
X147929401Y-87782313D01*
X147748187Y-87601099D01*
X147605809Y-87388015D01*
X147537942Y-87224170D01*
X147507736Y-87151247D01*
X147457740Y-86899899D01*
X147457740Y-86643621D01*
X147507736Y-86392273D01*
X147605808Y-86155507D01*
X147748187Y-85942421D01*
X147929401Y-85761207D01*
X148142485Y-85618829D01*
X148142487Y-85618828D01*
X148379253Y-85520756D01*
X148630601Y-85470760D01*
X148886879Y-85470760D01*
X149138227Y-85520756D01*
G37*
G36*
X171468227Y-85520756D02*
G01*
X171704993Y-85618828D01*
X171704995Y-85618829D01*
X171918079Y-85761207D01*
X172099293Y-85942421D01*
X172241672Y-86155507D01*
X172339744Y-86392273D01*
X172389740Y-86643621D01*
X172389740Y-86899899D01*
X172339744Y-87151247D01*
X172309538Y-87224170D01*
X172241671Y-87388015D01*
X172099293Y-87601099D01*
X171918079Y-87782313D01*
X171704995Y-87924691D01*
X171704994Y-87924692D01*
X171704993Y-87924692D01*
X171468227Y-88022764D01*
X171216879Y-88072760D01*
X170960601Y-88072760D01*
X170709253Y-88022764D01*
X170472487Y-87924692D01*
X170472486Y-87924692D01*
X170472485Y-87924691D01*
X170259401Y-87782313D01*
X170078187Y-87601099D01*
X169935809Y-87388015D01*
X169867942Y-87224170D01*
X169837736Y-87151247D01*
X169787740Y-86899899D01*
X169787740Y-86643621D01*
X169837736Y-86392273D01*
X169935808Y-86155507D01*
X170078187Y-85942421D01*
X170259401Y-85761207D01*
X170472485Y-85618829D01*
X170472487Y-85618828D01*
X170709253Y-85520756D01*
X170960601Y-85470760D01*
X171216879Y-85470760D01*
X171468227Y-85520756D01*
G37*
G36*
X57233740Y-81926760D02*
G01*
X54131740Y-81926760D01*
X54131740Y-78824760D01*
X57233740Y-78824760D01*
X57233740Y-81926760D01*
G37*
G36*
X191213740Y-81926760D02*
G01*
X188111740Y-81926760D01*
X188111740Y-78824760D01*
X191213740Y-78824760D01*
X191213740Y-81926760D01*
G37*
G36*
X184885325Y-78854562D02*
G01*
X185035150Y-78884364D01*
X185317414Y-79001281D01*
X185571445Y-79171019D01*
X185787481Y-79387055D01*
X185957219Y-79641086D01*
X186074136Y-79923350D01*
X186133740Y-80223000D01*
X186133740Y-80528520D01*
X186074136Y-80828170D01*
X185957219Y-81110434D01*
X185787481Y-81364465D01*
X185571445Y-81580501D01*
X185317414Y-81750239D01*
X185035150Y-81867156D01*
X184885325Y-81896958D01*
X184735501Y-81926760D01*
X184429979Y-81926760D01*
X184280155Y-81896958D01*
X184130330Y-81867156D01*
X183848066Y-81750239D01*
X183594035Y-81580501D01*
X183377999Y-81364465D01*
X183208261Y-81110434D01*
X183091344Y-80828170D01*
X183031740Y-80528520D01*
X183031740Y-80223000D01*
X183091344Y-79923350D01*
X183208261Y-79641086D01*
X183377999Y-79387055D01*
X183594035Y-79171019D01*
X183848066Y-79001281D01*
X184130330Y-78884364D01*
X184280155Y-78854562D01*
X184429979Y-78824760D01*
X184735501Y-78824760D01*
X184885325Y-78854562D01*
G37*
G36*
X179805325Y-78854562D02*
G01*
X179955150Y-78884364D01*
X180237414Y-79001281D01*
X180491445Y-79171019D01*
X180707481Y-79387055D01*
X180877219Y-79641086D01*
X180994136Y-79923350D01*
X181053740Y-80223000D01*
X181053740Y-80528520D01*
X180994136Y-80828170D01*
X180877219Y-81110434D01*
X180707481Y-81364465D01*
X180491445Y-81580501D01*
X180237414Y-81750239D01*
X179955150Y-81867156D01*
X179805325Y-81896958D01*
X179655501Y-81926760D01*
X179349979Y-81926760D01*
X179200155Y-81896958D01*
X179050330Y-81867156D01*
X178768066Y-81750239D01*
X178514035Y-81580501D01*
X178297999Y-81364465D01*
X178128261Y-81110434D01*
X178011344Y-80828170D01*
X177951740Y-80528520D01*
X177951740Y-80223000D01*
X178011344Y-79923350D01*
X178128261Y-79641086D01*
X178297999Y-79387055D01*
X178514035Y-79171019D01*
X178768066Y-79001281D01*
X179050330Y-78884364D01*
X179200155Y-78854562D01*
X179349979Y-78824760D01*
X179655501Y-78824760D01*
X179805325Y-78854562D01*
G37*
G36*
X168883740Y-81926760D02*
G01*
X165781740Y-81926760D01*
X165781740Y-78824760D01*
X168883740Y-78824760D01*
X168883740Y-81926760D01*
G37*
G36*
X162555325Y-78854562D02*
G01*
X162705150Y-78884364D01*
X162987414Y-79001281D01*
X163241445Y-79171019D01*
X163457481Y-79387055D01*
X163627219Y-79641086D01*
X163744136Y-79923350D01*
X163803740Y-80223000D01*
X163803740Y-80528520D01*
X163744136Y-80828170D01*
X163627219Y-81110434D01*
X163457481Y-81364465D01*
X163241445Y-81580501D01*
X162987414Y-81750239D01*
X162705150Y-81867156D01*
X162555325Y-81896958D01*
X162405501Y-81926760D01*
X162099979Y-81926760D01*
X161950155Y-81896958D01*
X161800330Y-81867156D01*
X161518066Y-81750239D01*
X161264035Y-81580501D01*
X161047999Y-81364465D01*
X160878261Y-81110434D01*
X160761344Y-80828170D01*
X160701740Y-80528520D01*
X160701740Y-80223000D01*
X160761344Y-79923350D01*
X160878261Y-79641086D01*
X161047999Y-79387055D01*
X161264035Y-79171019D01*
X161518066Y-79001281D01*
X161800330Y-78884364D01*
X161950155Y-78854562D01*
X162099979Y-78824760D01*
X162405501Y-78824760D01*
X162555325Y-78854562D01*
G37*
G36*
X157475325Y-78854562D02*
G01*
X157625150Y-78884364D01*
X157907414Y-79001281D01*
X158161445Y-79171019D01*
X158377481Y-79387055D01*
X158547219Y-79641086D01*
X158664136Y-79923350D01*
X158723740Y-80223000D01*
X158723740Y-80528520D01*
X158664136Y-80828170D01*
X158547219Y-81110434D01*
X158377481Y-81364465D01*
X158161445Y-81580501D01*
X157907414Y-81750239D01*
X157625150Y-81867156D01*
X157475325Y-81896958D01*
X157325501Y-81926760D01*
X157019979Y-81926760D01*
X156870155Y-81896958D01*
X156720330Y-81867156D01*
X156438066Y-81750239D01*
X156184035Y-81580501D01*
X155967999Y-81364465D01*
X155798261Y-81110434D01*
X155681344Y-80828170D01*
X155621740Y-80528520D01*
X155621740Y-80223000D01*
X155681344Y-79923350D01*
X155798261Y-79641086D01*
X155967999Y-79387055D01*
X156184035Y-79171019D01*
X156438066Y-79001281D01*
X156720330Y-78884364D01*
X156870155Y-78854562D01*
X157019979Y-78824760D01*
X157325501Y-78824760D01*
X157475325Y-78854562D01*
G37*
G36*
X146553740Y-81926760D02*
G01*
X143451740Y-81926760D01*
X143451740Y-78824760D01*
X146553740Y-78824760D01*
X146553740Y-81926760D01*
G37*
G36*
X140225325Y-78854562D02*
G01*
X140375150Y-78884364D01*
X140657414Y-79001281D01*
X140911445Y-79171019D01*
X141127481Y-79387055D01*
X141297219Y-79641086D01*
X141414136Y-79923350D01*
X141473740Y-80223000D01*
X141473740Y-80528520D01*
X141414136Y-80828170D01*
X141297219Y-81110434D01*
X141127481Y-81364465D01*
X140911445Y-81580501D01*
X140657414Y-81750239D01*
X140375150Y-81867156D01*
X140225325Y-81896958D01*
X140075501Y-81926760D01*
X139769979Y-81926760D01*
X139620155Y-81896958D01*
X139470330Y-81867156D01*
X139188066Y-81750239D01*
X138934035Y-81580501D01*
X138717999Y-81364465D01*
X138548261Y-81110434D01*
X138431344Y-80828170D01*
X138371740Y-80528520D01*
X138371740Y-80223000D01*
X138431344Y-79923350D01*
X138548261Y-79641086D01*
X138717999Y-79387055D01*
X138934035Y-79171019D01*
X139188066Y-79001281D01*
X139470330Y-78884364D01*
X139620155Y-78854562D01*
X139769979Y-78824760D01*
X140075501Y-78824760D01*
X140225325Y-78854562D01*
G37*
G36*
X135145325Y-78854562D02*
G01*
X135295150Y-78884364D01*
X135577414Y-79001281D01*
X135831445Y-79171019D01*
X136047481Y-79387055D01*
X136217219Y-79641086D01*
X136334136Y-79923350D01*
X136393740Y-80223000D01*
X136393740Y-80528520D01*
X136334136Y-80828170D01*
X136217219Y-81110434D01*
X136047481Y-81364465D01*
X135831445Y-81580501D01*
X135577414Y-81750239D01*
X135295150Y-81867156D01*
X135145325Y-81896958D01*
X134995501Y-81926760D01*
X134689979Y-81926760D01*
X134540155Y-81896958D01*
X134390330Y-81867156D01*
X134108066Y-81750239D01*
X133854035Y-81580501D01*
X133637999Y-81364465D01*
X133468261Y-81110434D01*
X133351344Y-80828170D01*
X133291740Y-80528520D01*
X133291740Y-80223000D01*
X133351344Y-79923350D01*
X133468261Y-79641086D01*
X133637999Y-79387055D01*
X133854035Y-79171019D01*
X134108066Y-79001281D01*
X134390330Y-78884364D01*
X134540155Y-78854562D01*
X134689979Y-78824760D01*
X134995501Y-78824760D01*
X135145325Y-78854562D01*
G37*
G36*
X124223740Y-81926760D02*
G01*
X121121740Y-81926760D01*
X121121740Y-78824760D01*
X124223740Y-78824760D01*
X124223740Y-81926760D01*
G37*
G36*
X117895325Y-78854562D02*
G01*
X118045150Y-78884364D01*
X118327414Y-79001281D01*
X118581445Y-79171019D01*
X118797481Y-79387055D01*
X118967219Y-79641086D01*
X119084136Y-79923350D01*
X119143740Y-80223000D01*
X119143740Y-80528520D01*
X119084136Y-80828170D01*
X118967219Y-81110434D01*
X118797481Y-81364465D01*
X118581445Y-81580501D01*
X118327414Y-81750239D01*
X118045150Y-81867156D01*
X117895325Y-81896958D01*
X117745501Y-81926760D01*
X117439979Y-81926760D01*
X117290155Y-81896958D01*
X117140330Y-81867156D01*
X116858066Y-81750239D01*
X116604035Y-81580501D01*
X116387999Y-81364465D01*
X116218261Y-81110434D01*
X116101344Y-80828170D01*
X116041740Y-80528520D01*
X116041740Y-80223000D01*
X116101344Y-79923350D01*
X116218261Y-79641086D01*
X116387999Y-79387055D01*
X116604035Y-79171019D01*
X116858066Y-79001281D01*
X117140330Y-78884364D01*
X117290155Y-78854562D01*
X117439979Y-78824760D01*
X117745501Y-78824760D01*
X117895325Y-78854562D01*
G37*
G36*
X112815325Y-78854562D02*
G01*
X112965150Y-78884364D01*
X113247414Y-79001281D01*
X113501445Y-79171019D01*
X113717481Y-79387055D01*
X113887219Y-79641086D01*
X114004136Y-79923350D01*
X114063740Y-80223000D01*
X114063740Y-80528520D01*
X114004136Y-80828170D01*
X113887219Y-81110434D01*
X113717481Y-81364465D01*
X113501445Y-81580501D01*
X113247414Y-81750239D01*
X112965150Y-81867156D01*
X112815325Y-81896958D01*
X112665501Y-81926760D01*
X112359979Y-81926760D01*
X112210155Y-81896958D01*
X112060330Y-81867156D01*
X111778066Y-81750239D01*
X111524035Y-81580501D01*
X111307999Y-81364465D01*
X111138261Y-81110434D01*
X111021344Y-80828170D01*
X110961740Y-80528520D01*
X110961740Y-80223000D01*
X111021344Y-79923350D01*
X111138261Y-79641086D01*
X111307999Y-79387055D01*
X111524035Y-79171019D01*
X111778066Y-79001281D01*
X112060330Y-78884364D01*
X112210155Y-78854562D01*
X112359979Y-78824760D01*
X112665501Y-78824760D01*
X112815325Y-78854562D01*
G37*
G36*
X101893740Y-81926760D02*
G01*
X98791740Y-81926760D01*
X98791740Y-78824760D01*
X101893740Y-78824760D01*
X101893740Y-81926760D01*
G37*
G36*
X95565325Y-78854562D02*
G01*
X95715150Y-78884364D01*
X95997414Y-79001281D01*
X96251445Y-79171019D01*
X96467481Y-79387055D01*
X96637219Y-79641086D01*
X96754136Y-79923350D01*
X96813740Y-80223000D01*
X96813740Y-80528520D01*
X96754136Y-80828170D01*
X96637219Y-81110434D01*
X96467481Y-81364465D01*
X96251445Y-81580501D01*
X95997414Y-81750239D01*
X95715150Y-81867156D01*
X95565325Y-81896958D01*
X95415501Y-81926760D01*
X95109979Y-81926760D01*
X94960155Y-81896958D01*
X94810330Y-81867156D01*
X94528066Y-81750239D01*
X94274035Y-81580501D01*
X94057999Y-81364465D01*
X93888261Y-81110434D01*
X93771344Y-80828170D01*
X93711740Y-80528520D01*
X93711740Y-80223000D01*
X93771344Y-79923350D01*
X93888261Y-79641086D01*
X94057999Y-79387055D01*
X94274035Y-79171019D01*
X94528066Y-79001281D01*
X94810330Y-78884364D01*
X94960155Y-78854562D01*
X95109979Y-78824760D01*
X95415501Y-78824760D01*
X95565325Y-78854562D01*
G37*
G36*
X90485325Y-78854562D02*
G01*
X90635150Y-78884364D01*
X90917414Y-79001281D01*
X91171445Y-79171019D01*
X91387481Y-79387055D01*
X91557219Y-79641086D01*
X91674136Y-79923350D01*
X91733740Y-80223000D01*
X91733740Y-80528520D01*
X91674136Y-80828170D01*
X91557219Y-81110434D01*
X91387481Y-81364465D01*
X91171445Y-81580501D01*
X90917414Y-81750239D01*
X90635150Y-81867156D01*
X90485325Y-81896958D01*
X90335501Y-81926760D01*
X90029979Y-81926760D01*
X89880155Y-81896958D01*
X89730330Y-81867156D01*
X89448066Y-81750239D01*
X89194035Y-81580501D01*
X88977999Y-81364465D01*
X88808261Y-81110434D01*
X88691344Y-80828170D01*
X88631740Y-80528520D01*
X88631740Y-80223000D01*
X88691344Y-79923350D01*
X88808261Y-79641086D01*
X88977999Y-79387055D01*
X89194035Y-79171019D01*
X89448066Y-79001281D01*
X89730330Y-78884364D01*
X89880155Y-78854562D01*
X90029979Y-78824760D01*
X90335501Y-78824760D01*
X90485325Y-78854562D01*
G37*
G36*
X79563740Y-81926760D02*
G01*
X76461740Y-81926760D01*
X76461740Y-78824760D01*
X79563740Y-78824760D01*
X79563740Y-81926760D01*
G37*
G36*
X73235325Y-78854562D02*
G01*
X73385150Y-78884364D01*
X73667414Y-79001281D01*
X73921445Y-79171019D01*
X74137481Y-79387055D01*
X74307219Y-79641086D01*
X74424136Y-79923350D01*
X74483740Y-80223000D01*
X74483740Y-80528520D01*
X74424136Y-80828170D01*
X74307219Y-81110434D01*
X74137481Y-81364465D01*
X73921445Y-81580501D01*
X73667414Y-81750239D01*
X73385150Y-81867156D01*
X73235325Y-81896958D01*
X73085501Y-81926760D01*
X72779979Y-81926760D01*
X72630155Y-81896958D01*
X72480330Y-81867156D01*
X72198066Y-81750239D01*
X71944035Y-81580501D01*
X71727999Y-81364465D01*
X71558261Y-81110434D01*
X71441344Y-80828170D01*
X71381740Y-80528520D01*
X71381740Y-80223000D01*
X71441344Y-79923350D01*
X71558261Y-79641086D01*
X71727999Y-79387055D01*
X71944035Y-79171019D01*
X72198066Y-79001281D01*
X72480330Y-78884364D01*
X72630155Y-78854562D01*
X72779979Y-78824760D01*
X73085501Y-78824760D01*
X73235325Y-78854562D01*
G37*
G36*
X68155325Y-78854562D02*
G01*
X68305150Y-78884364D01*
X68587414Y-79001281D01*
X68841445Y-79171019D01*
X69057481Y-79387055D01*
X69227219Y-79641086D01*
X69344136Y-79923350D01*
X69403740Y-80223000D01*
X69403740Y-80528520D01*
X69344136Y-80828170D01*
X69227219Y-81110434D01*
X69057481Y-81364465D01*
X68841445Y-81580501D01*
X68587414Y-81750239D01*
X68305150Y-81867156D01*
X68155325Y-81896958D01*
X68005501Y-81926760D01*
X67699979Y-81926760D01*
X67550155Y-81896958D01*
X67400330Y-81867156D01*
X67118066Y-81750239D01*
X66864035Y-81580501D01*
X66647999Y-81364465D01*
X66478261Y-81110434D01*
X66361344Y-80828170D01*
X66301740Y-80528520D01*
X66301740Y-80223000D01*
X66361344Y-79923350D01*
X66478261Y-79641086D01*
X66647999Y-79387055D01*
X66864035Y-79171019D01*
X67118066Y-79001281D01*
X67400330Y-78884364D01*
X67550155Y-78854562D01*
X67699979Y-78824760D01*
X68005501Y-78824760D01*
X68155325Y-78854562D01*
G37*
G36*
X50905325Y-78854562D02*
G01*
X51055150Y-78884364D01*
X51337414Y-79001281D01*
X51591445Y-79171019D01*
X51807481Y-79387055D01*
X51977219Y-79641086D01*
X52094136Y-79923350D01*
X52153740Y-80223000D01*
X52153740Y-80528520D01*
X52094136Y-80828170D01*
X51977219Y-81110434D01*
X51807481Y-81364465D01*
X51591445Y-81580501D01*
X51337414Y-81750239D01*
X51055150Y-81867156D01*
X50905325Y-81896958D01*
X50755501Y-81926760D01*
X50449979Y-81926760D01*
X50300155Y-81896958D01*
X50150330Y-81867156D01*
X49868066Y-81750239D01*
X49614035Y-81580501D01*
X49397999Y-81364465D01*
X49228261Y-81110434D01*
X49111344Y-80828170D01*
X49051740Y-80528520D01*
X49051740Y-80223000D01*
X49111344Y-79923350D01*
X49228261Y-79641086D01*
X49397999Y-79387055D01*
X49614035Y-79171019D01*
X49868066Y-79001281D01*
X50150330Y-78884364D01*
X50300155Y-78854562D01*
X50449979Y-78824760D01*
X50755501Y-78824760D01*
X50905325Y-78854562D01*
G37*
G36*
X45825325Y-78854562D02*
G01*
X45975150Y-78884364D01*
X46257414Y-79001281D01*
X46511445Y-79171019D01*
X46727481Y-79387055D01*
X46897219Y-79641086D01*
X47014136Y-79923350D01*
X47073740Y-80223000D01*
X47073740Y-80528520D01*
X47014136Y-80828170D01*
X46897219Y-81110434D01*
X46727481Y-81364465D01*
X46511445Y-81580501D01*
X46257414Y-81750239D01*
X45975150Y-81867156D01*
X45825325Y-81896958D01*
X45675501Y-81926760D01*
X45369979Y-81926760D01*
X45220155Y-81896958D01*
X45070330Y-81867156D01*
X44788066Y-81750239D01*
X44534035Y-81580501D01*
X44317999Y-81364465D01*
X44148261Y-81110434D01*
X44031344Y-80828170D01*
X43971740Y-80528520D01*
X43971740Y-80223000D01*
X44031344Y-79923350D01*
X44148261Y-79641086D01*
X44317999Y-79387055D01*
X44534035Y-79171019D01*
X44788066Y-79001281D01*
X45070330Y-78884364D01*
X45220155Y-78854562D01*
X45369979Y-78824760D01*
X45675501Y-78824760D01*
X45825325Y-78854562D01*
G37*
G36*
X34903740Y-81926760D02*
G01*
X31801740Y-81926760D01*
X31801740Y-78824760D01*
X34903740Y-78824760D01*
X34903740Y-81926760D01*
G37*
G36*
X23495325Y-78854562D02*
G01*
X23645150Y-78884364D01*
X23927414Y-79001281D01*
X24181445Y-79171019D01*
X24397481Y-79387055D01*
X24567219Y-79641086D01*
X24684136Y-79923350D01*
X24743740Y-80223000D01*
X24743740Y-80528520D01*
X24684136Y-80828170D01*
X24567219Y-81110434D01*
X24397481Y-81364465D01*
X24181445Y-81580501D01*
X23927414Y-81750239D01*
X23645150Y-81867156D01*
X23495325Y-81896958D01*
X23345501Y-81926760D01*
X23039979Y-81926760D01*
X22890155Y-81896958D01*
X22740330Y-81867156D01*
X22458066Y-81750239D01*
X22204035Y-81580501D01*
X21987999Y-81364465D01*
X21818261Y-81110434D01*
X21701344Y-80828170D01*
X21641740Y-80528520D01*
X21641740Y-80223000D01*
X21701344Y-79923350D01*
X21818261Y-79641086D01*
X21987999Y-79387055D01*
X22204035Y-79171019D01*
X22458066Y-79001281D01*
X22740330Y-78884364D01*
X22890155Y-78854562D01*
X23039979Y-78824760D01*
X23345501Y-78824760D01*
X23495325Y-78854562D01*
G37*
G36*
X28575325Y-78854562D02*
G01*
X28725150Y-78884364D01*
X29007414Y-79001281D01*
X29261445Y-79171019D01*
X29477481Y-79387055D01*
X29647219Y-79641086D01*
X29764136Y-79923350D01*
X29823740Y-80223000D01*
X29823740Y-80528520D01*
X29764136Y-80828170D01*
X29647219Y-81110434D01*
X29477481Y-81364465D01*
X29261445Y-81580501D01*
X29007414Y-81750239D01*
X28725150Y-81867156D01*
X28575325Y-81896958D01*
X28425501Y-81926760D01*
X28119979Y-81926760D01*
X27970155Y-81896958D01*
X27820330Y-81867156D01*
X27538066Y-81750239D01*
X27284035Y-81580501D01*
X27067999Y-81364465D01*
X26898261Y-81110434D01*
X26781344Y-80828170D01*
X26721740Y-80528520D01*
X26721740Y-80223000D01*
X26781344Y-79923350D01*
X26898261Y-79641086D01*
X27067999Y-79387055D01*
X27284035Y-79171019D01*
X27538066Y-79001281D01*
X27820330Y-78884364D01*
X27970155Y-78854562D01*
X28119979Y-78824760D01*
X28425501Y-78824760D01*
X28575325Y-78854562D01*
G37*
G36*
X195084535Y-79676916D02*
G01*
X195190890Y-79698071D01*
X195235357Y-79716490D01*
X195391260Y-79781067D01*
X195571584Y-79901555D01*
X195724945Y-80054916D01*
X195845433Y-80235240D01*
X195928429Y-80435611D01*
X195970740Y-80648320D01*
X195970740Y-80865200D01*
X195928429Y-81077909D01*
X195845433Y-81278280D01*
X195724945Y-81458604D01*
X195571584Y-81611965D01*
X195391260Y-81732453D01*
X195190890Y-81815449D01*
X195084534Y-81836605D01*
X194978180Y-81857760D01*
X194761300Y-81857760D01*
X194654946Y-81836605D01*
X194548590Y-81815449D01*
X194348220Y-81732453D01*
X194167896Y-81611965D01*
X194014535Y-81458604D01*
X193894047Y-81278280D01*
X193811051Y-81077909D01*
X193768740Y-80865200D01*
X193768740Y-80648320D01*
X193811051Y-80435611D01*
X193894047Y-80235240D01*
X194014535Y-80054916D01*
X194167896Y-79901555D01*
X194348220Y-79781067D01*
X194504123Y-79716490D01*
X194548590Y-79698071D01*
X194654945Y-79676916D01*
X194761300Y-79655760D01*
X194978180Y-79655760D01*
X195084535Y-79676916D01*
G37*
G36*
X172754535Y-79676916D02*
G01*
X172860890Y-79698071D01*
X172905357Y-79716490D01*
X173061260Y-79781067D01*
X173241584Y-79901555D01*
X173394945Y-80054916D01*
X173515433Y-80235240D01*
X173598429Y-80435611D01*
X173640740Y-80648320D01*
X173640740Y-80865200D01*
X173598429Y-81077909D01*
X173515433Y-81278280D01*
X173394945Y-81458604D01*
X173241584Y-81611965D01*
X173061260Y-81732453D01*
X172860890Y-81815449D01*
X172754534Y-81836605D01*
X172648180Y-81857760D01*
X172431300Y-81857760D01*
X172324946Y-81836605D01*
X172218590Y-81815449D01*
X172018220Y-81732453D01*
X171837896Y-81611965D01*
X171684535Y-81458604D01*
X171564047Y-81278280D01*
X171481051Y-81077909D01*
X171438740Y-80865200D01*
X171438740Y-80648320D01*
X171481051Y-80435611D01*
X171564047Y-80235240D01*
X171684535Y-80054916D01*
X171837896Y-79901555D01*
X172018220Y-79781067D01*
X172174123Y-79716490D01*
X172218590Y-79698071D01*
X172324945Y-79676916D01*
X172431300Y-79655760D01*
X172648180Y-79655760D01*
X172754535Y-79676916D01*
G37*
G36*
X105764535Y-79676916D02*
G01*
X105870890Y-79698071D01*
X105915357Y-79716490D01*
X106071260Y-79781067D01*
X106251584Y-79901555D01*
X106404945Y-80054916D01*
X106525433Y-80235240D01*
X106608429Y-80435611D01*
X106650740Y-80648320D01*
X106650740Y-80865200D01*
X106608429Y-81077909D01*
X106525433Y-81278280D01*
X106404945Y-81458604D01*
X106251584Y-81611965D01*
X106071260Y-81732453D01*
X105870890Y-81815449D01*
X105764534Y-81836605D01*
X105658180Y-81857760D01*
X105441300Y-81857760D01*
X105334946Y-81836605D01*
X105228590Y-81815449D01*
X105028220Y-81732453D01*
X104847896Y-81611965D01*
X104694535Y-81458604D01*
X104574047Y-81278280D01*
X104491051Y-81077909D01*
X104448740Y-80865200D01*
X104448740Y-80648320D01*
X104491051Y-80435611D01*
X104574047Y-80235240D01*
X104694535Y-80054916D01*
X104847896Y-79901555D01*
X105028220Y-79781067D01*
X105184123Y-79716490D01*
X105228590Y-79698071D01*
X105334945Y-79676916D01*
X105441300Y-79655760D01*
X105658180Y-79655760D01*
X105764535Y-79676916D01*
G37*
G36*
X128094535Y-79676916D02*
G01*
X128200890Y-79698071D01*
X128245357Y-79716490D01*
X128401260Y-79781067D01*
X128581584Y-79901555D01*
X128734945Y-80054916D01*
X128855433Y-80235240D01*
X128938429Y-80435611D01*
X128980740Y-80648320D01*
X128980740Y-80865200D01*
X128938429Y-81077909D01*
X128855433Y-81278280D01*
X128734945Y-81458604D01*
X128581584Y-81611965D01*
X128401260Y-81732453D01*
X128200890Y-81815449D01*
X128094534Y-81836605D01*
X127988180Y-81857760D01*
X127771300Y-81857760D01*
X127664946Y-81836605D01*
X127558590Y-81815449D01*
X127358220Y-81732453D01*
X127177896Y-81611965D01*
X127024535Y-81458604D01*
X126904047Y-81278280D01*
X126821051Y-81077909D01*
X126778740Y-80865200D01*
X126778740Y-80648320D01*
X126821051Y-80435611D01*
X126904047Y-80235240D01*
X127024535Y-80054916D01*
X127177896Y-79901555D01*
X127358220Y-79781067D01*
X127514123Y-79716490D01*
X127558590Y-79698071D01*
X127664945Y-79676916D01*
X127771300Y-79655760D01*
X127988180Y-79655760D01*
X128094535Y-79676916D01*
G37*
G36*
X38774535Y-79676916D02*
G01*
X38880890Y-79698071D01*
X38925357Y-79716490D01*
X39081260Y-79781067D01*
X39261584Y-79901555D01*
X39414945Y-80054916D01*
X39535433Y-80235240D01*
X39618429Y-80435611D01*
X39660740Y-80648320D01*
X39660740Y-80865200D01*
X39618429Y-81077909D01*
X39535433Y-81278280D01*
X39414945Y-81458604D01*
X39261584Y-81611965D01*
X39081260Y-81732453D01*
X38880890Y-81815449D01*
X38774534Y-81836605D01*
X38668180Y-81857760D01*
X38451300Y-81857760D01*
X38344946Y-81836605D01*
X38238590Y-81815449D01*
X38038220Y-81732453D01*
X37857896Y-81611965D01*
X37704535Y-81458604D01*
X37584047Y-81278280D01*
X37501051Y-81077909D01*
X37458740Y-80865200D01*
X37458740Y-80648320D01*
X37501051Y-80435611D01*
X37584047Y-80235240D01*
X37704535Y-80054916D01*
X37857896Y-79901555D01*
X38038220Y-79781067D01*
X38194123Y-79716490D01*
X38238590Y-79698071D01*
X38344945Y-79676916D01*
X38451300Y-79655760D01*
X38668180Y-79655760D01*
X38774535Y-79676916D01*
G37*
G36*
X61104535Y-79676916D02*
G01*
X61210890Y-79698071D01*
X61255357Y-79716490D01*
X61411260Y-79781067D01*
X61591584Y-79901555D01*
X61744945Y-80054916D01*
X61865433Y-80235240D01*
X61948429Y-80435611D01*
X61990740Y-80648320D01*
X61990740Y-80865200D01*
X61948429Y-81077909D01*
X61865433Y-81278280D01*
X61744945Y-81458604D01*
X61591584Y-81611965D01*
X61411260Y-81732453D01*
X61210890Y-81815449D01*
X61104534Y-81836605D01*
X60998180Y-81857760D01*
X60781300Y-81857760D01*
X60674946Y-81836605D01*
X60568590Y-81815449D01*
X60368220Y-81732453D01*
X60187896Y-81611965D01*
X60034535Y-81458604D01*
X59914047Y-81278280D01*
X59831051Y-81077909D01*
X59788740Y-80865200D01*
X59788740Y-80648320D01*
X59831051Y-80435611D01*
X59914047Y-80235240D01*
X60034535Y-80054916D01*
X60187896Y-79901555D01*
X60368220Y-79781067D01*
X60524123Y-79716490D01*
X60568590Y-79698071D01*
X60674945Y-79676916D01*
X60781300Y-79655760D01*
X60998180Y-79655760D01*
X61104535Y-79676916D01*
G37*
G36*
X83434535Y-79676916D02*
G01*
X83540890Y-79698071D01*
X83585357Y-79716490D01*
X83741260Y-79781067D01*
X83921584Y-79901555D01*
X84074945Y-80054916D01*
X84195433Y-80235240D01*
X84278429Y-80435611D01*
X84320740Y-80648320D01*
X84320740Y-80865200D01*
X84278429Y-81077909D01*
X84195433Y-81278280D01*
X84074945Y-81458604D01*
X83921584Y-81611965D01*
X83741260Y-81732453D01*
X83540890Y-81815449D01*
X83434534Y-81836605D01*
X83328180Y-81857760D01*
X83111300Y-81857760D01*
X83004946Y-81836605D01*
X82898590Y-81815449D01*
X82698220Y-81732453D01*
X82517896Y-81611965D01*
X82364535Y-81458604D01*
X82244047Y-81278280D01*
X82161051Y-81077909D01*
X82118740Y-80865200D01*
X82118740Y-80648320D01*
X82161051Y-80435611D01*
X82244047Y-80235240D01*
X82364535Y-80054916D01*
X82517896Y-79901555D01*
X82698220Y-79781067D01*
X82854123Y-79716490D01*
X82898590Y-79698071D01*
X83004945Y-79676916D01*
X83111300Y-79655760D01*
X83328180Y-79655760D01*
X83434535Y-79676916D01*
G37*
G36*
X150424535Y-79676916D02*
G01*
X150530890Y-79698071D01*
X150575357Y-79716490D01*
X150731260Y-79781067D01*
X150911584Y-79901555D01*
X151064945Y-80054916D01*
X151185433Y-80235240D01*
X151268429Y-80435611D01*
X151310740Y-80648320D01*
X151310740Y-80865200D01*
X151268429Y-81077909D01*
X151185433Y-81278280D01*
X151064945Y-81458604D01*
X150911584Y-81611965D01*
X150731260Y-81732453D01*
X150530890Y-81815449D01*
X150424534Y-81836605D01*
X150318180Y-81857760D01*
X150101300Y-81857760D01*
X149994946Y-81836605D01*
X149888590Y-81815449D01*
X149688220Y-81732453D01*
X149507896Y-81611965D01*
X149354535Y-81458604D01*
X149234047Y-81278280D01*
X149151051Y-81077909D01*
X149108740Y-80865200D01*
X149108740Y-80648320D01*
X149151051Y-80435611D01*
X149234047Y-80235240D01*
X149354535Y-80054916D01*
X149507896Y-79901555D01*
X149688220Y-79781067D01*
X149844123Y-79716490D01*
X149888590Y-79698071D01*
X149994945Y-79676916D01*
X150101300Y-79655760D01*
X150318180Y-79655760D01*
X150424535Y-79676916D01*
G37*
G36*
X85678666Y-79395083D02*
G01*
X85678667Y-79395083D01*
X85678670Y-79395084D01*
X85715249Y-79410236D01*
X85748170Y-79432233D01*
X85776167Y-79460230D01*
X85798164Y-79493151D01*
X85813316Y-79529730D01*
X85813317Y-79529733D01*
X85813317Y-79529734D01*
X85821040Y-79568562D01*
X85821040Y-79608158D01*
X85814491Y-79641086D01*
X85813316Y-79646990D01*
X85798164Y-79683569D01*
X85776167Y-79716490D01*
X85748170Y-79744487D01*
X85715249Y-79766484D01*
X85678670Y-79781636D01*
X85678667Y-79781637D01*
X85678666Y-79781637D01*
X85639838Y-79789360D01*
X85600242Y-79789360D01*
X85561414Y-79781637D01*
X85561413Y-79781637D01*
X85561410Y-79781636D01*
X85524831Y-79766484D01*
X85491910Y-79744487D01*
X85463913Y-79716490D01*
X85441916Y-79683569D01*
X85426764Y-79646990D01*
X85425590Y-79641086D01*
X85419040Y-79608158D01*
X85419040Y-79568562D01*
X85426763Y-79529734D01*
X85426763Y-79529733D01*
X85426764Y-79529730D01*
X85441916Y-79493151D01*
X85463913Y-79460230D01*
X85491910Y-79432233D01*
X85524831Y-79410236D01*
X85561410Y-79395084D01*
X85561413Y-79395083D01*
X85561414Y-79395083D01*
X85600242Y-79387360D01*
X85639838Y-79387360D01*
X85678666Y-79395083D01*
G37*
G36*
X131862666Y-79395083D02*
G01*
X131862667Y-79395083D01*
X131862670Y-79395084D01*
X131899249Y-79410236D01*
X131932170Y-79432233D01*
X131960167Y-79460230D01*
X131982164Y-79493151D01*
X131997316Y-79529730D01*
X131997317Y-79529733D01*
X131997317Y-79529734D01*
X132005040Y-79568562D01*
X132005040Y-79608158D01*
X131998491Y-79641086D01*
X131997316Y-79646990D01*
X131982164Y-79683569D01*
X131960167Y-79716490D01*
X131932170Y-79744487D01*
X131899249Y-79766484D01*
X131862670Y-79781636D01*
X131862667Y-79781637D01*
X131862666Y-79781637D01*
X131823838Y-79789360D01*
X131784242Y-79789360D01*
X131745414Y-79781637D01*
X131745413Y-79781637D01*
X131745410Y-79781636D01*
X131708831Y-79766484D01*
X131675910Y-79744487D01*
X131647913Y-79716490D01*
X131625916Y-79683569D01*
X131610764Y-79646990D01*
X131609590Y-79641086D01*
X131603040Y-79608158D01*
X131603040Y-79568562D01*
X131610763Y-79529734D01*
X131610763Y-79529733D01*
X131610764Y-79529730D01*
X131625916Y-79493151D01*
X131647913Y-79460230D01*
X131675910Y-79432233D01*
X131708831Y-79410236D01*
X131745410Y-79395084D01*
X131745413Y-79395083D01*
X131745414Y-79395083D01*
X131784242Y-79387360D01*
X131823838Y-79387360D01*
X131862666Y-79395083D01*
G37*
G36*
X130338666Y-79395083D02*
G01*
X130338667Y-79395083D01*
X130338670Y-79395084D01*
X130375249Y-79410236D01*
X130408170Y-79432233D01*
X130436167Y-79460230D01*
X130458164Y-79493151D01*
X130473316Y-79529730D01*
X130473317Y-79529733D01*
X130473317Y-79529734D01*
X130481040Y-79568562D01*
X130481040Y-79608158D01*
X130474491Y-79641086D01*
X130473316Y-79646990D01*
X130458164Y-79683569D01*
X130436167Y-79716490D01*
X130408170Y-79744487D01*
X130375249Y-79766484D01*
X130338670Y-79781636D01*
X130338667Y-79781637D01*
X130338666Y-79781637D01*
X130299838Y-79789360D01*
X130260242Y-79789360D01*
X130221414Y-79781637D01*
X130221413Y-79781637D01*
X130221410Y-79781636D01*
X130184831Y-79766484D01*
X130151910Y-79744487D01*
X130123913Y-79716490D01*
X130101916Y-79683569D01*
X130086764Y-79646990D01*
X130085590Y-79641086D01*
X130079040Y-79608158D01*
X130079040Y-79568562D01*
X130086763Y-79529734D01*
X130086763Y-79529733D01*
X130086764Y-79529730D01*
X130101916Y-79493151D01*
X130123913Y-79460230D01*
X130151910Y-79432233D01*
X130184831Y-79410236D01*
X130221410Y-79395084D01*
X130221413Y-79395083D01*
X130221414Y-79395083D01*
X130260242Y-79387360D01*
X130299838Y-79387360D01*
X130338666Y-79395083D01*
G37*
G36*
X109532666Y-79395083D02*
G01*
X109532667Y-79395083D01*
X109532670Y-79395084D01*
X109569249Y-79410236D01*
X109602170Y-79432233D01*
X109630167Y-79460230D01*
X109652164Y-79493151D01*
X109667316Y-79529730D01*
X109667317Y-79529733D01*
X109667317Y-79529734D01*
X109675040Y-79568562D01*
X109675040Y-79608158D01*
X109668491Y-79641086D01*
X109667316Y-79646990D01*
X109652164Y-79683569D01*
X109630167Y-79716490D01*
X109602170Y-79744487D01*
X109569249Y-79766484D01*
X109532670Y-79781636D01*
X109532667Y-79781637D01*
X109532666Y-79781637D01*
X109493838Y-79789360D01*
X109454242Y-79789360D01*
X109415414Y-79781637D01*
X109415413Y-79781637D01*
X109415410Y-79781636D01*
X109378831Y-79766484D01*
X109345910Y-79744487D01*
X109317913Y-79716490D01*
X109295916Y-79683569D01*
X109280764Y-79646990D01*
X109279590Y-79641086D01*
X109273040Y-79608158D01*
X109273040Y-79568562D01*
X109280763Y-79529734D01*
X109280763Y-79529733D01*
X109280764Y-79529730D01*
X109295916Y-79493151D01*
X109317913Y-79460230D01*
X109345910Y-79432233D01*
X109378831Y-79410236D01*
X109415410Y-79395084D01*
X109415413Y-79395083D01*
X109415414Y-79395083D01*
X109454242Y-79387360D01*
X109493838Y-79387360D01*
X109532666Y-79395083D01*
G37*
G36*
X108008666Y-79395083D02*
G01*
X108008667Y-79395083D01*
X108008670Y-79395084D01*
X108045249Y-79410236D01*
X108078170Y-79432233D01*
X108106167Y-79460230D01*
X108128164Y-79493151D01*
X108143316Y-79529730D01*
X108143317Y-79529733D01*
X108143317Y-79529734D01*
X108151040Y-79568562D01*
X108151040Y-79608158D01*
X108144491Y-79641086D01*
X108143316Y-79646990D01*
X108128164Y-79683569D01*
X108106167Y-79716490D01*
X108078170Y-79744487D01*
X108045249Y-79766484D01*
X108008670Y-79781636D01*
X108008667Y-79781637D01*
X108008666Y-79781637D01*
X107969838Y-79789360D01*
X107930242Y-79789360D01*
X107891414Y-79781637D01*
X107891413Y-79781637D01*
X107891410Y-79781636D01*
X107854831Y-79766484D01*
X107821910Y-79744487D01*
X107793913Y-79716490D01*
X107771916Y-79683569D01*
X107756764Y-79646990D01*
X107755590Y-79641086D01*
X107749040Y-79608158D01*
X107749040Y-79568562D01*
X107756763Y-79529734D01*
X107756763Y-79529733D01*
X107756764Y-79529730D01*
X107771916Y-79493151D01*
X107793913Y-79460230D01*
X107821910Y-79432233D01*
X107854831Y-79410236D01*
X107891410Y-79395084D01*
X107891413Y-79395083D01*
X107891414Y-79395083D01*
X107930242Y-79387360D01*
X107969838Y-79387360D01*
X108008666Y-79395083D01*
G37*
G36*
X87202666Y-79395083D02*
G01*
X87202667Y-79395083D01*
X87202670Y-79395084D01*
X87239249Y-79410236D01*
X87272170Y-79432233D01*
X87300167Y-79460230D01*
X87322164Y-79493151D01*
X87337316Y-79529730D01*
X87337317Y-79529733D01*
X87337317Y-79529734D01*
X87345040Y-79568562D01*
X87345040Y-79608158D01*
X87338491Y-79641086D01*
X87337316Y-79646990D01*
X87322164Y-79683569D01*
X87300167Y-79716490D01*
X87272170Y-79744487D01*
X87239249Y-79766484D01*
X87202670Y-79781636D01*
X87202667Y-79781637D01*
X87202666Y-79781637D01*
X87163838Y-79789360D01*
X87124242Y-79789360D01*
X87085414Y-79781637D01*
X87085413Y-79781637D01*
X87085410Y-79781636D01*
X87048831Y-79766484D01*
X87015910Y-79744487D01*
X86987913Y-79716490D01*
X86965916Y-79683569D01*
X86950764Y-79646990D01*
X86949590Y-79641086D01*
X86943040Y-79608158D01*
X86943040Y-79568562D01*
X86950763Y-79529734D01*
X86950763Y-79529733D01*
X86950764Y-79529730D01*
X86965916Y-79493151D01*
X86987913Y-79460230D01*
X87015910Y-79432233D01*
X87048831Y-79410236D01*
X87085410Y-79395084D01*
X87085413Y-79395083D01*
X87085414Y-79395083D01*
X87124242Y-79387360D01*
X87163838Y-79387360D01*
X87202666Y-79395083D01*
G37*
G36*
X64872666Y-79395083D02*
G01*
X64872667Y-79395083D01*
X64872670Y-79395084D01*
X64909249Y-79410236D01*
X64942170Y-79432233D01*
X64970167Y-79460230D01*
X64992164Y-79493151D01*
X65007316Y-79529730D01*
X65007317Y-79529733D01*
X65007317Y-79529734D01*
X65015040Y-79568562D01*
X65015040Y-79608158D01*
X65008491Y-79641086D01*
X65007316Y-79646990D01*
X64992164Y-79683569D01*
X64970167Y-79716490D01*
X64942170Y-79744487D01*
X64909249Y-79766484D01*
X64872670Y-79781636D01*
X64872667Y-79781637D01*
X64872666Y-79781637D01*
X64833838Y-79789360D01*
X64794242Y-79789360D01*
X64755414Y-79781637D01*
X64755413Y-79781637D01*
X64755410Y-79781636D01*
X64718831Y-79766484D01*
X64685910Y-79744487D01*
X64657913Y-79716490D01*
X64635916Y-79683569D01*
X64620764Y-79646990D01*
X64619590Y-79641086D01*
X64613040Y-79608158D01*
X64613040Y-79568562D01*
X64620763Y-79529734D01*
X64620763Y-79529733D01*
X64620764Y-79529730D01*
X64635916Y-79493151D01*
X64657913Y-79460230D01*
X64685910Y-79432233D01*
X64718831Y-79410236D01*
X64755410Y-79395084D01*
X64755413Y-79395083D01*
X64755414Y-79395083D01*
X64794242Y-79387360D01*
X64833838Y-79387360D01*
X64872666Y-79395083D01*
G37*
G36*
X63348666Y-79395083D02*
G01*
X63348667Y-79395083D01*
X63348670Y-79395084D01*
X63385249Y-79410236D01*
X63418170Y-79432233D01*
X63446167Y-79460230D01*
X63468164Y-79493151D01*
X63483316Y-79529730D01*
X63483317Y-79529733D01*
X63483317Y-79529734D01*
X63491040Y-79568562D01*
X63491040Y-79608158D01*
X63484491Y-79641086D01*
X63483316Y-79646990D01*
X63468164Y-79683569D01*
X63446167Y-79716490D01*
X63418170Y-79744487D01*
X63385249Y-79766484D01*
X63348670Y-79781636D01*
X63348667Y-79781637D01*
X63348666Y-79781637D01*
X63309838Y-79789360D01*
X63270242Y-79789360D01*
X63231414Y-79781637D01*
X63231413Y-79781637D01*
X63231410Y-79781636D01*
X63194831Y-79766484D01*
X63161910Y-79744487D01*
X63133913Y-79716490D01*
X63111916Y-79683569D01*
X63096764Y-79646990D01*
X63095590Y-79641086D01*
X63089040Y-79608158D01*
X63089040Y-79568562D01*
X63096763Y-79529734D01*
X63096763Y-79529733D01*
X63096764Y-79529730D01*
X63111916Y-79493151D01*
X63133913Y-79460230D01*
X63161910Y-79432233D01*
X63194831Y-79410236D01*
X63231410Y-79395084D01*
X63231413Y-79395083D01*
X63231414Y-79395083D01*
X63270242Y-79387360D01*
X63309838Y-79387360D01*
X63348666Y-79395083D01*
G37*
G36*
X41018666Y-79395083D02*
G01*
X41018667Y-79395083D01*
X41018670Y-79395084D01*
X41055249Y-79410236D01*
X41088170Y-79432233D01*
X41116167Y-79460230D01*
X41138164Y-79493151D01*
X41153316Y-79529730D01*
X41153317Y-79529733D01*
X41153317Y-79529734D01*
X41161040Y-79568562D01*
X41161040Y-79608158D01*
X41154491Y-79641086D01*
X41153316Y-79646990D01*
X41138164Y-79683569D01*
X41116167Y-79716490D01*
X41088170Y-79744487D01*
X41055249Y-79766484D01*
X41018670Y-79781636D01*
X41018667Y-79781637D01*
X41018666Y-79781637D01*
X40979838Y-79789360D01*
X40940242Y-79789360D01*
X40901414Y-79781637D01*
X40901413Y-79781637D01*
X40901410Y-79781636D01*
X40864831Y-79766484D01*
X40831910Y-79744487D01*
X40803913Y-79716490D01*
X40781916Y-79683569D01*
X40766764Y-79646990D01*
X40765590Y-79641086D01*
X40759040Y-79608158D01*
X40759040Y-79568562D01*
X40766763Y-79529734D01*
X40766763Y-79529733D01*
X40766764Y-79529730D01*
X40781916Y-79493151D01*
X40803913Y-79460230D01*
X40831910Y-79432233D01*
X40864831Y-79410236D01*
X40901410Y-79395084D01*
X40901413Y-79395083D01*
X40901414Y-79395083D01*
X40940242Y-79387360D01*
X40979838Y-79387360D01*
X41018666Y-79395083D01*
G37*
G36*
X176522666Y-79395083D02*
G01*
X176522667Y-79395083D01*
X176522670Y-79395084D01*
X176559249Y-79410236D01*
X176592170Y-79432233D01*
X176620167Y-79460230D01*
X176642164Y-79493151D01*
X176657316Y-79529730D01*
X176657317Y-79529733D01*
X176657317Y-79529734D01*
X176665040Y-79568562D01*
X176665040Y-79608158D01*
X176658491Y-79641086D01*
X176657316Y-79646990D01*
X176642164Y-79683569D01*
X176620167Y-79716490D01*
X176592170Y-79744487D01*
X176559249Y-79766484D01*
X176522670Y-79781636D01*
X176522667Y-79781637D01*
X176522666Y-79781637D01*
X176483838Y-79789360D01*
X176444242Y-79789360D01*
X176405414Y-79781637D01*
X176405413Y-79781637D01*
X176405410Y-79781636D01*
X176368831Y-79766484D01*
X176335910Y-79744487D01*
X176307913Y-79716490D01*
X176285916Y-79683569D01*
X176270764Y-79646990D01*
X176269590Y-79641086D01*
X176263040Y-79608158D01*
X176263040Y-79568562D01*
X176270763Y-79529734D01*
X176270763Y-79529733D01*
X176270764Y-79529730D01*
X176285916Y-79493151D01*
X176307913Y-79460230D01*
X176335910Y-79432233D01*
X176368831Y-79410236D01*
X176405410Y-79395084D01*
X176405413Y-79395083D01*
X176405414Y-79395083D01*
X176444242Y-79387360D01*
X176483838Y-79387360D01*
X176522666Y-79395083D01*
G37*
G36*
X174998666Y-79395083D02*
G01*
X174998667Y-79395083D01*
X174998670Y-79395084D01*
X175035249Y-79410236D01*
X175068170Y-79432233D01*
X175096167Y-79460230D01*
X175118164Y-79493151D01*
X175133316Y-79529730D01*
X175133317Y-79529733D01*
X175133317Y-79529734D01*
X175141040Y-79568562D01*
X175141040Y-79608158D01*
X175134491Y-79641086D01*
X175133316Y-79646990D01*
X175118164Y-79683569D01*
X175096167Y-79716490D01*
X175068170Y-79744487D01*
X175035249Y-79766484D01*
X174998670Y-79781636D01*
X174998667Y-79781637D01*
X174998666Y-79781637D01*
X174959838Y-79789360D01*
X174920242Y-79789360D01*
X174881414Y-79781637D01*
X174881413Y-79781637D01*
X174881410Y-79781636D01*
X174844831Y-79766484D01*
X174811910Y-79744487D01*
X174783913Y-79716490D01*
X174761916Y-79683569D01*
X174746764Y-79646990D01*
X174745590Y-79641086D01*
X174739040Y-79608158D01*
X174739040Y-79568562D01*
X174746763Y-79529734D01*
X174746763Y-79529733D01*
X174746764Y-79529730D01*
X174761916Y-79493151D01*
X174783913Y-79460230D01*
X174811910Y-79432233D01*
X174844831Y-79410236D01*
X174881410Y-79395084D01*
X174881413Y-79395083D01*
X174881414Y-79395083D01*
X174920242Y-79387360D01*
X174959838Y-79387360D01*
X174998666Y-79395083D01*
G37*
G36*
X154192666Y-79395083D02*
G01*
X154192667Y-79395083D01*
X154192670Y-79395084D01*
X154229249Y-79410236D01*
X154262170Y-79432233D01*
X154290167Y-79460230D01*
X154312164Y-79493151D01*
X154327316Y-79529730D01*
X154327317Y-79529733D01*
X154327317Y-79529734D01*
X154335040Y-79568562D01*
X154335040Y-79608158D01*
X154328491Y-79641086D01*
X154327316Y-79646990D01*
X154312164Y-79683569D01*
X154290167Y-79716490D01*
X154262170Y-79744487D01*
X154229249Y-79766484D01*
X154192670Y-79781636D01*
X154192667Y-79781637D01*
X154192666Y-79781637D01*
X154153838Y-79789360D01*
X154114242Y-79789360D01*
X154075414Y-79781637D01*
X154075413Y-79781637D01*
X154075410Y-79781636D01*
X154038831Y-79766484D01*
X154005910Y-79744487D01*
X153977913Y-79716490D01*
X153955916Y-79683569D01*
X153940764Y-79646990D01*
X153939590Y-79641086D01*
X153933040Y-79608158D01*
X153933040Y-79568562D01*
X153940763Y-79529734D01*
X153940763Y-79529733D01*
X153940764Y-79529730D01*
X153955916Y-79493151D01*
X153977913Y-79460230D01*
X154005910Y-79432233D01*
X154038831Y-79410236D01*
X154075410Y-79395084D01*
X154075413Y-79395083D01*
X154075414Y-79395083D01*
X154114242Y-79387360D01*
X154153838Y-79387360D01*
X154192666Y-79395083D01*
G37*
G36*
X42542666Y-79395083D02*
G01*
X42542667Y-79395083D01*
X42542670Y-79395084D01*
X42579249Y-79410236D01*
X42612170Y-79432233D01*
X42640167Y-79460230D01*
X42662164Y-79493151D01*
X42677316Y-79529730D01*
X42677317Y-79529733D01*
X42677317Y-79529734D01*
X42685040Y-79568562D01*
X42685040Y-79608158D01*
X42678491Y-79641086D01*
X42677316Y-79646990D01*
X42662164Y-79683569D01*
X42640167Y-79716490D01*
X42612170Y-79744487D01*
X42579249Y-79766484D01*
X42542670Y-79781636D01*
X42542667Y-79781637D01*
X42542666Y-79781637D01*
X42503838Y-79789360D01*
X42464242Y-79789360D01*
X42425414Y-79781637D01*
X42425413Y-79781637D01*
X42425410Y-79781636D01*
X42388831Y-79766484D01*
X42355910Y-79744487D01*
X42327913Y-79716490D01*
X42305916Y-79683569D01*
X42290764Y-79646990D01*
X42289590Y-79641086D01*
X42283040Y-79608158D01*
X42283040Y-79568562D01*
X42290763Y-79529734D01*
X42290763Y-79529733D01*
X42290764Y-79529730D01*
X42305916Y-79493151D01*
X42327913Y-79460230D01*
X42355910Y-79432233D01*
X42388831Y-79410236D01*
X42425410Y-79395084D01*
X42425413Y-79395083D01*
X42425414Y-79395083D01*
X42464242Y-79387360D01*
X42503838Y-79387360D01*
X42542666Y-79395083D01*
G37*
G36*
X152668666Y-79395083D02*
G01*
X152668667Y-79395083D01*
X152668670Y-79395084D01*
X152705249Y-79410236D01*
X152738170Y-79432233D01*
X152766167Y-79460230D01*
X152788164Y-79493151D01*
X152803316Y-79529730D01*
X152803317Y-79529733D01*
X152803317Y-79529734D01*
X152811040Y-79568562D01*
X152811040Y-79608158D01*
X152804491Y-79641086D01*
X152803316Y-79646990D01*
X152788164Y-79683569D01*
X152766167Y-79716490D01*
X152738170Y-79744487D01*
X152705249Y-79766484D01*
X152668670Y-79781636D01*
X152668667Y-79781637D01*
X152668666Y-79781637D01*
X152629838Y-79789360D01*
X152590242Y-79789360D01*
X152551414Y-79781637D01*
X152551413Y-79781637D01*
X152551410Y-79781636D01*
X152514831Y-79766484D01*
X152481910Y-79744487D01*
X152453913Y-79716490D01*
X152431916Y-79683569D01*
X152416764Y-79646990D01*
X152415590Y-79641086D01*
X152409040Y-79608158D01*
X152409040Y-79568562D01*
X152416763Y-79529734D01*
X152416763Y-79529733D01*
X152416764Y-79529730D01*
X152431916Y-79493151D01*
X152453913Y-79460230D01*
X152481910Y-79432233D01*
X152514831Y-79410236D01*
X152551410Y-79395084D01*
X152551413Y-79395083D01*
X152551414Y-79395083D01*
X152590242Y-79387360D01*
X152629838Y-79387360D01*
X152668666Y-79395083D01*
G37*
G36*
X42542666Y-78125083D02*
G01*
X42542667Y-78125083D01*
X42542670Y-78125084D01*
X42579249Y-78140236D01*
X42612170Y-78162233D01*
X42640167Y-78190230D01*
X42662164Y-78223151D01*
X42677316Y-78259730D01*
X42685040Y-78298563D01*
X42685040Y-78338157D01*
X42677316Y-78376990D01*
X42662164Y-78413569D01*
X42640167Y-78446490D01*
X42612170Y-78474487D01*
X42579249Y-78496484D01*
X42542670Y-78511636D01*
X42542667Y-78511637D01*
X42542666Y-78511637D01*
X42503838Y-78519360D01*
X42464242Y-78519360D01*
X42425414Y-78511637D01*
X42425413Y-78511637D01*
X42425410Y-78511636D01*
X42388831Y-78496484D01*
X42355910Y-78474487D01*
X42327913Y-78446490D01*
X42305916Y-78413569D01*
X42290764Y-78376990D01*
X42283040Y-78338157D01*
X42283040Y-78298563D01*
X42290764Y-78259730D01*
X42305916Y-78223151D01*
X42327913Y-78190230D01*
X42355910Y-78162233D01*
X42388831Y-78140236D01*
X42425410Y-78125084D01*
X42425413Y-78125083D01*
X42425414Y-78125083D01*
X42464242Y-78117360D01*
X42503838Y-78117360D01*
X42542666Y-78125083D01*
G37*
G36*
X152668666Y-78125083D02*
G01*
X152668667Y-78125083D01*
X152668670Y-78125084D01*
X152705249Y-78140236D01*
X152738170Y-78162233D01*
X152766167Y-78190230D01*
X152788164Y-78223151D01*
X152803316Y-78259730D01*
X152811040Y-78298563D01*
X152811040Y-78338157D01*
X152803316Y-78376990D01*
X152788164Y-78413569D01*
X152766167Y-78446490D01*
X152738170Y-78474487D01*
X152705249Y-78496484D01*
X152668670Y-78511636D01*
X152668667Y-78511637D01*
X152668666Y-78511637D01*
X152629838Y-78519360D01*
X152590242Y-78519360D01*
X152551414Y-78511637D01*
X152551413Y-78511637D01*
X152551410Y-78511636D01*
X152514831Y-78496484D01*
X152481910Y-78474487D01*
X152453913Y-78446490D01*
X152431916Y-78413569D01*
X152416764Y-78376990D01*
X152409040Y-78338157D01*
X152409040Y-78298563D01*
X152416764Y-78259730D01*
X152431916Y-78223151D01*
X152453913Y-78190230D01*
X152481910Y-78162233D01*
X152514831Y-78140236D01*
X152551410Y-78125084D01*
X152551413Y-78125083D01*
X152551414Y-78125083D01*
X152590242Y-78117360D01*
X152629838Y-78117360D01*
X152668666Y-78125083D01*
G37*
G36*
X131862666Y-78125083D02*
G01*
X131862667Y-78125083D01*
X131862670Y-78125084D01*
X131899249Y-78140236D01*
X131932170Y-78162233D01*
X131960167Y-78190230D01*
X131982164Y-78223151D01*
X131997316Y-78259730D01*
X132005040Y-78298563D01*
X132005040Y-78338157D01*
X131997316Y-78376990D01*
X131982164Y-78413569D01*
X131960167Y-78446490D01*
X131932170Y-78474487D01*
X131899249Y-78496484D01*
X131862670Y-78511636D01*
X131862667Y-78511637D01*
X131862666Y-78511637D01*
X131823838Y-78519360D01*
X131784242Y-78519360D01*
X131745414Y-78511637D01*
X131745413Y-78511637D01*
X131745410Y-78511636D01*
X131708831Y-78496484D01*
X131675910Y-78474487D01*
X131647913Y-78446490D01*
X131625916Y-78413569D01*
X131610764Y-78376990D01*
X131603040Y-78338157D01*
X131603040Y-78298563D01*
X131610764Y-78259730D01*
X131625916Y-78223151D01*
X131647913Y-78190230D01*
X131675910Y-78162233D01*
X131708831Y-78140236D01*
X131745410Y-78125084D01*
X131745413Y-78125083D01*
X131745414Y-78125083D01*
X131784242Y-78117360D01*
X131823838Y-78117360D01*
X131862666Y-78125083D01*
G37*
G36*
X130338666Y-78125083D02*
G01*
X130338667Y-78125083D01*
X130338670Y-78125084D01*
X130375249Y-78140236D01*
X130408170Y-78162233D01*
X130436167Y-78190230D01*
X130458164Y-78223151D01*
X130473316Y-78259730D01*
X130481040Y-78298563D01*
X130481040Y-78338157D01*
X130473316Y-78376990D01*
X130458164Y-78413569D01*
X130436167Y-78446490D01*
X130408170Y-78474487D01*
X130375249Y-78496484D01*
X130338670Y-78511636D01*
X130338667Y-78511637D01*
X130338666Y-78511637D01*
X130299838Y-78519360D01*
X130260242Y-78519360D01*
X130221414Y-78511637D01*
X130221413Y-78511637D01*
X130221410Y-78511636D01*
X130184831Y-78496484D01*
X130151910Y-78474487D01*
X130123913Y-78446490D01*
X130101916Y-78413569D01*
X130086764Y-78376990D01*
X130079040Y-78338157D01*
X130079040Y-78298563D01*
X130086764Y-78259730D01*
X130101916Y-78223151D01*
X130123913Y-78190230D01*
X130151910Y-78162233D01*
X130184831Y-78140236D01*
X130221410Y-78125084D01*
X130221413Y-78125083D01*
X130221414Y-78125083D01*
X130260242Y-78117360D01*
X130299838Y-78117360D01*
X130338666Y-78125083D01*
G37*
G36*
X108008666Y-78125083D02*
G01*
X108008667Y-78125083D01*
X108008670Y-78125084D01*
X108045249Y-78140236D01*
X108078170Y-78162233D01*
X108106167Y-78190230D01*
X108128164Y-78223151D01*
X108143316Y-78259730D01*
X108151040Y-78298563D01*
X108151040Y-78338157D01*
X108143316Y-78376990D01*
X108128164Y-78413569D01*
X108106167Y-78446490D01*
X108078170Y-78474487D01*
X108045249Y-78496484D01*
X108008670Y-78511636D01*
X108008667Y-78511637D01*
X108008666Y-78511637D01*
X107969838Y-78519360D01*
X107930242Y-78519360D01*
X107891414Y-78511637D01*
X107891413Y-78511637D01*
X107891410Y-78511636D01*
X107854831Y-78496484D01*
X107821910Y-78474487D01*
X107793913Y-78446490D01*
X107771916Y-78413569D01*
X107756764Y-78376990D01*
X107749040Y-78338157D01*
X107749040Y-78298563D01*
X107756764Y-78259730D01*
X107771916Y-78223151D01*
X107793913Y-78190230D01*
X107821910Y-78162233D01*
X107854831Y-78140236D01*
X107891410Y-78125084D01*
X107891413Y-78125083D01*
X107891414Y-78125083D01*
X107930242Y-78117360D01*
X107969838Y-78117360D01*
X108008666Y-78125083D01*
G37*
G36*
X87202666Y-78125083D02*
G01*
X87202667Y-78125083D01*
X87202670Y-78125084D01*
X87239249Y-78140236D01*
X87272170Y-78162233D01*
X87300167Y-78190230D01*
X87322164Y-78223151D01*
X87337316Y-78259730D01*
X87345040Y-78298563D01*
X87345040Y-78338157D01*
X87337316Y-78376990D01*
X87322164Y-78413569D01*
X87300167Y-78446490D01*
X87272170Y-78474487D01*
X87239249Y-78496484D01*
X87202670Y-78511636D01*
X87202667Y-78511637D01*
X87202666Y-78511637D01*
X87163838Y-78519360D01*
X87124242Y-78519360D01*
X87085414Y-78511637D01*
X87085413Y-78511637D01*
X87085410Y-78511636D01*
X87048831Y-78496484D01*
X87015910Y-78474487D01*
X86987913Y-78446490D01*
X86965916Y-78413569D01*
X86950764Y-78376990D01*
X86943040Y-78338157D01*
X86943040Y-78298563D01*
X86950764Y-78259730D01*
X86965916Y-78223151D01*
X86987913Y-78190230D01*
X87015910Y-78162233D01*
X87048831Y-78140236D01*
X87085410Y-78125084D01*
X87085413Y-78125083D01*
X87085414Y-78125083D01*
X87124242Y-78117360D01*
X87163838Y-78117360D01*
X87202666Y-78125083D01*
G37*
G36*
X85678666Y-78125083D02*
G01*
X85678667Y-78125083D01*
X85678670Y-78125084D01*
X85715249Y-78140236D01*
X85748170Y-78162233D01*
X85776167Y-78190230D01*
X85798164Y-78223151D01*
X85813316Y-78259730D01*
X85821040Y-78298563D01*
X85821040Y-78338157D01*
X85813316Y-78376990D01*
X85798164Y-78413569D01*
X85776167Y-78446490D01*
X85748170Y-78474487D01*
X85715249Y-78496484D01*
X85678670Y-78511636D01*
X85678667Y-78511637D01*
X85678666Y-78511637D01*
X85639838Y-78519360D01*
X85600242Y-78519360D01*
X85561414Y-78511637D01*
X85561413Y-78511637D01*
X85561410Y-78511636D01*
X85524831Y-78496484D01*
X85491910Y-78474487D01*
X85463913Y-78446490D01*
X85441916Y-78413569D01*
X85426764Y-78376990D01*
X85419040Y-78338157D01*
X85419040Y-78298563D01*
X85426764Y-78259730D01*
X85441916Y-78223151D01*
X85463913Y-78190230D01*
X85491910Y-78162233D01*
X85524831Y-78140236D01*
X85561410Y-78125084D01*
X85561413Y-78125083D01*
X85561414Y-78125083D01*
X85600242Y-78117360D01*
X85639838Y-78117360D01*
X85678666Y-78125083D01*
G37*
G36*
X63348666Y-78125083D02*
G01*
X63348667Y-78125083D01*
X63348670Y-78125084D01*
X63385249Y-78140236D01*
X63418170Y-78162233D01*
X63446167Y-78190230D01*
X63468164Y-78223151D01*
X63483316Y-78259730D01*
X63491040Y-78298563D01*
X63491040Y-78338157D01*
X63483316Y-78376990D01*
X63468164Y-78413569D01*
X63446167Y-78446490D01*
X63418170Y-78474487D01*
X63385249Y-78496484D01*
X63348670Y-78511636D01*
X63348667Y-78511637D01*
X63348666Y-78511637D01*
X63309838Y-78519360D01*
X63270242Y-78519360D01*
X63231414Y-78511637D01*
X63231413Y-78511637D01*
X63231410Y-78511636D01*
X63194831Y-78496484D01*
X63161910Y-78474487D01*
X63133913Y-78446490D01*
X63111916Y-78413569D01*
X63096764Y-78376990D01*
X63089040Y-78338157D01*
X63089040Y-78298563D01*
X63096764Y-78259730D01*
X63111916Y-78223151D01*
X63133913Y-78190230D01*
X63161910Y-78162233D01*
X63194831Y-78140236D01*
X63231410Y-78125084D01*
X63231413Y-78125083D01*
X63231414Y-78125083D01*
X63270242Y-78117360D01*
X63309838Y-78117360D01*
X63348666Y-78125083D01*
G37*
G36*
X41018666Y-78125083D02*
G01*
X41018667Y-78125083D01*
X41018670Y-78125084D01*
X41055249Y-78140236D01*
X41088170Y-78162233D01*
X41116167Y-78190230D01*
X41138164Y-78223151D01*
X41153316Y-78259730D01*
X41161040Y-78298563D01*
X41161040Y-78338157D01*
X41153316Y-78376990D01*
X41138164Y-78413569D01*
X41116167Y-78446490D01*
X41088170Y-78474487D01*
X41055249Y-78496484D01*
X41018670Y-78511636D01*
X41018667Y-78511637D01*
X41018666Y-78511637D01*
X40979838Y-78519360D01*
X40940242Y-78519360D01*
X40901414Y-78511637D01*
X40901413Y-78511637D01*
X40901410Y-78511636D01*
X40864831Y-78496484D01*
X40831910Y-78474487D01*
X40803913Y-78446490D01*
X40781916Y-78413569D01*
X40766764Y-78376990D01*
X40759040Y-78338157D01*
X40759040Y-78298563D01*
X40766764Y-78259730D01*
X40781916Y-78223151D01*
X40803913Y-78190230D01*
X40831910Y-78162233D01*
X40864831Y-78140236D01*
X40901410Y-78125084D01*
X40901413Y-78125083D01*
X40901414Y-78125083D01*
X40940242Y-78117360D01*
X40979838Y-78117360D01*
X41018666Y-78125083D01*
G37*
G36*
X174998666Y-78125083D02*
G01*
X174998667Y-78125083D01*
X174998670Y-78125084D01*
X175035249Y-78140236D01*
X175068170Y-78162233D01*
X175096167Y-78190230D01*
X175118164Y-78223151D01*
X175133316Y-78259730D01*
X175141040Y-78298563D01*
X175141040Y-78338157D01*
X175133316Y-78376990D01*
X175118164Y-78413569D01*
X175096167Y-78446490D01*
X175068170Y-78474487D01*
X175035249Y-78496484D01*
X174998670Y-78511636D01*
X174998667Y-78511637D01*
X174998666Y-78511637D01*
X174959838Y-78519360D01*
X174920242Y-78519360D01*
X174881414Y-78511637D01*
X174881413Y-78511637D01*
X174881410Y-78511636D01*
X174844831Y-78496484D01*
X174811910Y-78474487D01*
X174783913Y-78446490D01*
X174761916Y-78413569D01*
X174746764Y-78376990D01*
X174739040Y-78338157D01*
X174739040Y-78298563D01*
X174746764Y-78259730D01*
X174761916Y-78223151D01*
X174783913Y-78190230D01*
X174811910Y-78162233D01*
X174844831Y-78140236D01*
X174881410Y-78125084D01*
X174881413Y-78125083D01*
X174881414Y-78125083D01*
X174920242Y-78117360D01*
X174959838Y-78117360D01*
X174998666Y-78125083D01*
G37*
G36*
X176522666Y-78125083D02*
G01*
X176522667Y-78125083D01*
X176522670Y-78125084D01*
X176559249Y-78140236D01*
X176592170Y-78162233D01*
X176620167Y-78190230D01*
X176642164Y-78223151D01*
X176657316Y-78259730D01*
X176665040Y-78298563D01*
X176665040Y-78338157D01*
X176657316Y-78376990D01*
X176642164Y-78413569D01*
X176620167Y-78446490D01*
X176592170Y-78474487D01*
X176559249Y-78496484D01*
X176522670Y-78511636D01*
X176522667Y-78511637D01*
X176522666Y-78511637D01*
X176483838Y-78519360D01*
X176444242Y-78519360D01*
X176405414Y-78511637D01*
X176405413Y-78511637D01*
X176405410Y-78511636D01*
X176368831Y-78496484D01*
X176335910Y-78474487D01*
X176307913Y-78446490D01*
X176285916Y-78413569D01*
X176270764Y-78376990D01*
X176263040Y-78338157D01*
X176263040Y-78298563D01*
X176270764Y-78259730D01*
X176285916Y-78223151D01*
X176307913Y-78190230D01*
X176335910Y-78162233D01*
X176368831Y-78140236D01*
X176405410Y-78125084D01*
X176405413Y-78125083D01*
X176405414Y-78125083D01*
X176444242Y-78117360D01*
X176483838Y-78117360D01*
X176522666Y-78125083D01*
G37*
G36*
X154192666Y-78125083D02*
G01*
X154192667Y-78125083D01*
X154192670Y-78125084D01*
X154229249Y-78140236D01*
X154262170Y-78162233D01*
X154290167Y-78190230D01*
X154312164Y-78223151D01*
X154327316Y-78259730D01*
X154335040Y-78298563D01*
X154335040Y-78338157D01*
X154327316Y-78376990D01*
X154312164Y-78413569D01*
X154290167Y-78446490D01*
X154262170Y-78474487D01*
X154229249Y-78496484D01*
X154192670Y-78511636D01*
X154192667Y-78511637D01*
X154192666Y-78511637D01*
X154153838Y-78519360D01*
X154114242Y-78519360D01*
X154075414Y-78511637D01*
X154075413Y-78511637D01*
X154075410Y-78511636D01*
X154038831Y-78496484D01*
X154005910Y-78474487D01*
X153977913Y-78446490D01*
X153955916Y-78413569D01*
X153940764Y-78376990D01*
X153933040Y-78338157D01*
X153933040Y-78298563D01*
X153940764Y-78259730D01*
X153955916Y-78223151D01*
X153977913Y-78190230D01*
X154005910Y-78162233D01*
X154038831Y-78140236D01*
X154075410Y-78125084D01*
X154075413Y-78125083D01*
X154075414Y-78125083D01*
X154114242Y-78117360D01*
X154153838Y-78117360D01*
X154192666Y-78125083D01*
G37*
G36*
X109532666Y-78125083D02*
G01*
X109532667Y-78125083D01*
X109532670Y-78125084D01*
X109569249Y-78140236D01*
X109602170Y-78162233D01*
X109630167Y-78190230D01*
X109652164Y-78223151D01*
X109667316Y-78259730D01*
X109675040Y-78298563D01*
X109675040Y-78338157D01*
X109667316Y-78376990D01*
X109652164Y-78413569D01*
X109630167Y-78446490D01*
X109602170Y-78474487D01*
X109569249Y-78496484D01*
X109532670Y-78511636D01*
X109532667Y-78511637D01*
X109532666Y-78511637D01*
X109493838Y-78519360D01*
X109454242Y-78519360D01*
X109415414Y-78511637D01*
X109415413Y-78511637D01*
X109415410Y-78511636D01*
X109378831Y-78496484D01*
X109345910Y-78474487D01*
X109317913Y-78446490D01*
X109295916Y-78413569D01*
X109280764Y-78376990D01*
X109273040Y-78338157D01*
X109273040Y-78298563D01*
X109280764Y-78259730D01*
X109295916Y-78223151D01*
X109317913Y-78190230D01*
X109345910Y-78162233D01*
X109378831Y-78140236D01*
X109415410Y-78125084D01*
X109415413Y-78125083D01*
X109415414Y-78125083D01*
X109454242Y-78117360D01*
X109493838Y-78117360D01*
X109532666Y-78125083D01*
G37*
G36*
X64872666Y-78125083D02*
G01*
X64872667Y-78125083D01*
X64872670Y-78125084D01*
X64909249Y-78140236D01*
X64942170Y-78162233D01*
X64970167Y-78190230D01*
X64992164Y-78223151D01*
X65007316Y-78259730D01*
X65015040Y-78298563D01*
X65015040Y-78338157D01*
X65007316Y-78376990D01*
X64992164Y-78413569D01*
X64970167Y-78446490D01*
X64942170Y-78474487D01*
X64909249Y-78496484D01*
X64872670Y-78511636D01*
X64872667Y-78511637D01*
X64872666Y-78511637D01*
X64833838Y-78519360D01*
X64794242Y-78519360D01*
X64755414Y-78511637D01*
X64755413Y-78511637D01*
X64755410Y-78511636D01*
X64718831Y-78496484D01*
X64685910Y-78474487D01*
X64657913Y-78446490D01*
X64635916Y-78413569D01*
X64620764Y-78376990D01*
X64613040Y-78338157D01*
X64613040Y-78298563D01*
X64620764Y-78259730D01*
X64635916Y-78223151D01*
X64657913Y-78190230D01*
X64685910Y-78162233D01*
X64718831Y-78140236D01*
X64755410Y-78125084D01*
X64755413Y-78125083D01*
X64755414Y-78125083D01*
X64794242Y-78117360D01*
X64833838Y-78117360D01*
X64872666Y-78125083D01*
G37*
G36*
X41018666Y-76855083D02*
G01*
X41018667Y-76855083D01*
X41018670Y-76855084D01*
X41055249Y-76870236D01*
X41088170Y-76892233D01*
X41116167Y-76920230D01*
X41138164Y-76953151D01*
X41153316Y-76989730D01*
X41161040Y-77028563D01*
X41161040Y-77068157D01*
X41153316Y-77106990D01*
X41138164Y-77143569D01*
X41116167Y-77176490D01*
X41088170Y-77204487D01*
X41055249Y-77226484D01*
X41018670Y-77241636D01*
X41018667Y-77241637D01*
X41018666Y-77241637D01*
X40979838Y-77249360D01*
X40940242Y-77249360D01*
X40901414Y-77241637D01*
X40901413Y-77241637D01*
X40901410Y-77241636D01*
X40864831Y-77226484D01*
X40831910Y-77204487D01*
X40803913Y-77176490D01*
X40781916Y-77143569D01*
X40766764Y-77106990D01*
X40759040Y-77068157D01*
X40759040Y-77028563D01*
X40766764Y-76989730D01*
X40781916Y-76953151D01*
X40803913Y-76920230D01*
X40831910Y-76892233D01*
X40864831Y-76870236D01*
X40901410Y-76855084D01*
X40901413Y-76855083D01*
X40901414Y-76855083D01*
X40940242Y-76847360D01*
X40979838Y-76847360D01*
X41018666Y-76855083D01*
G37*
G36*
X130338666Y-76855083D02*
G01*
X130338667Y-76855083D01*
X130338670Y-76855084D01*
X130375249Y-76870236D01*
X130408170Y-76892233D01*
X130436167Y-76920230D01*
X130458164Y-76953151D01*
X130473316Y-76989730D01*
X130481040Y-77028563D01*
X130481040Y-77068157D01*
X130473316Y-77106990D01*
X130458164Y-77143569D01*
X130436167Y-77176490D01*
X130408170Y-77204487D01*
X130375249Y-77226484D01*
X130338670Y-77241636D01*
X130338667Y-77241637D01*
X130338666Y-77241637D01*
X130299838Y-77249360D01*
X130260242Y-77249360D01*
X130221414Y-77241637D01*
X130221413Y-77241637D01*
X130221410Y-77241636D01*
X130184831Y-77226484D01*
X130151910Y-77204487D01*
X130123913Y-77176490D01*
X130101916Y-77143569D01*
X130086764Y-77106990D01*
X130079040Y-77068157D01*
X130079040Y-77028563D01*
X130086764Y-76989730D01*
X130101916Y-76953151D01*
X130123913Y-76920230D01*
X130151910Y-76892233D01*
X130184831Y-76870236D01*
X130221410Y-76855084D01*
X130221413Y-76855083D01*
X130221414Y-76855083D01*
X130260242Y-76847360D01*
X130299838Y-76847360D01*
X130338666Y-76855083D01*
G37*
G36*
X176522666Y-76855083D02*
G01*
X176522667Y-76855083D01*
X176522670Y-76855084D01*
X176559249Y-76870236D01*
X176592170Y-76892233D01*
X176620167Y-76920230D01*
X176642164Y-76953151D01*
X176657316Y-76989730D01*
X176665040Y-77028563D01*
X176665040Y-77068157D01*
X176657316Y-77106990D01*
X176642164Y-77143569D01*
X176620167Y-77176490D01*
X176592170Y-77204487D01*
X176559249Y-77226484D01*
X176522670Y-77241636D01*
X176522667Y-77241637D01*
X176522666Y-77241637D01*
X176483838Y-77249360D01*
X176444242Y-77249360D01*
X176405414Y-77241637D01*
X176405413Y-77241637D01*
X176405410Y-77241636D01*
X176368831Y-77226484D01*
X176335910Y-77204487D01*
X176307913Y-77176490D01*
X176285916Y-77143569D01*
X176270764Y-77106990D01*
X176263040Y-77068157D01*
X176263040Y-77028563D01*
X176270764Y-76989730D01*
X176285916Y-76953151D01*
X176307913Y-76920230D01*
X176335910Y-76892233D01*
X176368831Y-76870236D01*
X176405410Y-76855084D01*
X176405413Y-76855083D01*
X176405414Y-76855083D01*
X176444242Y-76847360D01*
X176483838Y-76847360D01*
X176522666Y-76855083D01*
G37*
G36*
X131862666Y-76855083D02*
G01*
X131862667Y-76855083D01*
X131862670Y-76855084D01*
X131899249Y-76870236D01*
X131932170Y-76892233D01*
X131960167Y-76920230D01*
X131982164Y-76953151D01*
X131997316Y-76989730D01*
X132005040Y-77028563D01*
X132005040Y-77068157D01*
X131997316Y-77106990D01*
X131982164Y-77143569D01*
X131960167Y-77176490D01*
X131932170Y-77204487D01*
X131899249Y-77226484D01*
X131862670Y-77241636D01*
X131862667Y-77241637D01*
X131862666Y-77241637D01*
X131823838Y-77249360D01*
X131784242Y-77249360D01*
X131745414Y-77241637D01*
X131745413Y-77241637D01*
X131745410Y-77241636D01*
X131708831Y-77226484D01*
X131675910Y-77204487D01*
X131647913Y-77176490D01*
X131625916Y-77143569D01*
X131610764Y-77106990D01*
X131603040Y-77068157D01*
X131603040Y-77028563D01*
X131610764Y-76989730D01*
X131625916Y-76953151D01*
X131647913Y-76920230D01*
X131675910Y-76892233D01*
X131708831Y-76870236D01*
X131745410Y-76855084D01*
X131745413Y-76855083D01*
X131745414Y-76855083D01*
X131784242Y-76847360D01*
X131823838Y-76847360D01*
X131862666Y-76855083D01*
G37*
G36*
X174998666Y-76855083D02*
G01*
X174998667Y-76855083D01*
X174998670Y-76855084D01*
X175035249Y-76870236D01*
X175068170Y-76892233D01*
X175096167Y-76920230D01*
X175118164Y-76953151D01*
X175133316Y-76989730D01*
X175141040Y-77028563D01*
X175141040Y-77068157D01*
X175133316Y-77106990D01*
X175118164Y-77143569D01*
X175096167Y-77176490D01*
X175068170Y-77204487D01*
X175035249Y-77226484D01*
X174998670Y-77241636D01*
X174998667Y-77241637D01*
X174998666Y-77241637D01*
X174959838Y-77249360D01*
X174920242Y-77249360D01*
X174881414Y-77241637D01*
X174881413Y-77241637D01*
X174881410Y-77241636D01*
X174844831Y-77226484D01*
X174811910Y-77204487D01*
X174783913Y-77176490D01*
X174761916Y-77143569D01*
X174746764Y-77106990D01*
X174739040Y-77068157D01*
X174739040Y-77028563D01*
X174746764Y-76989730D01*
X174761916Y-76953151D01*
X174783913Y-76920230D01*
X174811910Y-76892233D01*
X174844831Y-76870236D01*
X174881410Y-76855084D01*
X174881413Y-76855083D01*
X174881414Y-76855083D01*
X174920242Y-76847360D01*
X174959838Y-76847360D01*
X174998666Y-76855083D01*
G37*
G36*
X154192666Y-76855083D02*
G01*
X154192667Y-76855083D01*
X154192670Y-76855084D01*
X154229249Y-76870236D01*
X154262170Y-76892233D01*
X154290167Y-76920230D01*
X154312164Y-76953151D01*
X154327316Y-76989730D01*
X154335040Y-77028563D01*
X154335040Y-77068157D01*
X154327316Y-77106990D01*
X154312164Y-77143569D01*
X154290167Y-77176490D01*
X154262170Y-77204487D01*
X154229249Y-77226484D01*
X154192670Y-77241636D01*
X154192667Y-77241637D01*
X154192666Y-77241637D01*
X154153838Y-77249360D01*
X154114242Y-77249360D01*
X154075414Y-77241637D01*
X154075413Y-77241637D01*
X154075410Y-77241636D01*
X154038831Y-77226484D01*
X154005910Y-77204487D01*
X153977913Y-77176490D01*
X153955916Y-77143569D01*
X153940764Y-77106990D01*
X153933040Y-77068157D01*
X153933040Y-77028563D01*
X153940764Y-76989730D01*
X153955916Y-76953151D01*
X153977913Y-76920230D01*
X154005910Y-76892233D01*
X154038831Y-76870236D01*
X154075410Y-76855084D01*
X154075413Y-76855083D01*
X154075414Y-76855083D01*
X154114242Y-76847360D01*
X154153838Y-76847360D01*
X154192666Y-76855083D01*
G37*
G36*
X152668666Y-76855083D02*
G01*
X152668667Y-76855083D01*
X152668670Y-76855084D01*
X152705249Y-76870236D01*
X152738170Y-76892233D01*
X152766167Y-76920230D01*
X152788164Y-76953151D01*
X152803316Y-76989730D01*
X152811040Y-77028563D01*
X152811040Y-77068157D01*
X152803316Y-77106990D01*
X152788164Y-77143569D01*
X152766167Y-77176490D01*
X152738170Y-77204487D01*
X152705249Y-77226484D01*
X152668670Y-77241636D01*
X152668667Y-77241637D01*
X152668666Y-77241637D01*
X152629838Y-77249360D01*
X152590242Y-77249360D01*
X152551414Y-77241637D01*
X152551413Y-77241637D01*
X152551410Y-77241636D01*
X152514831Y-77226484D01*
X152481910Y-77204487D01*
X152453913Y-77176490D01*
X152431916Y-77143569D01*
X152416764Y-77106990D01*
X152409040Y-77068157D01*
X152409040Y-77028563D01*
X152416764Y-76989730D01*
X152431916Y-76953151D01*
X152453913Y-76920230D01*
X152481910Y-76892233D01*
X152514831Y-76870236D01*
X152551410Y-76855084D01*
X152551413Y-76855083D01*
X152551414Y-76855083D01*
X152590242Y-76847360D01*
X152629838Y-76847360D01*
X152668666Y-76855083D01*
G37*
G36*
X108008666Y-76855083D02*
G01*
X108008667Y-76855083D01*
X108008670Y-76855084D01*
X108045249Y-76870236D01*
X108078170Y-76892233D01*
X108106167Y-76920230D01*
X108128164Y-76953151D01*
X108143316Y-76989730D01*
X108151040Y-77028563D01*
X108151040Y-77068157D01*
X108143316Y-77106990D01*
X108128164Y-77143569D01*
X108106167Y-77176490D01*
X108078170Y-77204487D01*
X108045249Y-77226484D01*
X108008670Y-77241636D01*
X108008667Y-77241637D01*
X108008666Y-77241637D01*
X107969838Y-77249360D01*
X107930242Y-77249360D01*
X107891414Y-77241637D01*
X107891413Y-77241637D01*
X107891410Y-77241636D01*
X107854831Y-77226484D01*
X107821910Y-77204487D01*
X107793913Y-77176490D01*
X107771916Y-77143569D01*
X107756764Y-77106990D01*
X107749040Y-77068157D01*
X107749040Y-77028563D01*
X107756764Y-76989730D01*
X107771916Y-76953151D01*
X107793913Y-76920230D01*
X107821910Y-76892233D01*
X107854831Y-76870236D01*
X107891410Y-76855084D01*
X107891413Y-76855083D01*
X107891414Y-76855083D01*
X107930242Y-76847360D01*
X107969838Y-76847360D01*
X108008666Y-76855083D01*
G37*
G36*
X87202666Y-76855083D02*
G01*
X87202667Y-76855083D01*
X87202670Y-76855084D01*
X87239249Y-76870236D01*
X87272170Y-76892233D01*
X87300167Y-76920230D01*
X87322164Y-76953151D01*
X87337316Y-76989730D01*
X87345040Y-77028563D01*
X87345040Y-77068157D01*
X87337316Y-77106990D01*
X87322164Y-77143569D01*
X87300167Y-77176490D01*
X87272170Y-77204487D01*
X87239249Y-77226484D01*
X87202670Y-77241636D01*
X87202667Y-77241637D01*
X87202666Y-77241637D01*
X87163838Y-77249360D01*
X87124242Y-77249360D01*
X87085414Y-77241637D01*
X87085413Y-77241637D01*
X87085410Y-77241636D01*
X87048831Y-77226484D01*
X87015910Y-77204487D01*
X86987913Y-77176490D01*
X86965916Y-77143569D01*
X86950764Y-77106990D01*
X86943040Y-77068157D01*
X86943040Y-77028563D01*
X86950764Y-76989730D01*
X86965916Y-76953151D01*
X86987913Y-76920230D01*
X87015910Y-76892233D01*
X87048831Y-76870236D01*
X87085410Y-76855084D01*
X87085413Y-76855083D01*
X87085414Y-76855083D01*
X87124242Y-76847360D01*
X87163838Y-76847360D01*
X87202666Y-76855083D01*
G37*
G36*
X109532666Y-76855083D02*
G01*
X109532667Y-76855083D01*
X109532670Y-76855084D01*
X109569249Y-76870236D01*
X109602170Y-76892233D01*
X109630167Y-76920230D01*
X109652164Y-76953151D01*
X109667316Y-76989730D01*
X109675040Y-77028563D01*
X109675040Y-77068157D01*
X109667316Y-77106990D01*
X109652164Y-77143569D01*
X109630167Y-77176490D01*
X109602170Y-77204487D01*
X109569249Y-77226484D01*
X109532670Y-77241636D01*
X109532667Y-77241637D01*
X109532666Y-77241637D01*
X109493838Y-77249360D01*
X109454242Y-77249360D01*
X109415414Y-77241637D01*
X109415413Y-77241637D01*
X109415410Y-77241636D01*
X109378831Y-77226484D01*
X109345910Y-77204487D01*
X109317913Y-77176490D01*
X109295916Y-77143569D01*
X109280764Y-77106990D01*
X109273040Y-77068157D01*
X109273040Y-77028563D01*
X109280764Y-76989730D01*
X109295916Y-76953151D01*
X109317913Y-76920230D01*
X109345910Y-76892233D01*
X109378831Y-76870236D01*
X109415410Y-76855084D01*
X109415413Y-76855083D01*
X109415414Y-76855083D01*
X109454242Y-76847360D01*
X109493838Y-76847360D01*
X109532666Y-76855083D01*
G37*
G36*
X85678666Y-76855083D02*
G01*
X85678667Y-76855083D01*
X85678670Y-76855084D01*
X85715249Y-76870236D01*
X85748170Y-76892233D01*
X85776167Y-76920230D01*
X85798164Y-76953151D01*
X85813316Y-76989730D01*
X85821040Y-77028563D01*
X85821040Y-77068157D01*
X85813316Y-77106990D01*
X85798164Y-77143569D01*
X85776167Y-77176490D01*
X85748170Y-77204487D01*
X85715249Y-77226484D01*
X85678670Y-77241636D01*
X85678667Y-77241637D01*
X85678666Y-77241637D01*
X85639838Y-77249360D01*
X85600242Y-77249360D01*
X85561414Y-77241637D01*
X85561413Y-77241637D01*
X85561410Y-77241636D01*
X85524831Y-77226484D01*
X85491910Y-77204487D01*
X85463913Y-77176490D01*
X85441916Y-77143569D01*
X85426764Y-77106990D01*
X85419040Y-77068157D01*
X85419040Y-77028563D01*
X85426764Y-76989730D01*
X85441916Y-76953151D01*
X85463913Y-76920230D01*
X85491910Y-76892233D01*
X85524831Y-76870236D01*
X85561410Y-76855084D01*
X85561413Y-76855083D01*
X85561414Y-76855083D01*
X85600242Y-76847360D01*
X85639838Y-76847360D01*
X85678666Y-76855083D01*
G37*
G36*
X64872666Y-76855083D02*
G01*
X64872667Y-76855083D01*
X64872670Y-76855084D01*
X64909249Y-76870236D01*
X64942170Y-76892233D01*
X64970167Y-76920230D01*
X64992164Y-76953151D01*
X65007316Y-76989730D01*
X65015040Y-77028563D01*
X65015040Y-77068157D01*
X65007316Y-77106990D01*
X64992164Y-77143569D01*
X64970167Y-77176490D01*
X64942170Y-77204487D01*
X64909249Y-77226484D01*
X64872670Y-77241636D01*
X64872667Y-77241637D01*
X64872666Y-77241637D01*
X64833838Y-77249360D01*
X64794242Y-77249360D01*
X64755414Y-77241637D01*
X64755413Y-77241637D01*
X64755410Y-77241636D01*
X64718831Y-77226484D01*
X64685910Y-77204487D01*
X64657913Y-77176490D01*
X64635916Y-77143569D01*
X64620764Y-77106990D01*
X64613040Y-77068157D01*
X64613040Y-77028563D01*
X64620764Y-76989730D01*
X64635916Y-76953151D01*
X64657913Y-76920230D01*
X64685910Y-76892233D01*
X64718831Y-76870236D01*
X64755410Y-76855084D01*
X64755413Y-76855083D01*
X64755414Y-76855083D01*
X64794242Y-76847360D01*
X64833838Y-76847360D01*
X64872666Y-76855083D01*
G37*
G36*
X63348666Y-76855083D02*
G01*
X63348667Y-76855083D01*
X63348670Y-76855084D01*
X63385249Y-76870236D01*
X63418170Y-76892233D01*
X63446167Y-76920230D01*
X63468164Y-76953151D01*
X63483316Y-76989730D01*
X63491040Y-77028563D01*
X63491040Y-77068157D01*
X63483316Y-77106990D01*
X63468164Y-77143569D01*
X63446167Y-77176490D01*
X63418170Y-77204487D01*
X63385249Y-77226484D01*
X63348670Y-77241636D01*
X63348667Y-77241637D01*
X63348666Y-77241637D01*
X63309838Y-77249360D01*
X63270242Y-77249360D01*
X63231414Y-77241637D01*
X63231413Y-77241637D01*
X63231410Y-77241636D01*
X63194831Y-77226484D01*
X63161910Y-77204487D01*
X63133913Y-77176490D01*
X63111916Y-77143569D01*
X63096764Y-77106990D01*
X63089040Y-77068157D01*
X63089040Y-77028563D01*
X63096764Y-76989730D01*
X63111916Y-76953151D01*
X63133913Y-76920230D01*
X63161910Y-76892233D01*
X63194831Y-76870236D01*
X63231410Y-76855084D01*
X63231413Y-76855083D01*
X63231414Y-76855083D01*
X63270242Y-76847360D01*
X63309838Y-76847360D01*
X63348666Y-76855083D01*
G37*
G36*
X42542666Y-76855083D02*
G01*
X42542667Y-76855083D01*
X42542670Y-76855084D01*
X42579249Y-76870236D01*
X42612170Y-76892233D01*
X42640167Y-76920230D01*
X42662164Y-76953151D01*
X42677316Y-76989730D01*
X42685040Y-77028563D01*
X42685040Y-77068157D01*
X42677316Y-77106990D01*
X42662164Y-77143569D01*
X42640167Y-77176490D01*
X42612170Y-77204487D01*
X42579249Y-77226484D01*
X42542670Y-77241636D01*
X42542667Y-77241637D01*
X42542666Y-77241637D01*
X42503838Y-77249360D01*
X42464242Y-77249360D01*
X42425414Y-77241637D01*
X42425413Y-77241637D01*
X42425410Y-77241636D01*
X42388831Y-77226484D01*
X42355910Y-77204487D01*
X42327913Y-77176490D01*
X42305916Y-77143569D01*
X42290764Y-77106990D01*
X42283040Y-77068157D01*
X42283040Y-77028563D01*
X42290764Y-76989730D01*
X42305916Y-76953151D01*
X42327913Y-76920230D01*
X42355910Y-76892233D01*
X42388831Y-76870236D01*
X42425410Y-76855084D01*
X42425413Y-76855083D01*
X42425414Y-76855083D01*
X42464242Y-76847360D01*
X42503838Y-76847360D01*
X42542666Y-76855083D01*
G37*
M02*
