M48
; DRILL file {KiCad 5.1.5-52549c5~86~ubuntu19.10.1} date Thu 09 Apr 2020 14:04:25 CEST
; FORMAT={-:-/ absolute / inch / decimal}
; #@! TF.CreationDate,2020-04-09T14:04:25+02:00
; #@! TF.GenerationSoftware,Kicad,Pcbnew,5.1.5-52549c5~86~ubuntu19.10.1
; #@! TF.FileFunction,Plated,1,2,PTH
FMAT,2
INCH
T1C0.0157
T2C0.0394
T3C0.0512
T4C0.0598
%
G90
G05
T1
X1.2656Y-3.9169
X1.2806Y-3.8294
X2.1447Y-3.9169
X2.1597Y-3.8294
X3.0239Y-3.9169
X3.0389Y-3.8294
X3.903Y-3.9169
X3.918Y-3.8294
X4.7821Y-3.9169
X4.7971Y-3.8294
X5.6613Y-3.9169
X5.6763Y-3.8294
X6.5404Y-3.9169
X6.5554Y-3.8294
X7.4195Y-3.9169
X7.4345Y-3.8294
T2
X5.5238Y-4.0994
X5.6238Y-4.0994
X5.7238Y-4.0994
X1.461Y-3.4162
X1.461Y-3.8887
X4.6446Y-4.0994
X4.7446Y-4.0994
X4.8446Y-4.0994
X7.6149Y-3.4162
X7.6149Y-3.8887
X5.8566Y-3.4162
X5.8566Y-3.8887
X7.282Y-4.0994
X7.382Y-4.0994
X7.482Y-4.0994
X6.4029Y-4.0994
X6.5029Y-4.0994
X6.6029Y-4.0994
X3.7655Y-4.0994
X3.8655Y-4.0994
X3.9655Y-4.0994
X2.8864Y-4.0994
X2.9864Y-4.0994
X3.0864Y-4.0994
X2.3401Y-3.4162
X2.3401Y-3.8887
X2.0072Y-4.0994
X2.1072Y-4.0994
X2.2072Y-4.0994
X4.9775Y-3.4162
X4.9775Y-3.8887
X6.7358Y-3.4162
X6.7358Y-3.8887
X1.1281Y-4.0994
X1.2281Y-4.0994
X1.3281Y-4.0994
X3.2192Y-3.4162
X3.2192Y-3.8887
X4.0984Y-3.4162
X4.0984Y-3.8887
T3
X7.1326Y-3.8906
X7.1346Y-3.4162
X7.6917Y-3.6544
X5.3744Y-3.8906
X5.3763Y-3.4162
X5.9334Y-3.6544
X1.8578Y-3.8906
X1.8598Y-3.4162
X2.4169Y-3.6544
X4.4952Y-3.8906
X4.4972Y-3.4162
X5.0543Y-3.6544
X6.2535Y-3.8906
X6.2555Y-3.4162
X6.8125Y-3.6544
X2.737Y-3.8906
X2.7389Y-3.4162
X3.296Y-3.6544
X3.6161Y-3.8906
X3.6181Y-3.4162
X4.1751Y-3.6544
X0.9787Y-3.8906
X0.9807Y-3.4162
X1.5377Y-3.6544
T4
X4.4296Y-3.1644
X4.6296Y-3.1644
X4.8296Y-3.1644
X5.3088Y-3.1644
X5.5088Y-3.1644
X5.7088Y-3.1644
X6.1879Y-3.1644
X6.3879Y-3.1644
X6.5879Y-3.1644
X0.9131Y-3.1644
X1.1131Y-3.1644
X1.3131Y-3.1644
X3.5505Y-3.1644
X3.7505Y-3.1644
X3.9505Y-3.1644
X2.6714Y-3.1644
X2.8714Y-3.1644
X3.0714Y-3.1644
X1.7922Y-3.1644
X1.9922Y-3.1644
X2.1922Y-3.1644
X7.067Y-3.1644
X7.267Y-3.1644
X7.467Y-3.1644
T0
M30
