G04 #@! TF.GenerationSoftware,KiCad,Pcbnew,5.1.5-52549c5~86~ubuntu19.10.1*
G04 #@! TF.CreationDate,2020-04-08T23:51:40+02:00*
G04 #@! TF.ProjectId,multi_CH,6d756c74-695f-4434-982e-6b696361645f,rev?*
G04 #@! TF.SameCoordinates,Original*
G04 #@! TF.FileFunction,Paste,Top*
G04 #@! TF.FilePolarity,Positive*
%FSLAX46Y46*%
G04 Gerber Fmt 4.6, Leading zero omitted, Abs format (unit mm)*
G04 Created by KiCad (PCBNEW 5.1.5-52549c5~86~ubuntu19.10.1) date 2020-04-08 23:51:40*
%MOMM*%
%LPD*%
G04 APERTURE LIST*
%ADD10R,0.800000X0.900000*%
%ADD11R,1.300000X1.700000*%
G04 APERTURE END LIST*
D10*
X234027500Y-91202000D03*
X234977500Y-93202000D03*
X233077500Y-93202000D03*
X211707500Y-91202000D03*
X212657500Y-93202000D03*
X210757500Y-93202000D03*
X189387500Y-91202000D03*
X190337500Y-93202000D03*
X188437500Y-93202000D03*
X167067500Y-91202000D03*
X168017500Y-93202000D03*
X166117500Y-93202000D03*
X144747500Y-91202000D03*
X145697500Y-93202000D03*
X143797500Y-93202000D03*
X122427500Y-91202000D03*
X123377500Y-93202000D03*
X121477500Y-93202000D03*
X100107500Y-91202000D03*
X101057500Y-93202000D03*
X99157500Y-93202000D03*
D11*
X231332500Y-91694000D03*
X227832500Y-91694000D03*
X209012500Y-91694000D03*
X205512500Y-91694000D03*
X186692500Y-91694000D03*
X183192500Y-91694000D03*
X164372500Y-91694000D03*
X160872500Y-91694000D03*
X142052500Y-91694000D03*
X138552500Y-91694000D03*
X119732500Y-91694000D03*
X116232500Y-91694000D03*
X97412500Y-91694000D03*
X93912500Y-91694000D03*
X71592500Y-91694000D03*
X75092500Y-91694000D03*
D10*
X76837500Y-93202000D03*
X78737500Y-93202000D03*
X77787500Y-91202000D03*
M02*
