G04 #@! TF.GenerationSoftware,KiCad,Pcbnew,5.1.5-52549c5~86~ubuntu19.10.1*
G04 #@! TF.CreationDate,2020-04-08T23:51:40+02:00*
G04 #@! TF.ProjectId,multi_CH,6d756c74-695f-4434-982e-6b696361645f,rev?*
G04 #@! TF.SameCoordinates,Original*
G04 #@! TF.FileFunction,Copper,L2,Bot*
G04 #@! TF.FilePolarity,Positive*
%FSLAX46Y46*%
G04 Gerber Fmt 4.6, Leading zero omitted, Abs format (unit mm)*
G04 Created by KiCad (PCBNEW 5.1.5-52549c5~86~ubuntu19.10.1) date 2020-04-08 23:51:40*
%MOMM*%
%LPD*%
G04 APERTURE LIST*
%ADD10C,2.500000*%
%ADD11C,3.000000*%
%ADD12R,1.700000X1.700000*%
%ADD13O,1.700000X1.700000*%
%ADD14R,3.000000X3.000000*%
%ADD15C,4.000000*%
%ADD16C,0.254000*%
G04 APERTURE END LIST*
D10*
X237021500Y-76373000D03*
D11*
X224821500Y-76373000D03*
X224771500Y-88423000D03*
D10*
X237021500Y-88373000D03*
D11*
X238971500Y-82423000D03*
D10*
X214701500Y-76373000D03*
D11*
X202501500Y-76373000D03*
X202451500Y-88423000D03*
D10*
X214701500Y-88373000D03*
D11*
X216651500Y-82423000D03*
D10*
X192381500Y-76373000D03*
D11*
X180181500Y-76373000D03*
X180131500Y-88423000D03*
D10*
X192381500Y-88373000D03*
D11*
X194331500Y-82423000D03*
D10*
X170061500Y-76373000D03*
D11*
X157861500Y-76373000D03*
X157811500Y-88423000D03*
D10*
X170061500Y-88373000D03*
D11*
X172011500Y-82423000D03*
D10*
X147741500Y-76373000D03*
D11*
X135541500Y-76373000D03*
X135491500Y-88423000D03*
D10*
X147741500Y-88373000D03*
D11*
X149691500Y-82423000D03*
D10*
X125421500Y-76373000D03*
D11*
X113221500Y-76373000D03*
X113171500Y-88423000D03*
D10*
X125421500Y-88373000D03*
D11*
X127371500Y-82423000D03*
D10*
X103101500Y-76373000D03*
D11*
X90901500Y-76373000D03*
X90851500Y-88423000D03*
D10*
X103101500Y-88373000D03*
D11*
X105051500Y-82423000D03*
D12*
X233646500Y-96012000D03*
D13*
X231106500Y-96012000D03*
X228566500Y-96012000D03*
D12*
X211326500Y-96012000D03*
D13*
X208786500Y-96012000D03*
X206246500Y-96012000D03*
D12*
X189006500Y-96012000D03*
D13*
X186466500Y-96012000D03*
X183926500Y-96012000D03*
D12*
X166686500Y-96012000D03*
D13*
X164146500Y-96012000D03*
X161606500Y-96012000D03*
D12*
X144366500Y-96012000D03*
D13*
X141826500Y-96012000D03*
X139286500Y-96012000D03*
D12*
X122046500Y-96012000D03*
D13*
X119506500Y-96012000D03*
X116966500Y-96012000D03*
D12*
X99726500Y-96012000D03*
D13*
X97186500Y-96012000D03*
X94646500Y-96012000D03*
D11*
X223105500Y-69977000D03*
X228185500Y-69977000D03*
D14*
X233265500Y-69977000D03*
D11*
X200785500Y-69977000D03*
X205865500Y-69977000D03*
D14*
X210945500Y-69977000D03*
D11*
X178465500Y-69977000D03*
X183545500Y-69977000D03*
D14*
X188625500Y-69977000D03*
D11*
X156145500Y-69977000D03*
X161225500Y-69977000D03*
D14*
X166305500Y-69977000D03*
D11*
X133825500Y-69977000D03*
X138905500Y-69977000D03*
D14*
X143985500Y-69977000D03*
D11*
X111505500Y-69977000D03*
X116585500Y-69977000D03*
D14*
X121665500Y-69977000D03*
D11*
X89185500Y-69977000D03*
X94265500Y-69977000D03*
D14*
X99345500Y-69977000D03*
D11*
X82731500Y-82423000D03*
D10*
X80781500Y-88373000D03*
D11*
X68531500Y-88423000D03*
X68581500Y-76373000D03*
D10*
X80781500Y-76373000D03*
D13*
X72326500Y-96012000D03*
X74866500Y-96012000D03*
D12*
X77406500Y-96012000D03*
D14*
X77025500Y-69977000D03*
D11*
X71945500Y-69977000D03*
X66865500Y-69977000D03*
D15*
X77025500Y-69977000D02*
X77025500Y-72263000D01*
X77025500Y-72263000D02*
X75120500Y-74168000D01*
X75120500Y-74168000D02*
X75120500Y-80010000D01*
X77533500Y-82423000D02*
X82166490Y-82423000D01*
X75120500Y-80010000D02*
X77533500Y-82423000D01*
X99853500Y-82423000D02*
X104486490Y-82423000D01*
X122173500Y-82423000D02*
X126806490Y-82423000D01*
X144493500Y-82423000D02*
X149126490Y-82423000D01*
X166813500Y-82423000D02*
X171446490Y-82423000D01*
X189133500Y-82423000D02*
X193766490Y-82423000D01*
X211453500Y-82423000D02*
X216086490Y-82423000D01*
X233773500Y-82423000D02*
X238406490Y-82423000D01*
X99345500Y-72263000D02*
X97440500Y-74168000D01*
X121665500Y-72263000D02*
X119760500Y-74168000D01*
X143985500Y-72263000D02*
X142080500Y-74168000D01*
X166305500Y-72263000D02*
X164400500Y-74168000D01*
X188625500Y-72263000D02*
X186720500Y-74168000D01*
X210945500Y-72263000D02*
X209040500Y-74168000D01*
X233265500Y-72263000D02*
X231360500Y-74168000D01*
X97440500Y-80010000D02*
X99853500Y-82423000D01*
X119760500Y-80010000D02*
X122173500Y-82423000D01*
X142080500Y-80010000D02*
X144493500Y-82423000D01*
X164400500Y-80010000D02*
X166813500Y-82423000D01*
X186720500Y-80010000D02*
X189133500Y-82423000D01*
X209040500Y-80010000D02*
X211453500Y-82423000D01*
X231360500Y-80010000D02*
X233773500Y-82423000D01*
X97440500Y-74168000D02*
X97440500Y-80010000D01*
X119760500Y-74168000D02*
X119760500Y-80010000D01*
X142080500Y-74168000D02*
X142080500Y-80010000D01*
X164400500Y-74168000D02*
X164400500Y-80010000D01*
X186720500Y-74168000D02*
X186720500Y-80010000D01*
X209040500Y-74168000D02*
X209040500Y-80010000D01*
X231360500Y-74168000D02*
X231360500Y-80010000D01*
X99345500Y-69977000D02*
X99345500Y-72263000D01*
X121665500Y-69977000D02*
X121665500Y-72263000D01*
X143985500Y-69977000D02*
X143985500Y-72263000D01*
X166305500Y-69977000D02*
X166305500Y-72263000D01*
X188625500Y-69977000D02*
X188625500Y-72263000D01*
X210945500Y-69977000D02*
X210945500Y-72263000D01*
X233265500Y-69977000D02*
X233265500Y-72263000D01*
X66865500Y-74657000D02*
X68581500Y-76373000D01*
X66865500Y-69977000D02*
X66865500Y-74657000D01*
X89185500Y-74657000D02*
X90901500Y-76373000D01*
X111505500Y-74657000D02*
X113221500Y-76373000D01*
X133825500Y-74657000D02*
X135541500Y-76373000D01*
X156145500Y-74657000D02*
X157861500Y-76373000D01*
X178465500Y-74657000D02*
X180181500Y-76373000D01*
X200785500Y-74657000D02*
X202501500Y-76373000D01*
X223105500Y-74657000D02*
X224821500Y-76373000D01*
X89185500Y-69977000D02*
X89185500Y-74657000D01*
X111505500Y-69977000D02*
X111505500Y-74657000D01*
X133825500Y-69977000D02*
X133825500Y-74657000D01*
X156145500Y-69977000D02*
X156145500Y-74657000D01*
X178465500Y-69977000D02*
X178465500Y-74657000D01*
X200785500Y-69977000D02*
X200785500Y-74657000D01*
X223105500Y-69977000D02*
X223105500Y-74657000D01*
D16*
G36*
X71326231Y-94914412D02*
G01*
X71131322Y-95130645D01*
X70982343Y-95380748D01*
X70885019Y-95655109D01*
X71005686Y-95885000D01*
X72199500Y-95885000D01*
X72199500Y-95865000D01*
X72453500Y-95865000D01*
X72453500Y-95885000D01*
X72473500Y-95885000D01*
X72473500Y-96139000D01*
X72453500Y-96139000D01*
X72453500Y-97332155D01*
X72683390Y-97453476D01*
X72830599Y-97408825D01*
X73093420Y-97283641D01*
X73326769Y-97109588D01*
X73521678Y-96893355D01*
X73670657Y-96643252D01*
X73755236Y-96404821D01*
X73823456Y-96569519D01*
X73952264Y-96762294D01*
X74116206Y-96926236D01*
X74308981Y-97055044D01*
X74523182Y-97143769D01*
X74750576Y-97189000D01*
X74982424Y-97189000D01*
X75209818Y-97143769D01*
X75424019Y-97055044D01*
X75616794Y-96926236D01*
X75780736Y-96762294D01*
X75909544Y-96569519D01*
X75998269Y-96355318D01*
X76043500Y-96127924D01*
X76043500Y-95896076D01*
X75998269Y-95668682D01*
X75909544Y-95454481D01*
X75780736Y-95261706D01*
X75681030Y-95162000D01*
X76227918Y-95162000D01*
X76227918Y-96862000D01*
X76234232Y-96926103D01*
X76252930Y-96987743D01*
X76283294Y-97044550D01*
X76324157Y-97094343D01*
X76373950Y-97135206D01*
X76430757Y-97165570D01*
X76492397Y-97184268D01*
X76556500Y-97190582D01*
X78256500Y-97190582D01*
X78320603Y-97184268D01*
X78382243Y-97165570D01*
X78439050Y-97135206D01*
X78488843Y-97094343D01*
X78529706Y-97044550D01*
X78560070Y-96987743D01*
X78578768Y-96926103D01*
X78585082Y-96862000D01*
X78585082Y-95162000D01*
X78578768Y-95097897D01*
X78560070Y-95036257D01*
X78529706Y-94979450D01*
X78488843Y-94929657D01*
X78439050Y-94888794D01*
X78382243Y-94858430D01*
X78320603Y-94839732D01*
X78256500Y-94833418D01*
X76556500Y-94833418D01*
X76492397Y-94839732D01*
X76430757Y-94858430D01*
X76373950Y-94888794D01*
X76324157Y-94929657D01*
X76283294Y-94979450D01*
X76252930Y-95036257D01*
X76234232Y-95097897D01*
X76227918Y-95162000D01*
X75681030Y-95162000D01*
X75616794Y-95097764D01*
X75424019Y-94968956D01*
X75209818Y-94880231D01*
X74982424Y-94835000D01*
X74750576Y-94835000D01*
X74523182Y-94880231D01*
X74308981Y-94968956D01*
X74116206Y-95097764D01*
X73952264Y-95261706D01*
X73823456Y-95454481D01*
X73755236Y-95619179D01*
X73670657Y-95380748D01*
X73521678Y-95130645D01*
X73326769Y-94914412D01*
X73180753Y-94805500D01*
X84123527Y-94805500D01*
X84136091Y-94917512D01*
X84141346Y-94942233D01*
X84146260Y-94967053D01*
X84147412Y-94970774D01*
X84206425Y-95156804D01*
X84216389Y-95180052D01*
X84226023Y-95203425D01*
X84227876Y-95206852D01*
X84321898Y-95377877D01*
X84336184Y-95398742D01*
X84350177Y-95419803D01*
X84352660Y-95422804D01*
X84478110Y-95572310D01*
X84496147Y-95589973D01*
X84513996Y-95607947D01*
X84517015Y-95610409D01*
X84669115Y-95732699D01*
X84690208Y-95746501D01*
X84711237Y-95760686D01*
X84714677Y-95762514D01*
X84887632Y-95852934D01*
X84911069Y-95862403D01*
X84934392Y-95872207D01*
X84938121Y-95873333D01*
X85125346Y-95928436D01*
X85150171Y-95933171D01*
X85174955Y-95938259D01*
X85178832Y-95938639D01*
X85373193Y-95956328D01*
X85398481Y-95956151D01*
X85423769Y-95956328D01*
X85427645Y-95955948D01*
X85621742Y-95935547D01*
X85646520Y-95930460D01*
X85671351Y-95925724D01*
X85675080Y-95924598D01*
X85861518Y-95866886D01*
X85884829Y-95857087D01*
X85908276Y-95847614D01*
X85911715Y-95845785D01*
X86083391Y-95752960D01*
X86104323Y-95738841D01*
X86125516Y-95724973D01*
X86128535Y-95722511D01*
X86278912Y-95598107D01*
X86296689Y-95580205D01*
X86314798Y-95562472D01*
X86317280Y-95559470D01*
X86440631Y-95408228D01*
X86454624Y-95387167D01*
X86468911Y-95366301D01*
X86470764Y-95362874D01*
X86487000Y-95332338D01*
X86487000Y-97137731D01*
X86461102Y-97090623D01*
X86446826Y-97069774D01*
X86432823Y-97048697D01*
X86430340Y-97045696D01*
X86304890Y-96896190D01*
X86286817Y-96878492D01*
X86269003Y-96860553D01*
X86265985Y-96858091D01*
X86113885Y-96735800D01*
X86092732Y-96721959D01*
X86071762Y-96707814D01*
X86068323Y-96705985D01*
X85895367Y-96615566D01*
X85871928Y-96606096D01*
X85848608Y-96596293D01*
X85844879Y-96595167D01*
X85657653Y-96540064D01*
X85632836Y-96535330D01*
X85608045Y-96530241D01*
X85604168Y-96529861D01*
X85409806Y-96512172D01*
X85384519Y-96512349D01*
X85359231Y-96512172D01*
X85355355Y-96512552D01*
X85161258Y-96532953D01*
X85136487Y-96538038D01*
X85111648Y-96542776D01*
X85107920Y-96543902D01*
X84921482Y-96601614D01*
X84898171Y-96611413D01*
X84874724Y-96620886D01*
X84871285Y-96622715D01*
X84699608Y-96715540D01*
X84678692Y-96729649D01*
X84657483Y-96743527D01*
X84654465Y-96745989D01*
X84504087Y-96870393D01*
X84486291Y-96888314D01*
X84468202Y-96906028D01*
X84465720Y-96909030D01*
X84342370Y-97060272D01*
X84328379Y-97081330D01*
X84314089Y-97102199D01*
X84312237Y-97105625D01*
X84220611Y-97277948D01*
X84210959Y-97301365D01*
X84201014Y-97324569D01*
X84199862Y-97328290D01*
X84144699Y-97511000D01*
X64350500Y-97511000D01*
X64350500Y-96368891D01*
X70885019Y-96368891D01*
X70982343Y-96643252D01*
X71131322Y-96893355D01*
X71326231Y-97109588D01*
X71559580Y-97283641D01*
X71822401Y-97408825D01*
X71969610Y-97453476D01*
X72199500Y-97332155D01*
X72199500Y-96139000D01*
X71005686Y-96139000D01*
X70885019Y-96368891D01*
X64350500Y-96368891D01*
X64350500Y-94805500D01*
X71472247Y-94805500D01*
X71326231Y-94914412D01*
G37*
X71326231Y-94914412D02*
X71131322Y-95130645D01*
X70982343Y-95380748D01*
X70885019Y-95655109D01*
X71005686Y-95885000D01*
X72199500Y-95885000D01*
X72199500Y-95865000D01*
X72453500Y-95865000D01*
X72453500Y-95885000D01*
X72473500Y-95885000D01*
X72473500Y-96139000D01*
X72453500Y-96139000D01*
X72453500Y-97332155D01*
X72683390Y-97453476D01*
X72830599Y-97408825D01*
X73093420Y-97283641D01*
X73326769Y-97109588D01*
X73521678Y-96893355D01*
X73670657Y-96643252D01*
X73755236Y-96404821D01*
X73823456Y-96569519D01*
X73952264Y-96762294D01*
X74116206Y-96926236D01*
X74308981Y-97055044D01*
X74523182Y-97143769D01*
X74750576Y-97189000D01*
X74982424Y-97189000D01*
X75209818Y-97143769D01*
X75424019Y-97055044D01*
X75616794Y-96926236D01*
X75780736Y-96762294D01*
X75909544Y-96569519D01*
X75998269Y-96355318D01*
X76043500Y-96127924D01*
X76043500Y-95896076D01*
X75998269Y-95668682D01*
X75909544Y-95454481D01*
X75780736Y-95261706D01*
X75681030Y-95162000D01*
X76227918Y-95162000D01*
X76227918Y-96862000D01*
X76234232Y-96926103D01*
X76252930Y-96987743D01*
X76283294Y-97044550D01*
X76324157Y-97094343D01*
X76373950Y-97135206D01*
X76430757Y-97165570D01*
X76492397Y-97184268D01*
X76556500Y-97190582D01*
X78256500Y-97190582D01*
X78320603Y-97184268D01*
X78382243Y-97165570D01*
X78439050Y-97135206D01*
X78488843Y-97094343D01*
X78529706Y-97044550D01*
X78560070Y-96987743D01*
X78578768Y-96926103D01*
X78585082Y-96862000D01*
X78585082Y-95162000D01*
X78578768Y-95097897D01*
X78560070Y-95036257D01*
X78529706Y-94979450D01*
X78488843Y-94929657D01*
X78439050Y-94888794D01*
X78382243Y-94858430D01*
X78320603Y-94839732D01*
X78256500Y-94833418D01*
X76556500Y-94833418D01*
X76492397Y-94839732D01*
X76430757Y-94858430D01*
X76373950Y-94888794D01*
X76324157Y-94929657D01*
X76283294Y-94979450D01*
X76252930Y-95036257D01*
X76234232Y-95097897D01*
X76227918Y-95162000D01*
X75681030Y-95162000D01*
X75616794Y-95097764D01*
X75424019Y-94968956D01*
X75209818Y-94880231D01*
X74982424Y-94835000D01*
X74750576Y-94835000D01*
X74523182Y-94880231D01*
X74308981Y-94968956D01*
X74116206Y-95097764D01*
X73952264Y-95261706D01*
X73823456Y-95454481D01*
X73755236Y-95619179D01*
X73670657Y-95380748D01*
X73521678Y-95130645D01*
X73326769Y-94914412D01*
X73180753Y-94805500D01*
X84123527Y-94805500D01*
X84136091Y-94917512D01*
X84141346Y-94942233D01*
X84146260Y-94967053D01*
X84147412Y-94970774D01*
X84206425Y-95156804D01*
X84216389Y-95180052D01*
X84226023Y-95203425D01*
X84227876Y-95206852D01*
X84321898Y-95377877D01*
X84336184Y-95398742D01*
X84350177Y-95419803D01*
X84352660Y-95422804D01*
X84478110Y-95572310D01*
X84496147Y-95589973D01*
X84513996Y-95607947D01*
X84517015Y-95610409D01*
X84669115Y-95732699D01*
X84690208Y-95746501D01*
X84711237Y-95760686D01*
X84714677Y-95762514D01*
X84887632Y-95852934D01*
X84911069Y-95862403D01*
X84934392Y-95872207D01*
X84938121Y-95873333D01*
X85125346Y-95928436D01*
X85150171Y-95933171D01*
X85174955Y-95938259D01*
X85178832Y-95938639D01*
X85373193Y-95956328D01*
X85398481Y-95956151D01*
X85423769Y-95956328D01*
X85427645Y-95955948D01*
X85621742Y-95935547D01*
X85646520Y-95930460D01*
X85671351Y-95925724D01*
X85675080Y-95924598D01*
X85861518Y-95866886D01*
X85884829Y-95857087D01*
X85908276Y-95847614D01*
X85911715Y-95845785D01*
X86083391Y-95752960D01*
X86104323Y-95738841D01*
X86125516Y-95724973D01*
X86128535Y-95722511D01*
X86278912Y-95598107D01*
X86296689Y-95580205D01*
X86314798Y-95562472D01*
X86317280Y-95559470D01*
X86440631Y-95408228D01*
X86454624Y-95387167D01*
X86468911Y-95366301D01*
X86470764Y-95362874D01*
X86487000Y-95332338D01*
X86487000Y-97137731D01*
X86461102Y-97090623D01*
X86446826Y-97069774D01*
X86432823Y-97048697D01*
X86430340Y-97045696D01*
X86304890Y-96896190D01*
X86286817Y-96878492D01*
X86269003Y-96860553D01*
X86265985Y-96858091D01*
X86113885Y-96735800D01*
X86092732Y-96721959D01*
X86071762Y-96707814D01*
X86068323Y-96705985D01*
X85895367Y-96615566D01*
X85871928Y-96606096D01*
X85848608Y-96596293D01*
X85844879Y-96595167D01*
X85657653Y-96540064D01*
X85632836Y-96535330D01*
X85608045Y-96530241D01*
X85604168Y-96529861D01*
X85409806Y-96512172D01*
X85384519Y-96512349D01*
X85359231Y-96512172D01*
X85355355Y-96512552D01*
X85161258Y-96532953D01*
X85136487Y-96538038D01*
X85111648Y-96542776D01*
X85107920Y-96543902D01*
X84921482Y-96601614D01*
X84898171Y-96611413D01*
X84874724Y-96620886D01*
X84871285Y-96622715D01*
X84699608Y-96715540D01*
X84678692Y-96729649D01*
X84657483Y-96743527D01*
X84654465Y-96745989D01*
X84504087Y-96870393D01*
X84486291Y-96888314D01*
X84468202Y-96906028D01*
X84465720Y-96909030D01*
X84342370Y-97060272D01*
X84328379Y-97081330D01*
X84314089Y-97102199D01*
X84312237Y-97105625D01*
X84220611Y-97277948D01*
X84210959Y-97301365D01*
X84201014Y-97324569D01*
X84199862Y-97328290D01*
X84144699Y-97511000D01*
X64350500Y-97511000D01*
X64350500Y-96368891D01*
X70885019Y-96368891D01*
X70982343Y-96643252D01*
X71131322Y-96893355D01*
X71326231Y-97109588D01*
X71559580Y-97283641D01*
X71822401Y-97408825D01*
X71969610Y-97453476D01*
X72199500Y-97332155D01*
X72199500Y-96139000D01*
X71005686Y-96139000D01*
X70885019Y-96368891D01*
X64350500Y-96368891D01*
X64350500Y-94805500D01*
X71472247Y-94805500D01*
X71326231Y-94914412D01*
G36*
X93646231Y-94914412D02*
G01*
X93451322Y-95130645D01*
X93302343Y-95380748D01*
X93205019Y-95655109D01*
X93325686Y-95885000D01*
X94519500Y-95885000D01*
X94519500Y-95865000D01*
X94773500Y-95865000D01*
X94773500Y-95885000D01*
X94793500Y-95885000D01*
X94793500Y-96139000D01*
X94773500Y-96139000D01*
X94773500Y-97332155D01*
X95003390Y-97453476D01*
X95150599Y-97408825D01*
X95413420Y-97283641D01*
X95646769Y-97109588D01*
X95841678Y-96893355D01*
X95990657Y-96643252D01*
X96075236Y-96404821D01*
X96143456Y-96569519D01*
X96272264Y-96762294D01*
X96436206Y-96926236D01*
X96628981Y-97055044D01*
X96843182Y-97143769D01*
X97070576Y-97189000D01*
X97302424Y-97189000D01*
X97529818Y-97143769D01*
X97744019Y-97055044D01*
X97936794Y-96926236D01*
X98100736Y-96762294D01*
X98229544Y-96569519D01*
X98318269Y-96355318D01*
X98363500Y-96127924D01*
X98363500Y-95896076D01*
X98318269Y-95668682D01*
X98229544Y-95454481D01*
X98100736Y-95261706D01*
X98001030Y-95162000D01*
X98547918Y-95162000D01*
X98547918Y-96862000D01*
X98554232Y-96926103D01*
X98572930Y-96987743D01*
X98603294Y-97044550D01*
X98644157Y-97094343D01*
X98693950Y-97135206D01*
X98750757Y-97165570D01*
X98812397Y-97184268D01*
X98876500Y-97190582D01*
X100576500Y-97190582D01*
X100640603Y-97184268D01*
X100702243Y-97165570D01*
X100759050Y-97135206D01*
X100808843Y-97094343D01*
X100849706Y-97044550D01*
X100880070Y-96987743D01*
X100898768Y-96926103D01*
X100905082Y-96862000D01*
X100905082Y-95162000D01*
X100898768Y-95097897D01*
X100880070Y-95036257D01*
X100849706Y-94979450D01*
X100808843Y-94929657D01*
X100759050Y-94888794D01*
X100702243Y-94858430D01*
X100640603Y-94839732D01*
X100576500Y-94833418D01*
X98876500Y-94833418D01*
X98812397Y-94839732D01*
X98750757Y-94858430D01*
X98693950Y-94888794D01*
X98644157Y-94929657D01*
X98603294Y-94979450D01*
X98572930Y-95036257D01*
X98554232Y-95097897D01*
X98547918Y-95162000D01*
X98001030Y-95162000D01*
X97936794Y-95097764D01*
X97744019Y-94968956D01*
X97529818Y-94880231D01*
X97302424Y-94835000D01*
X97070576Y-94835000D01*
X96843182Y-94880231D01*
X96628981Y-94968956D01*
X96436206Y-95097764D01*
X96272264Y-95261706D01*
X96143456Y-95454481D01*
X96075236Y-95619179D01*
X95990657Y-95380748D01*
X95841678Y-95130645D01*
X95646769Y-94914412D01*
X95500753Y-94805500D01*
X106443527Y-94805500D01*
X106456091Y-94917512D01*
X106461346Y-94942233D01*
X106466260Y-94967053D01*
X106467412Y-94970774D01*
X106526425Y-95156804D01*
X106536389Y-95180052D01*
X106546023Y-95203425D01*
X106547876Y-95206852D01*
X106641898Y-95377877D01*
X106656184Y-95398742D01*
X106670177Y-95419803D01*
X106672660Y-95422804D01*
X106798110Y-95572310D01*
X106816147Y-95589973D01*
X106833996Y-95607947D01*
X106837015Y-95610409D01*
X106989115Y-95732699D01*
X107010208Y-95746501D01*
X107031237Y-95760686D01*
X107034677Y-95762514D01*
X107207632Y-95852934D01*
X107231069Y-95862403D01*
X107254392Y-95872207D01*
X107258121Y-95873333D01*
X107445346Y-95928436D01*
X107470171Y-95933171D01*
X107494955Y-95938259D01*
X107498832Y-95938639D01*
X107693193Y-95956328D01*
X107718481Y-95956151D01*
X107743769Y-95956328D01*
X107747645Y-95955948D01*
X107941742Y-95935547D01*
X107966520Y-95930460D01*
X107991351Y-95925724D01*
X107995080Y-95924598D01*
X108181518Y-95866886D01*
X108204829Y-95857087D01*
X108228276Y-95847614D01*
X108231715Y-95845785D01*
X108403391Y-95752960D01*
X108424323Y-95738841D01*
X108445516Y-95724973D01*
X108448535Y-95722511D01*
X108598912Y-95598107D01*
X108616689Y-95580205D01*
X108634798Y-95562472D01*
X108637280Y-95559470D01*
X108760631Y-95408228D01*
X108774624Y-95387167D01*
X108788911Y-95366301D01*
X108790764Y-95362874D01*
X108807000Y-95332338D01*
X108807000Y-97137731D01*
X108781102Y-97090623D01*
X108766826Y-97069774D01*
X108752823Y-97048697D01*
X108750340Y-97045696D01*
X108624890Y-96896190D01*
X108606817Y-96878492D01*
X108589003Y-96860553D01*
X108585985Y-96858091D01*
X108433885Y-96735800D01*
X108412732Y-96721959D01*
X108391762Y-96707814D01*
X108388323Y-96705985D01*
X108215367Y-96615566D01*
X108191928Y-96606096D01*
X108168608Y-96596293D01*
X108164879Y-96595167D01*
X107977653Y-96540064D01*
X107952836Y-96535330D01*
X107928045Y-96530241D01*
X107924168Y-96529861D01*
X107729806Y-96512172D01*
X107704519Y-96512349D01*
X107679231Y-96512172D01*
X107675355Y-96512552D01*
X107481258Y-96532953D01*
X107456487Y-96538038D01*
X107431648Y-96542776D01*
X107427920Y-96543902D01*
X107241482Y-96601614D01*
X107218171Y-96611413D01*
X107194724Y-96620886D01*
X107191285Y-96622715D01*
X107019608Y-96715540D01*
X106998692Y-96729649D01*
X106977483Y-96743527D01*
X106974465Y-96745989D01*
X106824087Y-96870393D01*
X106806291Y-96888314D01*
X106788202Y-96906028D01*
X106785720Y-96909030D01*
X106662370Y-97060272D01*
X106648379Y-97081330D01*
X106634089Y-97102199D01*
X106632237Y-97105625D01*
X106540611Y-97277948D01*
X106530959Y-97301365D01*
X106521014Y-97324569D01*
X106519862Y-97328290D01*
X106464699Y-97511000D01*
X86638631Y-97511000D01*
X86636740Y-97501447D01*
X86635588Y-97497726D01*
X86576575Y-97311696D01*
X86566611Y-97288448D01*
X86556977Y-97265075D01*
X86555125Y-97261649D01*
X86461102Y-97090623D01*
X86446826Y-97069774D01*
X86432823Y-97048697D01*
X86430340Y-97045696D01*
X86304890Y-96896190D01*
X86286817Y-96878492D01*
X86269003Y-96860553D01*
X86265985Y-96858091D01*
X86113885Y-96735800D01*
X86092732Y-96721959D01*
X86074000Y-96709324D01*
X86074000Y-96368891D01*
X93205019Y-96368891D01*
X93302343Y-96643252D01*
X93451322Y-96893355D01*
X93646231Y-97109588D01*
X93879580Y-97283641D01*
X94142401Y-97408825D01*
X94289610Y-97453476D01*
X94519500Y-97332155D01*
X94519500Y-96139000D01*
X93325686Y-96139000D01*
X93205019Y-96368891D01*
X86074000Y-96368891D01*
X86074000Y-95758038D01*
X86083391Y-95752960D01*
X86104323Y-95738841D01*
X86125516Y-95724973D01*
X86128535Y-95722511D01*
X86278912Y-95598107D01*
X86296689Y-95580205D01*
X86314798Y-95562472D01*
X86317280Y-95559470D01*
X86440631Y-95408228D01*
X86454624Y-95387167D01*
X86468911Y-95366301D01*
X86470764Y-95362874D01*
X86562389Y-95190552D01*
X86572011Y-95167207D01*
X86581987Y-95143931D01*
X86583138Y-95140210D01*
X86639547Y-94953373D01*
X86644456Y-94928583D01*
X86649716Y-94903834D01*
X86650123Y-94899960D01*
X86659385Y-94805500D01*
X93792247Y-94805500D01*
X93646231Y-94914412D01*
G37*
X93646231Y-94914412D02*
X93451322Y-95130645D01*
X93302343Y-95380748D01*
X93205019Y-95655109D01*
X93325686Y-95885000D01*
X94519500Y-95885000D01*
X94519500Y-95865000D01*
X94773500Y-95865000D01*
X94773500Y-95885000D01*
X94793500Y-95885000D01*
X94793500Y-96139000D01*
X94773500Y-96139000D01*
X94773500Y-97332155D01*
X95003390Y-97453476D01*
X95150599Y-97408825D01*
X95413420Y-97283641D01*
X95646769Y-97109588D01*
X95841678Y-96893355D01*
X95990657Y-96643252D01*
X96075236Y-96404821D01*
X96143456Y-96569519D01*
X96272264Y-96762294D01*
X96436206Y-96926236D01*
X96628981Y-97055044D01*
X96843182Y-97143769D01*
X97070576Y-97189000D01*
X97302424Y-97189000D01*
X97529818Y-97143769D01*
X97744019Y-97055044D01*
X97936794Y-96926236D01*
X98100736Y-96762294D01*
X98229544Y-96569519D01*
X98318269Y-96355318D01*
X98363500Y-96127924D01*
X98363500Y-95896076D01*
X98318269Y-95668682D01*
X98229544Y-95454481D01*
X98100736Y-95261706D01*
X98001030Y-95162000D01*
X98547918Y-95162000D01*
X98547918Y-96862000D01*
X98554232Y-96926103D01*
X98572930Y-96987743D01*
X98603294Y-97044550D01*
X98644157Y-97094343D01*
X98693950Y-97135206D01*
X98750757Y-97165570D01*
X98812397Y-97184268D01*
X98876500Y-97190582D01*
X100576500Y-97190582D01*
X100640603Y-97184268D01*
X100702243Y-97165570D01*
X100759050Y-97135206D01*
X100808843Y-97094343D01*
X100849706Y-97044550D01*
X100880070Y-96987743D01*
X100898768Y-96926103D01*
X100905082Y-96862000D01*
X100905082Y-95162000D01*
X100898768Y-95097897D01*
X100880070Y-95036257D01*
X100849706Y-94979450D01*
X100808843Y-94929657D01*
X100759050Y-94888794D01*
X100702243Y-94858430D01*
X100640603Y-94839732D01*
X100576500Y-94833418D01*
X98876500Y-94833418D01*
X98812397Y-94839732D01*
X98750757Y-94858430D01*
X98693950Y-94888794D01*
X98644157Y-94929657D01*
X98603294Y-94979450D01*
X98572930Y-95036257D01*
X98554232Y-95097897D01*
X98547918Y-95162000D01*
X98001030Y-95162000D01*
X97936794Y-95097764D01*
X97744019Y-94968956D01*
X97529818Y-94880231D01*
X97302424Y-94835000D01*
X97070576Y-94835000D01*
X96843182Y-94880231D01*
X96628981Y-94968956D01*
X96436206Y-95097764D01*
X96272264Y-95261706D01*
X96143456Y-95454481D01*
X96075236Y-95619179D01*
X95990657Y-95380748D01*
X95841678Y-95130645D01*
X95646769Y-94914412D01*
X95500753Y-94805500D01*
X106443527Y-94805500D01*
X106456091Y-94917512D01*
X106461346Y-94942233D01*
X106466260Y-94967053D01*
X106467412Y-94970774D01*
X106526425Y-95156804D01*
X106536389Y-95180052D01*
X106546023Y-95203425D01*
X106547876Y-95206852D01*
X106641898Y-95377877D01*
X106656184Y-95398742D01*
X106670177Y-95419803D01*
X106672660Y-95422804D01*
X106798110Y-95572310D01*
X106816147Y-95589973D01*
X106833996Y-95607947D01*
X106837015Y-95610409D01*
X106989115Y-95732699D01*
X107010208Y-95746501D01*
X107031237Y-95760686D01*
X107034677Y-95762514D01*
X107207632Y-95852934D01*
X107231069Y-95862403D01*
X107254392Y-95872207D01*
X107258121Y-95873333D01*
X107445346Y-95928436D01*
X107470171Y-95933171D01*
X107494955Y-95938259D01*
X107498832Y-95938639D01*
X107693193Y-95956328D01*
X107718481Y-95956151D01*
X107743769Y-95956328D01*
X107747645Y-95955948D01*
X107941742Y-95935547D01*
X107966520Y-95930460D01*
X107991351Y-95925724D01*
X107995080Y-95924598D01*
X108181518Y-95866886D01*
X108204829Y-95857087D01*
X108228276Y-95847614D01*
X108231715Y-95845785D01*
X108403391Y-95752960D01*
X108424323Y-95738841D01*
X108445516Y-95724973D01*
X108448535Y-95722511D01*
X108598912Y-95598107D01*
X108616689Y-95580205D01*
X108634798Y-95562472D01*
X108637280Y-95559470D01*
X108760631Y-95408228D01*
X108774624Y-95387167D01*
X108788911Y-95366301D01*
X108790764Y-95362874D01*
X108807000Y-95332338D01*
X108807000Y-97137731D01*
X108781102Y-97090623D01*
X108766826Y-97069774D01*
X108752823Y-97048697D01*
X108750340Y-97045696D01*
X108624890Y-96896190D01*
X108606817Y-96878492D01*
X108589003Y-96860553D01*
X108585985Y-96858091D01*
X108433885Y-96735800D01*
X108412732Y-96721959D01*
X108391762Y-96707814D01*
X108388323Y-96705985D01*
X108215367Y-96615566D01*
X108191928Y-96606096D01*
X108168608Y-96596293D01*
X108164879Y-96595167D01*
X107977653Y-96540064D01*
X107952836Y-96535330D01*
X107928045Y-96530241D01*
X107924168Y-96529861D01*
X107729806Y-96512172D01*
X107704519Y-96512349D01*
X107679231Y-96512172D01*
X107675355Y-96512552D01*
X107481258Y-96532953D01*
X107456487Y-96538038D01*
X107431648Y-96542776D01*
X107427920Y-96543902D01*
X107241482Y-96601614D01*
X107218171Y-96611413D01*
X107194724Y-96620886D01*
X107191285Y-96622715D01*
X107019608Y-96715540D01*
X106998692Y-96729649D01*
X106977483Y-96743527D01*
X106974465Y-96745989D01*
X106824087Y-96870393D01*
X106806291Y-96888314D01*
X106788202Y-96906028D01*
X106785720Y-96909030D01*
X106662370Y-97060272D01*
X106648379Y-97081330D01*
X106634089Y-97102199D01*
X106632237Y-97105625D01*
X106540611Y-97277948D01*
X106530959Y-97301365D01*
X106521014Y-97324569D01*
X106519862Y-97328290D01*
X106464699Y-97511000D01*
X86638631Y-97511000D01*
X86636740Y-97501447D01*
X86635588Y-97497726D01*
X86576575Y-97311696D01*
X86566611Y-97288448D01*
X86556977Y-97265075D01*
X86555125Y-97261649D01*
X86461102Y-97090623D01*
X86446826Y-97069774D01*
X86432823Y-97048697D01*
X86430340Y-97045696D01*
X86304890Y-96896190D01*
X86286817Y-96878492D01*
X86269003Y-96860553D01*
X86265985Y-96858091D01*
X86113885Y-96735800D01*
X86092732Y-96721959D01*
X86074000Y-96709324D01*
X86074000Y-96368891D01*
X93205019Y-96368891D01*
X93302343Y-96643252D01*
X93451322Y-96893355D01*
X93646231Y-97109588D01*
X93879580Y-97283641D01*
X94142401Y-97408825D01*
X94289610Y-97453476D01*
X94519500Y-97332155D01*
X94519500Y-96139000D01*
X93325686Y-96139000D01*
X93205019Y-96368891D01*
X86074000Y-96368891D01*
X86074000Y-95758038D01*
X86083391Y-95752960D01*
X86104323Y-95738841D01*
X86125516Y-95724973D01*
X86128535Y-95722511D01*
X86278912Y-95598107D01*
X86296689Y-95580205D01*
X86314798Y-95562472D01*
X86317280Y-95559470D01*
X86440631Y-95408228D01*
X86454624Y-95387167D01*
X86468911Y-95366301D01*
X86470764Y-95362874D01*
X86562389Y-95190552D01*
X86572011Y-95167207D01*
X86581987Y-95143931D01*
X86583138Y-95140210D01*
X86639547Y-94953373D01*
X86644456Y-94928583D01*
X86649716Y-94903834D01*
X86650123Y-94899960D01*
X86659385Y-94805500D01*
X93792247Y-94805500D01*
X93646231Y-94914412D01*
G36*
X115966231Y-94914412D02*
G01*
X115771322Y-95130645D01*
X115622343Y-95380748D01*
X115525019Y-95655109D01*
X115645686Y-95885000D01*
X116839500Y-95885000D01*
X116839500Y-95865000D01*
X117093500Y-95865000D01*
X117093500Y-95885000D01*
X117113500Y-95885000D01*
X117113500Y-96139000D01*
X117093500Y-96139000D01*
X117093500Y-97332155D01*
X117323390Y-97453476D01*
X117470599Y-97408825D01*
X117733420Y-97283641D01*
X117966769Y-97109588D01*
X118161678Y-96893355D01*
X118310657Y-96643252D01*
X118395236Y-96404821D01*
X118463456Y-96569519D01*
X118592264Y-96762294D01*
X118756206Y-96926236D01*
X118948981Y-97055044D01*
X119163182Y-97143769D01*
X119390576Y-97189000D01*
X119622424Y-97189000D01*
X119849818Y-97143769D01*
X120064019Y-97055044D01*
X120256794Y-96926236D01*
X120420736Y-96762294D01*
X120549544Y-96569519D01*
X120638269Y-96355318D01*
X120683500Y-96127924D01*
X120683500Y-95896076D01*
X120638269Y-95668682D01*
X120549544Y-95454481D01*
X120420736Y-95261706D01*
X120321030Y-95162000D01*
X120867918Y-95162000D01*
X120867918Y-96862000D01*
X120874232Y-96926103D01*
X120892930Y-96987743D01*
X120923294Y-97044550D01*
X120964157Y-97094343D01*
X121013950Y-97135206D01*
X121070757Y-97165570D01*
X121132397Y-97184268D01*
X121196500Y-97190582D01*
X122896500Y-97190582D01*
X122960603Y-97184268D01*
X123022243Y-97165570D01*
X123079050Y-97135206D01*
X123128843Y-97094343D01*
X123169706Y-97044550D01*
X123200070Y-96987743D01*
X123218768Y-96926103D01*
X123225082Y-96862000D01*
X123225082Y-95162000D01*
X123218768Y-95097897D01*
X123200070Y-95036257D01*
X123169706Y-94979450D01*
X123128843Y-94929657D01*
X123079050Y-94888794D01*
X123022243Y-94858430D01*
X122960603Y-94839732D01*
X122896500Y-94833418D01*
X121196500Y-94833418D01*
X121132397Y-94839732D01*
X121070757Y-94858430D01*
X121013950Y-94888794D01*
X120964157Y-94929657D01*
X120923294Y-94979450D01*
X120892930Y-95036257D01*
X120874232Y-95097897D01*
X120867918Y-95162000D01*
X120321030Y-95162000D01*
X120256794Y-95097764D01*
X120064019Y-94968956D01*
X119849818Y-94880231D01*
X119622424Y-94835000D01*
X119390576Y-94835000D01*
X119163182Y-94880231D01*
X118948981Y-94968956D01*
X118756206Y-95097764D01*
X118592264Y-95261706D01*
X118463456Y-95454481D01*
X118395236Y-95619179D01*
X118310657Y-95380748D01*
X118161678Y-95130645D01*
X117966769Y-94914412D01*
X117820753Y-94805500D01*
X128763527Y-94805500D01*
X128776091Y-94917512D01*
X128781346Y-94942233D01*
X128786260Y-94967053D01*
X128787412Y-94970774D01*
X128846425Y-95156804D01*
X128856389Y-95180052D01*
X128866023Y-95203425D01*
X128867876Y-95206852D01*
X128961898Y-95377877D01*
X128976184Y-95398742D01*
X128990177Y-95419803D01*
X128992660Y-95422804D01*
X129118110Y-95572310D01*
X129136147Y-95589973D01*
X129153996Y-95607947D01*
X129157015Y-95610409D01*
X129309115Y-95732699D01*
X129330208Y-95746501D01*
X129351237Y-95760686D01*
X129354677Y-95762514D01*
X129527632Y-95852934D01*
X129551069Y-95862403D01*
X129574392Y-95872207D01*
X129578121Y-95873333D01*
X129765346Y-95928436D01*
X129790171Y-95933171D01*
X129814955Y-95938259D01*
X129818832Y-95938639D01*
X130013193Y-95956328D01*
X130038481Y-95956151D01*
X130063769Y-95956328D01*
X130067645Y-95955948D01*
X130261742Y-95935547D01*
X130286520Y-95930460D01*
X130311351Y-95925724D01*
X130315080Y-95924598D01*
X130501518Y-95866886D01*
X130524829Y-95857087D01*
X130548276Y-95847614D01*
X130551715Y-95845785D01*
X130723391Y-95752960D01*
X130744323Y-95738841D01*
X130765516Y-95724973D01*
X130768535Y-95722511D01*
X130918912Y-95598107D01*
X130936689Y-95580205D01*
X130954798Y-95562472D01*
X130957280Y-95559470D01*
X131080631Y-95408228D01*
X131094624Y-95387167D01*
X131108911Y-95366301D01*
X131110764Y-95362874D01*
X131127000Y-95332338D01*
X131127000Y-97137731D01*
X131101102Y-97090623D01*
X131086826Y-97069774D01*
X131072823Y-97048697D01*
X131070340Y-97045696D01*
X130944890Y-96896190D01*
X130926817Y-96878492D01*
X130909003Y-96860553D01*
X130905985Y-96858091D01*
X130753885Y-96735800D01*
X130732732Y-96721959D01*
X130711762Y-96707814D01*
X130708323Y-96705985D01*
X130535367Y-96615566D01*
X130511928Y-96606096D01*
X130488608Y-96596293D01*
X130484879Y-96595167D01*
X130297653Y-96540064D01*
X130272836Y-96535330D01*
X130248045Y-96530241D01*
X130244168Y-96529861D01*
X130049806Y-96512172D01*
X130024519Y-96512349D01*
X129999231Y-96512172D01*
X129995355Y-96512552D01*
X129801258Y-96532953D01*
X129776487Y-96538038D01*
X129751648Y-96542776D01*
X129747920Y-96543902D01*
X129561482Y-96601614D01*
X129538171Y-96611413D01*
X129514724Y-96620886D01*
X129511285Y-96622715D01*
X129339608Y-96715540D01*
X129318692Y-96729649D01*
X129297483Y-96743527D01*
X129294465Y-96745989D01*
X129144087Y-96870393D01*
X129126291Y-96888314D01*
X129108202Y-96906028D01*
X129105720Y-96909030D01*
X128982370Y-97060272D01*
X128968379Y-97081330D01*
X128954089Y-97102199D01*
X128952237Y-97105625D01*
X128860611Y-97277948D01*
X128850959Y-97301365D01*
X128841014Y-97324569D01*
X128839862Y-97328290D01*
X128784699Y-97511000D01*
X108958631Y-97511000D01*
X108956740Y-97501447D01*
X108955588Y-97497726D01*
X108896575Y-97311696D01*
X108886611Y-97288448D01*
X108876977Y-97265075D01*
X108875125Y-97261649D01*
X108781102Y-97090623D01*
X108766826Y-97069774D01*
X108752823Y-97048697D01*
X108750340Y-97045696D01*
X108624890Y-96896190D01*
X108606817Y-96878492D01*
X108589003Y-96860553D01*
X108585985Y-96858091D01*
X108433885Y-96735800D01*
X108412732Y-96721959D01*
X108394000Y-96709324D01*
X108394000Y-96368891D01*
X115525019Y-96368891D01*
X115622343Y-96643252D01*
X115771322Y-96893355D01*
X115966231Y-97109588D01*
X116199580Y-97283641D01*
X116462401Y-97408825D01*
X116609610Y-97453476D01*
X116839500Y-97332155D01*
X116839500Y-96139000D01*
X115645686Y-96139000D01*
X115525019Y-96368891D01*
X108394000Y-96368891D01*
X108394000Y-95758038D01*
X108403391Y-95752960D01*
X108424323Y-95738841D01*
X108445516Y-95724973D01*
X108448535Y-95722511D01*
X108598912Y-95598107D01*
X108616689Y-95580205D01*
X108634798Y-95562472D01*
X108637280Y-95559470D01*
X108760631Y-95408228D01*
X108774624Y-95387167D01*
X108788911Y-95366301D01*
X108790764Y-95362874D01*
X108882389Y-95190552D01*
X108892011Y-95167207D01*
X108901987Y-95143931D01*
X108903138Y-95140210D01*
X108959547Y-94953373D01*
X108964456Y-94928583D01*
X108969716Y-94903834D01*
X108970123Y-94899960D01*
X108979385Y-94805500D01*
X116112247Y-94805500D01*
X115966231Y-94914412D01*
G37*
X115966231Y-94914412D02*
X115771322Y-95130645D01*
X115622343Y-95380748D01*
X115525019Y-95655109D01*
X115645686Y-95885000D01*
X116839500Y-95885000D01*
X116839500Y-95865000D01*
X117093500Y-95865000D01*
X117093500Y-95885000D01*
X117113500Y-95885000D01*
X117113500Y-96139000D01*
X117093500Y-96139000D01*
X117093500Y-97332155D01*
X117323390Y-97453476D01*
X117470599Y-97408825D01*
X117733420Y-97283641D01*
X117966769Y-97109588D01*
X118161678Y-96893355D01*
X118310657Y-96643252D01*
X118395236Y-96404821D01*
X118463456Y-96569519D01*
X118592264Y-96762294D01*
X118756206Y-96926236D01*
X118948981Y-97055044D01*
X119163182Y-97143769D01*
X119390576Y-97189000D01*
X119622424Y-97189000D01*
X119849818Y-97143769D01*
X120064019Y-97055044D01*
X120256794Y-96926236D01*
X120420736Y-96762294D01*
X120549544Y-96569519D01*
X120638269Y-96355318D01*
X120683500Y-96127924D01*
X120683500Y-95896076D01*
X120638269Y-95668682D01*
X120549544Y-95454481D01*
X120420736Y-95261706D01*
X120321030Y-95162000D01*
X120867918Y-95162000D01*
X120867918Y-96862000D01*
X120874232Y-96926103D01*
X120892930Y-96987743D01*
X120923294Y-97044550D01*
X120964157Y-97094343D01*
X121013950Y-97135206D01*
X121070757Y-97165570D01*
X121132397Y-97184268D01*
X121196500Y-97190582D01*
X122896500Y-97190582D01*
X122960603Y-97184268D01*
X123022243Y-97165570D01*
X123079050Y-97135206D01*
X123128843Y-97094343D01*
X123169706Y-97044550D01*
X123200070Y-96987743D01*
X123218768Y-96926103D01*
X123225082Y-96862000D01*
X123225082Y-95162000D01*
X123218768Y-95097897D01*
X123200070Y-95036257D01*
X123169706Y-94979450D01*
X123128843Y-94929657D01*
X123079050Y-94888794D01*
X123022243Y-94858430D01*
X122960603Y-94839732D01*
X122896500Y-94833418D01*
X121196500Y-94833418D01*
X121132397Y-94839732D01*
X121070757Y-94858430D01*
X121013950Y-94888794D01*
X120964157Y-94929657D01*
X120923294Y-94979450D01*
X120892930Y-95036257D01*
X120874232Y-95097897D01*
X120867918Y-95162000D01*
X120321030Y-95162000D01*
X120256794Y-95097764D01*
X120064019Y-94968956D01*
X119849818Y-94880231D01*
X119622424Y-94835000D01*
X119390576Y-94835000D01*
X119163182Y-94880231D01*
X118948981Y-94968956D01*
X118756206Y-95097764D01*
X118592264Y-95261706D01*
X118463456Y-95454481D01*
X118395236Y-95619179D01*
X118310657Y-95380748D01*
X118161678Y-95130645D01*
X117966769Y-94914412D01*
X117820753Y-94805500D01*
X128763527Y-94805500D01*
X128776091Y-94917512D01*
X128781346Y-94942233D01*
X128786260Y-94967053D01*
X128787412Y-94970774D01*
X128846425Y-95156804D01*
X128856389Y-95180052D01*
X128866023Y-95203425D01*
X128867876Y-95206852D01*
X128961898Y-95377877D01*
X128976184Y-95398742D01*
X128990177Y-95419803D01*
X128992660Y-95422804D01*
X129118110Y-95572310D01*
X129136147Y-95589973D01*
X129153996Y-95607947D01*
X129157015Y-95610409D01*
X129309115Y-95732699D01*
X129330208Y-95746501D01*
X129351237Y-95760686D01*
X129354677Y-95762514D01*
X129527632Y-95852934D01*
X129551069Y-95862403D01*
X129574392Y-95872207D01*
X129578121Y-95873333D01*
X129765346Y-95928436D01*
X129790171Y-95933171D01*
X129814955Y-95938259D01*
X129818832Y-95938639D01*
X130013193Y-95956328D01*
X130038481Y-95956151D01*
X130063769Y-95956328D01*
X130067645Y-95955948D01*
X130261742Y-95935547D01*
X130286520Y-95930460D01*
X130311351Y-95925724D01*
X130315080Y-95924598D01*
X130501518Y-95866886D01*
X130524829Y-95857087D01*
X130548276Y-95847614D01*
X130551715Y-95845785D01*
X130723391Y-95752960D01*
X130744323Y-95738841D01*
X130765516Y-95724973D01*
X130768535Y-95722511D01*
X130918912Y-95598107D01*
X130936689Y-95580205D01*
X130954798Y-95562472D01*
X130957280Y-95559470D01*
X131080631Y-95408228D01*
X131094624Y-95387167D01*
X131108911Y-95366301D01*
X131110764Y-95362874D01*
X131127000Y-95332338D01*
X131127000Y-97137731D01*
X131101102Y-97090623D01*
X131086826Y-97069774D01*
X131072823Y-97048697D01*
X131070340Y-97045696D01*
X130944890Y-96896190D01*
X130926817Y-96878492D01*
X130909003Y-96860553D01*
X130905985Y-96858091D01*
X130753885Y-96735800D01*
X130732732Y-96721959D01*
X130711762Y-96707814D01*
X130708323Y-96705985D01*
X130535367Y-96615566D01*
X130511928Y-96606096D01*
X130488608Y-96596293D01*
X130484879Y-96595167D01*
X130297653Y-96540064D01*
X130272836Y-96535330D01*
X130248045Y-96530241D01*
X130244168Y-96529861D01*
X130049806Y-96512172D01*
X130024519Y-96512349D01*
X129999231Y-96512172D01*
X129995355Y-96512552D01*
X129801258Y-96532953D01*
X129776487Y-96538038D01*
X129751648Y-96542776D01*
X129747920Y-96543902D01*
X129561482Y-96601614D01*
X129538171Y-96611413D01*
X129514724Y-96620886D01*
X129511285Y-96622715D01*
X129339608Y-96715540D01*
X129318692Y-96729649D01*
X129297483Y-96743527D01*
X129294465Y-96745989D01*
X129144087Y-96870393D01*
X129126291Y-96888314D01*
X129108202Y-96906028D01*
X129105720Y-96909030D01*
X128982370Y-97060272D01*
X128968379Y-97081330D01*
X128954089Y-97102199D01*
X128952237Y-97105625D01*
X128860611Y-97277948D01*
X128850959Y-97301365D01*
X128841014Y-97324569D01*
X128839862Y-97328290D01*
X128784699Y-97511000D01*
X108958631Y-97511000D01*
X108956740Y-97501447D01*
X108955588Y-97497726D01*
X108896575Y-97311696D01*
X108886611Y-97288448D01*
X108876977Y-97265075D01*
X108875125Y-97261649D01*
X108781102Y-97090623D01*
X108766826Y-97069774D01*
X108752823Y-97048697D01*
X108750340Y-97045696D01*
X108624890Y-96896190D01*
X108606817Y-96878492D01*
X108589003Y-96860553D01*
X108585985Y-96858091D01*
X108433885Y-96735800D01*
X108412732Y-96721959D01*
X108394000Y-96709324D01*
X108394000Y-96368891D01*
X115525019Y-96368891D01*
X115622343Y-96643252D01*
X115771322Y-96893355D01*
X115966231Y-97109588D01*
X116199580Y-97283641D01*
X116462401Y-97408825D01*
X116609610Y-97453476D01*
X116839500Y-97332155D01*
X116839500Y-96139000D01*
X115645686Y-96139000D01*
X115525019Y-96368891D01*
X108394000Y-96368891D01*
X108394000Y-95758038D01*
X108403391Y-95752960D01*
X108424323Y-95738841D01*
X108445516Y-95724973D01*
X108448535Y-95722511D01*
X108598912Y-95598107D01*
X108616689Y-95580205D01*
X108634798Y-95562472D01*
X108637280Y-95559470D01*
X108760631Y-95408228D01*
X108774624Y-95387167D01*
X108788911Y-95366301D01*
X108790764Y-95362874D01*
X108882389Y-95190552D01*
X108892011Y-95167207D01*
X108901987Y-95143931D01*
X108903138Y-95140210D01*
X108959547Y-94953373D01*
X108964456Y-94928583D01*
X108969716Y-94903834D01*
X108970123Y-94899960D01*
X108979385Y-94805500D01*
X116112247Y-94805500D01*
X115966231Y-94914412D01*
G36*
X138286231Y-94914412D02*
G01*
X138091322Y-95130645D01*
X137942343Y-95380748D01*
X137845019Y-95655109D01*
X137965686Y-95885000D01*
X139159500Y-95885000D01*
X139159500Y-95865000D01*
X139413500Y-95865000D01*
X139413500Y-95885000D01*
X139433500Y-95885000D01*
X139433500Y-96139000D01*
X139413500Y-96139000D01*
X139413500Y-97332155D01*
X139643390Y-97453476D01*
X139790599Y-97408825D01*
X140053420Y-97283641D01*
X140286769Y-97109588D01*
X140481678Y-96893355D01*
X140630657Y-96643252D01*
X140715236Y-96404821D01*
X140783456Y-96569519D01*
X140912264Y-96762294D01*
X141076206Y-96926236D01*
X141268981Y-97055044D01*
X141483182Y-97143769D01*
X141710576Y-97189000D01*
X141942424Y-97189000D01*
X142169818Y-97143769D01*
X142384019Y-97055044D01*
X142576794Y-96926236D01*
X142740736Y-96762294D01*
X142869544Y-96569519D01*
X142958269Y-96355318D01*
X143003500Y-96127924D01*
X143003500Y-95896076D01*
X142958269Y-95668682D01*
X142869544Y-95454481D01*
X142740736Y-95261706D01*
X142641030Y-95162000D01*
X143187918Y-95162000D01*
X143187918Y-96862000D01*
X143194232Y-96926103D01*
X143212930Y-96987743D01*
X143243294Y-97044550D01*
X143284157Y-97094343D01*
X143333950Y-97135206D01*
X143390757Y-97165570D01*
X143452397Y-97184268D01*
X143516500Y-97190582D01*
X145216500Y-97190582D01*
X145280603Y-97184268D01*
X145342243Y-97165570D01*
X145399050Y-97135206D01*
X145448843Y-97094343D01*
X145489706Y-97044550D01*
X145520070Y-96987743D01*
X145538768Y-96926103D01*
X145545082Y-96862000D01*
X145545082Y-95162000D01*
X145538768Y-95097897D01*
X145520070Y-95036257D01*
X145489706Y-94979450D01*
X145448843Y-94929657D01*
X145399050Y-94888794D01*
X145342243Y-94858430D01*
X145280603Y-94839732D01*
X145216500Y-94833418D01*
X143516500Y-94833418D01*
X143452397Y-94839732D01*
X143390757Y-94858430D01*
X143333950Y-94888794D01*
X143284157Y-94929657D01*
X143243294Y-94979450D01*
X143212930Y-95036257D01*
X143194232Y-95097897D01*
X143187918Y-95162000D01*
X142641030Y-95162000D01*
X142576794Y-95097764D01*
X142384019Y-94968956D01*
X142169818Y-94880231D01*
X141942424Y-94835000D01*
X141710576Y-94835000D01*
X141483182Y-94880231D01*
X141268981Y-94968956D01*
X141076206Y-95097764D01*
X140912264Y-95261706D01*
X140783456Y-95454481D01*
X140715236Y-95619179D01*
X140630657Y-95380748D01*
X140481678Y-95130645D01*
X140286769Y-94914412D01*
X140140753Y-94805500D01*
X151083527Y-94805500D01*
X151096091Y-94917512D01*
X151101346Y-94942233D01*
X151106260Y-94967053D01*
X151107412Y-94970774D01*
X151166425Y-95156804D01*
X151176389Y-95180052D01*
X151186023Y-95203425D01*
X151187876Y-95206852D01*
X151281898Y-95377877D01*
X151296184Y-95398742D01*
X151310177Y-95419803D01*
X151312660Y-95422804D01*
X151438110Y-95572310D01*
X151456147Y-95589973D01*
X151473996Y-95607947D01*
X151477015Y-95610409D01*
X151629115Y-95732699D01*
X151650208Y-95746501D01*
X151671237Y-95760686D01*
X151674677Y-95762514D01*
X151847632Y-95852934D01*
X151871069Y-95862403D01*
X151894392Y-95872207D01*
X151898121Y-95873333D01*
X152085346Y-95928436D01*
X152110171Y-95933171D01*
X152134955Y-95938259D01*
X152138832Y-95938639D01*
X152333193Y-95956328D01*
X152358481Y-95956151D01*
X152383769Y-95956328D01*
X152387645Y-95955948D01*
X152581742Y-95935547D01*
X152606520Y-95930460D01*
X152631351Y-95925724D01*
X152635080Y-95924598D01*
X152821518Y-95866886D01*
X152844829Y-95857087D01*
X152868276Y-95847614D01*
X152871715Y-95845785D01*
X153043391Y-95752960D01*
X153064323Y-95738841D01*
X153085516Y-95724973D01*
X153088535Y-95722511D01*
X153238912Y-95598107D01*
X153256689Y-95580205D01*
X153274798Y-95562472D01*
X153277280Y-95559470D01*
X153400631Y-95408228D01*
X153414624Y-95387167D01*
X153428911Y-95366301D01*
X153430764Y-95362874D01*
X153447000Y-95332338D01*
X153447000Y-97137731D01*
X153421102Y-97090623D01*
X153406826Y-97069774D01*
X153392823Y-97048697D01*
X153390340Y-97045696D01*
X153264890Y-96896190D01*
X153246817Y-96878492D01*
X153229003Y-96860553D01*
X153225985Y-96858091D01*
X153073885Y-96735800D01*
X153052732Y-96721959D01*
X153031762Y-96707814D01*
X153028323Y-96705985D01*
X152855367Y-96615566D01*
X152831928Y-96606096D01*
X152808608Y-96596293D01*
X152804879Y-96595167D01*
X152617653Y-96540064D01*
X152592836Y-96535330D01*
X152568045Y-96530241D01*
X152564168Y-96529861D01*
X152369806Y-96512172D01*
X152344519Y-96512349D01*
X152319231Y-96512172D01*
X152315355Y-96512552D01*
X152121258Y-96532953D01*
X152096487Y-96538038D01*
X152071648Y-96542776D01*
X152067920Y-96543902D01*
X151881482Y-96601614D01*
X151858171Y-96611413D01*
X151834724Y-96620886D01*
X151831285Y-96622715D01*
X151659608Y-96715540D01*
X151638692Y-96729649D01*
X151617483Y-96743527D01*
X151614465Y-96745989D01*
X151464087Y-96870393D01*
X151446291Y-96888314D01*
X151428202Y-96906028D01*
X151425720Y-96909030D01*
X151302370Y-97060272D01*
X151288379Y-97081330D01*
X151274089Y-97102199D01*
X151272237Y-97105625D01*
X151180611Y-97277948D01*
X151170959Y-97301365D01*
X151161014Y-97324569D01*
X151159862Y-97328290D01*
X151104699Y-97511000D01*
X131278631Y-97511000D01*
X131276740Y-97501447D01*
X131275588Y-97497726D01*
X131216575Y-97311696D01*
X131206611Y-97288448D01*
X131196977Y-97265075D01*
X131195125Y-97261649D01*
X131101102Y-97090623D01*
X131086826Y-97069774D01*
X131072823Y-97048697D01*
X131070340Y-97045696D01*
X130944890Y-96896190D01*
X130926817Y-96878492D01*
X130909003Y-96860553D01*
X130905985Y-96858091D01*
X130753885Y-96735800D01*
X130732732Y-96721959D01*
X130714000Y-96709324D01*
X130714000Y-96368891D01*
X137845019Y-96368891D01*
X137942343Y-96643252D01*
X138091322Y-96893355D01*
X138286231Y-97109588D01*
X138519580Y-97283641D01*
X138782401Y-97408825D01*
X138929610Y-97453476D01*
X139159500Y-97332155D01*
X139159500Y-96139000D01*
X137965686Y-96139000D01*
X137845019Y-96368891D01*
X130714000Y-96368891D01*
X130714000Y-95758038D01*
X130723391Y-95752960D01*
X130744323Y-95738841D01*
X130765516Y-95724973D01*
X130768535Y-95722511D01*
X130918912Y-95598107D01*
X130936689Y-95580205D01*
X130954798Y-95562472D01*
X130957280Y-95559470D01*
X131080631Y-95408228D01*
X131094624Y-95387167D01*
X131108911Y-95366301D01*
X131110764Y-95362874D01*
X131202389Y-95190552D01*
X131212011Y-95167207D01*
X131221987Y-95143931D01*
X131223138Y-95140210D01*
X131279547Y-94953373D01*
X131284456Y-94928583D01*
X131289716Y-94903834D01*
X131290123Y-94899960D01*
X131299385Y-94805500D01*
X138432247Y-94805500D01*
X138286231Y-94914412D01*
G37*
X138286231Y-94914412D02*
X138091322Y-95130645D01*
X137942343Y-95380748D01*
X137845019Y-95655109D01*
X137965686Y-95885000D01*
X139159500Y-95885000D01*
X139159500Y-95865000D01*
X139413500Y-95865000D01*
X139413500Y-95885000D01*
X139433500Y-95885000D01*
X139433500Y-96139000D01*
X139413500Y-96139000D01*
X139413500Y-97332155D01*
X139643390Y-97453476D01*
X139790599Y-97408825D01*
X140053420Y-97283641D01*
X140286769Y-97109588D01*
X140481678Y-96893355D01*
X140630657Y-96643252D01*
X140715236Y-96404821D01*
X140783456Y-96569519D01*
X140912264Y-96762294D01*
X141076206Y-96926236D01*
X141268981Y-97055044D01*
X141483182Y-97143769D01*
X141710576Y-97189000D01*
X141942424Y-97189000D01*
X142169818Y-97143769D01*
X142384019Y-97055044D01*
X142576794Y-96926236D01*
X142740736Y-96762294D01*
X142869544Y-96569519D01*
X142958269Y-96355318D01*
X143003500Y-96127924D01*
X143003500Y-95896076D01*
X142958269Y-95668682D01*
X142869544Y-95454481D01*
X142740736Y-95261706D01*
X142641030Y-95162000D01*
X143187918Y-95162000D01*
X143187918Y-96862000D01*
X143194232Y-96926103D01*
X143212930Y-96987743D01*
X143243294Y-97044550D01*
X143284157Y-97094343D01*
X143333950Y-97135206D01*
X143390757Y-97165570D01*
X143452397Y-97184268D01*
X143516500Y-97190582D01*
X145216500Y-97190582D01*
X145280603Y-97184268D01*
X145342243Y-97165570D01*
X145399050Y-97135206D01*
X145448843Y-97094343D01*
X145489706Y-97044550D01*
X145520070Y-96987743D01*
X145538768Y-96926103D01*
X145545082Y-96862000D01*
X145545082Y-95162000D01*
X145538768Y-95097897D01*
X145520070Y-95036257D01*
X145489706Y-94979450D01*
X145448843Y-94929657D01*
X145399050Y-94888794D01*
X145342243Y-94858430D01*
X145280603Y-94839732D01*
X145216500Y-94833418D01*
X143516500Y-94833418D01*
X143452397Y-94839732D01*
X143390757Y-94858430D01*
X143333950Y-94888794D01*
X143284157Y-94929657D01*
X143243294Y-94979450D01*
X143212930Y-95036257D01*
X143194232Y-95097897D01*
X143187918Y-95162000D01*
X142641030Y-95162000D01*
X142576794Y-95097764D01*
X142384019Y-94968956D01*
X142169818Y-94880231D01*
X141942424Y-94835000D01*
X141710576Y-94835000D01*
X141483182Y-94880231D01*
X141268981Y-94968956D01*
X141076206Y-95097764D01*
X140912264Y-95261706D01*
X140783456Y-95454481D01*
X140715236Y-95619179D01*
X140630657Y-95380748D01*
X140481678Y-95130645D01*
X140286769Y-94914412D01*
X140140753Y-94805500D01*
X151083527Y-94805500D01*
X151096091Y-94917512D01*
X151101346Y-94942233D01*
X151106260Y-94967053D01*
X151107412Y-94970774D01*
X151166425Y-95156804D01*
X151176389Y-95180052D01*
X151186023Y-95203425D01*
X151187876Y-95206852D01*
X151281898Y-95377877D01*
X151296184Y-95398742D01*
X151310177Y-95419803D01*
X151312660Y-95422804D01*
X151438110Y-95572310D01*
X151456147Y-95589973D01*
X151473996Y-95607947D01*
X151477015Y-95610409D01*
X151629115Y-95732699D01*
X151650208Y-95746501D01*
X151671237Y-95760686D01*
X151674677Y-95762514D01*
X151847632Y-95852934D01*
X151871069Y-95862403D01*
X151894392Y-95872207D01*
X151898121Y-95873333D01*
X152085346Y-95928436D01*
X152110171Y-95933171D01*
X152134955Y-95938259D01*
X152138832Y-95938639D01*
X152333193Y-95956328D01*
X152358481Y-95956151D01*
X152383769Y-95956328D01*
X152387645Y-95955948D01*
X152581742Y-95935547D01*
X152606520Y-95930460D01*
X152631351Y-95925724D01*
X152635080Y-95924598D01*
X152821518Y-95866886D01*
X152844829Y-95857087D01*
X152868276Y-95847614D01*
X152871715Y-95845785D01*
X153043391Y-95752960D01*
X153064323Y-95738841D01*
X153085516Y-95724973D01*
X153088535Y-95722511D01*
X153238912Y-95598107D01*
X153256689Y-95580205D01*
X153274798Y-95562472D01*
X153277280Y-95559470D01*
X153400631Y-95408228D01*
X153414624Y-95387167D01*
X153428911Y-95366301D01*
X153430764Y-95362874D01*
X153447000Y-95332338D01*
X153447000Y-97137731D01*
X153421102Y-97090623D01*
X153406826Y-97069774D01*
X153392823Y-97048697D01*
X153390340Y-97045696D01*
X153264890Y-96896190D01*
X153246817Y-96878492D01*
X153229003Y-96860553D01*
X153225985Y-96858091D01*
X153073885Y-96735800D01*
X153052732Y-96721959D01*
X153031762Y-96707814D01*
X153028323Y-96705985D01*
X152855367Y-96615566D01*
X152831928Y-96606096D01*
X152808608Y-96596293D01*
X152804879Y-96595167D01*
X152617653Y-96540064D01*
X152592836Y-96535330D01*
X152568045Y-96530241D01*
X152564168Y-96529861D01*
X152369806Y-96512172D01*
X152344519Y-96512349D01*
X152319231Y-96512172D01*
X152315355Y-96512552D01*
X152121258Y-96532953D01*
X152096487Y-96538038D01*
X152071648Y-96542776D01*
X152067920Y-96543902D01*
X151881482Y-96601614D01*
X151858171Y-96611413D01*
X151834724Y-96620886D01*
X151831285Y-96622715D01*
X151659608Y-96715540D01*
X151638692Y-96729649D01*
X151617483Y-96743527D01*
X151614465Y-96745989D01*
X151464087Y-96870393D01*
X151446291Y-96888314D01*
X151428202Y-96906028D01*
X151425720Y-96909030D01*
X151302370Y-97060272D01*
X151288379Y-97081330D01*
X151274089Y-97102199D01*
X151272237Y-97105625D01*
X151180611Y-97277948D01*
X151170959Y-97301365D01*
X151161014Y-97324569D01*
X151159862Y-97328290D01*
X151104699Y-97511000D01*
X131278631Y-97511000D01*
X131276740Y-97501447D01*
X131275588Y-97497726D01*
X131216575Y-97311696D01*
X131206611Y-97288448D01*
X131196977Y-97265075D01*
X131195125Y-97261649D01*
X131101102Y-97090623D01*
X131086826Y-97069774D01*
X131072823Y-97048697D01*
X131070340Y-97045696D01*
X130944890Y-96896190D01*
X130926817Y-96878492D01*
X130909003Y-96860553D01*
X130905985Y-96858091D01*
X130753885Y-96735800D01*
X130732732Y-96721959D01*
X130714000Y-96709324D01*
X130714000Y-96368891D01*
X137845019Y-96368891D01*
X137942343Y-96643252D01*
X138091322Y-96893355D01*
X138286231Y-97109588D01*
X138519580Y-97283641D01*
X138782401Y-97408825D01*
X138929610Y-97453476D01*
X139159500Y-97332155D01*
X139159500Y-96139000D01*
X137965686Y-96139000D01*
X137845019Y-96368891D01*
X130714000Y-96368891D01*
X130714000Y-95758038D01*
X130723391Y-95752960D01*
X130744323Y-95738841D01*
X130765516Y-95724973D01*
X130768535Y-95722511D01*
X130918912Y-95598107D01*
X130936689Y-95580205D01*
X130954798Y-95562472D01*
X130957280Y-95559470D01*
X131080631Y-95408228D01*
X131094624Y-95387167D01*
X131108911Y-95366301D01*
X131110764Y-95362874D01*
X131202389Y-95190552D01*
X131212011Y-95167207D01*
X131221987Y-95143931D01*
X131223138Y-95140210D01*
X131279547Y-94953373D01*
X131284456Y-94928583D01*
X131289716Y-94903834D01*
X131290123Y-94899960D01*
X131299385Y-94805500D01*
X138432247Y-94805500D01*
X138286231Y-94914412D01*
G36*
X160606231Y-94914412D02*
G01*
X160411322Y-95130645D01*
X160262343Y-95380748D01*
X160165019Y-95655109D01*
X160285686Y-95885000D01*
X161479500Y-95885000D01*
X161479500Y-95865000D01*
X161733500Y-95865000D01*
X161733500Y-95885000D01*
X161753500Y-95885000D01*
X161753500Y-96139000D01*
X161733500Y-96139000D01*
X161733500Y-97332155D01*
X161963390Y-97453476D01*
X162110599Y-97408825D01*
X162373420Y-97283641D01*
X162606769Y-97109588D01*
X162801678Y-96893355D01*
X162950657Y-96643252D01*
X163035236Y-96404821D01*
X163103456Y-96569519D01*
X163232264Y-96762294D01*
X163396206Y-96926236D01*
X163588981Y-97055044D01*
X163803182Y-97143769D01*
X164030576Y-97189000D01*
X164262424Y-97189000D01*
X164489818Y-97143769D01*
X164704019Y-97055044D01*
X164896794Y-96926236D01*
X165060736Y-96762294D01*
X165189544Y-96569519D01*
X165278269Y-96355318D01*
X165323500Y-96127924D01*
X165323500Y-95896076D01*
X165278269Y-95668682D01*
X165189544Y-95454481D01*
X165060736Y-95261706D01*
X164961030Y-95162000D01*
X165507918Y-95162000D01*
X165507918Y-96862000D01*
X165514232Y-96926103D01*
X165532930Y-96987743D01*
X165563294Y-97044550D01*
X165604157Y-97094343D01*
X165653950Y-97135206D01*
X165710757Y-97165570D01*
X165772397Y-97184268D01*
X165836500Y-97190582D01*
X167536500Y-97190582D01*
X167600603Y-97184268D01*
X167662243Y-97165570D01*
X167719050Y-97135206D01*
X167768843Y-97094343D01*
X167809706Y-97044550D01*
X167840070Y-96987743D01*
X167858768Y-96926103D01*
X167865082Y-96862000D01*
X167865082Y-95162000D01*
X167858768Y-95097897D01*
X167840070Y-95036257D01*
X167809706Y-94979450D01*
X167768843Y-94929657D01*
X167719050Y-94888794D01*
X167662243Y-94858430D01*
X167600603Y-94839732D01*
X167536500Y-94833418D01*
X165836500Y-94833418D01*
X165772397Y-94839732D01*
X165710757Y-94858430D01*
X165653950Y-94888794D01*
X165604157Y-94929657D01*
X165563294Y-94979450D01*
X165532930Y-95036257D01*
X165514232Y-95097897D01*
X165507918Y-95162000D01*
X164961030Y-95162000D01*
X164896794Y-95097764D01*
X164704019Y-94968956D01*
X164489818Y-94880231D01*
X164262424Y-94835000D01*
X164030576Y-94835000D01*
X163803182Y-94880231D01*
X163588981Y-94968956D01*
X163396206Y-95097764D01*
X163232264Y-95261706D01*
X163103456Y-95454481D01*
X163035236Y-95619179D01*
X162950657Y-95380748D01*
X162801678Y-95130645D01*
X162606769Y-94914412D01*
X162460753Y-94805500D01*
X173403527Y-94805500D01*
X173416091Y-94917512D01*
X173421346Y-94942233D01*
X173426260Y-94967053D01*
X173427412Y-94970774D01*
X173486425Y-95156804D01*
X173496389Y-95180052D01*
X173506023Y-95203425D01*
X173507876Y-95206852D01*
X173601898Y-95377877D01*
X173616184Y-95398742D01*
X173630177Y-95419803D01*
X173632660Y-95422804D01*
X173758110Y-95572310D01*
X173776147Y-95589973D01*
X173793996Y-95607947D01*
X173797015Y-95610409D01*
X173949115Y-95732699D01*
X173970208Y-95746501D01*
X173991237Y-95760686D01*
X173994677Y-95762514D01*
X174167632Y-95852934D01*
X174191069Y-95862403D01*
X174214392Y-95872207D01*
X174218121Y-95873333D01*
X174405346Y-95928436D01*
X174430171Y-95933171D01*
X174454955Y-95938259D01*
X174458832Y-95938639D01*
X174653193Y-95956328D01*
X174678481Y-95956151D01*
X174703769Y-95956328D01*
X174707645Y-95955948D01*
X174901742Y-95935547D01*
X174926520Y-95930460D01*
X174951351Y-95925724D01*
X174955080Y-95924598D01*
X175141518Y-95866886D01*
X175164829Y-95857087D01*
X175188276Y-95847614D01*
X175191715Y-95845785D01*
X175363391Y-95752960D01*
X175384323Y-95738841D01*
X175405516Y-95724973D01*
X175408535Y-95722511D01*
X175558912Y-95598107D01*
X175576689Y-95580205D01*
X175594798Y-95562472D01*
X175597280Y-95559470D01*
X175720631Y-95408228D01*
X175734624Y-95387167D01*
X175748911Y-95366301D01*
X175750764Y-95362874D01*
X175767000Y-95332338D01*
X175767000Y-97137731D01*
X175741102Y-97090623D01*
X175726826Y-97069774D01*
X175712823Y-97048697D01*
X175710340Y-97045696D01*
X175584890Y-96896190D01*
X175566817Y-96878492D01*
X175549003Y-96860553D01*
X175545985Y-96858091D01*
X175393885Y-96735800D01*
X175372732Y-96721959D01*
X175351762Y-96707814D01*
X175348323Y-96705985D01*
X175175367Y-96615566D01*
X175151928Y-96606096D01*
X175128608Y-96596293D01*
X175124879Y-96595167D01*
X174937653Y-96540064D01*
X174912836Y-96535330D01*
X174888045Y-96530241D01*
X174884168Y-96529861D01*
X174689806Y-96512172D01*
X174664519Y-96512349D01*
X174639231Y-96512172D01*
X174635355Y-96512552D01*
X174441258Y-96532953D01*
X174416487Y-96538038D01*
X174391648Y-96542776D01*
X174387920Y-96543902D01*
X174201482Y-96601614D01*
X174178171Y-96611413D01*
X174154724Y-96620886D01*
X174151285Y-96622715D01*
X173979608Y-96715540D01*
X173958692Y-96729649D01*
X173937483Y-96743527D01*
X173934465Y-96745989D01*
X173784087Y-96870393D01*
X173766291Y-96888314D01*
X173748202Y-96906028D01*
X173745720Y-96909030D01*
X173622370Y-97060272D01*
X173608379Y-97081330D01*
X173594089Y-97102199D01*
X173592237Y-97105625D01*
X173500611Y-97277948D01*
X173490959Y-97301365D01*
X173481014Y-97324569D01*
X173479862Y-97328290D01*
X173424699Y-97511000D01*
X153598631Y-97511000D01*
X153596740Y-97501447D01*
X153595588Y-97497726D01*
X153536575Y-97311696D01*
X153526611Y-97288448D01*
X153516977Y-97265075D01*
X153515125Y-97261649D01*
X153421102Y-97090623D01*
X153406826Y-97069774D01*
X153392823Y-97048697D01*
X153390340Y-97045696D01*
X153264890Y-96896190D01*
X153246817Y-96878492D01*
X153229003Y-96860553D01*
X153225985Y-96858091D01*
X153073885Y-96735800D01*
X153052732Y-96721959D01*
X153034000Y-96709324D01*
X153034000Y-96368891D01*
X160165019Y-96368891D01*
X160262343Y-96643252D01*
X160411322Y-96893355D01*
X160606231Y-97109588D01*
X160839580Y-97283641D01*
X161102401Y-97408825D01*
X161249610Y-97453476D01*
X161479500Y-97332155D01*
X161479500Y-96139000D01*
X160285686Y-96139000D01*
X160165019Y-96368891D01*
X153034000Y-96368891D01*
X153034000Y-95758038D01*
X153043391Y-95752960D01*
X153064323Y-95738841D01*
X153085516Y-95724973D01*
X153088535Y-95722511D01*
X153238912Y-95598107D01*
X153256689Y-95580205D01*
X153274798Y-95562472D01*
X153277280Y-95559470D01*
X153400631Y-95408228D01*
X153414624Y-95387167D01*
X153428911Y-95366301D01*
X153430764Y-95362874D01*
X153522389Y-95190552D01*
X153532011Y-95167207D01*
X153541987Y-95143931D01*
X153543138Y-95140210D01*
X153599547Y-94953373D01*
X153604456Y-94928583D01*
X153609716Y-94903834D01*
X153610123Y-94899960D01*
X153619385Y-94805500D01*
X160752247Y-94805500D01*
X160606231Y-94914412D01*
G37*
X160606231Y-94914412D02*
X160411322Y-95130645D01*
X160262343Y-95380748D01*
X160165019Y-95655109D01*
X160285686Y-95885000D01*
X161479500Y-95885000D01*
X161479500Y-95865000D01*
X161733500Y-95865000D01*
X161733500Y-95885000D01*
X161753500Y-95885000D01*
X161753500Y-96139000D01*
X161733500Y-96139000D01*
X161733500Y-97332155D01*
X161963390Y-97453476D01*
X162110599Y-97408825D01*
X162373420Y-97283641D01*
X162606769Y-97109588D01*
X162801678Y-96893355D01*
X162950657Y-96643252D01*
X163035236Y-96404821D01*
X163103456Y-96569519D01*
X163232264Y-96762294D01*
X163396206Y-96926236D01*
X163588981Y-97055044D01*
X163803182Y-97143769D01*
X164030576Y-97189000D01*
X164262424Y-97189000D01*
X164489818Y-97143769D01*
X164704019Y-97055044D01*
X164896794Y-96926236D01*
X165060736Y-96762294D01*
X165189544Y-96569519D01*
X165278269Y-96355318D01*
X165323500Y-96127924D01*
X165323500Y-95896076D01*
X165278269Y-95668682D01*
X165189544Y-95454481D01*
X165060736Y-95261706D01*
X164961030Y-95162000D01*
X165507918Y-95162000D01*
X165507918Y-96862000D01*
X165514232Y-96926103D01*
X165532930Y-96987743D01*
X165563294Y-97044550D01*
X165604157Y-97094343D01*
X165653950Y-97135206D01*
X165710757Y-97165570D01*
X165772397Y-97184268D01*
X165836500Y-97190582D01*
X167536500Y-97190582D01*
X167600603Y-97184268D01*
X167662243Y-97165570D01*
X167719050Y-97135206D01*
X167768843Y-97094343D01*
X167809706Y-97044550D01*
X167840070Y-96987743D01*
X167858768Y-96926103D01*
X167865082Y-96862000D01*
X167865082Y-95162000D01*
X167858768Y-95097897D01*
X167840070Y-95036257D01*
X167809706Y-94979450D01*
X167768843Y-94929657D01*
X167719050Y-94888794D01*
X167662243Y-94858430D01*
X167600603Y-94839732D01*
X167536500Y-94833418D01*
X165836500Y-94833418D01*
X165772397Y-94839732D01*
X165710757Y-94858430D01*
X165653950Y-94888794D01*
X165604157Y-94929657D01*
X165563294Y-94979450D01*
X165532930Y-95036257D01*
X165514232Y-95097897D01*
X165507918Y-95162000D01*
X164961030Y-95162000D01*
X164896794Y-95097764D01*
X164704019Y-94968956D01*
X164489818Y-94880231D01*
X164262424Y-94835000D01*
X164030576Y-94835000D01*
X163803182Y-94880231D01*
X163588981Y-94968956D01*
X163396206Y-95097764D01*
X163232264Y-95261706D01*
X163103456Y-95454481D01*
X163035236Y-95619179D01*
X162950657Y-95380748D01*
X162801678Y-95130645D01*
X162606769Y-94914412D01*
X162460753Y-94805500D01*
X173403527Y-94805500D01*
X173416091Y-94917512D01*
X173421346Y-94942233D01*
X173426260Y-94967053D01*
X173427412Y-94970774D01*
X173486425Y-95156804D01*
X173496389Y-95180052D01*
X173506023Y-95203425D01*
X173507876Y-95206852D01*
X173601898Y-95377877D01*
X173616184Y-95398742D01*
X173630177Y-95419803D01*
X173632660Y-95422804D01*
X173758110Y-95572310D01*
X173776147Y-95589973D01*
X173793996Y-95607947D01*
X173797015Y-95610409D01*
X173949115Y-95732699D01*
X173970208Y-95746501D01*
X173991237Y-95760686D01*
X173994677Y-95762514D01*
X174167632Y-95852934D01*
X174191069Y-95862403D01*
X174214392Y-95872207D01*
X174218121Y-95873333D01*
X174405346Y-95928436D01*
X174430171Y-95933171D01*
X174454955Y-95938259D01*
X174458832Y-95938639D01*
X174653193Y-95956328D01*
X174678481Y-95956151D01*
X174703769Y-95956328D01*
X174707645Y-95955948D01*
X174901742Y-95935547D01*
X174926520Y-95930460D01*
X174951351Y-95925724D01*
X174955080Y-95924598D01*
X175141518Y-95866886D01*
X175164829Y-95857087D01*
X175188276Y-95847614D01*
X175191715Y-95845785D01*
X175363391Y-95752960D01*
X175384323Y-95738841D01*
X175405516Y-95724973D01*
X175408535Y-95722511D01*
X175558912Y-95598107D01*
X175576689Y-95580205D01*
X175594798Y-95562472D01*
X175597280Y-95559470D01*
X175720631Y-95408228D01*
X175734624Y-95387167D01*
X175748911Y-95366301D01*
X175750764Y-95362874D01*
X175767000Y-95332338D01*
X175767000Y-97137731D01*
X175741102Y-97090623D01*
X175726826Y-97069774D01*
X175712823Y-97048697D01*
X175710340Y-97045696D01*
X175584890Y-96896190D01*
X175566817Y-96878492D01*
X175549003Y-96860553D01*
X175545985Y-96858091D01*
X175393885Y-96735800D01*
X175372732Y-96721959D01*
X175351762Y-96707814D01*
X175348323Y-96705985D01*
X175175367Y-96615566D01*
X175151928Y-96606096D01*
X175128608Y-96596293D01*
X175124879Y-96595167D01*
X174937653Y-96540064D01*
X174912836Y-96535330D01*
X174888045Y-96530241D01*
X174884168Y-96529861D01*
X174689806Y-96512172D01*
X174664519Y-96512349D01*
X174639231Y-96512172D01*
X174635355Y-96512552D01*
X174441258Y-96532953D01*
X174416487Y-96538038D01*
X174391648Y-96542776D01*
X174387920Y-96543902D01*
X174201482Y-96601614D01*
X174178171Y-96611413D01*
X174154724Y-96620886D01*
X174151285Y-96622715D01*
X173979608Y-96715540D01*
X173958692Y-96729649D01*
X173937483Y-96743527D01*
X173934465Y-96745989D01*
X173784087Y-96870393D01*
X173766291Y-96888314D01*
X173748202Y-96906028D01*
X173745720Y-96909030D01*
X173622370Y-97060272D01*
X173608379Y-97081330D01*
X173594089Y-97102199D01*
X173592237Y-97105625D01*
X173500611Y-97277948D01*
X173490959Y-97301365D01*
X173481014Y-97324569D01*
X173479862Y-97328290D01*
X173424699Y-97511000D01*
X153598631Y-97511000D01*
X153596740Y-97501447D01*
X153595588Y-97497726D01*
X153536575Y-97311696D01*
X153526611Y-97288448D01*
X153516977Y-97265075D01*
X153515125Y-97261649D01*
X153421102Y-97090623D01*
X153406826Y-97069774D01*
X153392823Y-97048697D01*
X153390340Y-97045696D01*
X153264890Y-96896190D01*
X153246817Y-96878492D01*
X153229003Y-96860553D01*
X153225985Y-96858091D01*
X153073885Y-96735800D01*
X153052732Y-96721959D01*
X153034000Y-96709324D01*
X153034000Y-96368891D01*
X160165019Y-96368891D01*
X160262343Y-96643252D01*
X160411322Y-96893355D01*
X160606231Y-97109588D01*
X160839580Y-97283641D01*
X161102401Y-97408825D01*
X161249610Y-97453476D01*
X161479500Y-97332155D01*
X161479500Y-96139000D01*
X160285686Y-96139000D01*
X160165019Y-96368891D01*
X153034000Y-96368891D01*
X153034000Y-95758038D01*
X153043391Y-95752960D01*
X153064323Y-95738841D01*
X153085516Y-95724973D01*
X153088535Y-95722511D01*
X153238912Y-95598107D01*
X153256689Y-95580205D01*
X153274798Y-95562472D01*
X153277280Y-95559470D01*
X153400631Y-95408228D01*
X153414624Y-95387167D01*
X153428911Y-95366301D01*
X153430764Y-95362874D01*
X153522389Y-95190552D01*
X153532011Y-95167207D01*
X153541987Y-95143931D01*
X153543138Y-95140210D01*
X153599547Y-94953373D01*
X153604456Y-94928583D01*
X153609716Y-94903834D01*
X153610123Y-94899960D01*
X153619385Y-94805500D01*
X160752247Y-94805500D01*
X160606231Y-94914412D01*
G36*
X182926231Y-94914412D02*
G01*
X182731322Y-95130645D01*
X182582343Y-95380748D01*
X182485019Y-95655109D01*
X182605686Y-95885000D01*
X183799500Y-95885000D01*
X183799500Y-95865000D01*
X184053500Y-95865000D01*
X184053500Y-95885000D01*
X184073500Y-95885000D01*
X184073500Y-96139000D01*
X184053500Y-96139000D01*
X184053500Y-97332155D01*
X184283390Y-97453476D01*
X184430599Y-97408825D01*
X184693420Y-97283641D01*
X184926769Y-97109588D01*
X185121678Y-96893355D01*
X185270657Y-96643252D01*
X185355236Y-96404821D01*
X185423456Y-96569519D01*
X185552264Y-96762294D01*
X185716206Y-96926236D01*
X185908981Y-97055044D01*
X186123182Y-97143769D01*
X186350576Y-97189000D01*
X186582424Y-97189000D01*
X186809818Y-97143769D01*
X187024019Y-97055044D01*
X187216794Y-96926236D01*
X187380736Y-96762294D01*
X187509544Y-96569519D01*
X187598269Y-96355318D01*
X187643500Y-96127924D01*
X187643500Y-95896076D01*
X187598269Y-95668682D01*
X187509544Y-95454481D01*
X187380736Y-95261706D01*
X187281030Y-95162000D01*
X187827918Y-95162000D01*
X187827918Y-96862000D01*
X187834232Y-96926103D01*
X187852930Y-96987743D01*
X187883294Y-97044550D01*
X187924157Y-97094343D01*
X187973950Y-97135206D01*
X188030757Y-97165570D01*
X188092397Y-97184268D01*
X188156500Y-97190582D01*
X189856500Y-97190582D01*
X189920603Y-97184268D01*
X189982243Y-97165570D01*
X190039050Y-97135206D01*
X190088843Y-97094343D01*
X190129706Y-97044550D01*
X190160070Y-96987743D01*
X190178768Y-96926103D01*
X190185082Y-96862000D01*
X190185082Y-95162000D01*
X190178768Y-95097897D01*
X190160070Y-95036257D01*
X190129706Y-94979450D01*
X190088843Y-94929657D01*
X190039050Y-94888794D01*
X189982243Y-94858430D01*
X189920603Y-94839732D01*
X189856500Y-94833418D01*
X188156500Y-94833418D01*
X188092397Y-94839732D01*
X188030757Y-94858430D01*
X187973950Y-94888794D01*
X187924157Y-94929657D01*
X187883294Y-94979450D01*
X187852930Y-95036257D01*
X187834232Y-95097897D01*
X187827918Y-95162000D01*
X187281030Y-95162000D01*
X187216794Y-95097764D01*
X187024019Y-94968956D01*
X186809818Y-94880231D01*
X186582424Y-94835000D01*
X186350576Y-94835000D01*
X186123182Y-94880231D01*
X185908981Y-94968956D01*
X185716206Y-95097764D01*
X185552264Y-95261706D01*
X185423456Y-95454481D01*
X185355236Y-95619179D01*
X185270657Y-95380748D01*
X185121678Y-95130645D01*
X184926769Y-94914412D01*
X184780753Y-94805500D01*
X195723527Y-94805500D01*
X195736091Y-94917512D01*
X195741346Y-94942233D01*
X195746260Y-94967053D01*
X195747412Y-94970774D01*
X195806425Y-95156804D01*
X195816389Y-95180052D01*
X195826023Y-95203425D01*
X195827876Y-95206852D01*
X195921898Y-95377877D01*
X195936184Y-95398742D01*
X195950177Y-95419803D01*
X195952660Y-95422804D01*
X196078110Y-95572310D01*
X196096147Y-95589973D01*
X196113996Y-95607947D01*
X196117015Y-95610409D01*
X196269115Y-95732699D01*
X196290208Y-95746501D01*
X196311237Y-95760686D01*
X196314677Y-95762514D01*
X196487632Y-95852934D01*
X196511069Y-95862403D01*
X196534392Y-95872207D01*
X196538121Y-95873333D01*
X196725346Y-95928436D01*
X196750171Y-95933171D01*
X196774955Y-95938259D01*
X196778832Y-95938639D01*
X196973193Y-95956328D01*
X196998481Y-95956151D01*
X197023769Y-95956328D01*
X197027645Y-95955948D01*
X197221742Y-95935547D01*
X197246520Y-95930460D01*
X197271351Y-95925724D01*
X197275080Y-95924598D01*
X197461518Y-95866886D01*
X197484829Y-95857087D01*
X197508276Y-95847614D01*
X197511715Y-95845785D01*
X197683391Y-95752960D01*
X197704323Y-95738841D01*
X197725516Y-95724973D01*
X197728535Y-95722511D01*
X197878912Y-95598107D01*
X197896689Y-95580205D01*
X197914798Y-95562472D01*
X197917280Y-95559470D01*
X198040631Y-95408228D01*
X198054624Y-95387167D01*
X198068911Y-95366301D01*
X198070764Y-95362874D01*
X198087000Y-95332338D01*
X198087000Y-97137731D01*
X198061102Y-97090623D01*
X198046826Y-97069774D01*
X198032823Y-97048697D01*
X198030340Y-97045696D01*
X197904890Y-96896190D01*
X197886817Y-96878492D01*
X197869003Y-96860553D01*
X197865985Y-96858091D01*
X197713885Y-96735800D01*
X197692732Y-96721959D01*
X197671762Y-96707814D01*
X197668323Y-96705985D01*
X197495367Y-96615566D01*
X197471928Y-96606096D01*
X197448608Y-96596293D01*
X197444879Y-96595167D01*
X197257653Y-96540064D01*
X197232836Y-96535330D01*
X197208045Y-96530241D01*
X197204168Y-96529861D01*
X197009806Y-96512172D01*
X196984519Y-96512349D01*
X196959231Y-96512172D01*
X196955355Y-96512552D01*
X196761258Y-96532953D01*
X196736487Y-96538038D01*
X196711648Y-96542776D01*
X196707920Y-96543902D01*
X196521482Y-96601614D01*
X196498171Y-96611413D01*
X196474724Y-96620886D01*
X196471285Y-96622715D01*
X196299608Y-96715540D01*
X196278692Y-96729649D01*
X196257483Y-96743527D01*
X196254465Y-96745989D01*
X196104087Y-96870393D01*
X196086291Y-96888314D01*
X196068202Y-96906028D01*
X196065720Y-96909030D01*
X195942370Y-97060272D01*
X195928379Y-97081330D01*
X195914089Y-97102199D01*
X195912237Y-97105625D01*
X195820611Y-97277948D01*
X195810959Y-97301365D01*
X195801014Y-97324569D01*
X195799862Y-97328290D01*
X195744699Y-97511000D01*
X175918631Y-97511000D01*
X175916740Y-97501447D01*
X175915588Y-97497726D01*
X175856575Y-97311696D01*
X175846611Y-97288448D01*
X175836977Y-97265075D01*
X175835125Y-97261649D01*
X175741102Y-97090623D01*
X175726826Y-97069774D01*
X175712823Y-97048697D01*
X175710340Y-97045696D01*
X175584890Y-96896190D01*
X175566817Y-96878492D01*
X175549003Y-96860553D01*
X175545985Y-96858091D01*
X175393885Y-96735800D01*
X175372732Y-96721959D01*
X175354000Y-96709324D01*
X175354000Y-96368891D01*
X182485019Y-96368891D01*
X182582343Y-96643252D01*
X182731322Y-96893355D01*
X182926231Y-97109588D01*
X183159580Y-97283641D01*
X183422401Y-97408825D01*
X183569610Y-97453476D01*
X183799500Y-97332155D01*
X183799500Y-96139000D01*
X182605686Y-96139000D01*
X182485019Y-96368891D01*
X175354000Y-96368891D01*
X175354000Y-95758038D01*
X175363391Y-95752960D01*
X175384323Y-95738841D01*
X175405516Y-95724973D01*
X175408535Y-95722511D01*
X175558912Y-95598107D01*
X175576689Y-95580205D01*
X175594798Y-95562472D01*
X175597280Y-95559470D01*
X175720631Y-95408228D01*
X175734624Y-95387167D01*
X175748911Y-95366301D01*
X175750764Y-95362874D01*
X175842389Y-95190552D01*
X175852011Y-95167207D01*
X175861987Y-95143931D01*
X175863138Y-95140210D01*
X175919547Y-94953373D01*
X175924456Y-94928583D01*
X175929716Y-94903834D01*
X175930123Y-94899960D01*
X175939385Y-94805500D01*
X183072247Y-94805500D01*
X182926231Y-94914412D01*
G37*
X182926231Y-94914412D02*
X182731322Y-95130645D01*
X182582343Y-95380748D01*
X182485019Y-95655109D01*
X182605686Y-95885000D01*
X183799500Y-95885000D01*
X183799500Y-95865000D01*
X184053500Y-95865000D01*
X184053500Y-95885000D01*
X184073500Y-95885000D01*
X184073500Y-96139000D01*
X184053500Y-96139000D01*
X184053500Y-97332155D01*
X184283390Y-97453476D01*
X184430599Y-97408825D01*
X184693420Y-97283641D01*
X184926769Y-97109588D01*
X185121678Y-96893355D01*
X185270657Y-96643252D01*
X185355236Y-96404821D01*
X185423456Y-96569519D01*
X185552264Y-96762294D01*
X185716206Y-96926236D01*
X185908981Y-97055044D01*
X186123182Y-97143769D01*
X186350576Y-97189000D01*
X186582424Y-97189000D01*
X186809818Y-97143769D01*
X187024019Y-97055044D01*
X187216794Y-96926236D01*
X187380736Y-96762294D01*
X187509544Y-96569519D01*
X187598269Y-96355318D01*
X187643500Y-96127924D01*
X187643500Y-95896076D01*
X187598269Y-95668682D01*
X187509544Y-95454481D01*
X187380736Y-95261706D01*
X187281030Y-95162000D01*
X187827918Y-95162000D01*
X187827918Y-96862000D01*
X187834232Y-96926103D01*
X187852930Y-96987743D01*
X187883294Y-97044550D01*
X187924157Y-97094343D01*
X187973950Y-97135206D01*
X188030757Y-97165570D01*
X188092397Y-97184268D01*
X188156500Y-97190582D01*
X189856500Y-97190582D01*
X189920603Y-97184268D01*
X189982243Y-97165570D01*
X190039050Y-97135206D01*
X190088843Y-97094343D01*
X190129706Y-97044550D01*
X190160070Y-96987743D01*
X190178768Y-96926103D01*
X190185082Y-96862000D01*
X190185082Y-95162000D01*
X190178768Y-95097897D01*
X190160070Y-95036257D01*
X190129706Y-94979450D01*
X190088843Y-94929657D01*
X190039050Y-94888794D01*
X189982243Y-94858430D01*
X189920603Y-94839732D01*
X189856500Y-94833418D01*
X188156500Y-94833418D01*
X188092397Y-94839732D01*
X188030757Y-94858430D01*
X187973950Y-94888794D01*
X187924157Y-94929657D01*
X187883294Y-94979450D01*
X187852930Y-95036257D01*
X187834232Y-95097897D01*
X187827918Y-95162000D01*
X187281030Y-95162000D01*
X187216794Y-95097764D01*
X187024019Y-94968956D01*
X186809818Y-94880231D01*
X186582424Y-94835000D01*
X186350576Y-94835000D01*
X186123182Y-94880231D01*
X185908981Y-94968956D01*
X185716206Y-95097764D01*
X185552264Y-95261706D01*
X185423456Y-95454481D01*
X185355236Y-95619179D01*
X185270657Y-95380748D01*
X185121678Y-95130645D01*
X184926769Y-94914412D01*
X184780753Y-94805500D01*
X195723527Y-94805500D01*
X195736091Y-94917512D01*
X195741346Y-94942233D01*
X195746260Y-94967053D01*
X195747412Y-94970774D01*
X195806425Y-95156804D01*
X195816389Y-95180052D01*
X195826023Y-95203425D01*
X195827876Y-95206852D01*
X195921898Y-95377877D01*
X195936184Y-95398742D01*
X195950177Y-95419803D01*
X195952660Y-95422804D01*
X196078110Y-95572310D01*
X196096147Y-95589973D01*
X196113996Y-95607947D01*
X196117015Y-95610409D01*
X196269115Y-95732699D01*
X196290208Y-95746501D01*
X196311237Y-95760686D01*
X196314677Y-95762514D01*
X196487632Y-95852934D01*
X196511069Y-95862403D01*
X196534392Y-95872207D01*
X196538121Y-95873333D01*
X196725346Y-95928436D01*
X196750171Y-95933171D01*
X196774955Y-95938259D01*
X196778832Y-95938639D01*
X196973193Y-95956328D01*
X196998481Y-95956151D01*
X197023769Y-95956328D01*
X197027645Y-95955948D01*
X197221742Y-95935547D01*
X197246520Y-95930460D01*
X197271351Y-95925724D01*
X197275080Y-95924598D01*
X197461518Y-95866886D01*
X197484829Y-95857087D01*
X197508276Y-95847614D01*
X197511715Y-95845785D01*
X197683391Y-95752960D01*
X197704323Y-95738841D01*
X197725516Y-95724973D01*
X197728535Y-95722511D01*
X197878912Y-95598107D01*
X197896689Y-95580205D01*
X197914798Y-95562472D01*
X197917280Y-95559470D01*
X198040631Y-95408228D01*
X198054624Y-95387167D01*
X198068911Y-95366301D01*
X198070764Y-95362874D01*
X198087000Y-95332338D01*
X198087000Y-97137731D01*
X198061102Y-97090623D01*
X198046826Y-97069774D01*
X198032823Y-97048697D01*
X198030340Y-97045696D01*
X197904890Y-96896190D01*
X197886817Y-96878492D01*
X197869003Y-96860553D01*
X197865985Y-96858091D01*
X197713885Y-96735800D01*
X197692732Y-96721959D01*
X197671762Y-96707814D01*
X197668323Y-96705985D01*
X197495367Y-96615566D01*
X197471928Y-96606096D01*
X197448608Y-96596293D01*
X197444879Y-96595167D01*
X197257653Y-96540064D01*
X197232836Y-96535330D01*
X197208045Y-96530241D01*
X197204168Y-96529861D01*
X197009806Y-96512172D01*
X196984519Y-96512349D01*
X196959231Y-96512172D01*
X196955355Y-96512552D01*
X196761258Y-96532953D01*
X196736487Y-96538038D01*
X196711648Y-96542776D01*
X196707920Y-96543902D01*
X196521482Y-96601614D01*
X196498171Y-96611413D01*
X196474724Y-96620886D01*
X196471285Y-96622715D01*
X196299608Y-96715540D01*
X196278692Y-96729649D01*
X196257483Y-96743527D01*
X196254465Y-96745989D01*
X196104087Y-96870393D01*
X196086291Y-96888314D01*
X196068202Y-96906028D01*
X196065720Y-96909030D01*
X195942370Y-97060272D01*
X195928379Y-97081330D01*
X195914089Y-97102199D01*
X195912237Y-97105625D01*
X195820611Y-97277948D01*
X195810959Y-97301365D01*
X195801014Y-97324569D01*
X195799862Y-97328290D01*
X195744699Y-97511000D01*
X175918631Y-97511000D01*
X175916740Y-97501447D01*
X175915588Y-97497726D01*
X175856575Y-97311696D01*
X175846611Y-97288448D01*
X175836977Y-97265075D01*
X175835125Y-97261649D01*
X175741102Y-97090623D01*
X175726826Y-97069774D01*
X175712823Y-97048697D01*
X175710340Y-97045696D01*
X175584890Y-96896190D01*
X175566817Y-96878492D01*
X175549003Y-96860553D01*
X175545985Y-96858091D01*
X175393885Y-96735800D01*
X175372732Y-96721959D01*
X175354000Y-96709324D01*
X175354000Y-96368891D01*
X182485019Y-96368891D01*
X182582343Y-96643252D01*
X182731322Y-96893355D01*
X182926231Y-97109588D01*
X183159580Y-97283641D01*
X183422401Y-97408825D01*
X183569610Y-97453476D01*
X183799500Y-97332155D01*
X183799500Y-96139000D01*
X182605686Y-96139000D01*
X182485019Y-96368891D01*
X175354000Y-96368891D01*
X175354000Y-95758038D01*
X175363391Y-95752960D01*
X175384323Y-95738841D01*
X175405516Y-95724973D01*
X175408535Y-95722511D01*
X175558912Y-95598107D01*
X175576689Y-95580205D01*
X175594798Y-95562472D01*
X175597280Y-95559470D01*
X175720631Y-95408228D01*
X175734624Y-95387167D01*
X175748911Y-95366301D01*
X175750764Y-95362874D01*
X175842389Y-95190552D01*
X175852011Y-95167207D01*
X175861987Y-95143931D01*
X175863138Y-95140210D01*
X175919547Y-94953373D01*
X175924456Y-94928583D01*
X175929716Y-94903834D01*
X175930123Y-94899960D01*
X175939385Y-94805500D01*
X183072247Y-94805500D01*
X182926231Y-94914412D01*
G36*
X205246231Y-94914412D02*
G01*
X205051322Y-95130645D01*
X204902343Y-95380748D01*
X204805019Y-95655109D01*
X204925686Y-95885000D01*
X206119500Y-95885000D01*
X206119500Y-95865000D01*
X206373500Y-95865000D01*
X206373500Y-95885000D01*
X206393500Y-95885000D01*
X206393500Y-96139000D01*
X206373500Y-96139000D01*
X206373500Y-97332155D01*
X206603390Y-97453476D01*
X206750599Y-97408825D01*
X207013420Y-97283641D01*
X207246769Y-97109588D01*
X207441678Y-96893355D01*
X207590657Y-96643252D01*
X207675236Y-96404821D01*
X207743456Y-96569519D01*
X207872264Y-96762294D01*
X208036206Y-96926236D01*
X208228981Y-97055044D01*
X208443182Y-97143769D01*
X208670576Y-97189000D01*
X208902424Y-97189000D01*
X209129818Y-97143769D01*
X209344019Y-97055044D01*
X209536794Y-96926236D01*
X209700736Y-96762294D01*
X209829544Y-96569519D01*
X209918269Y-96355318D01*
X209963500Y-96127924D01*
X209963500Y-95896076D01*
X209918269Y-95668682D01*
X209829544Y-95454481D01*
X209700736Y-95261706D01*
X209601030Y-95162000D01*
X210147918Y-95162000D01*
X210147918Y-96862000D01*
X210154232Y-96926103D01*
X210172930Y-96987743D01*
X210203294Y-97044550D01*
X210244157Y-97094343D01*
X210293950Y-97135206D01*
X210350757Y-97165570D01*
X210412397Y-97184268D01*
X210476500Y-97190582D01*
X212176500Y-97190582D01*
X212240603Y-97184268D01*
X212302243Y-97165570D01*
X212359050Y-97135206D01*
X212408843Y-97094343D01*
X212449706Y-97044550D01*
X212480070Y-96987743D01*
X212498768Y-96926103D01*
X212505082Y-96862000D01*
X212505082Y-95162000D01*
X212498768Y-95097897D01*
X212480070Y-95036257D01*
X212449706Y-94979450D01*
X212408843Y-94929657D01*
X212359050Y-94888794D01*
X212302243Y-94858430D01*
X212240603Y-94839732D01*
X212176500Y-94833418D01*
X210476500Y-94833418D01*
X210412397Y-94839732D01*
X210350757Y-94858430D01*
X210293950Y-94888794D01*
X210244157Y-94929657D01*
X210203294Y-94979450D01*
X210172930Y-95036257D01*
X210154232Y-95097897D01*
X210147918Y-95162000D01*
X209601030Y-95162000D01*
X209536794Y-95097764D01*
X209344019Y-94968956D01*
X209129818Y-94880231D01*
X208902424Y-94835000D01*
X208670576Y-94835000D01*
X208443182Y-94880231D01*
X208228981Y-94968956D01*
X208036206Y-95097764D01*
X207872264Y-95261706D01*
X207743456Y-95454481D01*
X207675236Y-95619179D01*
X207590657Y-95380748D01*
X207441678Y-95130645D01*
X207246769Y-94914412D01*
X207100753Y-94805500D01*
X218043527Y-94805500D01*
X218056091Y-94917512D01*
X218061346Y-94942233D01*
X218066260Y-94967053D01*
X218067412Y-94970774D01*
X218126425Y-95156804D01*
X218136389Y-95180052D01*
X218146023Y-95203425D01*
X218147876Y-95206852D01*
X218241898Y-95377877D01*
X218256184Y-95398742D01*
X218270177Y-95419803D01*
X218272660Y-95422804D01*
X218398110Y-95572310D01*
X218416147Y-95589973D01*
X218433996Y-95607947D01*
X218437015Y-95610409D01*
X218589115Y-95732699D01*
X218610208Y-95746501D01*
X218631237Y-95760686D01*
X218634677Y-95762514D01*
X218807632Y-95852934D01*
X218831069Y-95862403D01*
X218854392Y-95872207D01*
X218858121Y-95873333D01*
X219045346Y-95928436D01*
X219070171Y-95933171D01*
X219094955Y-95938259D01*
X219098832Y-95938639D01*
X219293193Y-95956328D01*
X219318481Y-95956151D01*
X219343769Y-95956328D01*
X219347645Y-95955948D01*
X219541742Y-95935547D01*
X219566520Y-95930460D01*
X219591351Y-95925724D01*
X219595080Y-95924598D01*
X219781518Y-95866886D01*
X219804829Y-95857087D01*
X219828276Y-95847614D01*
X219831715Y-95845785D01*
X220003391Y-95752960D01*
X220024323Y-95738841D01*
X220045516Y-95724973D01*
X220048535Y-95722511D01*
X220198912Y-95598107D01*
X220216689Y-95580205D01*
X220234798Y-95562472D01*
X220237280Y-95559470D01*
X220360631Y-95408228D01*
X220374624Y-95387167D01*
X220388911Y-95366301D01*
X220390764Y-95362874D01*
X220407000Y-95332338D01*
X220407000Y-97137731D01*
X220381102Y-97090623D01*
X220366826Y-97069774D01*
X220352823Y-97048697D01*
X220350340Y-97045696D01*
X220224890Y-96896190D01*
X220206817Y-96878492D01*
X220189003Y-96860553D01*
X220185985Y-96858091D01*
X220033885Y-96735800D01*
X220012732Y-96721959D01*
X219991762Y-96707814D01*
X219988323Y-96705985D01*
X219815367Y-96615566D01*
X219791928Y-96606096D01*
X219768608Y-96596293D01*
X219764879Y-96595167D01*
X219577653Y-96540064D01*
X219552836Y-96535330D01*
X219528045Y-96530241D01*
X219524168Y-96529861D01*
X219329806Y-96512172D01*
X219304519Y-96512349D01*
X219279231Y-96512172D01*
X219275355Y-96512552D01*
X219081258Y-96532953D01*
X219056487Y-96538038D01*
X219031648Y-96542776D01*
X219027920Y-96543902D01*
X218841482Y-96601614D01*
X218818171Y-96611413D01*
X218794724Y-96620886D01*
X218791285Y-96622715D01*
X218619608Y-96715540D01*
X218598692Y-96729649D01*
X218577483Y-96743527D01*
X218574465Y-96745989D01*
X218424087Y-96870393D01*
X218406291Y-96888314D01*
X218388202Y-96906028D01*
X218385720Y-96909030D01*
X218262370Y-97060272D01*
X218248379Y-97081330D01*
X218234089Y-97102199D01*
X218232237Y-97105625D01*
X218140611Y-97277948D01*
X218130959Y-97301365D01*
X218121014Y-97324569D01*
X218119862Y-97328290D01*
X218064699Y-97511000D01*
X198238631Y-97511000D01*
X198236740Y-97501447D01*
X198235588Y-97497726D01*
X198176575Y-97311696D01*
X198166611Y-97288448D01*
X198156977Y-97265075D01*
X198155125Y-97261649D01*
X198061102Y-97090623D01*
X198046826Y-97069774D01*
X198032823Y-97048697D01*
X198030340Y-97045696D01*
X197904890Y-96896190D01*
X197886817Y-96878492D01*
X197869003Y-96860553D01*
X197865985Y-96858091D01*
X197713885Y-96735800D01*
X197692732Y-96721959D01*
X197674000Y-96709324D01*
X197674000Y-96368891D01*
X204805019Y-96368891D01*
X204902343Y-96643252D01*
X205051322Y-96893355D01*
X205246231Y-97109588D01*
X205479580Y-97283641D01*
X205742401Y-97408825D01*
X205889610Y-97453476D01*
X206119500Y-97332155D01*
X206119500Y-96139000D01*
X204925686Y-96139000D01*
X204805019Y-96368891D01*
X197674000Y-96368891D01*
X197674000Y-95758038D01*
X197683391Y-95752960D01*
X197704323Y-95738841D01*
X197725516Y-95724973D01*
X197728535Y-95722511D01*
X197878912Y-95598107D01*
X197896689Y-95580205D01*
X197914798Y-95562472D01*
X197917280Y-95559470D01*
X198040631Y-95408228D01*
X198054624Y-95387167D01*
X198068911Y-95366301D01*
X198070764Y-95362874D01*
X198162389Y-95190552D01*
X198172011Y-95167207D01*
X198181987Y-95143931D01*
X198183138Y-95140210D01*
X198239547Y-94953373D01*
X198244456Y-94928583D01*
X198249716Y-94903834D01*
X198250123Y-94899960D01*
X198259385Y-94805500D01*
X205392247Y-94805500D01*
X205246231Y-94914412D01*
G37*
X205246231Y-94914412D02*
X205051322Y-95130645D01*
X204902343Y-95380748D01*
X204805019Y-95655109D01*
X204925686Y-95885000D01*
X206119500Y-95885000D01*
X206119500Y-95865000D01*
X206373500Y-95865000D01*
X206373500Y-95885000D01*
X206393500Y-95885000D01*
X206393500Y-96139000D01*
X206373500Y-96139000D01*
X206373500Y-97332155D01*
X206603390Y-97453476D01*
X206750599Y-97408825D01*
X207013420Y-97283641D01*
X207246769Y-97109588D01*
X207441678Y-96893355D01*
X207590657Y-96643252D01*
X207675236Y-96404821D01*
X207743456Y-96569519D01*
X207872264Y-96762294D01*
X208036206Y-96926236D01*
X208228981Y-97055044D01*
X208443182Y-97143769D01*
X208670576Y-97189000D01*
X208902424Y-97189000D01*
X209129818Y-97143769D01*
X209344019Y-97055044D01*
X209536794Y-96926236D01*
X209700736Y-96762294D01*
X209829544Y-96569519D01*
X209918269Y-96355318D01*
X209963500Y-96127924D01*
X209963500Y-95896076D01*
X209918269Y-95668682D01*
X209829544Y-95454481D01*
X209700736Y-95261706D01*
X209601030Y-95162000D01*
X210147918Y-95162000D01*
X210147918Y-96862000D01*
X210154232Y-96926103D01*
X210172930Y-96987743D01*
X210203294Y-97044550D01*
X210244157Y-97094343D01*
X210293950Y-97135206D01*
X210350757Y-97165570D01*
X210412397Y-97184268D01*
X210476500Y-97190582D01*
X212176500Y-97190582D01*
X212240603Y-97184268D01*
X212302243Y-97165570D01*
X212359050Y-97135206D01*
X212408843Y-97094343D01*
X212449706Y-97044550D01*
X212480070Y-96987743D01*
X212498768Y-96926103D01*
X212505082Y-96862000D01*
X212505082Y-95162000D01*
X212498768Y-95097897D01*
X212480070Y-95036257D01*
X212449706Y-94979450D01*
X212408843Y-94929657D01*
X212359050Y-94888794D01*
X212302243Y-94858430D01*
X212240603Y-94839732D01*
X212176500Y-94833418D01*
X210476500Y-94833418D01*
X210412397Y-94839732D01*
X210350757Y-94858430D01*
X210293950Y-94888794D01*
X210244157Y-94929657D01*
X210203294Y-94979450D01*
X210172930Y-95036257D01*
X210154232Y-95097897D01*
X210147918Y-95162000D01*
X209601030Y-95162000D01*
X209536794Y-95097764D01*
X209344019Y-94968956D01*
X209129818Y-94880231D01*
X208902424Y-94835000D01*
X208670576Y-94835000D01*
X208443182Y-94880231D01*
X208228981Y-94968956D01*
X208036206Y-95097764D01*
X207872264Y-95261706D01*
X207743456Y-95454481D01*
X207675236Y-95619179D01*
X207590657Y-95380748D01*
X207441678Y-95130645D01*
X207246769Y-94914412D01*
X207100753Y-94805500D01*
X218043527Y-94805500D01*
X218056091Y-94917512D01*
X218061346Y-94942233D01*
X218066260Y-94967053D01*
X218067412Y-94970774D01*
X218126425Y-95156804D01*
X218136389Y-95180052D01*
X218146023Y-95203425D01*
X218147876Y-95206852D01*
X218241898Y-95377877D01*
X218256184Y-95398742D01*
X218270177Y-95419803D01*
X218272660Y-95422804D01*
X218398110Y-95572310D01*
X218416147Y-95589973D01*
X218433996Y-95607947D01*
X218437015Y-95610409D01*
X218589115Y-95732699D01*
X218610208Y-95746501D01*
X218631237Y-95760686D01*
X218634677Y-95762514D01*
X218807632Y-95852934D01*
X218831069Y-95862403D01*
X218854392Y-95872207D01*
X218858121Y-95873333D01*
X219045346Y-95928436D01*
X219070171Y-95933171D01*
X219094955Y-95938259D01*
X219098832Y-95938639D01*
X219293193Y-95956328D01*
X219318481Y-95956151D01*
X219343769Y-95956328D01*
X219347645Y-95955948D01*
X219541742Y-95935547D01*
X219566520Y-95930460D01*
X219591351Y-95925724D01*
X219595080Y-95924598D01*
X219781518Y-95866886D01*
X219804829Y-95857087D01*
X219828276Y-95847614D01*
X219831715Y-95845785D01*
X220003391Y-95752960D01*
X220024323Y-95738841D01*
X220045516Y-95724973D01*
X220048535Y-95722511D01*
X220198912Y-95598107D01*
X220216689Y-95580205D01*
X220234798Y-95562472D01*
X220237280Y-95559470D01*
X220360631Y-95408228D01*
X220374624Y-95387167D01*
X220388911Y-95366301D01*
X220390764Y-95362874D01*
X220407000Y-95332338D01*
X220407000Y-97137731D01*
X220381102Y-97090623D01*
X220366826Y-97069774D01*
X220352823Y-97048697D01*
X220350340Y-97045696D01*
X220224890Y-96896190D01*
X220206817Y-96878492D01*
X220189003Y-96860553D01*
X220185985Y-96858091D01*
X220033885Y-96735800D01*
X220012732Y-96721959D01*
X219991762Y-96707814D01*
X219988323Y-96705985D01*
X219815367Y-96615566D01*
X219791928Y-96606096D01*
X219768608Y-96596293D01*
X219764879Y-96595167D01*
X219577653Y-96540064D01*
X219552836Y-96535330D01*
X219528045Y-96530241D01*
X219524168Y-96529861D01*
X219329806Y-96512172D01*
X219304519Y-96512349D01*
X219279231Y-96512172D01*
X219275355Y-96512552D01*
X219081258Y-96532953D01*
X219056487Y-96538038D01*
X219031648Y-96542776D01*
X219027920Y-96543902D01*
X218841482Y-96601614D01*
X218818171Y-96611413D01*
X218794724Y-96620886D01*
X218791285Y-96622715D01*
X218619608Y-96715540D01*
X218598692Y-96729649D01*
X218577483Y-96743527D01*
X218574465Y-96745989D01*
X218424087Y-96870393D01*
X218406291Y-96888314D01*
X218388202Y-96906028D01*
X218385720Y-96909030D01*
X218262370Y-97060272D01*
X218248379Y-97081330D01*
X218234089Y-97102199D01*
X218232237Y-97105625D01*
X218140611Y-97277948D01*
X218130959Y-97301365D01*
X218121014Y-97324569D01*
X218119862Y-97328290D01*
X218064699Y-97511000D01*
X198238631Y-97511000D01*
X198236740Y-97501447D01*
X198235588Y-97497726D01*
X198176575Y-97311696D01*
X198166611Y-97288448D01*
X198156977Y-97265075D01*
X198155125Y-97261649D01*
X198061102Y-97090623D01*
X198046826Y-97069774D01*
X198032823Y-97048697D01*
X198030340Y-97045696D01*
X197904890Y-96896190D01*
X197886817Y-96878492D01*
X197869003Y-96860553D01*
X197865985Y-96858091D01*
X197713885Y-96735800D01*
X197692732Y-96721959D01*
X197674000Y-96709324D01*
X197674000Y-96368891D01*
X204805019Y-96368891D01*
X204902343Y-96643252D01*
X205051322Y-96893355D01*
X205246231Y-97109588D01*
X205479580Y-97283641D01*
X205742401Y-97408825D01*
X205889610Y-97453476D01*
X206119500Y-97332155D01*
X206119500Y-96139000D01*
X204925686Y-96139000D01*
X204805019Y-96368891D01*
X197674000Y-96368891D01*
X197674000Y-95758038D01*
X197683391Y-95752960D01*
X197704323Y-95738841D01*
X197725516Y-95724973D01*
X197728535Y-95722511D01*
X197878912Y-95598107D01*
X197896689Y-95580205D01*
X197914798Y-95562472D01*
X197917280Y-95559470D01*
X198040631Y-95408228D01*
X198054624Y-95387167D01*
X198068911Y-95366301D01*
X198070764Y-95362874D01*
X198162389Y-95190552D01*
X198172011Y-95167207D01*
X198181987Y-95143931D01*
X198183138Y-95140210D01*
X198239547Y-94953373D01*
X198244456Y-94928583D01*
X198249716Y-94903834D01*
X198250123Y-94899960D01*
X198259385Y-94805500D01*
X205392247Y-94805500D01*
X205246231Y-94914412D01*
G36*
X227566231Y-94914412D02*
G01*
X227371322Y-95130645D01*
X227222343Y-95380748D01*
X227125019Y-95655109D01*
X227245686Y-95885000D01*
X228439500Y-95885000D01*
X228439500Y-95865000D01*
X228693500Y-95865000D01*
X228693500Y-95885000D01*
X228713500Y-95885000D01*
X228713500Y-96139000D01*
X228693500Y-96139000D01*
X228693500Y-97332155D01*
X228923390Y-97453476D01*
X229070599Y-97408825D01*
X229333420Y-97283641D01*
X229566769Y-97109588D01*
X229761678Y-96893355D01*
X229910657Y-96643252D01*
X229995236Y-96404821D01*
X230063456Y-96569519D01*
X230192264Y-96762294D01*
X230356206Y-96926236D01*
X230548981Y-97055044D01*
X230763182Y-97143769D01*
X230990576Y-97189000D01*
X231222424Y-97189000D01*
X231449818Y-97143769D01*
X231664019Y-97055044D01*
X231856794Y-96926236D01*
X232020736Y-96762294D01*
X232149544Y-96569519D01*
X232238269Y-96355318D01*
X232283500Y-96127924D01*
X232283500Y-95896076D01*
X232238269Y-95668682D01*
X232149544Y-95454481D01*
X232020736Y-95261706D01*
X231921030Y-95162000D01*
X232467918Y-95162000D01*
X232467918Y-96862000D01*
X232474232Y-96926103D01*
X232492930Y-96987743D01*
X232523294Y-97044550D01*
X232564157Y-97094343D01*
X232613950Y-97135206D01*
X232670757Y-97165570D01*
X232732397Y-97184268D01*
X232796500Y-97190582D01*
X234496500Y-97190582D01*
X234560603Y-97184268D01*
X234622243Y-97165570D01*
X234679050Y-97135206D01*
X234728843Y-97094343D01*
X234769706Y-97044550D01*
X234800070Y-96987743D01*
X234818768Y-96926103D01*
X234825082Y-96862000D01*
X234825082Y-95162000D01*
X234818768Y-95097897D01*
X234800070Y-95036257D01*
X234769706Y-94979450D01*
X234728843Y-94929657D01*
X234679050Y-94888794D01*
X234622243Y-94858430D01*
X234560603Y-94839732D01*
X234496500Y-94833418D01*
X232796500Y-94833418D01*
X232732397Y-94839732D01*
X232670757Y-94858430D01*
X232613950Y-94888794D01*
X232564157Y-94929657D01*
X232523294Y-94979450D01*
X232492930Y-95036257D01*
X232474232Y-95097897D01*
X232467918Y-95162000D01*
X231921030Y-95162000D01*
X231856794Y-95097764D01*
X231664019Y-94968956D01*
X231449818Y-94880231D01*
X231222424Y-94835000D01*
X230990576Y-94835000D01*
X230763182Y-94880231D01*
X230548981Y-94968956D01*
X230356206Y-95097764D01*
X230192264Y-95261706D01*
X230063456Y-95454481D01*
X229995236Y-95619179D01*
X229910657Y-95380748D01*
X229761678Y-95130645D01*
X229566769Y-94914412D01*
X229420753Y-94805500D01*
X240352501Y-94805500D01*
X240352501Y-97511000D01*
X220558631Y-97511000D01*
X220556740Y-97501447D01*
X220555588Y-97497726D01*
X220496575Y-97311696D01*
X220486611Y-97288448D01*
X220476977Y-97265075D01*
X220475125Y-97261649D01*
X220381102Y-97090623D01*
X220366826Y-97069774D01*
X220352823Y-97048697D01*
X220350340Y-97045696D01*
X220224890Y-96896190D01*
X220206817Y-96878492D01*
X220189003Y-96860553D01*
X220185985Y-96858091D01*
X220033885Y-96735800D01*
X220012732Y-96721959D01*
X219994000Y-96709324D01*
X219994000Y-96368891D01*
X227125019Y-96368891D01*
X227222343Y-96643252D01*
X227371322Y-96893355D01*
X227566231Y-97109588D01*
X227799580Y-97283641D01*
X228062401Y-97408825D01*
X228209610Y-97453476D01*
X228439500Y-97332155D01*
X228439500Y-96139000D01*
X227245686Y-96139000D01*
X227125019Y-96368891D01*
X219994000Y-96368891D01*
X219994000Y-95758038D01*
X220003391Y-95752960D01*
X220024323Y-95738841D01*
X220045516Y-95724973D01*
X220048535Y-95722511D01*
X220198912Y-95598107D01*
X220216689Y-95580205D01*
X220234798Y-95562472D01*
X220237280Y-95559470D01*
X220360631Y-95408228D01*
X220374624Y-95387167D01*
X220388911Y-95366301D01*
X220390764Y-95362874D01*
X220482389Y-95190552D01*
X220492011Y-95167207D01*
X220501987Y-95143931D01*
X220503138Y-95140210D01*
X220559547Y-94953373D01*
X220564456Y-94928583D01*
X220569716Y-94903834D01*
X220570123Y-94899960D01*
X220579385Y-94805500D01*
X227712247Y-94805500D01*
X227566231Y-94914412D01*
G37*
X227566231Y-94914412D02*
X227371322Y-95130645D01*
X227222343Y-95380748D01*
X227125019Y-95655109D01*
X227245686Y-95885000D01*
X228439500Y-95885000D01*
X228439500Y-95865000D01*
X228693500Y-95865000D01*
X228693500Y-95885000D01*
X228713500Y-95885000D01*
X228713500Y-96139000D01*
X228693500Y-96139000D01*
X228693500Y-97332155D01*
X228923390Y-97453476D01*
X229070599Y-97408825D01*
X229333420Y-97283641D01*
X229566769Y-97109588D01*
X229761678Y-96893355D01*
X229910657Y-96643252D01*
X229995236Y-96404821D01*
X230063456Y-96569519D01*
X230192264Y-96762294D01*
X230356206Y-96926236D01*
X230548981Y-97055044D01*
X230763182Y-97143769D01*
X230990576Y-97189000D01*
X231222424Y-97189000D01*
X231449818Y-97143769D01*
X231664019Y-97055044D01*
X231856794Y-96926236D01*
X232020736Y-96762294D01*
X232149544Y-96569519D01*
X232238269Y-96355318D01*
X232283500Y-96127924D01*
X232283500Y-95896076D01*
X232238269Y-95668682D01*
X232149544Y-95454481D01*
X232020736Y-95261706D01*
X231921030Y-95162000D01*
X232467918Y-95162000D01*
X232467918Y-96862000D01*
X232474232Y-96926103D01*
X232492930Y-96987743D01*
X232523294Y-97044550D01*
X232564157Y-97094343D01*
X232613950Y-97135206D01*
X232670757Y-97165570D01*
X232732397Y-97184268D01*
X232796500Y-97190582D01*
X234496500Y-97190582D01*
X234560603Y-97184268D01*
X234622243Y-97165570D01*
X234679050Y-97135206D01*
X234728843Y-97094343D01*
X234769706Y-97044550D01*
X234800070Y-96987743D01*
X234818768Y-96926103D01*
X234825082Y-96862000D01*
X234825082Y-95162000D01*
X234818768Y-95097897D01*
X234800070Y-95036257D01*
X234769706Y-94979450D01*
X234728843Y-94929657D01*
X234679050Y-94888794D01*
X234622243Y-94858430D01*
X234560603Y-94839732D01*
X234496500Y-94833418D01*
X232796500Y-94833418D01*
X232732397Y-94839732D01*
X232670757Y-94858430D01*
X232613950Y-94888794D01*
X232564157Y-94929657D01*
X232523294Y-94979450D01*
X232492930Y-95036257D01*
X232474232Y-95097897D01*
X232467918Y-95162000D01*
X231921030Y-95162000D01*
X231856794Y-95097764D01*
X231664019Y-94968956D01*
X231449818Y-94880231D01*
X231222424Y-94835000D01*
X230990576Y-94835000D01*
X230763182Y-94880231D01*
X230548981Y-94968956D01*
X230356206Y-95097764D01*
X230192264Y-95261706D01*
X230063456Y-95454481D01*
X229995236Y-95619179D01*
X229910657Y-95380748D01*
X229761678Y-95130645D01*
X229566769Y-94914412D01*
X229420753Y-94805500D01*
X240352501Y-94805500D01*
X240352501Y-97511000D01*
X220558631Y-97511000D01*
X220556740Y-97501447D01*
X220555588Y-97497726D01*
X220496575Y-97311696D01*
X220486611Y-97288448D01*
X220476977Y-97265075D01*
X220475125Y-97261649D01*
X220381102Y-97090623D01*
X220366826Y-97069774D01*
X220352823Y-97048697D01*
X220350340Y-97045696D01*
X220224890Y-96896190D01*
X220206817Y-96878492D01*
X220189003Y-96860553D01*
X220185985Y-96858091D01*
X220033885Y-96735800D01*
X220012732Y-96721959D01*
X219994000Y-96709324D01*
X219994000Y-96368891D01*
X227125019Y-96368891D01*
X227222343Y-96643252D01*
X227371322Y-96893355D01*
X227566231Y-97109588D01*
X227799580Y-97283641D01*
X228062401Y-97408825D01*
X228209610Y-97453476D01*
X228439500Y-97332155D01*
X228439500Y-96139000D01*
X227245686Y-96139000D01*
X227125019Y-96368891D01*
X219994000Y-96368891D01*
X219994000Y-95758038D01*
X220003391Y-95752960D01*
X220024323Y-95738841D01*
X220045516Y-95724973D01*
X220048535Y-95722511D01*
X220198912Y-95598107D01*
X220216689Y-95580205D01*
X220234798Y-95562472D01*
X220237280Y-95559470D01*
X220360631Y-95408228D01*
X220374624Y-95387167D01*
X220388911Y-95366301D01*
X220390764Y-95362874D01*
X220482389Y-95190552D01*
X220492011Y-95167207D01*
X220501987Y-95143931D01*
X220503138Y-95140210D01*
X220559547Y-94953373D01*
X220564456Y-94928583D01*
X220569716Y-94903834D01*
X220570123Y-94899960D01*
X220579385Y-94805500D01*
X227712247Y-94805500D01*
X227566231Y-94914412D01*
M02*
