G04 #@! TF.GenerationSoftware,KiCad,Pcbnew,5.1.5-52549c5~86~ubuntu19.10.1*
G04 #@! TF.CreationDate,2020-04-08T23:51:40+02:00*
G04 #@! TF.ProjectId,multi_CH,6d756c74-695f-4434-982e-6b696361645f,rev?*
G04 #@! TF.SameCoordinates,Original*
G04 #@! TF.FileFunction,Soldermask,Top*
G04 #@! TF.FilePolarity,Negative*
%FSLAX46Y46*%
G04 Gerber Fmt 4.6, Leading zero omitted, Abs format (unit mm)*
G04 Created by KiCad (PCBNEW 5.1.5-52549c5~86~ubuntu19.10.1) date 2020-04-08 23:51:40*
%MOMM*%
%LPD*%
G04 APERTURE LIST*
%ADD10C,0.100000*%
G04 APERTURE END LIST*
D10*
G36*
X234547500Y-96913000D02*
G01*
X232745500Y-96913000D01*
X232745500Y-95111000D01*
X234547500Y-95111000D01*
X234547500Y-96913000D01*
G37*
G36*
X145267500Y-96913000D02*
G01*
X143465500Y-96913000D01*
X143465500Y-95111000D01*
X145267500Y-95111000D01*
X145267500Y-96913000D01*
G37*
G36*
X228680012Y-95115927D02*
G01*
X228829312Y-95145624D01*
X228993284Y-95213544D01*
X229140854Y-95312147D01*
X229266353Y-95437646D01*
X229364956Y-95585216D01*
X229432876Y-95749188D01*
X229467500Y-95923259D01*
X229467500Y-96100741D01*
X229432876Y-96274812D01*
X229364956Y-96438784D01*
X229266353Y-96586354D01*
X229140854Y-96711853D01*
X228993284Y-96810456D01*
X228829312Y-96878376D01*
X228680012Y-96908073D01*
X228655242Y-96913000D01*
X228477758Y-96913000D01*
X228452988Y-96908073D01*
X228303688Y-96878376D01*
X228139716Y-96810456D01*
X227992146Y-96711853D01*
X227866647Y-96586354D01*
X227768044Y-96438784D01*
X227700124Y-96274812D01*
X227665500Y-96100741D01*
X227665500Y-95923259D01*
X227700124Y-95749188D01*
X227768044Y-95585216D01*
X227866647Y-95437646D01*
X227992146Y-95312147D01*
X228139716Y-95213544D01*
X228303688Y-95145624D01*
X228452988Y-95115927D01*
X228477758Y-95111000D01*
X228655242Y-95111000D01*
X228680012Y-95115927D01*
G37*
G36*
X212227500Y-96913000D02*
G01*
X210425500Y-96913000D01*
X210425500Y-95111000D01*
X212227500Y-95111000D01*
X212227500Y-96913000D01*
G37*
G36*
X208900012Y-95115927D02*
G01*
X209049312Y-95145624D01*
X209213284Y-95213544D01*
X209360854Y-95312147D01*
X209486353Y-95437646D01*
X209584956Y-95585216D01*
X209652876Y-95749188D01*
X209687500Y-95923259D01*
X209687500Y-96100741D01*
X209652876Y-96274812D01*
X209584956Y-96438784D01*
X209486353Y-96586354D01*
X209360854Y-96711853D01*
X209213284Y-96810456D01*
X209049312Y-96878376D01*
X208900012Y-96908073D01*
X208875242Y-96913000D01*
X208697758Y-96913000D01*
X208672988Y-96908073D01*
X208523688Y-96878376D01*
X208359716Y-96810456D01*
X208212146Y-96711853D01*
X208086647Y-96586354D01*
X207988044Y-96438784D01*
X207920124Y-96274812D01*
X207885500Y-96100741D01*
X207885500Y-95923259D01*
X207920124Y-95749188D01*
X207988044Y-95585216D01*
X208086647Y-95437646D01*
X208212146Y-95312147D01*
X208359716Y-95213544D01*
X208523688Y-95145624D01*
X208672988Y-95115927D01*
X208697758Y-95111000D01*
X208875242Y-95111000D01*
X208900012Y-95115927D01*
G37*
G36*
X206360012Y-95115927D02*
G01*
X206509312Y-95145624D01*
X206673284Y-95213544D01*
X206820854Y-95312147D01*
X206946353Y-95437646D01*
X207044956Y-95585216D01*
X207112876Y-95749188D01*
X207147500Y-95923259D01*
X207147500Y-96100741D01*
X207112876Y-96274812D01*
X207044956Y-96438784D01*
X206946353Y-96586354D01*
X206820854Y-96711853D01*
X206673284Y-96810456D01*
X206509312Y-96878376D01*
X206360012Y-96908073D01*
X206335242Y-96913000D01*
X206157758Y-96913000D01*
X206132988Y-96908073D01*
X205983688Y-96878376D01*
X205819716Y-96810456D01*
X205672146Y-96711853D01*
X205546647Y-96586354D01*
X205448044Y-96438784D01*
X205380124Y-96274812D01*
X205345500Y-96100741D01*
X205345500Y-95923259D01*
X205380124Y-95749188D01*
X205448044Y-95585216D01*
X205546647Y-95437646D01*
X205672146Y-95312147D01*
X205819716Y-95213544D01*
X205983688Y-95145624D01*
X206132988Y-95115927D01*
X206157758Y-95111000D01*
X206335242Y-95111000D01*
X206360012Y-95115927D01*
G37*
G36*
X189907500Y-96913000D02*
G01*
X188105500Y-96913000D01*
X188105500Y-95111000D01*
X189907500Y-95111000D01*
X189907500Y-96913000D01*
G37*
G36*
X186580012Y-95115927D02*
G01*
X186729312Y-95145624D01*
X186893284Y-95213544D01*
X187040854Y-95312147D01*
X187166353Y-95437646D01*
X187264956Y-95585216D01*
X187332876Y-95749188D01*
X187367500Y-95923259D01*
X187367500Y-96100741D01*
X187332876Y-96274812D01*
X187264956Y-96438784D01*
X187166353Y-96586354D01*
X187040854Y-96711853D01*
X186893284Y-96810456D01*
X186729312Y-96878376D01*
X186580012Y-96908073D01*
X186555242Y-96913000D01*
X186377758Y-96913000D01*
X186352988Y-96908073D01*
X186203688Y-96878376D01*
X186039716Y-96810456D01*
X185892146Y-96711853D01*
X185766647Y-96586354D01*
X185668044Y-96438784D01*
X185600124Y-96274812D01*
X185565500Y-96100741D01*
X185565500Y-95923259D01*
X185600124Y-95749188D01*
X185668044Y-95585216D01*
X185766647Y-95437646D01*
X185892146Y-95312147D01*
X186039716Y-95213544D01*
X186203688Y-95145624D01*
X186352988Y-95115927D01*
X186377758Y-95111000D01*
X186555242Y-95111000D01*
X186580012Y-95115927D01*
G37*
G36*
X184040012Y-95115927D02*
G01*
X184189312Y-95145624D01*
X184353284Y-95213544D01*
X184500854Y-95312147D01*
X184626353Y-95437646D01*
X184724956Y-95585216D01*
X184792876Y-95749188D01*
X184827500Y-95923259D01*
X184827500Y-96100741D01*
X184792876Y-96274812D01*
X184724956Y-96438784D01*
X184626353Y-96586354D01*
X184500854Y-96711853D01*
X184353284Y-96810456D01*
X184189312Y-96878376D01*
X184040012Y-96908073D01*
X184015242Y-96913000D01*
X183837758Y-96913000D01*
X183812988Y-96908073D01*
X183663688Y-96878376D01*
X183499716Y-96810456D01*
X183352146Y-96711853D01*
X183226647Y-96586354D01*
X183128044Y-96438784D01*
X183060124Y-96274812D01*
X183025500Y-96100741D01*
X183025500Y-95923259D01*
X183060124Y-95749188D01*
X183128044Y-95585216D01*
X183226647Y-95437646D01*
X183352146Y-95312147D01*
X183499716Y-95213544D01*
X183663688Y-95145624D01*
X183812988Y-95115927D01*
X183837758Y-95111000D01*
X184015242Y-95111000D01*
X184040012Y-95115927D01*
G37*
G36*
X167587500Y-96913000D02*
G01*
X165785500Y-96913000D01*
X165785500Y-95111000D01*
X167587500Y-95111000D01*
X167587500Y-96913000D01*
G37*
G36*
X164260012Y-95115927D02*
G01*
X164409312Y-95145624D01*
X164573284Y-95213544D01*
X164720854Y-95312147D01*
X164846353Y-95437646D01*
X164944956Y-95585216D01*
X165012876Y-95749188D01*
X165047500Y-95923259D01*
X165047500Y-96100741D01*
X165012876Y-96274812D01*
X164944956Y-96438784D01*
X164846353Y-96586354D01*
X164720854Y-96711853D01*
X164573284Y-96810456D01*
X164409312Y-96878376D01*
X164260012Y-96908073D01*
X164235242Y-96913000D01*
X164057758Y-96913000D01*
X164032988Y-96908073D01*
X163883688Y-96878376D01*
X163719716Y-96810456D01*
X163572146Y-96711853D01*
X163446647Y-96586354D01*
X163348044Y-96438784D01*
X163280124Y-96274812D01*
X163245500Y-96100741D01*
X163245500Y-95923259D01*
X163280124Y-95749188D01*
X163348044Y-95585216D01*
X163446647Y-95437646D01*
X163572146Y-95312147D01*
X163719716Y-95213544D01*
X163883688Y-95145624D01*
X164032988Y-95115927D01*
X164057758Y-95111000D01*
X164235242Y-95111000D01*
X164260012Y-95115927D01*
G37*
G36*
X161720012Y-95115927D02*
G01*
X161869312Y-95145624D01*
X162033284Y-95213544D01*
X162180854Y-95312147D01*
X162306353Y-95437646D01*
X162404956Y-95585216D01*
X162472876Y-95749188D01*
X162507500Y-95923259D01*
X162507500Y-96100741D01*
X162472876Y-96274812D01*
X162404956Y-96438784D01*
X162306353Y-96586354D01*
X162180854Y-96711853D01*
X162033284Y-96810456D01*
X161869312Y-96878376D01*
X161720012Y-96908073D01*
X161695242Y-96913000D01*
X161517758Y-96913000D01*
X161492988Y-96908073D01*
X161343688Y-96878376D01*
X161179716Y-96810456D01*
X161032146Y-96711853D01*
X160906647Y-96586354D01*
X160808044Y-96438784D01*
X160740124Y-96274812D01*
X160705500Y-96100741D01*
X160705500Y-95923259D01*
X160740124Y-95749188D01*
X160808044Y-95585216D01*
X160906647Y-95437646D01*
X161032146Y-95312147D01*
X161179716Y-95213544D01*
X161343688Y-95145624D01*
X161492988Y-95115927D01*
X161517758Y-95111000D01*
X161695242Y-95111000D01*
X161720012Y-95115927D01*
G37*
G36*
X231220012Y-95115927D02*
G01*
X231369312Y-95145624D01*
X231533284Y-95213544D01*
X231680854Y-95312147D01*
X231806353Y-95437646D01*
X231904956Y-95585216D01*
X231972876Y-95749188D01*
X232007500Y-95923259D01*
X232007500Y-96100741D01*
X231972876Y-96274812D01*
X231904956Y-96438784D01*
X231806353Y-96586354D01*
X231680854Y-96711853D01*
X231533284Y-96810456D01*
X231369312Y-96878376D01*
X231220012Y-96908073D01*
X231195242Y-96913000D01*
X231017758Y-96913000D01*
X230992988Y-96908073D01*
X230843688Y-96878376D01*
X230679716Y-96810456D01*
X230532146Y-96711853D01*
X230406647Y-96586354D01*
X230308044Y-96438784D01*
X230240124Y-96274812D01*
X230205500Y-96100741D01*
X230205500Y-95923259D01*
X230240124Y-95749188D01*
X230308044Y-95585216D01*
X230406647Y-95437646D01*
X230532146Y-95312147D01*
X230679716Y-95213544D01*
X230843688Y-95145624D01*
X230992988Y-95115927D01*
X231017758Y-95111000D01*
X231195242Y-95111000D01*
X231220012Y-95115927D01*
G37*
G36*
X139400012Y-95115927D02*
G01*
X139549312Y-95145624D01*
X139713284Y-95213544D01*
X139860854Y-95312147D01*
X139986353Y-95437646D01*
X140084956Y-95585216D01*
X140152876Y-95749188D01*
X140187500Y-95923259D01*
X140187500Y-96100741D01*
X140152876Y-96274812D01*
X140084956Y-96438784D01*
X139986353Y-96586354D01*
X139860854Y-96711853D01*
X139713284Y-96810456D01*
X139549312Y-96878376D01*
X139400012Y-96908073D01*
X139375242Y-96913000D01*
X139197758Y-96913000D01*
X139172988Y-96908073D01*
X139023688Y-96878376D01*
X138859716Y-96810456D01*
X138712146Y-96711853D01*
X138586647Y-96586354D01*
X138488044Y-96438784D01*
X138420124Y-96274812D01*
X138385500Y-96100741D01*
X138385500Y-95923259D01*
X138420124Y-95749188D01*
X138488044Y-95585216D01*
X138586647Y-95437646D01*
X138712146Y-95312147D01*
X138859716Y-95213544D01*
X139023688Y-95145624D01*
X139172988Y-95115927D01*
X139197758Y-95111000D01*
X139375242Y-95111000D01*
X139400012Y-95115927D01*
G37*
G36*
X141940012Y-95115927D02*
G01*
X142089312Y-95145624D01*
X142253284Y-95213544D01*
X142400854Y-95312147D01*
X142526353Y-95437646D01*
X142624956Y-95585216D01*
X142692876Y-95749188D01*
X142727500Y-95923259D01*
X142727500Y-96100741D01*
X142692876Y-96274812D01*
X142624956Y-96438784D01*
X142526353Y-96586354D01*
X142400854Y-96711853D01*
X142253284Y-96810456D01*
X142089312Y-96878376D01*
X141940012Y-96908073D01*
X141915242Y-96913000D01*
X141737758Y-96913000D01*
X141712988Y-96908073D01*
X141563688Y-96878376D01*
X141399716Y-96810456D01*
X141252146Y-96711853D01*
X141126647Y-96586354D01*
X141028044Y-96438784D01*
X140960124Y-96274812D01*
X140925500Y-96100741D01*
X140925500Y-95923259D01*
X140960124Y-95749188D01*
X141028044Y-95585216D01*
X141126647Y-95437646D01*
X141252146Y-95312147D01*
X141399716Y-95213544D01*
X141563688Y-95145624D01*
X141712988Y-95115927D01*
X141737758Y-95111000D01*
X141915242Y-95111000D01*
X141940012Y-95115927D01*
G37*
G36*
X78307500Y-96913000D02*
G01*
X76505500Y-96913000D01*
X76505500Y-95111000D01*
X78307500Y-95111000D01*
X78307500Y-96913000D01*
G37*
G36*
X74980012Y-95115927D02*
G01*
X75129312Y-95145624D01*
X75293284Y-95213544D01*
X75440854Y-95312147D01*
X75566353Y-95437646D01*
X75664956Y-95585216D01*
X75732876Y-95749188D01*
X75767500Y-95923259D01*
X75767500Y-96100741D01*
X75732876Y-96274812D01*
X75664956Y-96438784D01*
X75566353Y-96586354D01*
X75440854Y-96711853D01*
X75293284Y-96810456D01*
X75129312Y-96878376D01*
X74980012Y-96908073D01*
X74955242Y-96913000D01*
X74777758Y-96913000D01*
X74752988Y-96908073D01*
X74603688Y-96878376D01*
X74439716Y-96810456D01*
X74292146Y-96711853D01*
X74166647Y-96586354D01*
X74068044Y-96438784D01*
X74000124Y-96274812D01*
X73965500Y-96100741D01*
X73965500Y-95923259D01*
X74000124Y-95749188D01*
X74068044Y-95585216D01*
X74166647Y-95437646D01*
X74292146Y-95312147D01*
X74439716Y-95213544D01*
X74603688Y-95145624D01*
X74752988Y-95115927D01*
X74777758Y-95111000D01*
X74955242Y-95111000D01*
X74980012Y-95115927D01*
G37*
G36*
X72440012Y-95115927D02*
G01*
X72589312Y-95145624D01*
X72753284Y-95213544D01*
X72900854Y-95312147D01*
X73026353Y-95437646D01*
X73124956Y-95585216D01*
X73192876Y-95749188D01*
X73227500Y-95923259D01*
X73227500Y-96100741D01*
X73192876Y-96274812D01*
X73124956Y-96438784D01*
X73026353Y-96586354D01*
X72900854Y-96711853D01*
X72753284Y-96810456D01*
X72589312Y-96878376D01*
X72440012Y-96908073D01*
X72415242Y-96913000D01*
X72237758Y-96913000D01*
X72212988Y-96908073D01*
X72063688Y-96878376D01*
X71899716Y-96810456D01*
X71752146Y-96711853D01*
X71626647Y-96586354D01*
X71528044Y-96438784D01*
X71460124Y-96274812D01*
X71425500Y-96100741D01*
X71425500Y-95923259D01*
X71460124Y-95749188D01*
X71528044Y-95585216D01*
X71626647Y-95437646D01*
X71752146Y-95312147D01*
X71899716Y-95213544D01*
X72063688Y-95145624D01*
X72212988Y-95115927D01*
X72237758Y-95111000D01*
X72415242Y-95111000D01*
X72440012Y-95115927D01*
G37*
G36*
X94760012Y-95115927D02*
G01*
X94909312Y-95145624D01*
X95073284Y-95213544D01*
X95220854Y-95312147D01*
X95346353Y-95437646D01*
X95444956Y-95585216D01*
X95512876Y-95749188D01*
X95547500Y-95923259D01*
X95547500Y-96100741D01*
X95512876Y-96274812D01*
X95444956Y-96438784D01*
X95346353Y-96586354D01*
X95220854Y-96711853D01*
X95073284Y-96810456D01*
X94909312Y-96878376D01*
X94760012Y-96908073D01*
X94735242Y-96913000D01*
X94557758Y-96913000D01*
X94532988Y-96908073D01*
X94383688Y-96878376D01*
X94219716Y-96810456D01*
X94072146Y-96711853D01*
X93946647Y-96586354D01*
X93848044Y-96438784D01*
X93780124Y-96274812D01*
X93745500Y-96100741D01*
X93745500Y-95923259D01*
X93780124Y-95749188D01*
X93848044Y-95585216D01*
X93946647Y-95437646D01*
X94072146Y-95312147D01*
X94219716Y-95213544D01*
X94383688Y-95145624D01*
X94532988Y-95115927D01*
X94557758Y-95111000D01*
X94735242Y-95111000D01*
X94760012Y-95115927D01*
G37*
G36*
X100627500Y-96913000D02*
G01*
X98825500Y-96913000D01*
X98825500Y-95111000D01*
X100627500Y-95111000D01*
X100627500Y-96913000D01*
G37*
G36*
X117080012Y-95115927D02*
G01*
X117229312Y-95145624D01*
X117393284Y-95213544D01*
X117540854Y-95312147D01*
X117666353Y-95437646D01*
X117764956Y-95585216D01*
X117832876Y-95749188D01*
X117867500Y-95923259D01*
X117867500Y-96100741D01*
X117832876Y-96274812D01*
X117764956Y-96438784D01*
X117666353Y-96586354D01*
X117540854Y-96711853D01*
X117393284Y-96810456D01*
X117229312Y-96878376D01*
X117080012Y-96908073D01*
X117055242Y-96913000D01*
X116877758Y-96913000D01*
X116852988Y-96908073D01*
X116703688Y-96878376D01*
X116539716Y-96810456D01*
X116392146Y-96711853D01*
X116266647Y-96586354D01*
X116168044Y-96438784D01*
X116100124Y-96274812D01*
X116065500Y-96100741D01*
X116065500Y-95923259D01*
X116100124Y-95749188D01*
X116168044Y-95585216D01*
X116266647Y-95437646D01*
X116392146Y-95312147D01*
X116539716Y-95213544D01*
X116703688Y-95145624D01*
X116852988Y-95115927D01*
X116877758Y-95111000D01*
X117055242Y-95111000D01*
X117080012Y-95115927D01*
G37*
G36*
X119620012Y-95115927D02*
G01*
X119769312Y-95145624D01*
X119933284Y-95213544D01*
X120080854Y-95312147D01*
X120206353Y-95437646D01*
X120304956Y-95585216D01*
X120372876Y-95749188D01*
X120407500Y-95923259D01*
X120407500Y-96100741D01*
X120372876Y-96274812D01*
X120304956Y-96438784D01*
X120206353Y-96586354D01*
X120080854Y-96711853D01*
X119933284Y-96810456D01*
X119769312Y-96878376D01*
X119620012Y-96908073D01*
X119595242Y-96913000D01*
X119417758Y-96913000D01*
X119392988Y-96908073D01*
X119243688Y-96878376D01*
X119079716Y-96810456D01*
X118932146Y-96711853D01*
X118806647Y-96586354D01*
X118708044Y-96438784D01*
X118640124Y-96274812D01*
X118605500Y-96100741D01*
X118605500Y-95923259D01*
X118640124Y-95749188D01*
X118708044Y-95585216D01*
X118806647Y-95437646D01*
X118932146Y-95312147D01*
X119079716Y-95213544D01*
X119243688Y-95145624D01*
X119392988Y-95115927D01*
X119417758Y-95111000D01*
X119595242Y-95111000D01*
X119620012Y-95115927D01*
G37*
G36*
X122947500Y-96913000D02*
G01*
X121145500Y-96913000D01*
X121145500Y-95111000D01*
X122947500Y-95111000D01*
X122947500Y-96913000D01*
G37*
G36*
X97300012Y-95115927D02*
G01*
X97449312Y-95145624D01*
X97613284Y-95213544D01*
X97760854Y-95312147D01*
X97886353Y-95437646D01*
X97984956Y-95585216D01*
X98052876Y-95749188D01*
X98087500Y-95923259D01*
X98087500Y-96100741D01*
X98052876Y-96274812D01*
X97984956Y-96438784D01*
X97886353Y-96586354D01*
X97760854Y-96711853D01*
X97613284Y-96810456D01*
X97449312Y-96878376D01*
X97300012Y-96908073D01*
X97275242Y-96913000D01*
X97097758Y-96913000D01*
X97072988Y-96908073D01*
X96923688Y-96878376D01*
X96759716Y-96810456D01*
X96612146Y-96711853D01*
X96486647Y-96586354D01*
X96388044Y-96438784D01*
X96320124Y-96274812D01*
X96285500Y-96100741D01*
X96285500Y-95923259D01*
X96320124Y-95749188D01*
X96388044Y-95585216D01*
X96486647Y-95437646D01*
X96612146Y-95312147D01*
X96759716Y-95213544D01*
X96923688Y-95145624D01*
X97072988Y-95115927D01*
X97097758Y-95111000D01*
X97275242Y-95111000D01*
X97300012Y-95115927D01*
G37*
G36*
X194047294Y-91757155D02*
G01*
X194153650Y-91778311D01*
X194354020Y-91861307D01*
X194534344Y-91981795D01*
X194687705Y-92135156D01*
X194808193Y-92315480D01*
X194891189Y-92515851D01*
X194933500Y-92728560D01*
X194933500Y-92945440D01*
X194891189Y-93158149D01*
X194808193Y-93358520D01*
X194687705Y-93538844D01*
X194534344Y-93692205D01*
X194354020Y-93812693D01*
X194253834Y-93854191D01*
X194153650Y-93895689D01*
X194047295Y-93916844D01*
X193940940Y-93938000D01*
X193724060Y-93938000D01*
X193617705Y-93916844D01*
X193511350Y-93895689D01*
X193310980Y-93812693D01*
X193130656Y-93692205D01*
X192977295Y-93538844D01*
X192856807Y-93358520D01*
X192773811Y-93158149D01*
X192731500Y-92945440D01*
X192731500Y-92728560D01*
X192773811Y-92515851D01*
X192856807Y-92315480D01*
X192977295Y-92135156D01*
X193130656Y-91981795D01*
X193310980Y-91861307D01*
X193511350Y-91778311D01*
X193617706Y-91757155D01*
X193724060Y-91736000D01*
X193940940Y-91736000D01*
X194047294Y-91757155D01*
G37*
G36*
X178426294Y-91757155D02*
G01*
X178532650Y-91778311D01*
X178733020Y-91861307D01*
X178913344Y-91981795D01*
X179066705Y-92135156D01*
X179187193Y-92315480D01*
X179270189Y-92515851D01*
X179312500Y-92728560D01*
X179312500Y-92945440D01*
X179270189Y-93158149D01*
X179187193Y-93358520D01*
X179066705Y-93538844D01*
X178913344Y-93692205D01*
X178733020Y-93812693D01*
X178632834Y-93854191D01*
X178532650Y-93895689D01*
X178426295Y-93916844D01*
X178319940Y-93938000D01*
X178103060Y-93938000D01*
X177996705Y-93916844D01*
X177890350Y-93895689D01*
X177689980Y-93812693D01*
X177509656Y-93692205D01*
X177356295Y-93538844D01*
X177235807Y-93358520D01*
X177152811Y-93158149D01*
X177110500Y-92945440D01*
X177110500Y-92728560D01*
X177152811Y-92515851D01*
X177235807Y-92315480D01*
X177356295Y-92135156D01*
X177509656Y-91981795D01*
X177689980Y-91861307D01*
X177890350Y-91778311D01*
X177996706Y-91757155D01*
X178103060Y-91736000D01*
X178319940Y-91736000D01*
X178426294Y-91757155D01*
G37*
G36*
X156106294Y-91757155D02*
G01*
X156212650Y-91778311D01*
X156413020Y-91861307D01*
X156593344Y-91981795D01*
X156746705Y-92135156D01*
X156867193Y-92315480D01*
X156950189Y-92515851D01*
X156992500Y-92728560D01*
X156992500Y-92945440D01*
X156950189Y-93158149D01*
X156867193Y-93358520D01*
X156746705Y-93538844D01*
X156593344Y-93692205D01*
X156413020Y-93812693D01*
X156312834Y-93854191D01*
X156212650Y-93895689D01*
X156106295Y-93916844D01*
X155999940Y-93938000D01*
X155783060Y-93938000D01*
X155676705Y-93916844D01*
X155570350Y-93895689D01*
X155369980Y-93812693D01*
X155189656Y-93692205D01*
X155036295Y-93538844D01*
X154915807Y-93358520D01*
X154832811Y-93158149D01*
X154790500Y-92945440D01*
X154790500Y-92728560D01*
X154832811Y-92515851D01*
X154915807Y-92315480D01*
X155036295Y-92135156D01*
X155189656Y-91981795D01*
X155369980Y-91861307D01*
X155570350Y-91778311D01*
X155676706Y-91757155D01*
X155783060Y-91736000D01*
X155999940Y-91736000D01*
X156106294Y-91757155D01*
G37*
G36*
X133786294Y-91757155D02*
G01*
X133892650Y-91778311D01*
X134093020Y-91861307D01*
X134273344Y-91981795D01*
X134426705Y-92135156D01*
X134547193Y-92315480D01*
X134630189Y-92515851D01*
X134672500Y-92728560D01*
X134672500Y-92945440D01*
X134630189Y-93158149D01*
X134547193Y-93358520D01*
X134426705Y-93538844D01*
X134273344Y-93692205D01*
X134093020Y-93812693D01*
X133992834Y-93854191D01*
X133892650Y-93895689D01*
X133786295Y-93916844D01*
X133679940Y-93938000D01*
X133463060Y-93938000D01*
X133356705Y-93916844D01*
X133250350Y-93895689D01*
X133049980Y-93812693D01*
X132869656Y-93692205D01*
X132716295Y-93538844D01*
X132595807Y-93358520D01*
X132512811Y-93158149D01*
X132470500Y-92945440D01*
X132470500Y-92728560D01*
X132512811Y-92515851D01*
X132595807Y-92315480D01*
X132716295Y-92135156D01*
X132869656Y-91981795D01*
X133049980Y-91861307D01*
X133250350Y-91778311D01*
X133356706Y-91757155D01*
X133463060Y-91736000D01*
X133679940Y-91736000D01*
X133786294Y-91757155D01*
G37*
G36*
X111466294Y-91757155D02*
G01*
X111572650Y-91778311D01*
X111773020Y-91861307D01*
X111953344Y-91981795D01*
X112106705Y-92135156D01*
X112227193Y-92315480D01*
X112310189Y-92515851D01*
X112352500Y-92728560D01*
X112352500Y-92945440D01*
X112310189Y-93158149D01*
X112227193Y-93358520D01*
X112106705Y-93538844D01*
X111953344Y-93692205D01*
X111773020Y-93812693D01*
X111672834Y-93854191D01*
X111572650Y-93895689D01*
X111466295Y-93916844D01*
X111359940Y-93938000D01*
X111143060Y-93938000D01*
X111036705Y-93916844D01*
X110930350Y-93895689D01*
X110729980Y-93812693D01*
X110549656Y-93692205D01*
X110396295Y-93538844D01*
X110275807Y-93358520D01*
X110192811Y-93158149D01*
X110150500Y-92945440D01*
X110150500Y-92728560D01*
X110192811Y-92515851D01*
X110275807Y-92315480D01*
X110396295Y-92135156D01*
X110549656Y-91981795D01*
X110729980Y-91861307D01*
X110930350Y-91778311D01*
X111036706Y-91757155D01*
X111143060Y-91736000D01*
X111359940Y-91736000D01*
X111466294Y-91757155D01*
G37*
G36*
X89146294Y-91757155D02*
G01*
X89252650Y-91778311D01*
X89453020Y-91861307D01*
X89633344Y-91981795D01*
X89786705Y-92135156D01*
X89907193Y-92315480D01*
X89990189Y-92515851D01*
X90032500Y-92728560D01*
X90032500Y-92945440D01*
X89990189Y-93158149D01*
X89907193Y-93358520D01*
X89786705Y-93538844D01*
X89633344Y-93692205D01*
X89453020Y-93812693D01*
X89352834Y-93854191D01*
X89252650Y-93895689D01*
X89146295Y-93916844D01*
X89039940Y-93938000D01*
X88823060Y-93938000D01*
X88716705Y-93916844D01*
X88610350Y-93895689D01*
X88409980Y-93812693D01*
X88229656Y-93692205D01*
X88076295Y-93538844D01*
X87955807Y-93358520D01*
X87872811Y-93158149D01*
X87830500Y-92945440D01*
X87830500Y-92728560D01*
X87872811Y-92515851D01*
X87955807Y-92315480D01*
X88076295Y-92135156D01*
X88229656Y-91981795D01*
X88409980Y-91861307D01*
X88610350Y-91778311D01*
X88716706Y-91757155D01*
X88823060Y-91736000D01*
X89039940Y-91736000D01*
X89146294Y-91757155D01*
G37*
G36*
X216367294Y-91757155D02*
G01*
X216473650Y-91778311D01*
X216674020Y-91861307D01*
X216854344Y-91981795D01*
X217007705Y-92135156D01*
X217128193Y-92315480D01*
X217211189Y-92515851D01*
X217253500Y-92728560D01*
X217253500Y-92945440D01*
X217211189Y-93158149D01*
X217128193Y-93358520D01*
X217007705Y-93538844D01*
X216854344Y-93692205D01*
X216674020Y-93812693D01*
X216573834Y-93854191D01*
X216473650Y-93895689D01*
X216367295Y-93916844D01*
X216260940Y-93938000D01*
X216044060Y-93938000D01*
X215937705Y-93916844D01*
X215831350Y-93895689D01*
X215630980Y-93812693D01*
X215450656Y-93692205D01*
X215297295Y-93538844D01*
X215176807Y-93358520D01*
X215093811Y-93158149D01*
X215051500Y-92945440D01*
X215051500Y-92728560D01*
X215093811Y-92515851D01*
X215176807Y-92315480D01*
X215297295Y-92135156D01*
X215450656Y-91981795D01*
X215630980Y-91861307D01*
X215831350Y-91778311D01*
X215937706Y-91757155D01*
X216044060Y-91736000D01*
X216260940Y-91736000D01*
X216367294Y-91757155D01*
G37*
G36*
X200746294Y-91757155D02*
G01*
X200852650Y-91778311D01*
X201053020Y-91861307D01*
X201233344Y-91981795D01*
X201386705Y-92135156D01*
X201507193Y-92315480D01*
X201590189Y-92515851D01*
X201632500Y-92728560D01*
X201632500Y-92945440D01*
X201590189Y-93158149D01*
X201507193Y-93358520D01*
X201386705Y-93538844D01*
X201233344Y-93692205D01*
X201053020Y-93812693D01*
X200952834Y-93854191D01*
X200852650Y-93895689D01*
X200746295Y-93916844D01*
X200639940Y-93938000D01*
X200423060Y-93938000D01*
X200316705Y-93916844D01*
X200210350Y-93895689D01*
X200009980Y-93812693D01*
X199829656Y-93692205D01*
X199676295Y-93538844D01*
X199555807Y-93358520D01*
X199472811Y-93158149D01*
X199430500Y-92945440D01*
X199430500Y-92728560D01*
X199472811Y-92515851D01*
X199555807Y-92315480D01*
X199676295Y-92135156D01*
X199829656Y-91981795D01*
X200009980Y-91861307D01*
X200210350Y-91778311D01*
X200316706Y-91757155D01*
X200423060Y-91736000D01*
X200639940Y-91736000D01*
X200746294Y-91757155D01*
G37*
G36*
X238687294Y-91757155D02*
G01*
X238793650Y-91778311D01*
X238994020Y-91861307D01*
X239174344Y-91981795D01*
X239327705Y-92135156D01*
X239448193Y-92315480D01*
X239531189Y-92515851D01*
X239573500Y-92728560D01*
X239573500Y-92945440D01*
X239531189Y-93158149D01*
X239448193Y-93358520D01*
X239327705Y-93538844D01*
X239174344Y-93692205D01*
X238994020Y-93812693D01*
X238893834Y-93854191D01*
X238793650Y-93895689D01*
X238687295Y-93916844D01*
X238580940Y-93938000D01*
X238364060Y-93938000D01*
X238257705Y-93916844D01*
X238151350Y-93895689D01*
X237950980Y-93812693D01*
X237770656Y-93692205D01*
X237617295Y-93538844D01*
X237496807Y-93358520D01*
X237413811Y-93158149D01*
X237371500Y-92945440D01*
X237371500Y-92728560D01*
X237413811Y-92515851D01*
X237496807Y-92315480D01*
X237617295Y-92135156D01*
X237770656Y-91981795D01*
X237950980Y-91861307D01*
X238151350Y-91778311D01*
X238257706Y-91757155D01*
X238364060Y-91736000D01*
X238580940Y-91736000D01*
X238687294Y-91757155D01*
G37*
G36*
X82447294Y-91757155D02*
G01*
X82553650Y-91778311D01*
X82754020Y-91861307D01*
X82934344Y-91981795D01*
X83087705Y-92135156D01*
X83208193Y-92315480D01*
X83291189Y-92515851D01*
X83333500Y-92728560D01*
X83333500Y-92945440D01*
X83291189Y-93158149D01*
X83208193Y-93358520D01*
X83087705Y-93538844D01*
X82934344Y-93692205D01*
X82754020Y-93812693D01*
X82653834Y-93854191D01*
X82553650Y-93895689D01*
X82447295Y-93916844D01*
X82340940Y-93938000D01*
X82124060Y-93938000D01*
X82017705Y-93916844D01*
X81911350Y-93895689D01*
X81710980Y-93812693D01*
X81530656Y-93692205D01*
X81377295Y-93538844D01*
X81256807Y-93358520D01*
X81173811Y-93158149D01*
X81131500Y-92945440D01*
X81131500Y-92728560D01*
X81173811Y-92515851D01*
X81256807Y-92315480D01*
X81377295Y-92135156D01*
X81530656Y-91981795D01*
X81710980Y-91861307D01*
X81911350Y-91778311D01*
X82017706Y-91757155D01*
X82124060Y-91736000D01*
X82340940Y-91736000D01*
X82447294Y-91757155D01*
G37*
G36*
X66826294Y-91757155D02*
G01*
X66932650Y-91778311D01*
X67133020Y-91861307D01*
X67313344Y-91981795D01*
X67466705Y-92135156D01*
X67587193Y-92315480D01*
X67670189Y-92515851D01*
X67712500Y-92728560D01*
X67712500Y-92945440D01*
X67670189Y-93158149D01*
X67587193Y-93358520D01*
X67466705Y-93538844D01*
X67313344Y-93692205D01*
X67133020Y-93812693D01*
X67032834Y-93854191D01*
X66932650Y-93895689D01*
X66826295Y-93916844D01*
X66719940Y-93938000D01*
X66503060Y-93938000D01*
X66396705Y-93916844D01*
X66290350Y-93895689D01*
X66089980Y-93812693D01*
X65909656Y-93692205D01*
X65756295Y-93538844D01*
X65635807Y-93358520D01*
X65552811Y-93158149D01*
X65510500Y-92945440D01*
X65510500Y-92728560D01*
X65552811Y-92515851D01*
X65635807Y-92315480D01*
X65756295Y-92135156D01*
X65909656Y-91981795D01*
X66089980Y-91861307D01*
X66290350Y-91778311D01*
X66396706Y-91757155D01*
X66503060Y-91736000D01*
X66719940Y-91736000D01*
X66826294Y-91757155D01*
G37*
G36*
X104767294Y-91757155D02*
G01*
X104873650Y-91778311D01*
X105074020Y-91861307D01*
X105254344Y-91981795D01*
X105407705Y-92135156D01*
X105528193Y-92315480D01*
X105611189Y-92515851D01*
X105653500Y-92728560D01*
X105653500Y-92945440D01*
X105611189Y-93158149D01*
X105528193Y-93358520D01*
X105407705Y-93538844D01*
X105254344Y-93692205D01*
X105074020Y-93812693D01*
X104973834Y-93854191D01*
X104873650Y-93895689D01*
X104767295Y-93916844D01*
X104660940Y-93938000D01*
X104444060Y-93938000D01*
X104337705Y-93916844D01*
X104231350Y-93895689D01*
X104030980Y-93812693D01*
X103850656Y-93692205D01*
X103697295Y-93538844D01*
X103576807Y-93358520D01*
X103493811Y-93158149D01*
X103451500Y-92945440D01*
X103451500Y-92728560D01*
X103493811Y-92515851D01*
X103576807Y-92315480D01*
X103697295Y-92135156D01*
X103850656Y-91981795D01*
X104030980Y-91861307D01*
X104231350Y-91778311D01*
X104337706Y-91757155D01*
X104444060Y-91736000D01*
X104660940Y-91736000D01*
X104767294Y-91757155D01*
G37*
G36*
X223066294Y-91757155D02*
G01*
X223172650Y-91778311D01*
X223373020Y-91861307D01*
X223553344Y-91981795D01*
X223706705Y-92135156D01*
X223827193Y-92315480D01*
X223910189Y-92515851D01*
X223952500Y-92728560D01*
X223952500Y-92945440D01*
X223910189Y-93158149D01*
X223827193Y-93358520D01*
X223706705Y-93538844D01*
X223553344Y-93692205D01*
X223373020Y-93812693D01*
X223272834Y-93854191D01*
X223172650Y-93895689D01*
X223066295Y-93916844D01*
X222959940Y-93938000D01*
X222743060Y-93938000D01*
X222636705Y-93916844D01*
X222530350Y-93895689D01*
X222329980Y-93812693D01*
X222149656Y-93692205D01*
X221996295Y-93538844D01*
X221875807Y-93358520D01*
X221792811Y-93158149D01*
X221750500Y-92945440D01*
X221750500Y-92728560D01*
X221792811Y-92515851D01*
X221875807Y-92315480D01*
X221996295Y-92135156D01*
X222149656Y-91981795D01*
X222329980Y-91861307D01*
X222530350Y-91778311D01*
X222636706Y-91757155D01*
X222743060Y-91736000D01*
X222959940Y-91736000D01*
X223066294Y-91757155D01*
G37*
G36*
X149407294Y-91757155D02*
G01*
X149513650Y-91778311D01*
X149714020Y-91861307D01*
X149894344Y-91981795D01*
X150047705Y-92135156D01*
X150168193Y-92315480D01*
X150251189Y-92515851D01*
X150293500Y-92728560D01*
X150293500Y-92945440D01*
X150251189Y-93158149D01*
X150168193Y-93358520D01*
X150047705Y-93538844D01*
X149894344Y-93692205D01*
X149714020Y-93812693D01*
X149613834Y-93854191D01*
X149513650Y-93895689D01*
X149407295Y-93916844D01*
X149300940Y-93938000D01*
X149084060Y-93938000D01*
X148977705Y-93916844D01*
X148871350Y-93895689D01*
X148670980Y-93812693D01*
X148490656Y-93692205D01*
X148337295Y-93538844D01*
X148216807Y-93358520D01*
X148133811Y-93158149D01*
X148091500Y-92945440D01*
X148091500Y-92728560D01*
X148133811Y-92515851D01*
X148216807Y-92315480D01*
X148337295Y-92135156D01*
X148490656Y-91981795D01*
X148670980Y-91861307D01*
X148871350Y-91778311D01*
X148977706Y-91757155D01*
X149084060Y-91736000D01*
X149300940Y-91736000D01*
X149407294Y-91757155D01*
G37*
G36*
X127087294Y-91757155D02*
G01*
X127193650Y-91778311D01*
X127394020Y-91861307D01*
X127574344Y-91981795D01*
X127727705Y-92135156D01*
X127848193Y-92315480D01*
X127931189Y-92515851D01*
X127973500Y-92728560D01*
X127973500Y-92945440D01*
X127931189Y-93158149D01*
X127848193Y-93358520D01*
X127727705Y-93538844D01*
X127574344Y-93692205D01*
X127394020Y-93812693D01*
X127293834Y-93854191D01*
X127193650Y-93895689D01*
X127087295Y-93916844D01*
X126980940Y-93938000D01*
X126764060Y-93938000D01*
X126657705Y-93916844D01*
X126551350Y-93895689D01*
X126350980Y-93812693D01*
X126170656Y-93692205D01*
X126017295Y-93538844D01*
X125896807Y-93358520D01*
X125813811Y-93158149D01*
X125771500Y-92945440D01*
X125771500Y-92728560D01*
X125813811Y-92515851D01*
X125896807Y-92315480D01*
X126017295Y-92135156D01*
X126170656Y-91981795D01*
X126350980Y-91861307D01*
X126551350Y-91778311D01*
X126657706Y-91757155D01*
X126764060Y-91736000D01*
X126980940Y-91736000D01*
X127087294Y-91757155D01*
G37*
G36*
X171727294Y-91757155D02*
G01*
X171833650Y-91778311D01*
X172034020Y-91861307D01*
X172214344Y-91981795D01*
X172367705Y-92135156D01*
X172488193Y-92315480D01*
X172571189Y-92515851D01*
X172613500Y-92728560D01*
X172613500Y-92945440D01*
X172571189Y-93158149D01*
X172488193Y-93358520D01*
X172367705Y-93538844D01*
X172214344Y-93692205D01*
X172034020Y-93812693D01*
X171933834Y-93854191D01*
X171833650Y-93895689D01*
X171727295Y-93916844D01*
X171620940Y-93938000D01*
X171404060Y-93938000D01*
X171297705Y-93916844D01*
X171191350Y-93895689D01*
X170990980Y-93812693D01*
X170810656Y-93692205D01*
X170657295Y-93538844D01*
X170536807Y-93358520D01*
X170453811Y-93158149D01*
X170411500Y-92945440D01*
X170411500Y-92728560D01*
X170453811Y-92515851D01*
X170536807Y-92315480D01*
X170657295Y-92135156D01*
X170810656Y-91981795D01*
X170990980Y-91861307D01*
X171191350Y-91778311D01*
X171297706Y-91757155D01*
X171404060Y-91736000D01*
X171620940Y-91736000D01*
X171727294Y-91757155D01*
G37*
G36*
X79188500Y-93703000D02*
G01*
X78286500Y-93703000D01*
X78286500Y-92701000D01*
X79188500Y-92701000D01*
X79188500Y-93703000D01*
G37*
G36*
X77288500Y-93703000D02*
G01*
X76386500Y-93703000D01*
X76386500Y-92701000D01*
X77288500Y-92701000D01*
X77288500Y-93703000D01*
G37*
G36*
X190788500Y-93703000D02*
G01*
X189886500Y-93703000D01*
X189886500Y-92701000D01*
X190788500Y-92701000D01*
X190788500Y-93703000D01*
G37*
G36*
X188888500Y-93703000D02*
G01*
X187986500Y-93703000D01*
X187986500Y-92701000D01*
X188888500Y-92701000D01*
X188888500Y-93703000D01*
G37*
G36*
X168468500Y-93703000D02*
G01*
X167566500Y-93703000D01*
X167566500Y-92701000D01*
X168468500Y-92701000D01*
X168468500Y-93703000D01*
G37*
G36*
X166568500Y-93703000D02*
G01*
X165666500Y-93703000D01*
X165666500Y-92701000D01*
X166568500Y-92701000D01*
X166568500Y-93703000D01*
G37*
G36*
X146148500Y-93703000D02*
G01*
X145246500Y-93703000D01*
X145246500Y-92701000D01*
X146148500Y-92701000D01*
X146148500Y-93703000D01*
G37*
G36*
X144248500Y-93703000D02*
G01*
X143346500Y-93703000D01*
X143346500Y-92701000D01*
X144248500Y-92701000D01*
X144248500Y-93703000D01*
G37*
G36*
X121928500Y-93703000D02*
G01*
X121026500Y-93703000D01*
X121026500Y-92701000D01*
X121928500Y-92701000D01*
X121928500Y-93703000D01*
G37*
G36*
X101508500Y-93703000D02*
G01*
X100606500Y-93703000D01*
X100606500Y-92701000D01*
X101508500Y-92701000D01*
X101508500Y-93703000D01*
G37*
G36*
X99608500Y-93703000D02*
G01*
X98706500Y-93703000D01*
X98706500Y-92701000D01*
X99608500Y-92701000D01*
X99608500Y-93703000D01*
G37*
G36*
X213108500Y-93703000D02*
G01*
X212206500Y-93703000D01*
X212206500Y-92701000D01*
X213108500Y-92701000D01*
X213108500Y-93703000D01*
G37*
G36*
X233528500Y-93703000D02*
G01*
X232626500Y-93703000D01*
X232626500Y-92701000D01*
X233528500Y-92701000D01*
X233528500Y-93703000D01*
G37*
G36*
X235428500Y-93703000D02*
G01*
X234526500Y-93703000D01*
X234526500Y-92701000D01*
X235428500Y-92701000D01*
X235428500Y-93703000D01*
G37*
G36*
X211208500Y-93703000D02*
G01*
X210306500Y-93703000D01*
X210306500Y-92701000D01*
X211208500Y-92701000D01*
X211208500Y-93703000D01*
G37*
G36*
X123828500Y-93703000D02*
G01*
X122926500Y-93703000D01*
X122926500Y-92701000D01*
X123828500Y-92701000D01*
X123828500Y-93703000D01*
G37*
G36*
X94613500Y-92595000D02*
G01*
X93211500Y-92595000D01*
X93211500Y-90793000D01*
X94613500Y-90793000D01*
X94613500Y-92595000D01*
G37*
G36*
X183893500Y-92595000D02*
G01*
X182491500Y-92595000D01*
X182491500Y-90793000D01*
X183893500Y-90793000D01*
X183893500Y-92595000D01*
G37*
G36*
X206213500Y-92595000D02*
G01*
X204811500Y-92595000D01*
X204811500Y-90793000D01*
X206213500Y-90793000D01*
X206213500Y-92595000D01*
G37*
G36*
X116933500Y-92595000D02*
G01*
X115531500Y-92595000D01*
X115531500Y-90793000D01*
X116933500Y-90793000D01*
X116933500Y-92595000D01*
G37*
G36*
X187393500Y-92595000D02*
G01*
X185991500Y-92595000D01*
X185991500Y-90793000D01*
X187393500Y-90793000D01*
X187393500Y-92595000D01*
G37*
G36*
X98113500Y-92595000D02*
G01*
X96711500Y-92595000D01*
X96711500Y-90793000D01*
X98113500Y-90793000D01*
X98113500Y-92595000D01*
G37*
G36*
X120433500Y-92595000D02*
G01*
X119031500Y-92595000D01*
X119031500Y-90793000D01*
X120433500Y-90793000D01*
X120433500Y-92595000D01*
G37*
G36*
X139253500Y-92595000D02*
G01*
X137851500Y-92595000D01*
X137851500Y-90793000D01*
X139253500Y-90793000D01*
X139253500Y-92595000D01*
G37*
G36*
X165073500Y-92595000D02*
G01*
X163671500Y-92595000D01*
X163671500Y-90793000D01*
X165073500Y-90793000D01*
X165073500Y-92595000D01*
G37*
G36*
X75793500Y-92595000D02*
G01*
X74391500Y-92595000D01*
X74391500Y-90793000D01*
X75793500Y-90793000D01*
X75793500Y-92595000D01*
G37*
G36*
X209713500Y-92595000D02*
G01*
X208311500Y-92595000D01*
X208311500Y-90793000D01*
X209713500Y-90793000D01*
X209713500Y-92595000D01*
G37*
G36*
X72293500Y-92595000D02*
G01*
X70891500Y-92595000D01*
X70891500Y-90793000D01*
X72293500Y-90793000D01*
X72293500Y-92595000D01*
G37*
G36*
X232033500Y-92595000D02*
G01*
X230631500Y-92595000D01*
X230631500Y-90793000D01*
X232033500Y-90793000D01*
X232033500Y-92595000D01*
G37*
G36*
X228533500Y-92595000D02*
G01*
X227131500Y-92595000D01*
X227131500Y-90793000D01*
X228533500Y-90793000D01*
X228533500Y-92595000D01*
G37*
G36*
X142753500Y-92595000D02*
G01*
X141351500Y-92595000D01*
X141351500Y-90793000D01*
X142753500Y-90793000D01*
X142753500Y-92595000D01*
G37*
G36*
X161573500Y-92595000D02*
G01*
X160171500Y-92595000D01*
X160171500Y-90793000D01*
X161573500Y-90793000D01*
X161573500Y-92595000D01*
G37*
G36*
X189838500Y-91703000D02*
G01*
X188936500Y-91703000D01*
X188936500Y-90701000D01*
X189838500Y-90701000D01*
X189838500Y-91703000D01*
G37*
G36*
X78238500Y-91703000D02*
G01*
X77336500Y-91703000D01*
X77336500Y-90701000D01*
X78238500Y-90701000D01*
X78238500Y-91703000D01*
G37*
G36*
X100558500Y-91703000D02*
G01*
X99656500Y-91703000D01*
X99656500Y-90701000D01*
X100558500Y-90701000D01*
X100558500Y-91703000D01*
G37*
G36*
X122878500Y-91703000D02*
G01*
X121976500Y-91703000D01*
X121976500Y-90701000D01*
X122878500Y-90701000D01*
X122878500Y-91703000D01*
G37*
G36*
X145198500Y-91703000D02*
G01*
X144296500Y-91703000D01*
X144296500Y-90701000D01*
X145198500Y-90701000D01*
X145198500Y-91703000D01*
G37*
G36*
X167518500Y-91703000D02*
G01*
X166616500Y-91703000D01*
X166616500Y-90701000D01*
X167518500Y-90701000D01*
X167518500Y-91703000D01*
G37*
G36*
X234478500Y-91703000D02*
G01*
X233576500Y-91703000D01*
X233576500Y-90701000D01*
X234478500Y-90701000D01*
X234478500Y-91703000D01*
G37*
G36*
X212158500Y-91703000D02*
G01*
X211256500Y-91703000D01*
X211256500Y-90701000D01*
X212158500Y-90701000D01*
X212158500Y-91703000D01*
G37*
G36*
X225074085Y-86901802D02*
G01*
X225223910Y-86931604D01*
X225506174Y-87048521D01*
X225760205Y-87218259D01*
X225976241Y-87434295D01*
X226145979Y-87688326D01*
X226262896Y-87970590D01*
X226322500Y-88270240D01*
X226322500Y-88575760D01*
X226262896Y-88875410D01*
X226145979Y-89157674D01*
X225976241Y-89411705D01*
X225760205Y-89627741D01*
X225506174Y-89797479D01*
X225223910Y-89914396D01*
X225074085Y-89944198D01*
X224924261Y-89974000D01*
X224618739Y-89974000D01*
X224468915Y-89944198D01*
X224319090Y-89914396D01*
X224036826Y-89797479D01*
X223782795Y-89627741D01*
X223566759Y-89411705D01*
X223397021Y-89157674D01*
X223280104Y-88875410D01*
X223220500Y-88575760D01*
X223220500Y-88270240D01*
X223280104Y-87970590D01*
X223397021Y-87688326D01*
X223566759Y-87434295D01*
X223782795Y-87218259D01*
X224036826Y-87048521D01*
X224319090Y-86931604D01*
X224468915Y-86901802D01*
X224618739Y-86872000D01*
X224924261Y-86872000D01*
X225074085Y-86901802D01*
G37*
G36*
X202754085Y-86901802D02*
G01*
X202903910Y-86931604D01*
X203186174Y-87048521D01*
X203440205Y-87218259D01*
X203656241Y-87434295D01*
X203825979Y-87688326D01*
X203942896Y-87970590D01*
X204002500Y-88270240D01*
X204002500Y-88575760D01*
X203942896Y-88875410D01*
X203825979Y-89157674D01*
X203656241Y-89411705D01*
X203440205Y-89627741D01*
X203186174Y-89797479D01*
X202903910Y-89914396D01*
X202754085Y-89944198D01*
X202604261Y-89974000D01*
X202298739Y-89974000D01*
X202148915Y-89944198D01*
X201999090Y-89914396D01*
X201716826Y-89797479D01*
X201462795Y-89627741D01*
X201246759Y-89411705D01*
X201077021Y-89157674D01*
X200960104Y-88875410D01*
X200900500Y-88575760D01*
X200900500Y-88270240D01*
X200960104Y-87970590D01*
X201077021Y-87688326D01*
X201246759Y-87434295D01*
X201462795Y-87218259D01*
X201716826Y-87048521D01*
X201999090Y-86931604D01*
X202148915Y-86901802D01*
X202298739Y-86872000D01*
X202604261Y-86872000D01*
X202754085Y-86901802D01*
G37*
G36*
X68834085Y-86901802D02*
G01*
X68983910Y-86931604D01*
X69266174Y-87048521D01*
X69520205Y-87218259D01*
X69736241Y-87434295D01*
X69905979Y-87688326D01*
X70022896Y-87970590D01*
X70082500Y-88270240D01*
X70082500Y-88575760D01*
X70022896Y-88875410D01*
X69905979Y-89157674D01*
X69736241Y-89411705D01*
X69520205Y-89627741D01*
X69266174Y-89797479D01*
X68983910Y-89914396D01*
X68834085Y-89944198D01*
X68684261Y-89974000D01*
X68378739Y-89974000D01*
X68228915Y-89944198D01*
X68079090Y-89914396D01*
X67796826Y-89797479D01*
X67542795Y-89627741D01*
X67326759Y-89411705D01*
X67157021Y-89157674D01*
X67040104Y-88875410D01*
X66980500Y-88575760D01*
X66980500Y-88270240D01*
X67040104Y-87970590D01*
X67157021Y-87688326D01*
X67326759Y-87434295D01*
X67542795Y-87218259D01*
X67796826Y-87048521D01*
X68079090Y-86931604D01*
X68228915Y-86901802D01*
X68378739Y-86872000D01*
X68684261Y-86872000D01*
X68834085Y-86901802D01*
G37*
G36*
X91154085Y-86901802D02*
G01*
X91303910Y-86931604D01*
X91586174Y-87048521D01*
X91840205Y-87218259D01*
X92056241Y-87434295D01*
X92225979Y-87688326D01*
X92342896Y-87970590D01*
X92402500Y-88270240D01*
X92402500Y-88575760D01*
X92342896Y-88875410D01*
X92225979Y-89157674D01*
X92056241Y-89411705D01*
X91840205Y-89627741D01*
X91586174Y-89797479D01*
X91303910Y-89914396D01*
X91154085Y-89944198D01*
X91004261Y-89974000D01*
X90698739Y-89974000D01*
X90548915Y-89944198D01*
X90399090Y-89914396D01*
X90116826Y-89797479D01*
X89862795Y-89627741D01*
X89646759Y-89411705D01*
X89477021Y-89157674D01*
X89360104Y-88875410D01*
X89300500Y-88575760D01*
X89300500Y-88270240D01*
X89360104Y-87970590D01*
X89477021Y-87688326D01*
X89646759Y-87434295D01*
X89862795Y-87218259D01*
X90116826Y-87048521D01*
X90399090Y-86931604D01*
X90548915Y-86901802D01*
X90698739Y-86872000D01*
X91004261Y-86872000D01*
X91154085Y-86901802D01*
G37*
G36*
X180434085Y-86901802D02*
G01*
X180583910Y-86931604D01*
X180866174Y-87048521D01*
X181120205Y-87218259D01*
X181336241Y-87434295D01*
X181505979Y-87688326D01*
X181622896Y-87970590D01*
X181682500Y-88270240D01*
X181682500Y-88575760D01*
X181622896Y-88875410D01*
X181505979Y-89157674D01*
X181336241Y-89411705D01*
X181120205Y-89627741D01*
X180866174Y-89797479D01*
X180583910Y-89914396D01*
X180434085Y-89944198D01*
X180284261Y-89974000D01*
X179978739Y-89974000D01*
X179828915Y-89944198D01*
X179679090Y-89914396D01*
X179396826Y-89797479D01*
X179142795Y-89627741D01*
X178926759Y-89411705D01*
X178757021Y-89157674D01*
X178640104Y-88875410D01*
X178580500Y-88575760D01*
X178580500Y-88270240D01*
X178640104Y-87970590D01*
X178757021Y-87688326D01*
X178926759Y-87434295D01*
X179142795Y-87218259D01*
X179396826Y-87048521D01*
X179679090Y-86931604D01*
X179828915Y-86901802D01*
X179978739Y-86872000D01*
X180284261Y-86872000D01*
X180434085Y-86901802D01*
G37*
G36*
X158114085Y-86901802D02*
G01*
X158263910Y-86931604D01*
X158546174Y-87048521D01*
X158800205Y-87218259D01*
X159016241Y-87434295D01*
X159185979Y-87688326D01*
X159302896Y-87970590D01*
X159362500Y-88270240D01*
X159362500Y-88575760D01*
X159302896Y-88875410D01*
X159185979Y-89157674D01*
X159016241Y-89411705D01*
X158800205Y-89627741D01*
X158546174Y-89797479D01*
X158263910Y-89914396D01*
X158114085Y-89944198D01*
X157964261Y-89974000D01*
X157658739Y-89974000D01*
X157508915Y-89944198D01*
X157359090Y-89914396D01*
X157076826Y-89797479D01*
X156822795Y-89627741D01*
X156606759Y-89411705D01*
X156437021Y-89157674D01*
X156320104Y-88875410D01*
X156260500Y-88575760D01*
X156260500Y-88270240D01*
X156320104Y-87970590D01*
X156437021Y-87688326D01*
X156606759Y-87434295D01*
X156822795Y-87218259D01*
X157076826Y-87048521D01*
X157359090Y-86931604D01*
X157508915Y-86901802D01*
X157658739Y-86872000D01*
X157964261Y-86872000D01*
X158114085Y-86901802D01*
G37*
G36*
X135794085Y-86901802D02*
G01*
X135943910Y-86931604D01*
X136226174Y-87048521D01*
X136480205Y-87218259D01*
X136696241Y-87434295D01*
X136865979Y-87688326D01*
X136982896Y-87970590D01*
X137042500Y-88270240D01*
X137042500Y-88575760D01*
X136982896Y-88875410D01*
X136865979Y-89157674D01*
X136696241Y-89411705D01*
X136480205Y-89627741D01*
X136226174Y-89797479D01*
X135943910Y-89914396D01*
X135794085Y-89944198D01*
X135644261Y-89974000D01*
X135338739Y-89974000D01*
X135188915Y-89944198D01*
X135039090Y-89914396D01*
X134756826Y-89797479D01*
X134502795Y-89627741D01*
X134286759Y-89411705D01*
X134117021Y-89157674D01*
X134000104Y-88875410D01*
X133940500Y-88575760D01*
X133940500Y-88270240D01*
X134000104Y-87970590D01*
X134117021Y-87688326D01*
X134286759Y-87434295D01*
X134502795Y-87218259D01*
X134756826Y-87048521D01*
X135039090Y-86931604D01*
X135188915Y-86901802D01*
X135338739Y-86872000D01*
X135644261Y-86872000D01*
X135794085Y-86901802D01*
G37*
G36*
X113474085Y-86901802D02*
G01*
X113623910Y-86931604D01*
X113906174Y-87048521D01*
X114160205Y-87218259D01*
X114376241Y-87434295D01*
X114545979Y-87688326D01*
X114662896Y-87970590D01*
X114722500Y-88270240D01*
X114722500Y-88575760D01*
X114662896Y-88875410D01*
X114545979Y-89157674D01*
X114376241Y-89411705D01*
X114160205Y-89627741D01*
X113906174Y-89797479D01*
X113623910Y-89914396D01*
X113474085Y-89944198D01*
X113324261Y-89974000D01*
X113018739Y-89974000D01*
X112868915Y-89944198D01*
X112719090Y-89914396D01*
X112436826Y-89797479D01*
X112182795Y-89627741D01*
X111966759Y-89411705D01*
X111797021Y-89157674D01*
X111680104Y-88875410D01*
X111620500Y-88575760D01*
X111620500Y-88270240D01*
X111680104Y-87970590D01*
X111797021Y-87688326D01*
X111966759Y-87434295D01*
X112182795Y-87218259D01*
X112436826Y-87048521D01*
X112719090Y-86931604D01*
X112868915Y-86901802D01*
X113018739Y-86872000D01*
X113324261Y-86872000D01*
X113474085Y-86901802D01*
G37*
G36*
X215080987Y-87121996D02*
G01*
X215313388Y-87218260D01*
X215317755Y-87220069D01*
X215530839Y-87362447D01*
X215712053Y-87543661D01*
X215854432Y-87756747D01*
X215952504Y-87993513D01*
X216002500Y-88244861D01*
X216002500Y-88501139D01*
X215952504Y-88752487D01*
X215901588Y-88875409D01*
X215854431Y-88989255D01*
X215712053Y-89202339D01*
X215530839Y-89383553D01*
X215317755Y-89525931D01*
X215317754Y-89525932D01*
X215317753Y-89525932D01*
X215080987Y-89624004D01*
X214829639Y-89674000D01*
X214573361Y-89674000D01*
X214322013Y-89624004D01*
X214085247Y-89525932D01*
X214085246Y-89525932D01*
X214085245Y-89525931D01*
X213872161Y-89383553D01*
X213690947Y-89202339D01*
X213548569Y-88989255D01*
X213501412Y-88875409D01*
X213450496Y-88752487D01*
X213400500Y-88501139D01*
X213400500Y-88244861D01*
X213450496Y-87993513D01*
X213548568Y-87756747D01*
X213690947Y-87543661D01*
X213872161Y-87362447D01*
X214085245Y-87220069D01*
X214089612Y-87218260D01*
X214322013Y-87121996D01*
X214573361Y-87072000D01*
X214829639Y-87072000D01*
X215080987Y-87121996D01*
G37*
G36*
X103480987Y-87121996D02*
G01*
X103713388Y-87218260D01*
X103717755Y-87220069D01*
X103930839Y-87362447D01*
X104112053Y-87543661D01*
X104254432Y-87756747D01*
X104352504Y-87993513D01*
X104402500Y-88244861D01*
X104402500Y-88501139D01*
X104352504Y-88752487D01*
X104301588Y-88875409D01*
X104254431Y-88989255D01*
X104112053Y-89202339D01*
X103930839Y-89383553D01*
X103717755Y-89525931D01*
X103717754Y-89525932D01*
X103717753Y-89525932D01*
X103480987Y-89624004D01*
X103229639Y-89674000D01*
X102973361Y-89674000D01*
X102722013Y-89624004D01*
X102485247Y-89525932D01*
X102485246Y-89525932D01*
X102485245Y-89525931D01*
X102272161Y-89383553D01*
X102090947Y-89202339D01*
X101948569Y-88989255D01*
X101901412Y-88875409D01*
X101850496Y-88752487D01*
X101800500Y-88501139D01*
X101800500Y-88244861D01*
X101850496Y-87993513D01*
X101948568Y-87756747D01*
X102090947Y-87543661D01*
X102272161Y-87362447D01*
X102485245Y-87220069D01*
X102489612Y-87218260D01*
X102722013Y-87121996D01*
X102973361Y-87072000D01*
X103229639Y-87072000D01*
X103480987Y-87121996D01*
G37*
G36*
X192760987Y-87121996D02*
G01*
X192993388Y-87218260D01*
X192997755Y-87220069D01*
X193210839Y-87362447D01*
X193392053Y-87543661D01*
X193534432Y-87756747D01*
X193632504Y-87993513D01*
X193682500Y-88244861D01*
X193682500Y-88501139D01*
X193632504Y-88752487D01*
X193581588Y-88875409D01*
X193534431Y-88989255D01*
X193392053Y-89202339D01*
X193210839Y-89383553D01*
X192997755Y-89525931D01*
X192997754Y-89525932D01*
X192997753Y-89525932D01*
X192760987Y-89624004D01*
X192509639Y-89674000D01*
X192253361Y-89674000D01*
X192002013Y-89624004D01*
X191765247Y-89525932D01*
X191765246Y-89525932D01*
X191765245Y-89525931D01*
X191552161Y-89383553D01*
X191370947Y-89202339D01*
X191228569Y-88989255D01*
X191181412Y-88875409D01*
X191130496Y-88752487D01*
X191080500Y-88501139D01*
X191080500Y-88244861D01*
X191130496Y-87993513D01*
X191228568Y-87756747D01*
X191370947Y-87543661D01*
X191552161Y-87362447D01*
X191765245Y-87220069D01*
X191769612Y-87218260D01*
X192002013Y-87121996D01*
X192253361Y-87072000D01*
X192509639Y-87072000D01*
X192760987Y-87121996D01*
G37*
G36*
X125800987Y-87121996D02*
G01*
X126033388Y-87218260D01*
X126037755Y-87220069D01*
X126250839Y-87362447D01*
X126432053Y-87543661D01*
X126574432Y-87756747D01*
X126672504Y-87993513D01*
X126722500Y-88244861D01*
X126722500Y-88501139D01*
X126672504Y-88752487D01*
X126621588Y-88875409D01*
X126574431Y-88989255D01*
X126432053Y-89202339D01*
X126250839Y-89383553D01*
X126037755Y-89525931D01*
X126037754Y-89525932D01*
X126037753Y-89525932D01*
X125800987Y-89624004D01*
X125549639Y-89674000D01*
X125293361Y-89674000D01*
X125042013Y-89624004D01*
X124805247Y-89525932D01*
X124805246Y-89525932D01*
X124805245Y-89525931D01*
X124592161Y-89383553D01*
X124410947Y-89202339D01*
X124268569Y-88989255D01*
X124221412Y-88875409D01*
X124170496Y-88752487D01*
X124120500Y-88501139D01*
X124120500Y-88244861D01*
X124170496Y-87993513D01*
X124268568Y-87756747D01*
X124410947Y-87543661D01*
X124592161Y-87362447D01*
X124805245Y-87220069D01*
X124809612Y-87218260D01*
X125042013Y-87121996D01*
X125293361Y-87072000D01*
X125549639Y-87072000D01*
X125800987Y-87121996D01*
G37*
G36*
X148120987Y-87121996D02*
G01*
X148353388Y-87218260D01*
X148357755Y-87220069D01*
X148570839Y-87362447D01*
X148752053Y-87543661D01*
X148894432Y-87756747D01*
X148992504Y-87993513D01*
X149042500Y-88244861D01*
X149042500Y-88501139D01*
X148992504Y-88752487D01*
X148941588Y-88875409D01*
X148894431Y-88989255D01*
X148752053Y-89202339D01*
X148570839Y-89383553D01*
X148357755Y-89525931D01*
X148357754Y-89525932D01*
X148357753Y-89525932D01*
X148120987Y-89624004D01*
X147869639Y-89674000D01*
X147613361Y-89674000D01*
X147362013Y-89624004D01*
X147125247Y-89525932D01*
X147125246Y-89525932D01*
X147125245Y-89525931D01*
X146912161Y-89383553D01*
X146730947Y-89202339D01*
X146588569Y-88989255D01*
X146541412Y-88875409D01*
X146490496Y-88752487D01*
X146440500Y-88501139D01*
X146440500Y-88244861D01*
X146490496Y-87993513D01*
X146588568Y-87756747D01*
X146730947Y-87543661D01*
X146912161Y-87362447D01*
X147125245Y-87220069D01*
X147129612Y-87218260D01*
X147362013Y-87121996D01*
X147613361Y-87072000D01*
X147869639Y-87072000D01*
X148120987Y-87121996D01*
G37*
G36*
X170440987Y-87121996D02*
G01*
X170673388Y-87218260D01*
X170677755Y-87220069D01*
X170890839Y-87362447D01*
X171072053Y-87543661D01*
X171214432Y-87756747D01*
X171312504Y-87993513D01*
X171362500Y-88244861D01*
X171362500Y-88501139D01*
X171312504Y-88752487D01*
X171261588Y-88875409D01*
X171214431Y-88989255D01*
X171072053Y-89202339D01*
X170890839Y-89383553D01*
X170677755Y-89525931D01*
X170677754Y-89525932D01*
X170677753Y-89525932D01*
X170440987Y-89624004D01*
X170189639Y-89674000D01*
X169933361Y-89674000D01*
X169682013Y-89624004D01*
X169445247Y-89525932D01*
X169445246Y-89525932D01*
X169445245Y-89525931D01*
X169232161Y-89383553D01*
X169050947Y-89202339D01*
X168908569Y-88989255D01*
X168861412Y-88875409D01*
X168810496Y-88752487D01*
X168760500Y-88501139D01*
X168760500Y-88244861D01*
X168810496Y-87993513D01*
X168908568Y-87756747D01*
X169050947Y-87543661D01*
X169232161Y-87362447D01*
X169445245Y-87220069D01*
X169449612Y-87218260D01*
X169682013Y-87121996D01*
X169933361Y-87072000D01*
X170189639Y-87072000D01*
X170440987Y-87121996D01*
G37*
G36*
X81160987Y-87121996D02*
G01*
X81393388Y-87218260D01*
X81397755Y-87220069D01*
X81610839Y-87362447D01*
X81792053Y-87543661D01*
X81934432Y-87756747D01*
X82032504Y-87993513D01*
X82082500Y-88244861D01*
X82082500Y-88501139D01*
X82032504Y-88752487D01*
X81981588Y-88875409D01*
X81934431Y-88989255D01*
X81792053Y-89202339D01*
X81610839Y-89383553D01*
X81397755Y-89525931D01*
X81397754Y-89525932D01*
X81397753Y-89525932D01*
X81160987Y-89624004D01*
X80909639Y-89674000D01*
X80653361Y-89674000D01*
X80402013Y-89624004D01*
X80165247Y-89525932D01*
X80165246Y-89525932D01*
X80165245Y-89525931D01*
X79952161Y-89383553D01*
X79770947Y-89202339D01*
X79628569Y-88989255D01*
X79581412Y-88875409D01*
X79530496Y-88752487D01*
X79480500Y-88501139D01*
X79480500Y-88244861D01*
X79530496Y-87993513D01*
X79628568Y-87756747D01*
X79770947Y-87543661D01*
X79952161Y-87362447D01*
X80165245Y-87220069D01*
X80169612Y-87218260D01*
X80402013Y-87121996D01*
X80653361Y-87072000D01*
X80909639Y-87072000D01*
X81160987Y-87121996D01*
G37*
G36*
X237400987Y-87121996D02*
G01*
X237633388Y-87218260D01*
X237637755Y-87220069D01*
X237850839Y-87362447D01*
X238032053Y-87543661D01*
X238174432Y-87756747D01*
X238272504Y-87993513D01*
X238322500Y-88244861D01*
X238322500Y-88501139D01*
X238272504Y-88752487D01*
X238221588Y-88875409D01*
X238174431Y-88989255D01*
X238032053Y-89202339D01*
X237850839Y-89383553D01*
X237637755Y-89525931D01*
X237637754Y-89525932D01*
X237637753Y-89525932D01*
X237400987Y-89624004D01*
X237149639Y-89674000D01*
X236893361Y-89674000D01*
X236642013Y-89624004D01*
X236405247Y-89525932D01*
X236405246Y-89525932D01*
X236405245Y-89525931D01*
X236192161Y-89383553D01*
X236010947Y-89202339D01*
X235868569Y-88989255D01*
X235821412Y-88875409D01*
X235770496Y-88752487D01*
X235720500Y-88501139D01*
X235720500Y-88244861D01*
X235770496Y-87993513D01*
X235868568Y-87756747D01*
X236010947Y-87543661D01*
X236192161Y-87362447D01*
X236405245Y-87220069D01*
X236409612Y-87218260D01*
X236642013Y-87121996D01*
X236893361Y-87072000D01*
X237149639Y-87072000D01*
X237400987Y-87121996D01*
G37*
G36*
X83034085Y-80901802D02*
G01*
X83183910Y-80931604D01*
X83466174Y-81048521D01*
X83720205Y-81218259D01*
X83936241Y-81434295D01*
X84105979Y-81688326D01*
X84222896Y-81970590D01*
X84282500Y-82270240D01*
X84282500Y-82575760D01*
X84222896Y-82875410D01*
X84105979Y-83157674D01*
X83936241Y-83411705D01*
X83720205Y-83627741D01*
X83466174Y-83797479D01*
X83183910Y-83914396D01*
X83034085Y-83944198D01*
X82884261Y-83974000D01*
X82578739Y-83974000D01*
X82428915Y-83944198D01*
X82279090Y-83914396D01*
X81996826Y-83797479D01*
X81742795Y-83627741D01*
X81526759Y-83411705D01*
X81357021Y-83157674D01*
X81240104Y-82875410D01*
X81180500Y-82575760D01*
X81180500Y-82270240D01*
X81240104Y-81970590D01*
X81357021Y-81688326D01*
X81526759Y-81434295D01*
X81742795Y-81218259D01*
X81996826Y-81048521D01*
X82279090Y-80931604D01*
X82428915Y-80901802D01*
X82578739Y-80872000D01*
X82884261Y-80872000D01*
X83034085Y-80901802D01*
G37*
G36*
X105354085Y-80901802D02*
G01*
X105503910Y-80931604D01*
X105786174Y-81048521D01*
X106040205Y-81218259D01*
X106256241Y-81434295D01*
X106425979Y-81688326D01*
X106542896Y-81970590D01*
X106602500Y-82270240D01*
X106602500Y-82575760D01*
X106542896Y-82875410D01*
X106425979Y-83157674D01*
X106256241Y-83411705D01*
X106040205Y-83627741D01*
X105786174Y-83797479D01*
X105503910Y-83914396D01*
X105354085Y-83944198D01*
X105204261Y-83974000D01*
X104898739Y-83974000D01*
X104748915Y-83944198D01*
X104599090Y-83914396D01*
X104316826Y-83797479D01*
X104062795Y-83627741D01*
X103846759Y-83411705D01*
X103677021Y-83157674D01*
X103560104Y-82875410D01*
X103500500Y-82575760D01*
X103500500Y-82270240D01*
X103560104Y-81970590D01*
X103677021Y-81688326D01*
X103846759Y-81434295D01*
X104062795Y-81218259D01*
X104316826Y-81048521D01*
X104599090Y-80931604D01*
X104748915Y-80901802D01*
X104898739Y-80872000D01*
X105204261Y-80872000D01*
X105354085Y-80901802D01*
G37*
G36*
X127674085Y-80901802D02*
G01*
X127823910Y-80931604D01*
X128106174Y-81048521D01*
X128360205Y-81218259D01*
X128576241Y-81434295D01*
X128745979Y-81688326D01*
X128862896Y-81970590D01*
X128922500Y-82270240D01*
X128922500Y-82575760D01*
X128862896Y-82875410D01*
X128745979Y-83157674D01*
X128576241Y-83411705D01*
X128360205Y-83627741D01*
X128106174Y-83797479D01*
X127823910Y-83914396D01*
X127674085Y-83944198D01*
X127524261Y-83974000D01*
X127218739Y-83974000D01*
X127068915Y-83944198D01*
X126919090Y-83914396D01*
X126636826Y-83797479D01*
X126382795Y-83627741D01*
X126166759Y-83411705D01*
X125997021Y-83157674D01*
X125880104Y-82875410D01*
X125820500Y-82575760D01*
X125820500Y-82270240D01*
X125880104Y-81970590D01*
X125997021Y-81688326D01*
X126166759Y-81434295D01*
X126382795Y-81218259D01*
X126636826Y-81048521D01*
X126919090Y-80931604D01*
X127068915Y-80901802D01*
X127218739Y-80872000D01*
X127524261Y-80872000D01*
X127674085Y-80901802D01*
G37*
G36*
X172314085Y-80901802D02*
G01*
X172463910Y-80931604D01*
X172746174Y-81048521D01*
X173000205Y-81218259D01*
X173216241Y-81434295D01*
X173385979Y-81688326D01*
X173502896Y-81970590D01*
X173562500Y-82270240D01*
X173562500Y-82575760D01*
X173502896Y-82875410D01*
X173385979Y-83157674D01*
X173216241Y-83411705D01*
X173000205Y-83627741D01*
X172746174Y-83797479D01*
X172463910Y-83914396D01*
X172314085Y-83944198D01*
X172164261Y-83974000D01*
X171858739Y-83974000D01*
X171708915Y-83944198D01*
X171559090Y-83914396D01*
X171276826Y-83797479D01*
X171022795Y-83627741D01*
X170806759Y-83411705D01*
X170637021Y-83157674D01*
X170520104Y-82875410D01*
X170460500Y-82575760D01*
X170460500Y-82270240D01*
X170520104Y-81970590D01*
X170637021Y-81688326D01*
X170806759Y-81434295D01*
X171022795Y-81218259D01*
X171276826Y-81048521D01*
X171559090Y-80931604D01*
X171708915Y-80901802D01*
X171858739Y-80872000D01*
X172164261Y-80872000D01*
X172314085Y-80901802D01*
G37*
G36*
X149994085Y-80901802D02*
G01*
X150143910Y-80931604D01*
X150426174Y-81048521D01*
X150680205Y-81218259D01*
X150896241Y-81434295D01*
X151065979Y-81688326D01*
X151182896Y-81970590D01*
X151242500Y-82270240D01*
X151242500Y-82575760D01*
X151182896Y-82875410D01*
X151065979Y-83157674D01*
X150896241Y-83411705D01*
X150680205Y-83627741D01*
X150426174Y-83797479D01*
X150143910Y-83914396D01*
X149994085Y-83944198D01*
X149844261Y-83974000D01*
X149538739Y-83974000D01*
X149388915Y-83944198D01*
X149239090Y-83914396D01*
X148956826Y-83797479D01*
X148702795Y-83627741D01*
X148486759Y-83411705D01*
X148317021Y-83157674D01*
X148200104Y-82875410D01*
X148140500Y-82575760D01*
X148140500Y-82270240D01*
X148200104Y-81970590D01*
X148317021Y-81688326D01*
X148486759Y-81434295D01*
X148702795Y-81218259D01*
X148956826Y-81048521D01*
X149239090Y-80931604D01*
X149388915Y-80901802D01*
X149538739Y-80872000D01*
X149844261Y-80872000D01*
X149994085Y-80901802D01*
G37*
G36*
X239274085Y-80901802D02*
G01*
X239423910Y-80931604D01*
X239706174Y-81048521D01*
X239960205Y-81218259D01*
X240176241Y-81434295D01*
X240345979Y-81688326D01*
X240462896Y-81970590D01*
X240522500Y-82270240D01*
X240522500Y-82575760D01*
X240462896Y-82875410D01*
X240345979Y-83157674D01*
X240176241Y-83411705D01*
X239960205Y-83627741D01*
X239706174Y-83797479D01*
X239423910Y-83914396D01*
X239274085Y-83944198D01*
X239124261Y-83974000D01*
X238818739Y-83974000D01*
X238668915Y-83944198D01*
X238519090Y-83914396D01*
X238236826Y-83797479D01*
X237982795Y-83627741D01*
X237766759Y-83411705D01*
X237597021Y-83157674D01*
X237480104Y-82875410D01*
X237420500Y-82575760D01*
X237420500Y-82270240D01*
X237480104Y-81970590D01*
X237597021Y-81688326D01*
X237766759Y-81434295D01*
X237982795Y-81218259D01*
X238236826Y-81048521D01*
X238519090Y-80931604D01*
X238668915Y-80901802D01*
X238818739Y-80872000D01*
X239124261Y-80872000D01*
X239274085Y-80901802D01*
G37*
G36*
X216954085Y-80901802D02*
G01*
X217103910Y-80931604D01*
X217386174Y-81048521D01*
X217640205Y-81218259D01*
X217856241Y-81434295D01*
X218025979Y-81688326D01*
X218142896Y-81970590D01*
X218202500Y-82270240D01*
X218202500Y-82575760D01*
X218142896Y-82875410D01*
X218025979Y-83157674D01*
X217856241Y-83411705D01*
X217640205Y-83627741D01*
X217386174Y-83797479D01*
X217103910Y-83914396D01*
X216954085Y-83944198D01*
X216804261Y-83974000D01*
X216498739Y-83974000D01*
X216348915Y-83944198D01*
X216199090Y-83914396D01*
X215916826Y-83797479D01*
X215662795Y-83627741D01*
X215446759Y-83411705D01*
X215277021Y-83157674D01*
X215160104Y-82875410D01*
X215100500Y-82575760D01*
X215100500Y-82270240D01*
X215160104Y-81970590D01*
X215277021Y-81688326D01*
X215446759Y-81434295D01*
X215662795Y-81218259D01*
X215916826Y-81048521D01*
X216199090Y-80931604D01*
X216348915Y-80901802D01*
X216498739Y-80872000D01*
X216804261Y-80872000D01*
X216954085Y-80901802D01*
G37*
G36*
X194634085Y-80901802D02*
G01*
X194783910Y-80931604D01*
X195066174Y-81048521D01*
X195320205Y-81218259D01*
X195536241Y-81434295D01*
X195705979Y-81688326D01*
X195822896Y-81970590D01*
X195882500Y-82270240D01*
X195882500Y-82575760D01*
X195822896Y-82875410D01*
X195705979Y-83157674D01*
X195536241Y-83411705D01*
X195320205Y-83627741D01*
X195066174Y-83797479D01*
X194783910Y-83914396D01*
X194634085Y-83944198D01*
X194484261Y-83974000D01*
X194178739Y-83974000D01*
X194028915Y-83944198D01*
X193879090Y-83914396D01*
X193596826Y-83797479D01*
X193342795Y-83627741D01*
X193126759Y-83411705D01*
X192957021Y-83157674D01*
X192840104Y-82875410D01*
X192780500Y-82575760D01*
X192780500Y-82270240D01*
X192840104Y-81970590D01*
X192957021Y-81688326D01*
X193126759Y-81434295D01*
X193342795Y-81218259D01*
X193596826Y-81048521D01*
X193879090Y-80931604D01*
X194028915Y-80901802D01*
X194178739Y-80872000D01*
X194484261Y-80872000D01*
X194634085Y-80901802D01*
G37*
G36*
X153193297Y-76430567D02*
G01*
X153248075Y-76453257D01*
X153248077Y-76453258D01*
X153297376Y-76486198D01*
X153339302Y-76528124D01*
X153372242Y-76577423D01*
X153372243Y-76577425D01*
X153394933Y-76632203D01*
X153406500Y-76690353D01*
X153406500Y-76749647D01*
X153394933Y-76807797D01*
X153387637Y-76825410D01*
X153372242Y-76862577D01*
X153339302Y-76911876D01*
X153297376Y-76953802D01*
X153248077Y-76986742D01*
X153241604Y-76991067D01*
X153222662Y-77006612D01*
X153207117Y-77025554D01*
X153195566Y-77047165D01*
X153188453Y-77070614D01*
X153186051Y-77095000D01*
X153188453Y-77119386D01*
X153195566Y-77142835D01*
X153207117Y-77164446D01*
X153222662Y-77183388D01*
X153241604Y-77198933D01*
X153248077Y-77203258D01*
X153297376Y-77236198D01*
X153339302Y-77278124D01*
X153372242Y-77327423D01*
X153372243Y-77327425D01*
X153394933Y-77382203D01*
X153406500Y-77440353D01*
X153406500Y-77499647D01*
X153394933Y-77557797D01*
X153372243Y-77612575D01*
X153372242Y-77612577D01*
X153339302Y-77661876D01*
X153297376Y-77703802D01*
X153248077Y-77736742D01*
X153241604Y-77741067D01*
X153222662Y-77756612D01*
X153207117Y-77775554D01*
X153195566Y-77797165D01*
X153188453Y-77820614D01*
X153186051Y-77845000D01*
X153188453Y-77869386D01*
X153195566Y-77892835D01*
X153207117Y-77914446D01*
X153222662Y-77933388D01*
X153241604Y-77948933D01*
X153248077Y-77953258D01*
X153297376Y-77986198D01*
X153339302Y-78028124D01*
X153372242Y-78077423D01*
X153372243Y-78077425D01*
X153394933Y-78132203D01*
X153406500Y-78190353D01*
X153406500Y-78249647D01*
X153394933Y-78307797D01*
X153372243Y-78362575D01*
X153372242Y-78362577D01*
X153339302Y-78411876D01*
X153297376Y-78453802D01*
X153248077Y-78486742D01*
X153248076Y-78486743D01*
X153248075Y-78486743D01*
X153193297Y-78509433D01*
X153135147Y-78521000D01*
X153075853Y-78521000D01*
X153017703Y-78509433D01*
X152962925Y-78486743D01*
X152962924Y-78486743D01*
X152962923Y-78486742D01*
X152913624Y-78453802D01*
X152871698Y-78411876D01*
X152838758Y-78362577D01*
X152838757Y-78362575D01*
X152816067Y-78307797D01*
X152804500Y-78249647D01*
X152804500Y-78190353D01*
X152816067Y-78132203D01*
X152838757Y-78077425D01*
X152838758Y-78077423D01*
X152871698Y-78028124D01*
X152913624Y-77986198D01*
X152962923Y-77953258D01*
X152969396Y-77948933D01*
X152988338Y-77933388D01*
X153003883Y-77914446D01*
X153015434Y-77892835D01*
X153022547Y-77869386D01*
X153024949Y-77845000D01*
X153022547Y-77820614D01*
X153015434Y-77797165D01*
X153003883Y-77775554D01*
X152988338Y-77756612D01*
X152969396Y-77741067D01*
X152962923Y-77736742D01*
X152913624Y-77703802D01*
X152871698Y-77661876D01*
X152838758Y-77612577D01*
X152838757Y-77612575D01*
X152816067Y-77557797D01*
X152804500Y-77499647D01*
X152804500Y-77440353D01*
X152816067Y-77382203D01*
X152838757Y-77327425D01*
X152838758Y-77327423D01*
X152871698Y-77278124D01*
X152913624Y-77236198D01*
X152962923Y-77203258D01*
X152969396Y-77198933D01*
X152988338Y-77183388D01*
X153003883Y-77164446D01*
X153015434Y-77142835D01*
X153022547Y-77119386D01*
X153024949Y-77095000D01*
X153022547Y-77070614D01*
X153015434Y-77047165D01*
X153003883Y-77025554D01*
X152988338Y-77006612D01*
X152969396Y-76991067D01*
X152962923Y-76986742D01*
X152913624Y-76953802D01*
X152871698Y-76911876D01*
X152838758Y-76862577D01*
X152823363Y-76825410D01*
X152816067Y-76807797D01*
X152804500Y-76749647D01*
X152804500Y-76690353D01*
X152816067Y-76632203D01*
X152838757Y-76577425D01*
X152838758Y-76577423D01*
X152871698Y-76528124D01*
X152913624Y-76486198D01*
X152962923Y-76453258D01*
X152962925Y-76453257D01*
X153017703Y-76430567D01*
X153075853Y-76419000D01*
X153135147Y-76419000D01*
X153193297Y-76430567D01*
G37*
G36*
X130873297Y-76430567D02*
G01*
X130928075Y-76453257D01*
X130928077Y-76453258D01*
X130977376Y-76486198D01*
X131019302Y-76528124D01*
X131052242Y-76577423D01*
X131052243Y-76577425D01*
X131074933Y-76632203D01*
X131086500Y-76690353D01*
X131086500Y-76749647D01*
X131074933Y-76807797D01*
X131067637Y-76825410D01*
X131052242Y-76862577D01*
X131019302Y-76911876D01*
X130977376Y-76953802D01*
X130928077Y-76986742D01*
X130921604Y-76991067D01*
X130902662Y-77006612D01*
X130887117Y-77025554D01*
X130875566Y-77047165D01*
X130868453Y-77070614D01*
X130866051Y-77095000D01*
X130868453Y-77119386D01*
X130875566Y-77142835D01*
X130887117Y-77164446D01*
X130902662Y-77183388D01*
X130921604Y-77198933D01*
X130928077Y-77203258D01*
X130977376Y-77236198D01*
X131019302Y-77278124D01*
X131052242Y-77327423D01*
X131052243Y-77327425D01*
X131074933Y-77382203D01*
X131086500Y-77440353D01*
X131086500Y-77499647D01*
X131074933Y-77557797D01*
X131052243Y-77612575D01*
X131052242Y-77612577D01*
X131019302Y-77661876D01*
X130977376Y-77703802D01*
X130928077Y-77736742D01*
X130921604Y-77741067D01*
X130902662Y-77756612D01*
X130887117Y-77775554D01*
X130875566Y-77797165D01*
X130868453Y-77820614D01*
X130866051Y-77845000D01*
X130868453Y-77869386D01*
X130875566Y-77892835D01*
X130887117Y-77914446D01*
X130902662Y-77933388D01*
X130921604Y-77948933D01*
X130928077Y-77953258D01*
X130977376Y-77986198D01*
X131019302Y-78028124D01*
X131052242Y-78077423D01*
X131052243Y-78077425D01*
X131074933Y-78132203D01*
X131086500Y-78190353D01*
X131086500Y-78249647D01*
X131074933Y-78307797D01*
X131052243Y-78362575D01*
X131052242Y-78362577D01*
X131019302Y-78411876D01*
X130977376Y-78453802D01*
X130928077Y-78486742D01*
X130928076Y-78486743D01*
X130928075Y-78486743D01*
X130873297Y-78509433D01*
X130815147Y-78521000D01*
X130755853Y-78521000D01*
X130697703Y-78509433D01*
X130642925Y-78486743D01*
X130642924Y-78486743D01*
X130642923Y-78486742D01*
X130593624Y-78453802D01*
X130551698Y-78411876D01*
X130518758Y-78362577D01*
X130518757Y-78362575D01*
X130496067Y-78307797D01*
X130484500Y-78249647D01*
X130484500Y-78190353D01*
X130496067Y-78132203D01*
X130518757Y-78077425D01*
X130518758Y-78077423D01*
X130551698Y-78028124D01*
X130593624Y-77986198D01*
X130642923Y-77953258D01*
X130649396Y-77948933D01*
X130668338Y-77933388D01*
X130683883Y-77914446D01*
X130695434Y-77892835D01*
X130702547Y-77869386D01*
X130704949Y-77845000D01*
X130702547Y-77820614D01*
X130695434Y-77797165D01*
X130683883Y-77775554D01*
X130668338Y-77756612D01*
X130649396Y-77741067D01*
X130642923Y-77736742D01*
X130593624Y-77703802D01*
X130551698Y-77661876D01*
X130518758Y-77612577D01*
X130518757Y-77612575D01*
X130496067Y-77557797D01*
X130484500Y-77499647D01*
X130484500Y-77440353D01*
X130496067Y-77382203D01*
X130518757Y-77327425D01*
X130518758Y-77327423D01*
X130551698Y-77278124D01*
X130593624Y-77236198D01*
X130642923Y-77203258D01*
X130649396Y-77198933D01*
X130668338Y-77183388D01*
X130683883Y-77164446D01*
X130695434Y-77142835D01*
X130702547Y-77119386D01*
X130704949Y-77095000D01*
X130702547Y-77070614D01*
X130695434Y-77047165D01*
X130683883Y-77025554D01*
X130668338Y-77006612D01*
X130649396Y-76991067D01*
X130642923Y-76986742D01*
X130593624Y-76953802D01*
X130551698Y-76911876D01*
X130518758Y-76862577D01*
X130503363Y-76825410D01*
X130496067Y-76807797D01*
X130484500Y-76749647D01*
X130484500Y-76690353D01*
X130496067Y-76632203D01*
X130518757Y-76577425D01*
X130518758Y-76577423D01*
X130551698Y-76528124D01*
X130593624Y-76486198D01*
X130642923Y-76453258D01*
X130642925Y-76453257D01*
X130697703Y-76430567D01*
X130755853Y-76419000D01*
X130815147Y-76419000D01*
X130873297Y-76430567D01*
G37*
G36*
X129373297Y-76430567D02*
G01*
X129428075Y-76453257D01*
X129428077Y-76453258D01*
X129477376Y-76486198D01*
X129519302Y-76528124D01*
X129552242Y-76577423D01*
X129552243Y-76577425D01*
X129574933Y-76632203D01*
X129586500Y-76690353D01*
X129586500Y-76749647D01*
X129574933Y-76807797D01*
X129567637Y-76825410D01*
X129552242Y-76862577D01*
X129519302Y-76911876D01*
X129477376Y-76953802D01*
X129428077Y-76986742D01*
X129421604Y-76991067D01*
X129402662Y-77006612D01*
X129387117Y-77025554D01*
X129375566Y-77047165D01*
X129368453Y-77070614D01*
X129366051Y-77095000D01*
X129368453Y-77119386D01*
X129375566Y-77142835D01*
X129387117Y-77164446D01*
X129402662Y-77183388D01*
X129421604Y-77198933D01*
X129428077Y-77203258D01*
X129477376Y-77236198D01*
X129519302Y-77278124D01*
X129552242Y-77327423D01*
X129552243Y-77327425D01*
X129574933Y-77382203D01*
X129586500Y-77440353D01*
X129586500Y-77499647D01*
X129574933Y-77557797D01*
X129552243Y-77612575D01*
X129552242Y-77612577D01*
X129519302Y-77661876D01*
X129477376Y-77703802D01*
X129428077Y-77736742D01*
X129421604Y-77741067D01*
X129402662Y-77756612D01*
X129387117Y-77775554D01*
X129375566Y-77797165D01*
X129368453Y-77820614D01*
X129366051Y-77845000D01*
X129368453Y-77869386D01*
X129375566Y-77892835D01*
X129387117Y-77914446D01*
X129402662Y-77933388D01*
X129421604Y-77948933D01*
X129428077Y-77953258D01*
X129477376Y-77986198D01*
X129519302Y-78028124D01*
X129552242Y-78077423D01*
X129552243Y-78077425D01*
X129574933Y-78132203D01*
X129586500Y-78190353D01*
X129586500Y-78249647D01*
X129574933Y-78307797D01*
X129552243Y-78362575D01*
X129552242Y-78362577D01*
X129519302Y-78411876D01*
X129477376Y-78453802D01*
X129428077Y-78486742D01*
X129428076Y-78486743D01*
X129428075Y-78486743D01*
X129373297Y-78509433D01*
X129315147Y-78521000D01*
X129255853Y-78521000D01*
X129197703Y-78509433D01*
X129142925Y-78486743D01*
X129142924Y-78486743D01*
X129142923Y-78486742D01*
X129093624Y-78453802D01*
X129051698Y-78411876D01*
X129018758Y-78362577D01*
X129018757Y-78362575D01*
X128996067Y-78307797D01*
X128984500Y-78249647D01*
X128984500Y-78190353D01*
X128996067Y-78132203D01*
X129018757Y-78077425D01*
X129018758Y-78077423D01*
X129051698Y-78028124D01*
X129093624Y-77986198D01*
X129142923Y-77953258D01*
X129149396Y-77948933D01*
X129168338Y-77933388D01*
X129183883Y-77914446D01*
X129195434Y-77892835D01*
X129202547Y-77869386D01*
X129204949Y-77845000D01*
X129202547Y-77820614D01*
X129195434Y-77797165D01*
X129183883Y-77775554D01*
X129168338Y-77756612D01*
X129149396Y-77741067D01*
X129142923Y-77736742D01*
X129093624Y-77703802D01*
X129051698Y-77661876D01*
X129018758Y-77612577D01*
X129018757Y-77612575D01*
X128996067Y-77557797D01*
X128984500Y-77499647D01*
X128984500Y-77440353D01*
X128996067Y-77382203D01*
X129018757Y-77327425D01*
X129018758Y-77327423D01*
X129051698Y-77278124D01*
X129093624Y-77236198D01*
X129142923Y-77203258D01*
X129149396Y-77198933D01*
X129168338Y-77183388D01*
X129183883Y-77164446D01*
X129195434Y-77142835D01*
X129202547Y-77119386D01*
X129204949Y-77095000D01*
X129202547Y-77070614D01*
X129195434Y-77047165D01*
X129183883Y-77025554D01*
X129168338Y-77006612D01*
X129149396Y-76991067D01*
X129142923Y-76986742D01*
X129093624Y-76953802D01*
X129051698Y-76911876D01*
X129018758Y-76862577D01*
X129003363Y-76825410D01*
X128996067Y-76807797D01*
X128984500Y-76749647D01*
X128984500Y-76690353D01*
X128996067Y-76632203D01*
X129018757Y-76577425D01*
X129018758Y-76577423D01*
X129051698Y-76528124D01*
X129093624Y-76486198D01*
X129142923Y-76453258D01*
X129142925Y-76453257D01*
X129197703Y-76430567D01*
X129255853Y-76419000D01*
X129315147Y-76419000D01*
X129373297Y-76430567D01*
G37*
G36*
X108553297Y-76430567D02*
G01*
X108608075Y-76453257D01*
X108608077Y-76453258D01*
X108657376Y-76486198D01*
X108699302Y-76528124D01*
X108732242Y-76577423D01*
X108732243Y-76577425D01*
X108754933Y-76632203D01*
X108766500Y-76690353D01*
X108766500Y-76749647D01*
X108754933Y-76807797D01*
X108747637Y-76825410D01*
X108732242Y-76862577D01*
X108699302Y-76911876D01*
X108657376Y-76953802D01*
X108608077Y-76986742D01*
X108601604Y-76991067D01*
X108582662Y-77006612D01*
X108567117Y-77025554D01*
X108555566Y-77047165D01*
X108548453Y-77070614D01*
X108546051Y-77095000D01*
X108548453Y-77119386D01*
X108555566Y-77142835D01*
X108567117Y-77164446D01*
X108582662Y-77183388D01*
X108601604Y-77198933D01*
X108608077Y-77203258D01*
X108657376Y-77236198D01*
X108699302Y-77278124D01*
X108732242Y-77327423D01*
X108732243Y-77327425D01*
X108754933Y-77382203D01*
X108766500Y-77440353D01*
X108766500Y-77499647D01*
X108754933Y-77557797D01*
X108732243Y-77612575D01*
X108732242Y-77612577D01*
X108699302Y-77661876D01*
X108657376Y-77703802D01*
X108608077Y-77736742D01*
X108601604Y-77741067D01*
X108582662Y-77756612D01*
X108567117Y-77775554D01*
X108555566Y-77797165D01*
X108548453Y-77820614D01*
X108546051Y-77845000D01*
X108548453Y-77869386D01*
X108555566Y-77892835D01*
X108567117Y-77914446D01*
X108582662Y-77933388D01*
X108601604Y-77948933D01*
X108608077Y-77953258D01*
X108657376Y-77986198D01*
X108699302Y-78028124D01*
X108732242Y-78077423D01*
X108732243Y-78077425D01*
X108754933Y-78132203D01*
X108766500Y-78190353D01*
X108766500Y-78249647D01*
X108754933Y-78307797D01*
X108732243Y-78362575D01*
X108732242Y-78362577D01*
X108699302Y-78411876D01*
X108657376Y-78453802D01*
X108608077Y-78486742D01*
X108608076Y-78486743D01*
X108608075Y-78486743D01*
X108553297Y-78509433D01*
X108495147Y-78521000D01*
X108435853Y-78521000D01*
X108377703Y-78509433D01*
X108322925Y-78486743D01*
X108322924Y-78486743D01*
X108322923Y-78486742D01*
X108273624Y-78453802D01*
X108231698Y-78411876D01*
X108198758Y-78362577D01*
X108198757Y-78362575D01*
X108176067Y-78307797D01*
X108164500Y-78249647D01*
X108164500Y-78190353D01*
X108176067Y-78132203D01*
X108198757Y-78077425D01*
X108198758Y-78077423D01*
X108231698Y-78028124D01*
X108273624Y-77986198D01*
X108322923Y-77953258D01*
X108329396Y-77948933D01*
X108348338Y-77933388D01*
X108363883Y-77914446D01*
X108375434Y-77892835D01*
X108382547Y-77869386D01*
X108384949Y-77845000D01*
X108382547Y-77820614D01*
X108375434Y-77797165D01*
X108363883Y-77775554D01*
X108348338Y-77756612D01*
X108329396Y-77741067D01*
X108322923Y-77736742D01*
X108273624Y-77703802D01*
X108231698Y-77661876D01*
X108198758Y-77612577D01*
X108198757Y-77612575D01*
X108176067Y-77557797D01*
X108164500Y-77499647D01*
X108164500Y-77440353D01*
X108176067Y-77382203D01*
X108198757Y-77327425D01*
X108198758Y-77327423D01*
X108231698Y-77278124D01*
X108273624Y-77236198D01*
X108322923Y-77203258D01*
X108329396Y-77198933D01*
X108348338Y-77183388D01*
X108363883Y-77164446D01*
X108375434Y-77142835D01*
X108382547Y-77119386D01*
X108384949Y-77095000D01*
X108382547Y-77070614D01*
X108375434Y-77047165D01*
X108363883Y-77025554D01*
X108348338Y-77006612D01*
X108329396Y-76991067D01*
X108322923Y-76986742D01*
X108273624Y-76953802D01*
X108231698Y-76911876D01*
X108198758Y-76862577D01*
X108183363Y-76825410D01*
X108176067Y-76807797D01*
X108164500Y-76749647D01*
X108164500Y-76690353D01*
X108176067Y-76632203D01*
X108198757Y-76577425D01*
X108198758Y-76577423D01*
X108231698Y-76528124D01*
X108273624Y-76486198D01*
X108322923Y-76453258D01*
X108322925Y-76453257D01*
X108377703Y-76430567D01*
X108435853Y-76419000D01*
X108495147Y-76419000D01*
X108553297Y-76430567D01*
G37*
G36*
X151693297Y-76430567D02*
G01*
X151748075Y-76453257D01*
X151748077Y-76453258D01*
X151797376Y-76486198D01*
X151839302Y-76528124D01*
X151872242Y-76577423D01*
X151872243Y-76577425D01*
X151894933Y-76632203D01*
X151906500Y-76690353D01*
X151906500Y-76749647D01*
X151894933Y-76807797D01*
X151887637Y-76825410D01*
X151872242Y-76862577D01*
X151839302Y-76911876D01*
X151797376Y-76953802D01*
X151748077Y-76986742D01*
X151741604Y-76991067D01*
X151722662Y-77006612D01*
X151707117Y-77025554D01*
X151695566Y-77047165D01*
X151688453Y-77070614D01*
X151686051Y-77095000D01*
X151688453Y-77119386D01*
X151695566Y-77142835D01*
X151707117Y-77164446D01*
X151722662Y-77183388D01*
X151741604Y-77198933D01*
X151748077Y-77203258D01*
X151797376Y-77236198D01*
X151839302Y-77278124D01*
X151872242Y-77327423D01*
X151872243Y-77327425D01*
X151894933Y-77382203D01*
X151906500Y-77440353D01*
X151906500Y-77499647D01*
X151894933Y-77557797D01*
X151872243Y-77612575D01*
X151872242Y-77612577D01*
X151839302Y-77661876D01*
X151797376Y-77703802D01*
X151748077Y-77736742D01*
X151741604Y-77741067D01*
X151722662Y-77756612D01*
X151707117Y-77775554D01*
X151695566Y-77797165D01*
X151688453Y-77820614D01*
X151686051Y-77845000D01*
X151688453Y-77869386D01*
X151695566Y-77892835D01*
X151707117Y-77914446D01*
X151722662Y-77933388D01*
X151741604Y-77948933D01*
X151748077Y-77953258D01*
X151797376Y-77986198D01*
X151839302Y-78028124D01*
X151872242Y-78077423D01*
X151872243Y-78077425D01*
X151894933Y-78132203D01*
X151906500Y-78190353D01*
X151906500Y-78249647D01*
X151894933Y-78307797D01*
X151872243Y-78362575D01*
X151872242Y-78362577D01*
X151839302Y-78411876D01*
X151797376Y-78453802D01*
X151748077Y-78486742D01*
X151748076Y-78486743D01*
X151748075Y-78486743D01*
X151693297Y-78509433D01*
X151635147Y-78521000D01*
X151575853Y-78521000D01*
X151517703Y-78509433D01*
X151462925Y-78486743D01*
X151462924Y-78486743D01*
X151462923Y-78486742D01*
X151413624Y-78453802D01*
X151371698Y-78411876D01*
X151338758Y-78362577D01*
X151338757Y-78362575D01*
X151316067Y-78307797D01*
X151304500Y-78249647D01*
X151304500Y-78190353D01*
X151316067Y-78132203D01*
X151338757Y-78077425D01*
X151338758Y-78077423D01*
X151371698Y-78028124D01*
X151413624Y-77986198D01*
X151462923Y-77953258D01*
X151469396Y-77948933D01*
X151488338Y-77933388D01*
X151503883Y-77914446D01*
X151515434Y-77892835D01*
X151522547Y-77869386D01*
X151524949Y-77845000D01*
X151522547Y-77820614D01*
X151515434Y-77797165D01*
X151503883Y-77775554D01*
X151488338Y-77756612D01*
X151469396Y-77741067D01*
X151462923Y-77736742D01*
X151413624Y-77703802D01*
X151371698Y-77661876D01*
X151338758Y-77612577D01*
X151338757Y-77612575D01*
X151316067Y-77557797D01*
X151304500Y-77499647D01*
X151304500Y-77440353D01*
X151316067Y-77382203D01*
X151338757Y-77327425D01*
X151338758Y-77327423D01*
X151371698Y-77278124D01*
X151413624Y-77236198D01*
X151462923Y-77203258D01*
X151469396Y-77198933D01*
X151488338Y-77183388D01*
X151503883Y-77164446D01*
X151515434Y-77142835D01*
X151522547Y-77119386D01*
X151524949Y-77095000D01*
X151522547Y-77070614D01*
X151515434Y-77047165D01*
X151503883Y-77025554D01*
X151488338Y-77006612D01*
X151469396Y-76991067D01*
X151462923Y-76986742D01*
X151413624Y-76953802D01*
X151371698Y-76911876D01*
X151338758Y-76862577D01*
X151323363Y-76825410D01*
X151316067Y-76807797D01*
X151304500Y-76749647D01*
X151304500Y-76690353D01*
X151316067Y-76632203D01*
X151338757Y-76577425D01*
X151338758Y-76577423D01*
X151371698Y-76528124D01*
X151413624Y-76486198D01*
X151462923Y-76453258D01*
X151462925Y-76453257D01*
X151517703Y-76430567D01*
X151575853Y-76419000D01*
X151635147Y-76419000D01*
X151693297Y-76430567D01*
G37*
G36*
X107053297Y-76430567D02*
G01*
X107108075Y-76453257D01*
X107108077Y-76453258D01*
X107157376Y-76486198D01*
X107199302Y-76528124D01*
X107232242Y-76577423D01*
X107232243Y-76577425D01*
X107254933Y-76632203D01*
X107266500Y-76690353D01*
X107266500Y-76749647D01*
X107254933Y-76807797D01*
X107247637Y-76825410D01*
X107232242Y-76862577D01*
X107199302Y-76911876D01*
X107157376Y-76953802D01*
X107108077Y-76986742D01*
X107101604Y-76991067D01*
X107082662Y-77006612D01*
X107067117Y-77025554D01*
X107055566Y-77047165D01*
X107048453Y-77070614D01*
X107046051Y-77095000D01*
X107048453Y-77119386D01*
X107055566Y-77142835D01*
X107067117Y-77164446D01*
X107082662Y-77183388D01*
X107101604Y-77198933D01*
X107108077Y-77203258D01*
X107157376Y-77236198D01*
X107199302Y-77278124D01*
X107232242Y-77327423D01*
X107232243Y-77327425D01*
X107254933Y-77382203D01*
X107266500Y-77440353D01*
X107266500Y-77499647D01*
X107254933Y-77557797D01*
X107232243Y-77612575D01*
X107232242Y-77612577D01*
X107199302Y-77661876D01*
X107157376Y-77703802D01*
X107108077Y-77736742D01*
X107101604Y-77741067D01*
X107082662Y-77756612D01*
X107067117Y-77775554D01*
X107055566Y-77797165D01*
X107048453Y-77820614D01*
X107046051Y-77845000D01*
X107048453Y-77869386D01*
X107055566Y-77892835D01*
X107067117Y-77914446D01*
X107082662Y-77933388D01*
X107101604Y-77948933D01*
X107108077Y-77953258D01*
X107157376Y-77986198D01*
X107199302Y-78028124D01*
X107232242Y-78077423D01*
X107232243Y-78077425D01*
X107254933Y-78132203D01*
X107266500Y-78190353D01*
X107266500Y-78249647D01*
X107254933Y-78307797D01*
X107232243Y-78362575D01*
X107232242Y-78362577D01*
X107199302Y-78411876D01*
X107157376Y-78453802D01*
X107108077Y-78486742D01*
X107108076Y-78486743D01*
X107108075Y-78486743D01*
X107053297Y-78509433D01*
X106995147Y-78521000D01*
X106935853Y-78521000D01*
X106877703Y-78509433D01*
X106822925Y-78486743D01*
X106822924Y-78486743D01*
X106822923Y-78486742D01*
X106773624Y-78453802D01*
X106731698Y-78411876D01*
X106698758Y-78362577D01*
X106698757Y-78362575D01*
X106676067Y-78307797D01*
X106664500Y-78249647D01*
X106664500Y-78190353D01*
X106676067Y-78132203D01*
X106698757Y-78077425D01*
X106698758Y-78077423D01*
X106731698Y-78028124D01*
X106773624Y-77986198D01*
X106822923Y-77953258D01*
X106829396Y-77948933D01*
X106848338Y-77933388D01*
X106863883Y-77914446D01*
X106875434Y-77892835D01*
X106882547Y-77869386D01*
X106884949Y-77845000D01*
X106882547Y-77820614D01*
X106875434Y-77797165D01*
X106863883Y-77775554D01*
X106848338Y-77756612D01*
X106829396Y-77741067D01*
X106822923Y-77736742D01*
X106773624Y-77703802D01*
X106731698Y-77661876D01*
X106698758Y-77612577D01*
X106698757Y-77612575D01*
X106676067Y-77557797D01*
X106664500Y-77499647D01*
X106664500Y-77440353D01*
X106676067Y-77382203D01*
X106698757Y-77327425D01*
X106698758Y-77327423D01*
X106731698Y-77278124D01*
X106773624Y-77236198D01*
X106822923Y-77203258D01*
X106829396Y-77198933D01*
X106848338Y-77183388D01*
X106863883Y-77164446D01*
X106875434Y-77142835D01*
X106882547Y-77119386D01*
X106884949Y-77095000D01*
X106882547Y-77070614D01*
X106875434Y-77047165D01*
X106863883Y-77025554D01*
X106848338Y-77006612D01*
X106829396Y-76991067D01*
X106822923Y-76986742D01*
X106773624Y-76953802D01*
X106731698Y-76911876D01*
X106698758Y-76862577D01*
X106683363Y-76825410D01*
X106676067Y-76807797D01*
X106664500Y-76749647D01*
X106664500Y-76690353D01*
X106676067Y-76632203D01*
X106698757Y-76577425D01*
X106698758Y-76577423D01*
X106731698Y-76528124D01*
X106773624Y-76486198D01*
X106822923Y-76453258D01*
X106822925Y-76453257D01*
X106877703Y-76430567D01*
X106935853Y-76419000D01*
X106995147Y-76419000D01*
X107053297Y-76430567D01*
G37*
G36*
X174013297Y-76430567D02*
G01*
X174068075Y-76453257D01*
X174068077Y-76453258D01*
X174117376Y-76486198D01*
X174159302Y-76528124D01*
X174192242Y-76577423D01*
X174192243Y-76577425D01*
X174214933Y-76632203D01*
X174226500Y-76690353D01*
X174226500Y-76749647D01*
X174214933Y-76807797D01*
X174207637Y-76825410D01*
X174192242Y-76862577D01*
X174159302Y-76911876D01*
X174117376Y-76953802D01*
X174068077Y-76986742D01*
X174061604Y-76991067D01*
X174042662Y-77006612D01*
X174027117Y-77025554D01*
X174015566Y-77047165D01*
X174008453Y-77070614D01*
X174006051Y-77095000D01*
X174008453Y-77119386D01*
X174015566Y-77142835D01*
X174027117Y-77164446D01*
X174042662Y-77183388D01*
X174061604Y-77198933D01*
X174068077Y-77203258D01*
X174117376Y-77236198D01*
X174159302Y-77278124D01*
X174192242Y-77327423D01*
X174192243Y-77327425D01*
X174214933Y-77382203D01*
X174226500Y-77440353D01*
X174226500Y-77499647D01*
X174214933Y-77557797D01*
X174192243Y-77612575D01*
X174192242Y-77612577D01*
X174159302Y-77661876D01*
X174117376Y-77703802D01*
X174068077Y-77736742D01*
X174061604Y-77741067D01*
X174042662Y-77756612D01*
X174027117Y-77775554D01*
X174015566Y-77797165D01*
X174008453Y-77820614D01*
X174006051Y-77845000D01*
X174008453Y-77869386D01*
X174015566Y-77892835D01*
X174027117Y-77914446D01*
X174042662Y-77933388D01*
X174061604Y-77948933D01*
X174068077Y-77953258D01*
X174117376Y-77986198D01*
X174159302Y-78028124D01*
X174192242Y-78077423D01*
X174192243Y-78077425D01*
X174214933Y-78132203D01*
X174226500Y-78190353D01*
X174226500Y-78249647D01*
X174214933Y-78307797D01*
X174192243Y-78362575D01*
X174192242Y-78362577D01*
X174159302Y-78411876D01*
X174117376Y-78453802D01*
X174068077Y-78486742D01*
X174068076Y-78486743D01*
X174068075Y-78486743D01*
X174013297Y-78509433D01*
X173955147Y-78521000D01*
X173895853Y-78521000D01*
X173837703Y-78509433D01*
X173782925Y-78486743D01*
X173782924Y-78486743D01*
X173782923Y-78486742D01*
X173733624Y-78453802D01*
X173691698Y-78411876D01*
X173658758Y-78362577D01*
X173658757Y-78362575D01*
X173636067Y-78307797D01*
X173624500Y-78249647D01*
X173624500Y-78190353D01*
X173636067Y-78132203D01*
X173658757Y-78077425D01*
X173658758Y-78077423D01*
X173691698Y-78028124D01*
X173733624Y-77986198D01*
X173782923Y-77953258D01*
X173789396Y-77948933D01*
X173808338Y-77933388D01*
X173823883Y-77914446D01*
X173835434Y-77892835D01*
X173842547Y-77869386D01*
X173844949Y-77845000D01*
X173842547Y-77820614D01*
X173835434Y-77797165D01*
X173823883Y-77775554D01*
X173808338Y-77756612D01*
X173789396Y-77741067D01*
X173782923Y-77736742D01*
X173733624Y-77703802D01*
X173691698Y-77661876D01*
X173658758Y-77612577D01*
X173658757Y-77612575D01*
X173636067Y-77557797D01*
X173624500Y-77499647D01*
X173624500Y-77440353D01*
X173636067Y-77382203D01*
X173658757Y-77327425D01*
X173658758Y-77327423D01*
X173691698Y-77278124D01*
X173733624Y-77236198D01*
X173782923Y-77203258D01*
X173789396Y-77198933D01*
X173808338Y-77183388D01*
X173823883Y-77164446D01*
X173835434Y-77142835D01*
X173842547Y-77119386D01*
X173844949Y-77095000D01*
X173842547Y-77070614D01*
X173835434Y-77047165D01*
X173823883Y-77025554D01*
X173808338Y-77006612D01*
X173789396Y-76991067D01*
X173782923Y-76986742D01*
X173733624Y-76953802D01*
X173691698Y-76911876D01*
X173658758Y-76862577D01*
X173643363Y-76825410D01*
X173636067Y-76807797D01*
X173624500Y-76749647D01*
X173624500Y-76690353D01*
X173636067Y-76632203D01*
X173658757Y-76577425D01*
X173658758Y-76577423D01*
X173691698Y-76528124D01*
X173733624Y-76486198D01*
X173782923Y-76453258D01*
X173782925Y-76453257D01*
X173837703Y-76430567D01*
X173895853Y-76419000D01*
X173955147Y-76419000D01*
X174013297Y-76430567D01*
G37*
G36*
X218653297Y-76430567D02*
G01*
X218708075Y-76453257D01*
X218708077Y-76453258D01*
X218757376Y-76486198D01*
X218799302Y-76528124D01*
X218832242Y-76577423D01*
X218832243Y-76577425D01*
X218854933Y-76632203D01*
X218866500Y-76690353D01*
X218866500Y-76749647D01*
X218854933Y-76807797D01*
X218847637Y-76825410D01*
X218832242Y-76862577D01*
X218799302Y-76911876D01*
X218757376Y-76953802D01*
X218708077Y-76986742D01*
X218701604Y-76991067D01*
X218682662Y-77006612D01*
X218667117Y-77025554D01*
X218655566Y-77047165D01*
X218648453Y-77070614D01*
X218646051Y-77095000D01*
X218648453Y-77119386D01*
X218655566Y-77142835D01*
X218667117Y-77164446D01*
X218682662Y-77183388D01*
X218701604Y-77198933D01*
X218708077Y-77203258D01*
X218757376Y-77236198D01*
X218799302Y-77278124D01*
X218832242Y-77327423D01*
X218832243Y-77327425D01*
X218854933Y-77382203D01*
X218866500Y-77440353D01*
X218866500Y-77499647D01*
X218854933Y-77557797D01*
X218832243Y-77612575D01*
X218832242Y-77612577D01*
X218799302Y-77661876D01*
X218757376Y-77703802D01*
X218708077Y-77736742D01*
X218701604Y-77741067D01*
X218682662Y-77756612D01*
X218667117Y-77775554D01*
X218655566Y-77797165D01*
X218648453Y-77820614D01*
X218646051Y-77845000D01*
X218648453Y-77869386D01*
X218655566Y-77892835D01*
X218667117Y-77914446D01*
X218682662Y-77933388D01*
X218701604Y-77948933D01*
X218708077Y-77953258D01*
X218757376Y-77986198D01*
X218799302Y-78028124D01*
X218832242Y-78077423D01*
X218832243Y-78077425D01*
X218854933Y-78132203D01*
X218866500Y-78190353D01*
X218866500Y-78249647D01*
X218854933Y-78307797D01*
X218832243Y-78362575D01*
X218832242Y-78362577D01*
X218799302Y-78411876D01*
X218757376Y-78453802D01*
X218708077Y-78486742D01*
X218708076Y-78486743D01*
X218708075Y-78486743D01*
X218653297Y-78509433D01*
X218595147Y-78521000D01*
X218535853Y-78521000D01*
X218477703Y-78509433D01*
X218422925Y-78486743D01*
X218422924Y-78486743D01*
X218422923Y-78486742D01*
X218373624Y-78453802D01*
X218331698Y-78411876D01*
X218298758Y-78362577D01*
X218298757Y-78362575D01*
X218276067Y-78307797D01*
X218264500Y-78249647D01*
X218264500Y-78190353D01*
X218276067Y-78132203D01*
X218298757Y-78077425D01*
X218298758Y-78077423D01*
X218331698Y-78028124D01*
X218373624Y-77986198D01*
X218422923Y-77953258D01*
X218429396Y-77948933D01*
X218448338Y-77933388D01*
X218463883Y-77914446D01*
X218475434Y-77892835D01*
X218482547Y-77869386D01*
X218484949Y-77845000D01*
X218482547Y-77820614D01*
X218475434Y-77797165D01*
X218463883Y-77775554D01*
X218448338Y-77756612D01*
X218429396Y-77741067D01*
X218422923Y-77736742D01*
X218373624Y-77703802D01*
X218331698Y-77661876D01*
X218298758Y-77612577D01*
X218298757Y-77612575D01*
X218276067Y-77557797D01*
X218264500Y-77499647D01*
X218264500Y-77440353D01*
X218276067Y-77382203D01*
X218298757Y-77327425D01*
X218298758Y-77327423D01*
X218331698Y-77278124D01*
X218373624Y-77236198D01*
X218422923Y-77203258D01*
X218429396Y-77198933D01*
X218448338Y-77183388D01*
X218463883Y-77164446D01*
X218475434Y-77142835D01*
X218482547Y-77119386D01*
X218484949Y-77095000D01*
X218482547Y-77070614D01*
X218475434Y-77047165D01*
X218463883Y-77025554D01*
X218448338Y-77006612D01*
X218429396Y-76991067D01*
X218422923Y-76986742D01*
X218373624Y-76953802D01*
X218331698Y-76911876D01*
X218298758Y-76862577D01*
X218283363Y-76825410D01*
X218276067Y-76807797D01*
X218264500Y-76749647D01*
X218264500Y-76690353D01*
X218276067Y-76632203D01*
X218298757Y-76577425D01*
X218298758Y-76577423D01*
X218331698Y-76528124D01*
X218373624Y-76486198D01*
X218422923Y-76453258D01*
X218422925Y-76453257D01*
X218477703Y-76430567D01*
X218535853Y-76419000D01*
X218595147Y-76419000D01*
X218653297Y-76430567D01*
G37*
G36*
X84733297Y-76430567D02*
G01*
X84788075Y-76453257D01*
X84788077Y-76453258D01*
X84837376Y-76486198D01*
X84879302Y-76528124D01*
X84912242Y-76577423D01*
X84912243Y-76577425D01*
X84934933Y-76632203D01*
X84946500Y-76690353D01*
X84946500Y-76749647D01*
X84934933Y-76807797D01*
X84927637Y-76825410D01*
X84912242Y-76862577D01*
X84879302Y-76911876D01*
X84837376Y-76953802D01*
X84788077Y-76986742D01*
X84781604Y-76991067D01*
X84762662Y-77006612D01*
X84747117Y-77025554D01*
X84735566Y-77047165D01*
X84728453Y-77070614D01*
X84726051Y-77095000D01*
X84728453Y-77119386D01*
X84735566Y-77142835D01*
X84747117Y-77164446D01*
X84762662Y-77183388D01*
X84781604Y-77198933D01*
X84788077Y-77203258D01*
X84837376Y-77236198D01*
X84879302Y-77278124D01*
X84912242Y-77327423D01*
X84912243Y-77327425D01*
X84934933Y-77382203D01*
X84946500Y-77440353D01*
X84946500Y-77499647D01*
X84934933Y-77557797D01*
X84912243Y-77612575D01*
X84912242Y-77612577D01*
X84879302Y-77661876D01*
X84837376Y-77703802D01*
X84788077Y-77736742D01*
X84781604Y-77741067D01*
X84762662Y-77756612D01*
X84747117Y-77775554D01*
X84735566Y-77797165D01*
X84728453Y-77820614D01*
X84726051Y-77845000D01*
X84728453Y-77869386D01*
X84735566Y-77892835D01*
X84747117Y-77914446D01*
X84762662Y-77933388D01*
X84781604Y-77948933D01*
X84788077Y-77953258D01*
X84837376Y-77986198D01*
X84879302Y-78028124D01*
X84912242Y-78077423D01*
X84912243Y-78077425D01*
X84934933Y-78132203D01*
X84946500Y-78190353D01*
X84946500Y-78249647D01*
X84934933Y-78307797D01*
X84912243Y-78362575D01*
X84912242Y-78362577D01*
X84879302Y-78411876D01*
X84837376Y-78453802D01*
X84788077Y-78486742D01*
X84788076Y-78486743D01*
X84788075Y-78486743D01*
X84733297Y-78509433D01*
X84675147Y-78521000D01*
X84615853Y-78521000D01*
X84557703Y-78509433D01*
X84502925Y-78486743D01*
X84502924Y-78486743D01*
X84502923Y-78486742D01*
X84453624Y-78453802D01*
X84411698Y-78411876D01*
X84378758Y-78362577D01*
X84378757Y-78362575D01*
X84356067Y-78307797D01*
X84344500Y-78249647D01*
X84344500Y-78190353D01*
X84356067Y-78132203D01*
X84378757Y-78077425D01*
X84378758Y-78077423D01*
X84411698Y-78028124D01*
X84453624Y-77986198D01*
X84502923Y-77953258D01*
X84509396Y-77948933D01*
X84528338Y-77933388D01*
X84543883Y-77914446D01*
X84555434Y-77892835D01*
X84562547Y-77869386D01*
X84564949Y-77845000D01*
X84562547Y-77820614D01*
X84555434Y-77797165D01*
X84543883Y-77775554D01*
X84528338Y-77756612D01*
X84509396Y-77741067D01*
X84502923Y-77736742D01*
X84453624Y-77703802D01*
X84411698Y-77661876D01*
X84378758Y-77612577D01*
X84378757Y-77612575D01*
X84356067Y-77557797D01*
X84344500Y-77499647D01*
X84344500Y-77440353D01*
X84356067Y-77382203D01*
X84378757Y-77327425D01*
X84378758Y-77327423D01*
X84411698Y-77278124D01*
X84453624Y-77236198D01*
X84502923Y-77203258D01*
X84509396Y-77198933D01*
X84528338Y-77183388D01*
X84543883Y-77164446D01*
X84555434Y-77142835D01*
X84562547Y-77119386D01*
X84564949Y-77095000D01*
X84562547Y-77070614D01*
X84555434Y-77047165D01*
X84543883Y-77025554D01*
X84528338Y-77006612D01*
X84509396Y-76991067D01*
X84502923Y-76986742D01*
X84453624Y-76953802D01*
X84411698Y-76911876D01*
X84378758Y-76862577D01*
X84363363Y-76825410D01*
X84356067Y-76807797D01*
X84344500Y-76749647D01*
X84344500Y-76690353D01*
X84356067Y-76632203D01*
X84378757Y-76577425D01*
X84378758Y-76577423D01*
X84411698Y-76528124D01*
X84453624Y-76486198D01*
X84502923Y-76453258D01*
X84502925Y-76453257D01*
X84557703Y-76430567D01*
X84615853Y-76419000D01*
X84675147Y-76419000D01*
X84733297Y-76430567D01*
G37*
G36*
X220153297Y-76430567D02*
G01*
X220208075Y-76453257D01*
X220208077Y-76453258D01*
X220257376Y-76486198D01*
X220299302Y-76528124D01*
X220332242Y-76577423D01*
X220332243Y-76577425D01*
X220354933Y-76632203D01*
X220366500Y-76690353D01*
X220366500Y-76749647D01*
X220354933Y-76807797D01*
X220347637Y-76825410D01*
X220332242Y-76862577D01*
X220299302Y-76911876D01*
X220257376Y-76953802D01*
X220208077Y-76986742D01*
X220201604Y-76991067D01*
X220182662Y-77006612D01*
X220167117Y-77025554D01*
X220155566Y-77047165D01*
X220148453Y-77070614D01*
X220146051Y-77095000D01*
X220148453Y-77119386D01*
X220155566Y-77142835D01*
X220167117Y-77164446D01*
X220182662Y-77183388D01*
X220201604Y-77198933D01*
X220208077Y-77203258D01*
X220257376Y-77236198D01*
X220299302Y-77278124D01*
X220332242Y-77327423D01*
X220332243Y-77327425D01*
X220354933Y-77382203D01*
X220366500Y-77440353D01*
X220366500Y-77499647D01*
X220354933Y-77557797D01*
X220332243Y-77612575D01*
X220332242Y-77612577D01*
X220299302Y-77661876D01*
X220257376Y-77703802D01*
X220208077Y-77736742D01*
X220201604Y-77741067D01*
X220182662Y-77756612D01*
X220167117Y-77775554D01*
X220155566Y-77797165D01*
X220148453Y-77820614D01*
X220146051Y-77845000D01*
X220148453Y-77869386D01*
X220155566Y-77892835D01*
X220167117Y-77914446D01*
X220182662Y-77933388D01*
X220201604Y-77948933D01*
X220208077Y-77953258D01*
X220257376Y-77986198D01*
X220299302Y-78028124D01*
X220332242Y-78077423D01*
X220332243Y-78077425D01*
X220354933Y-78132203D01*
X220366500Y-78190353D01*
X220366500Y-78249647D01*
X220354933Y-78307797D01*
X220332243Y-78362575D01*
X220332242Y-78362577D01*
X220299302Y-78411876D01*
X220257376Y-78453802D01*
X220208077Y-78486742D01*
X220208076Y-78486743D01*
X220208075Y-78486743D01*
X220153297Y-78509433D01*
X220095147Y-78521000D01*
X220035853Y-78521000D01*
X219977703Y-78509433D01*
X219922925Y-78486743D01*
X219922924Y-78486743D01*
X219922923Y-78486742D01*
X219873624Y-78453802D01*
X219831698Y-78411876D01*
X219798758Y-78362577D01*
X219798757Y-78362575D01*
X219776067Y-78307797D01*
X219764500Y-78249647D01*
X219764500Y-78190353D01*
X219776067Y-78132203D01*
X219798757Y-78077425D01*
X219798758Y-78077423D01*
X219831698Y-78028124D01*
X219873624Y-77986198D01*
X219922923Y-77953258D01*
X219929396Y-77948933D01*
X219948338Y-77933388D01*
X219963883Y-77914446D01*
X219975434Y-77892835D01*
X219982547Y-77869386D01*
X219984949Y-77845000D01*
X219982547Y-77820614D01*
X219975434Y-77797165D01*
X219963883Y-77775554D01*
X219948338Y-77756612D01*
X219929396Y-77741067D01*
X219922923Y-77736742D01*
X219873624Y-77703802D01*
X219831698Y-77661876D01*
X219798758Y-77612577D01*
X219798757Y-77612575D01*
X219776067Y-77557797D01*
X219764500Y-77499647D01*
X219764500Y-77440353D01*
X219776067Y-77382203D01*
X219798757Y-77327425D01*
X219798758Y-77327423D01*
X219831698Y-77278124D01*
X219873624Y-77236198D01*
X219922923Y-77203258D01*
X219929396Y-77198933D01*
X219948338Y-77183388D01*
X219963883Y-77164446D01*
X219975434Y-77142835D01*
X219982547Y-77119386D01*
X219984949Y-77095000D01*
X219982547Y-77070614D01*
X219975434Y-77047165D01*
X219963883Y-77025554D01*
X219948338Y-77006612D01*
X219929396Y-76991067D01*
X219922923Y-76986742D01*
X219873624Y-76953802D01*
X219831698Y-76911876D01*
X219798758Y-76862577D01*
X219783363Y-76825410D01*
X219776067Y-76807797D01*
X219764500Y-76749647D01*
X219764500Y-76690353D01*
X219776067Y-76632203D01*
X219798757Y-76577425D01*
X219798758Y-76577423D01*
X219831698Y-76528124D01*
X219873624Y-76486198D01*
X219922923Y-76453258D01*
X219922925Y-76453257D01*
X219977703Y-76430567D01*
X220035853Y-76419000D01*
X220095147Y-76419000D01*
X220153297Y-76430567D01*
G37*
G36*
X86233297Y-76430567D02*
G01*
X86288075Y-76453257D01*
X86288077Y-76453258D01*
X86337376Y-76486198D01*
X86379302Y-76528124D01*
X86412242Y-76577423D01*
X86412243Y-76577425D01*
X86434933Y-76632203D01*
X86446500Y-76690353D01*
X86446500Y-76749647D01*
X86434933Y-76807797D01*
X86427637Y-76825410D01*
X86412242Y-76862577D01*
X86379302Y-76911876D01*
X86337376Y-76953802D01*
X86288077Y-76986742D01*
X86281604Y-76991067D01*
X86262662Y-77006612D01*
X86247117Y-77025554D01*
X86235566Y-77047165D01*
X86228453Y-77070614D01*
X86226051Y-77095000D01*
X86228453Y-77119386D01*
X86235566Y-77142835D01*
X86247117Y-77164446D01*
X86262662Y-77183388D01*
X86281604Y-77198933D01*
X86288077Y-77203258D01*
X86337376Y-77236198D01*
X86379302Y-77278124D01*
X86412242Y-77327423D01*
X86412243Y-77327425D01*
X86434933Y-77382203D01*
X86446500Y-77440353D01*
X86446500Y-77499647D01*
X86434933Y-77557797D01*
X86412243Y-77612575D01*
X86412242Y-77612577D01*
X86379302Y-77661876D01*
X86337376Y-77703802D01*
X86288077Y-77736742D01*
X86281604Y-77741067D01*
X86262662Y-77756612D01*
X86247117Y-77775554D01*
X86235566Y-77797165D01*
X86228453Y-77820614D01*
X86226051Y-77845000D01*
X86228453Y-77869386D01*
X86235566Y-77892835D01*
X86247117Y-77914446D01*
X86262662Y-77933388D01*
X86281604Y-77948933D01*
X86288077Y-77953258D01*
X86337376Y-77986198D01*
X86379302Y-78028124D01*
X86412242Y-78077423D01*
X86412243Y-78077425D01*
X86434933Y-78132203D01*
X86446500Y-78190353D01*
X86446500Y-78249647D01*
X86434933Y-78307797D01*
X86412243Y-78362575D01*
X86412242Y-78362577D01*
X86379302Y-78411876D01*
X86337376Y-78453802D01*
X86288077Y-78486742D01*
X86288076Y-78486743D01*
X86288075Y-78486743D01*
X86233297Y-78509433D01*
X86175147Y-78521000D01*
X86115853Y-78521000D01*
X86057703Y-78509433D01*
X86002925Y-78486743D01*
X86002924Y-78486743D01*
X86002923Y-78486742D01*
X85953624Y-78453802D01*
X85911698Y-78411876D01*
X85878758Y-78362577D01*
X85878757Y-78362575D01*
X85856067Y-78307797D01*
X85844500Y-78249647D01*
X85844500Y-78190353D01*
X85856067Y-78132203D01*
X85878757Y-78077425D01*
X85878758Y-78077423D01*
X85911698Y-78028124D01*
X85953624Y-77986198D01*
X86002923Y-77953258D01*
X86009396Y-77948933D01*
X86028338Y-77933388D01*
X86043883Y-77914446D01*
X86055434Y-77892835D01*
X86062547Y-77869386D01*
X86064949Y-77845000D01*
X86062547Y-77820614D01*
X86055434Y-77797165D01*
X86043883Y-77775554D01*
X86028338Y-77756612D01*
X86009396Y-77741067D01*
X86002923Y-77736742D01*
X85953624Y-77703802D01*
X85911698Y-77661876D01*
X85878758Y-77612577D01*
X85878757Y-77612575D01*
X85856067Y-77557797D01*
X85844500Y-77499647D01*
X85844500Y-77440353D01*
X85856067Y-77382203D01*
X85878757Y-77327425D01*
X85878758Y-77327423D01*
X85911698Y-77278124D01*
X85953624Y-77236198D01*
X86002923Y-77203258D01*
X86009396Y-77198933D01*
X86028338Y-77183388D01*
X86043883Y-77164446D01*
X86055434Y-77142835D01*
X86062547Y-77119386D01*
X86064949Y-77095000D01*
X86062547Y-77070614D01*
X86055434Y-77047165D01*
X86043883Y-77025554D01*
X86028338Y-77006612D01*
X86009396Y-76991067D01*
X86002923Y-76986742D01*
X85953624Y-76953802D01*
X85911698Y-76911876D01*
X85878758Y-76862577D01*
X85863363Y-76825410D01*
X85856067Y-76807797D01*
X85844500Y-76749647D01*
X85844500Y-76690353D01*
X85856067Y-76632203D01*
X85878757Y-76577425D01*
X85878758Y-76577423D01*
X85911698Y-76528124D01*
X85953624Y-76486198D01*
X86002923Y-76453258D01*
X86002925Y-76453257D01*
X86057703Y-76430567D01*
X86115853Y-76419000D01*
X86175147Y-76419000D01*
X86233297Y-76430567D01*
G37*
G36*
X197833297Y-76430567D02*
G01*
X197888075Y-76453257D01*
X197888077Y-76453258D01*
X197937376Y-76486198D01*
X197979302Y-76528124D01*
X198012242Y-76577423D01*
X198012243Y-76577425D01*
X198034933Y-76632203D01*
X198046500Y-76690353D01*
X198046500Y-76749647D01*
X198034933Y-76807797D01*
X198027637Y-76825410D01*
X198012242Y-76862577D01*
X197979302Y-76911876D01*
X197937376Y-76953802D01*
X197888077Y-76986742D01*
X197881604Y-76991067D01*
X197862662Y-77006612D01*
X197847117Y-77025554D01*
X197835566Y-77047165D01*
X197828453Y-77070614D01*
X197826051Y-77095000D01*
X197828453Y-77119386D01*
X197835566Y-77142835D01*
X197847117Y-77164446D01*
X197862662Y-77183388D01*
X197881604Y-77198933D01*
X197888077Y-77203258D01*
X197937376Y-77236198D01*
X197979302Y-77278124D01*
X198012242Y-77327423D01*
X198012243Y-77327425D01*
X198034933Y-77382203D01*
X198046500Y-77440353D01*
X198046500Y-77499647D01*
X198034933Y-77557797D01*
X198012243Y-77612575D01*
X198012242Y-77612577D01*
X197979302Y-77661876D01*
X197937376Y-77703802D01*
X197888077Y-77736742D01*
X197881604Y-77741067D01*
X197862662Y-77756612D01*
X197847117Y-77775554D01*
X197835566Y-77797165D01*
X197828453Y-77820614D01*
X197826051Y-77845000D01*
X197828453Y-77869386D01*
X197835566Y-77892835D01*
X197847117Y-77914446D01*
X197862662Y-77933388D01*
X197881604Y-77948933D01*
X197888077Y-77953258D01*
X197937376Y-77986198D01*
X197979302Y-78028124D01*
X198012242Y-78077423D01*
X198012243Y-78077425D01*
X198034933Y-78132203D01*
X198046500Y-78190353D01*
X198046500Y-78249647D01*
X198034933Y-78307797D01*
X198012243Y-78362575D01*
X198012242Y-78362577D01*
X197979302Y-78411876D01*
X197937376Y-78453802D01*
X197888077Y-78486742D01*
X197888076Y-78486743D01*
X197888075Y-78486743D01*
X197833297Y-78509433D01*
X197775147Y-78521000D01*
X197715853Y-78521000D01*
X197657703Y-78509433D01*
X197602925Y-78486743D01*
X197602924Y-78486743D01*
X197602923Y-78486742D01*
X197553624Y-78453802D01*
X197511698Y-78411876D01*
X197478758Y-78362577D01*
X197478757Y-78362575D01*
X197456067Y-78307797D01*
X197444500Y-78249647D01*
X197444500Y-78190353D01*
X197456067Y-78132203D01*
X197478757Y-78077425D01*
X197478758Y-78077423D01*
X197511698Y-78028124D01*
X197553624Y-77986198D01*
X197602923Y-77953258D01*
X197609396Y-77948933D01*
X197628338Y-77933388D01*
X197643883Y-77914446D01*
X197655434Y-77892835D01*
X197662547Y-77869386D01*
X197664949Y-77845000D01*
X197662547Y-77820614D01*
X197655434Y-77797165D01*
X197643883Y-77775554D01*
X197628338Y-77756612D01*
X197609396Y-77741067D01*
X197602923Y-77736742D01*
X197553624Y-77703802D01*
X197511698Y-77661876D01*
X197478758Y-77612577D01*
X197478757Y-77612575D01*
X197456067Y-77557797D01*
X197444500Y-77499647D01*
X197444500Y-77440353D01*
X197456067Y-77382203D01*
X197478757Y-77327425D01*
X197478758Y-77327423D01*
X197511698Y-77278124D01*
X197553624Y-77236198D01*
X197602923Y-77203258D01*
X197609396Y-77198933D01*
X197628338Y-77183388D01*
X197643883Y-77164446D01*
X197655434Y-77142835D01*
X197662547Y-77119386D01*
X197664949Y-77095000D01*
X197662547Y-77070614D01*
X197655434Y-77047165D01*
X197643883Y-77025554D01*
X197628338Y-77006612D01*
X197609396Y-76991067D01*
X197602923Y-76986742D01*
X197553624Y-76953802D01*
X197511698Y-76911876D01*
X197478758Y-76862577D01*
X197463363Y-76825410D01*
X197456067Y-76807797D01*
X197444500Y-76749647D01*
X197444500Y-76690353D01*
X197456067Y-76632203D01*
X197478757Y-76577425D01*
X197478758Y-76577423D01*
X197511698Y-76528124D01*
X197553624Y-76486198D01*
X197602923Y-76453258D01*
X197602925Y-76453257D01*
X197657703Y-76430567D01*
X197715853Y-76419000D01*
X197775147Y-76419000D01*
X197833297Y-76430567D01*
G37*
G36*
X175513297Y-76430567D02*
G01*
X175568075Y-76453257D01*
X175568077Y-76453258D01*
X175617376Y-76486198D01*
X175659302Y-76528124D01*
X175692242Y-76577423D01*
X175692243Y-76577425D01*
X175714933Y-76632203D01*
X175726500Y-76690353D01*
X175726500Y-76749647D01*
X175714933Y-76807797D01*
X175707637Y-76825410D01*
X175692242Y-76862577D01*
X175659302Y-76911876D01*
X175617376Y-76953802D01*
X175568077Y-76986742D01*
X175561604Y-76991067D01*
X175542662Y-77006612D01*
X175527117Y-77025554D01*
X175515566Y-77047165D01*
X175508453Y-77070614D01*
X175506051Y-77095000D01*
X175508453Y-77119386D01*
X175515566Y-77142835D01*
X175527117Y-77164446D01*
X175542662Y-77183388D01*
X175561604Y-77198933D01*
X175568077Y-77203258D01*
X175617376Y-77236198D01*
X175659302Y-77278124D01*
X175692242Y-77327423D01*
X175692243Y-77327425D01*
X175714933Y-77382203D01*
X175726500Y-77440353D01*
X175726500Y-77499647D01*
X175714933Y-77557797D01*
X175692243Y-77612575D01*
X175692242Y-77612577D01*
X175659302Y-77661876D01*
X175617376Y-77703802D01*
X175568077Y-77736742D01*
X175561604Y-77741067D01*
X175542662Y-77756612D01*
X175527117Y-77775554D01*
X175515566Y-77797165D01*
X175508453Y-77820614D01*
X175506051Y-77845000D01*
X175508453Y-77869386D01*
X175515566Y-77892835D01*
X175527117Y-77914446D01*
X175542662Y-77933388D01*
X175561604Y-77948933D01*
X175568077Y-77953258D01*
X175617376Y-77986198D01*
X175659302Y-78028124D01*
X175692242Y-78077423D01*
X175692243Y-78077425D01*
X175714933Y-78132203D01*
X175726500Y-78190353D01*
X175726500Y-78249647D01*
X175714933Y-78307797D01*
X175692243Y-78362575D01*
X175692242Y-78362577D01*
X175659302Y-78411876D01*
X175617376Y-78453802D01*
X175568077Y-78486742D01*
X175568076Y-78486743D01*
X175568075Y-78486743D01*
X175513297Y-78509433D01*
X175455147Y-78521000D01*
X175395853Y-78521000D01*
X175337703Y-78509433D01*
X175282925Y-78486743D01*
X175282924Y-78486743D01*
X175282923Y-78486742D01*
X175233624Y-78453802D01*
X175191698Y-78411876D01*
X175158758Y-78362577D01*
X175158757Y-78362575D01*
X175136067Y-78307797D01*
X175124500Y-78249647D01*
X175124500Y-78190353D01*
X175136067Y-78132203D01*
X175158757Y-78077425D01*
X175158758Y-78077423D01*
X175191698Y-78028124D01*
X175233624Y-77986198D01*
X175282923Y-77953258D01*
X175289396Y-77948933D01*
X175308338Y-77933388D01*
X175323883Y-77914446D01*
X175335434Y-77892835D01*
X175342547Y-77869386D01*
X175344949Y-77845000D01*
X175342547Y-77820614D01*
X175335434Y-77797165D01*
X175323883Y-77775554D01*
X175308338Y-77756612D01*
X175289396Y-77741067D01*
X175282923Y-77736742D01*
X175233624Y-77703802D01*
X175191698Y-77661876D01*
X175158758Y-77612577D01*
X175158757Y-77612575D01*
X175136067Y-77557797D01*
X175124500Y-77499647D01*
X175124500Y-77440353D01*
X175136067Y-77382203D01*
X175158757Y-77327425D01*
X175158758Y-77327423D01*
X175191698Y-77278124D01*
X175233624Y-77236198D01*
X175282923Y-77203258D01*
X175289396Y-77198933D01*
X175308338Y-77183388D01*
X175323883Y-77164446D01*
X175335434Y-77142835D01*
X175342547Y-77119386D01*
X175344949Y-77095000D01*
X175342547Y-77070614D01*
X175335434Y-77047165D01*
X175323883Y-77025554D01*
X175308338Y-77006612D01*
X175289396Y-76991067D01*
X175282923Y-76986742D01*
X175233624Y-76953802D01*
X175191698Y-76911876D01*
X175158758Y-76862577D01*
X175143363Y-76825410D01*
X175136067Y-76807797D01*
X175124500Y-76749647D01*
X175124500Y-76690353D01*
X175136067Y-76632203D01*
X175158757Y-76577425D01*
X175158758Y-76577423D01*
X175191698Y-76528124D01*
X175233624Y-76486198D01*
X175282923Y-76453258D01*
X175282925Y-76453257D01*
X175337703Y-76430567D01*
X175395853Y-76419000D01*
X175455147Y-76419000D01*
X175513297Y-76430567D01*
G37*
G36*
X196333297Y-76430567D02*
G01*
X196388075Y-76453257D01*
X196388077Y-76453258D01*
X196437376Y-76486198D01*
X196479302Y-76528124D01*
X196512242Y-76577423D01*
X196512243Y-76577425D01*
X196534933Y-76632203D01*
X196546500Y-76690353D01*
X196546500Y-76749647D01*
X196534933Y-76807797D01*
X196527637Y-76825410D01*
X196512242Y-76862577D01*
X196479302Y-76911876D01*
X196437376Y-76953802D01*
X196388077Y-76986742D01*
X196381604Y-76991067D01*
X196362662Y-77006612D01*
X196347117Y-77025554D01*
X196335566Y-77047165D01*
X196328453Y-77070614D01*
X196326051Y-77095000D01*
X196328453Y-77119386D01*
X196335566Y-77142835D01*
X196347117Y-77164446D01*
X196362662Y-77183388D01*
X196381604Y-77198933D01*
X196388077Y-77203258D01*
X196437376Y-77236198D01*
X196479302Y-77278124D01*
X196512242Y-77327423D01*
X196512243Y-77327425D01*
X196534933Y-77382203D01*
X196546500Y-77440353D01*
X196546500Y-77499647D01*
X196534933Y-77557797D01*
X196512243Y-77612575D01*
X196512242Y-77612577D01*
X196479302Y-77661876D01*
X196437376Y-77703802D01*
X196388077Y-77736742D01*
X196381604Y-77741067D01*
X196362662Y-77756612D01*
X196347117Y-77775554D01*
X196335566Y-77797165D01*
X196328453Y-77820614D01*
X196326051Y-77845000D01*
X196328453Y-77869386D01*
X196335566Y-77892835D01*
X196347117Y-77914446D01*
X196362662Y-77933388D01*
X196381604Y-77948933D01*
X196388077Y-77953258D01*
X196437376Y-77986198D01*
X196479302Y-78028124D01*
X196512242Y-78077423D01*
X196512243Y-78077425D01*
X196534933Y-78132203D01*
X196546500Y-78190353D01*
X196546500Y-78249647D01*
X196534933Y-78307797D01*
X196512243Y-78362575D01*
X196512242Y-78362577D01*
X196479302Y-78411876D01*
X196437376Y-78453802D01*
X196388077Y-78486742D01*
X196388076Y-78486743D01*
X196388075Y-78486743D01*
X196333297Y-78509433D01*
X196275147Y-78521000D01*
X196215853Y-78521000D01*
X196157703Y-78509433D01*
X196102925Y-78486743D01*
X196102924Y-78486743D01*
X196102923Y-78486742D01*
X196053624Y-78453802D01*
X196011698Y-78411876D01*
X195978758Y-78362577D01*
X195978757Y-78362575D01*
X195956067Y-78307797D01*
X195944500Y-78249647D01*
X195944500Y-78190353D01*
X195956067Y-78132203D01*
X195978757Y-78077425D01*
X195978758Y-78077423D01*
X196011698Y-78028124D01*
X196053624Y-77986198D01*
X196102923Y-77953258D01*
X196109396Y-77948933D01*
X196128338Y-77933388D01*
X196143883Y-77914446D01*
X196155434Y-77892835D01*
X196162547Y-77869386D01*
X196164949Y-77845000D01*
X196162547Y-77820614D01*
X196155434Y-77797165D01*
X196143883Y-77775554D01*
X196128338Y-77756612D01*
X196109396Y-77741067D01*
X196102923Y-77736742D01*
X196053624Y-77703802D01*
X196011698Y-77661876D01*
X195978758Y-77612577D01*
X195978757Y-77612575D01*
X195956067Y-77557797D01*
X195944500Y-77499647D01*
X195944500Y-77440353D01*
X195956067Y-77382203D01*
X195978757Y-77327425D01*
X195978758Y-77327423D01*
X196011698Y-77278124D01*
X196053624Y-77236198D01*
X196102923Y-77203258D01*
X196109396Y-77198933D01*
X196128338Y-77183388D01*
X196143883Y-77164446D01*
X196155434Y-77142835D01*
X196162547Y-77119386D01*
X196164949Y-77095000D01*
X196162547Y-77070614D01*
X196155434Y-77047165D01*
X196143883Y-77025554D01*
X196128338Y-77006612D01*
X196109396Y-76991067D01*
X196102923Y-76986742D01*
X196053624Y-76953802D01*
X196011698Y-76911876D01*
X195978758Y-76862577D01*
X195963363Y-76825410D01*
X195956067Y-76807797D01*
X195944500Y-76749647D01*
X195944500Y-76690353D01*
X195956067Y-76632203D01*
X195978757Y-76577425D01*
X195978758Y-76577423D01*
X196011698Y-76528124D01*
X196053624Y-76486198D01*
X196102923Y-76453258D01*
X196102925Y-76453257D01*
X196157703Y-76430567D01*
X196215853Y-76419000D01*
X196275147Y-76419000D01*
X196333297Y-76430567D01*
G37*
G36*
X202804085Y-74851802D02*
G01*
X202953910Y-74881604D01*
X203236174Y-74998521D01*
X203490205Y-75168259D01*
X203706241Y-75384295D01*
X203875979Y-75638326D01*
X203992896Y-75920590D01*
X204052500Y-76220240D01*
X204052500Y-76525760D01*
X203992896Y-76825410D01*
X203875979Y-77107674D01*
X203706241Y-77361705D01*
X203490205Y-77577741D01*
X203236174Y-77747479D01*
X202953910Y-77864396D01*
X202810937Y-77892835D01*
X202654261Y-77924000D01*
X202348739Y-77924000D01*
X202192063Y-77892835D01*
X202049090Y-77864396D01*
X201766826Y-77747479D01*
X201512795Y-77577741D01*
X201296759Y-77361705D01*
X201127021Y-77107674D01*
X201010104Y-76825410D01*
X200950500Y-76525760D01*
X200950500Y-76220240D01*
X201010104Y-75920590D01*
X201127021Y-75638326D01*
X201296759Y-75384295D01*
X201512795Y-75168259D01*
X201766826Y-74998521D01*
X202049090Y-74881604D01*
X202198915Y-74851802D01*
X202348739Y-74822000D01*
X202654261Y-74822000D01*
X202804085Y-74851802D01*
G37*
G36*
X180484085Y-74851802D02*
G01*
X180633910Y-74881604D01*
X180916174Y-74998521D01*
X181170205Y-75168259D01*
X181386241Y-75384295D01*
X181555979Y-75638326D01*
X181672896Y-75920590D01*
X181732500Y-76220240D01*
X181732500Y-76525760D01*
X181672896Y-76825410D01*
X181555979Y-77107674D01*
X181386241Y-77361705D01*
X181170205Y-77577741D01*
X180916174Y-77747479D01*
X180633910Y-77864396D01*
X180490937Y-77892835D01*
X180334261Y-77924000D01*
X180028739Y-77924000D01*
X179872063Y-77892835D01*
X179729090Y-77864396D01*
X179446826Y-77747479D01*
X179192795Y-77577741D01*
X178976759Y-77361705D01*
X178807021Y-77107674D01*
X178690104Y-76825410D01*
X178630500Y-76525760D01*
X178630500Y-76220240D01*
X178690104Y-75920590D01*
X178807021Y-75638326D01*
X178976759Y-75384295D01*
X179192795Y-75168259D01*
X179446826Y-74998521D01*
X179729090Y-74881604D01*
X179878915Y-74851802D01*
X180028739Y-74822000D01*
X180334261Y-74822000D01*
X180484085Y-74851802D01*
G37*
G36*
X158164085Y-74851802D02*
G01*
X158313910Y-74881604D01*
X158596174Y-74998521D01*
X158850205Y-75168259D01*
X159066241Y-75384295D01*
X159235979Y-75638326D01*
X159352896Y-75920590D01*
X159412500Y-76220240D01*
X159412500Y-76525760D01*
X159352896Y-76825410D01*
X159235979Y-77107674D01*
X159066241Y-77361705D01*
X158850205Y-77577741D01*
X158596174Y-77747479D01*
X158313910Y-77864396D01*
X158170937Y-77892835D01*
X158014261Y-77924000D01*
X157708739Y-77924000D01*
X157552063Y-77892835D01*
X157409090Y-77864396D01*
X157126826Y-77747479D01*
X156872795Y-77577741D01*
X156656759Y-77361705D01*
X156487021Y-77107674D01*
X156370104Y-76825410D01*
X156310500Y-76525760D01*
X156310500Y-76220240D01*
X156370104Y-75920590D01*
X156487021Y-75638326D01*
X156656759Y-75384295D01*
X156872795Y-75168259D01*
X157126826Y-74998521D01*
X157409090Y-74881604D01*
X157558915Y-74851802D01*
X157708739Y-74822000D01*
X158014261Y-74822000D01*
X158164085Y-74851802D01*
G37*
G36*
X135844085Y-74851802D02*
G01*
X135993910Y-74881604D01*
X136276174Y-74998521D01*
X136530205Y-75168259D01*
X136746241Y-75384295D01*
X136915979Y-75638326D01*
X137032896Y-75920590D01*
X137092500Y-76220240D01*
X137092500Y-76525760D01*
X137032896Y-76825410D01*
X136915979Y-77107674D01*
X136746241Y-77361705D01*
X136530205Y-77577741D01*
X136276174Y-77747479D01*
X135993910Y-77864396D01*
X135850937Y-77892835D01*
X135694261Y-77924000D01*
X135388739Y-77924000D01*
X135232063Y-77892835D01*
X135089090Y-77864396D01*
X134806826Y-77747479D01*
X134552795Y-77577741D01*
X134336759Y-77361705D01*
X134167021Y-77107674D01*
X134050104Y-76825410D01*
X133990500Y-76525760D01*
X133990500Y-76220240D01*
X134050104Y-75920590D01*
X134167021Y-75638326D01*
X134336759Y-75384295D01*
X134552795Y-75168259D01*
X134806826Y-74998521D01*
X135089090Y-74881604D01*
X135238915Y-74851802D01*
X135388739Y-74822000D01*
X135694261Y-74822000D01*
X135844085Y-74851802D01*
G37*
G36*
X91204085Y-74851802D02*
G01*
X91353910Y-74881604D01*
X91636174Y-74998521D01*
X91890205Y-75168259D01*
X92106241Y-75384295D01*
X92275979Y-75638326D01*
X92392896Y-75920590D01*
X92452500Y-76220240D01*
X92452500Y-76525760D01*
X92392896Y-76825410D01*
X92275979Y-77107674D01*
X92106241Y-77361705D01*
X91890205Y-77577741D01*
X91636174Y-77747479D01*
X91353910Y-77864396D01*
X91210937Y-77892835D01*
X91054261Y-77924000D01*
X90748739Y-77924000D01*
X90592063Y-77892835D01*
X90449090Y-77864396D01*
X90166826Y-77747479D01*
X89912795Y-77577741D01*
X89696759Y-77361705D01*
X89527021Y-77107674D01*
X89410104Y-76825410D01*
X89350500Y-76525760D01*
X89350500Y-76220240D01*
X89410104Y-75920590D01*
X89527021Y-75638326D01*
X89696759Y-75384295D01*
X89912795Y-75168259D01*
X90166826Y-74998521D01*
X90449090Y-74881604D01*
X90598915Y-74851802D01*
X90748739Y-74822000D01*
X91054261Y-74822000D01*
X91204085Y-74851802D01*
G37*
G36*
X68884085Y-74851802D02*
G01*
X69033910Y-74881604D01*
X69316174Y-74998521D01*
X69570205Y-75168259D01*
X69786241Y-75384295D01*
X69955979Y-75638326D01*
X70072896Y-75920590D01*
X70132500Y-76220240D01*
X70132500Y-76525760D01*
X70072896Y-76825410D01*
X69955979Y-77107674D01*
X69786241Y-77361705D01*
X69570205Y-77577741D01*
X69316174Y-77747479D01*
X69033910Y-77864396D01*
X68890937Y-77892835D01*
X68734261Y-77924000D01*
X68428739Y-77924000D01*
X68272063Y-77892835D01*
X68129090Y-77864396D01*
X67846826Y-77747479D01*
X67592795Y-77577741D01*
X67376759Y-77361705D01*
X67207021Y-77107674D01*
X67090104Y-76825410D01*
X67030500Y-76525760D01*
X67030500Y-76220240D01*
X67090104Y-75920590D01*
X67207021Y-75638326D01*
X67376759Y-75384295D01*
X67592795Y-75168259D01*
X67846826Y-74998521D01*
X68129090Y-74881604D01*
X68278915Y-74851802D01*
X68428739Y-74822000D01*
X68734261Y-74822000D01*
X68884085Y-74851802D01*
G37*
G36*
X225124085Y-74851802D02*
G01*
X225273910Y-74881604D01*
X225556174Y-74998521D01*
X225810205Y-75168259D01*
X226026241Y-75384295D01*
X226195979Y-75638326D01*
X226312896Y-75920590D01*
X226372500Y-76220240D01*
X226372500Y-76525760D01*
X226312896Y-76825410D01*
X226195979Y-77107674D01*
X226026241Y-77361705D01*
X225810205Y-77577741D01*
X225556174Y-77747479D01*
X225273910Y-77864396D01*
X225130937Y-77892835D01*
X224974261Y-77924000D01*
X224668739Y-77924000D01*
X224512063Y-77892835D01*
X224369090Y-77864396D01*
X224086826Y-77747479D01*
X223832795Y-77577741D01*
X223616759Y-77361705D01*
X223447021Y-77107674D01*
X223330104Y-76825410D01*
X223270500Y-76525760D01*
X223270500Y-76220240D01*
X223330104Y-75920590D01*
X223447021Y-75638326D01*
X223616759Y-75384295D01*
X223832795Y-75168259D01*
X224086826Y-74998521D01*
X224369090Y-74881604D01*
X224518915Y-74851802D01*
X224668739Y-74822000D01*
X224974261Y-74822000D01*
X225124085Y-74851802D01*
G37*
G36*
X113524085Y-74851802D02*
G01*
X113673910Y-74881604D01*
X113956174Y-74998521D01*
X114210205Y-75168259D01*
X114426241Y-75384295D01*
X114595979Y-75638326D01*
X114712896Y-75920590D01*
X114772500Y-76220240D01*
X114772500Y-76525760D01*
X114712896Y-76825410D01*
X114595979Y-77107674D01*
X114426241Y-77361705D01*
X114210205Y-77577741D01*
X113956174Y-77747479D01*
X113673910Y-77864396D01*
X113530937Y-77892835D01*
X113374261Y-77924000D01*
X113068739Y-77924000D01*
X112912063Y-77892835D01*
X112769090Y-77864396D01*
X112486826Y-77747479D01*
X112232795Y-77577741D01*
X112016759Y-77361705D01*
X111847021Y-77107674D01*
X111730104Y-76825410D01*
X111670500Y-76525760D01*
X111670500Y-76220240D01*
X111730104Y-75920590D01*
X111847021Y-75638326D01*
X112016759Y-75384295D01*
X112232795Y-75168259D01*
X112486826Y-74998521D01*
X112769090Y-74881604D01*
X112918915Y-74851802D01*
X113068739Y-74822000D01*
X113374261Y-74822000D01*
X113524085Y-74851802D01*
G37*
G36*
X81160987Y-75121996D02*
G01*
X81397753Y-75220068D01*
X81397755Y-75220069D01*
X81610839Y-75362447D01*
X81792053Y-75543661D01*
X81934432Y-75756747D01*
X82032504Y-75993513D01*
X82082500Y-76244861D01*
X82082500Y-76501139D01*
X82032504Y-76752487D01*
X81949116Y-76953802D01*
X81934431Y-76989255D01*
X81792053Y-77202339D01*
X81610839Y-77383553D01*
X81397755Y-77525931D01*
X81397754Y-77525932D01*
X81397753Y-77525932D01*
X81160987Y-77624004D01*
X80909639Y-77674000D01*
X80653361Y-77674000D01*
X80402013Y-77624004D01*
X80165247Y-77525932D01*
X80165246Y-77525932D01*
X80165245Y-77525931D01*
X79952161Y-77383553D01*
X79770947Y-77202339D01*
X79628569Y-76989255D01*
X79613884Y-76953802D01*
X79530496Y-76752487D01*
X79480500Y-76501139D01*
X79480500Y-76244861D01*
X79530496Y-75993513D01*
X79628568Y-75756747D01*
X79770947Y-75543661D01*
X79952161Y-75362447D01*
X80165245Y-75220069D01*
X80165247Y-75220068D01*
X80402013Y-75121996D01*
X80653361Y-75072000D01*
X80909639Y-75072000D01*
X81160987Y-75121996D01*
G37*
G36*
X103480987Y-75121996D02*
G01*
X103717753Y-75220068D01*
X103717755Y-75220069D01*
X103930839Y-75362447D01*
X104112053Y-75543661D01*
X104254432Y-75756747D01*
X104352504Y-75993513D01*
X104402500Y-76244861D01*
X104402500Y-76501139D01*
X104352504Y-76752487D01*
X104269116Y-76953802D01*
X104254431Y-76989255D01*
X104112053Y-77202339D01*
X103930839Y-77383553D01*
X103717755Y-77525931D01*
X103717754Y-77525932D01*
X103717753Y-77525932D01*
X103480987Y-77624004D01*
X103229639Y-77674000D01*
X102973361Y-77674000D01*
X102722013Y-77624004D01*
X102485247Y-77525932D01*
X102485246Y-77525932D01*
X102485245Y-77525931D01*
X102272161Y-77383553D01*
X102090947Y-77202339D01*
X101948569Y-76989255D01*
X101933884Y-76953802D01*
X101850496Y-76752487D01*
X101800500Y-76501139D01*
X101800500Y-76244861D01*
X101850496Y-75993513D01*
X101948568Y-75756747D01*
X102090947Y-75543661D01*
X102272161Y-75362447D01*
X102485245Y-75220069D01*
X102485247Y-75220068D01*
X102722013Y-75121996D01*
X102973361Y-75072000D01*
X103229639Y-75072000D01*
X103480987Y-75121996D01*
G37*
G36*
X215080987Y-75121996D02*
G01*
X215317753Y-75220068D01*
X215317755Y-75220069D01*
X215530839Y-75362447D01*
X215712053Y-75543661D01*
X215854432Y-75756747D01*
X215952504Y-75993513D01*
X216002500Y-76244861D01*
X216002500Y-76501139D01*
X215952504Y-76752487D01*
X215869116Y-76953802D01*
X215854431Y-76989255D01*
X215712053Y-77202339D01*
X215530839Y-77383553D01*
X215317755Y-77525931D01*
X215317754Y-77525932D01*
X215317753Y-77525932D01*
X215080987Y-77624004D01*
X214829639Y-77674000D01*
X214573361Y-77674000D01*
X214322013Y-77624004D01*
X214085247Y-77525932D01*
X214085246Y-77525932D01*
X214085245Y-77525931D01*
X213872161Y-77383553D01*
X213690947Y-77202339D01*
X213548569Y-76989255D01*
X213533884Y-76953802D01*
X213450496Y-76752487D01*
X213400500Y-76501139D01*
X213400500Y-76244861D01*
X213450496Y-75993513D01*
X213548568Y-75756747D01*
X213690947Y-75543661D01*
X213872161Y-75362447D01*
X214085245Y-75220069D01*
X214085247Y-75220068D01*
X214322013Y-75121996D01*
X214573361Y-75072000D01*
X214829639Y-75072000D01*
X215080987Y-75121996D01*
G37*
G36*
X170440987Y-75121996D02*
G01*
X170677753Y-75220068D01*
X170677755Y-75220069D01*
X170890839Y-75362447D01*
X171072053Y-75543661D01*
X171214432Y-75756747D01*
X171312504Y-75993513D01*
X171362500Y-76244861D01*
X171362500Y-76501139D01*
X171312504Y-76752487D01*
X171229116Y-76953802D01*
X171214431Y-76989255D01*
X171072053Y-77202339D01*
X170890839Y-77383553D01*
X170677755Y-77525931D01*
X170677754Y-77525932D01*
X170677753Y-77525932D01*
X170440987Y-77624004D01*
X170189639Y-77674000D01*
X169933361Y-77674000D01*
X169682013Y-77624004D01*
X169445247Y-77525932D01*
X169445246Y-77525932D01*
X169445245Y-77525931D01*
X169232161Y-77383553D01*
X169050947Y-77202339D01*
X168908569Y-76989255D01*
X168893884Y-76953802D01*
X168810496Y-76752487D01*
X168760500Y-76501139D01*
X168760500Y-76244861D01*
X168810496Y-75993513D01*
X168908568Y-75756747D01*
X169050947Y-75543661D01*
X169232161Y-75362447D01*
X169445245Y-75220069D01*
X169445247Y-75220068D01*
X169682013Y-75121996D01*
X169933361Y-75072000D01*
X170189639Y-75072000D01*
X170440987Y-75121996D01*
G37*
G36*
X148120987Y-75121996D02*
G01*
X148357753Y-75220068D01*
X148357755Y-75220069D01*
X148570839Y-75362447D01*
X148752053Y-75543661D01*
X148894432Y-75756747D01*
X148992504Y-75993513D01*
X149042500Y-76244861D01*
X149042500Y-76501139D01*
X148992504Y-76752487D01*
X148909116Y-76953802D01*
X148894431Y-76989255D01*
X148752053Y-77202339D01*
X148570839Y-77383553D01*
X148357755Y-77525931D01*
X148357754Y-77525932D01*
X148357753Y-77525932D01*
X148120987Y-77624004D01*
X147869639Y-77674000D01*
X147613361Y-77674000D01*
X147362013Y-77624004D01*
X147125247Y-77525932D01*
X147125246Y-77525932D01*
X147125245Y-77525931D01*
X146912161Y-77383553D01*
X146730947Y-77202339D01*
X146588569Y-76989255D01*
X146573884Y-76953802D01*
X146490496Y-76752487D01*
X146440500Y-76501139D01*
X146440500Y-76244861D01*
X146490496Y-75993513D01*
X146588568Y-75756747D01*
X146730947Y-75543661D01*
X146912161Y-75362447D01*
X147125245Y-75220069D01*
X147125247Y-75220068D01*
X147362013Y-75121996D01*
X147613361Y-75072000D01*
X147869639Y-75072000D01*
X148120987Y-75121996D01*
G37*
G36*
X192760987Y-75121996D02*
G01*
X192997753Y-75220068D01*
X192997755Y-75220069D01*
X193210839Y-75362447D01*
X193392053Y-75543661D01*
X193534432Y-75756747D01*
X193632504Y-75993513D01*
X193682500Y-76244861D01*
X193682500Y-76501139D01*
X193632504Y-76752487D01*
X193549116Y-76953802D01*
X193534431Y-76989255D01*
X193392053Y-77202339D01*
X193210839Y-77383553D01*
X192997755Y-77525931D01*
X192997754Y-77525932D01*
X192997753Y-77525932D01*
X192760987Y-77624004D01*
X192509639Y-77674000D01*
X192253361Y-77674000D01*
X192002013Y-77624004D01*
X191765247Y-77525932D01*
X191765246Y-77525932D01*
X191765245Y-77525931D01*
X191552161Y-77383553D01*
X191370947Y-77202339D01*
X191228569Y-76989255D01*
X191213884Y-76953802D01*
X191130496Y-76752487D01*
X191080500Y-76501139D01*
X191080500Y-76244861D01*
X191130496Y-75993513D01*
X191228568Y-75756747D01*
X191370947Y-75543661D01*
X191552161Y-75362447D01*
X191765245Y-75220069D01*
X191765247Y-75220068D01*
X192002013Y-75121996D01*
X192253361Y-75072000D01*
X192509639Y-75072000D01*
X192760987Y-75121996D01*
G37*
G36*
X237400987Y-75121996D02*
G01*
X237637753Y-75220068D01*
X237637755Y-75220069D01*
X237850839Y-75362447D01*
X238032053Y-75543661D01*
X238174432Y-75756747D01*
X238272504Y-75993513D01*
X238322500Y-76244861D01*
X238322500Y-76501139D01*
X238272504Y-76752487D01*
X238189116Y-76953802D01*
X238174431Y-76989255D01*
X238032053Y-77202339D01*
X237850839Y-77383553D01*
X237637755Y-77525931D01*
X237637754Y-77525932D01*
X237637753Y-77525932D01*
X237400987Y-77624004D01*
X237149639Y-77674000D01*
X236893361Y-77674000D01*
X236642013Y-77624004D01*
X236405247Y-77525932D01*
X236405246Y-77525932D01*
X236405245Y-77525931D01*
X236192161Y-77383553D01*
X236010947Y-77202339D01*
X235868569Y-76989255D01*
X235853884Y-76953802D01*
X235770496Y-76752487D01*
X235720500Y-76501139D01*
X235720500Y-76244861D01*
X235770496Y-75993513D01*
X235868568Y-75756747D01*
X236010947Y-75543661D01*
X236192161Y-75362447D01*
X236405245Y-75220069D01*
X236405247Y-75220068D01*
X236642013Y-75121996D01*
X236893361Y-75072000D01*
X237149639Y-75072000D01*
X237400987Y-75121996D01*
G37*
G36*
X125800987Y-75121996D02*
G01*
X126037753Y-75220068D01*
X126037755Y-75220069D01*
X126250839Y-75362447D01*
X126432053Y-75543661D01*
X126574432Y-75756747D01*
X126672504Y-75993513D01*
X126722500Y-76244861D01*
X126722500Y-76501139D01*
X126672504Y-76752487D01*
X126589116Y-76953802D01*
X126574431Y-76989255D01*
X126432053Y-77202339D01*
X126250839Y-77383553D01*
X126037755Y-77525931D01*
X126037754Y-77525932D01*
X126037753Y-77525932D01*
X125800987Y-77624004D01*
X125549639Y-77674000D01*
X125293361Y-77674000D01*
X125042013Y-77624004D01*
X124805247Y-77525932D01*
X124805246Y-77525932D01*
X124805245Y-77525931D01*
X124592161Y-77383553D01*
X124410947Y-77202339D01*
X124268569Y-76989255D01*
X124253884Y-76953802D01*
X124170496Y-76752487D01*
X124120500Y-76501139D01*
X124120500Y-76244861D01*
X124170496Y-75993513D01*
X124268568Y-75756747D01*
X124410947Y-75543661D01*
X124592161Y-75362447D01*
X124805245Y-75220069D01*
X124805247Y-75220068D01*
X125042013Y-75121996D01*
X125293361Y-75072000D01*
X125549639Y-75072000D01*
X125800987Y-75121996D01*
G37*
G36*
X145536500Y-71528000D02*
G01*
X142434500Y-71528000D01*
X142434500Y-68426000D01*
X145536500Y-68426000D01*
X145536500Y-71528000D01*
G37*
G36*
X123216500Y-71528000D02*
G01*
X120114500Y-71528000D01*
X120114500Y-68426000D01*
X123216500Y-68426000D01*
X123216500Y-71528000D01*
G37*
G36*
X139208085Y-68455802D02*
G01*
X139357910Y-68485604D01*
X139640174Y-68602521D01*
X139894205Y-68772259D01*
X140110241Y-68988295D01*
X140279979Y-69242326D01*
X140396896Y-69524590D01*
X140456500Y-69824240D01*
X140456500Y-70129760D01*
X140396896Y-70429410D01*
X140279979Y-70711674D01*
X140110241Y-70965705D01*
X139894205Y-71181741D01*
X139640174Y-71351479D01*
X139357910Y-71468396D01*
X139208085Y-71498198D01*
X139058261Y-71528000D01*
X138752739Y-71528000D01*
X138602915Y-71498198D01*
X138453090Y-71468396D01*
X138170826Y-71351479D01*
X137916795Y-71181741D01*
X137700759Y-70965705D01*
X137531021Y-70711674D01*
X137414104Y-70429410D01*
X137354500Y-70129760D01*
X137354500Y-69824240D01*
X137414104Y-69524590D01*
X137531021Y-69242326D01*
X137700759Y-68988295D01*
X137916795Y-68772259D01*
X138170826Y-68602521D01*
X138453090Y-68485604D01*
X138602915Y-68455802D01*
X138752739Y-68426000D01*
X139058261Y-68426000D01*
X139208085Y-68455802D01*
G37*
G36*
X134128085Y-68455802D02*
G01*
X134277910Y-68485604D01*
X134560174Y-68602521D01*
X134814205Y-68772259D01*
X135030241Y-68988295D01*
X135199979Y-69242326D01*
X135316896Y-69524590D01*
X135376500Y-69824240D01*
X135376500Y-70129760D01*
X135316896Y-70429410D01*
X135199979Y-70711674D01*
X135030241Y-70965705D01*
X134814205Y-71181741D01*
X134560174Y-71351479D01*
X134277910Y-71468396D01*
X134128085Y-71498198D01*
X133978261Y-71528000D01*
X133672739Y-71528000D01*
X133522915Y-71498198D01*
X133373090Y-71468396D01*
X133090826Y-71351479D01*
X132836795Y-71181741D01*
X132620759Y-70965705D01*
X132451021Y-70711674D01*
X132334104Y-70429410D01*
X132274500Y-70129760D01*
X132274500Y-69824240D01*
X132334104Y-69524590D01*
X132451021Y-69242326D01*
X132620759Y-68988295D01*
X132836795Y-68772259D01*
X133090826Y-68602521D01*
X133373090Y-68485604D01*
X133522915Y-68455802D01*
X133672739Y-68426000D01*
X133978261Y-68426000D01*
X134128085Y-68455802D01*
G37*
G36*
X167856500Y-71528000D02*
G01*
X164754500Y-71528000D01*
X164754500Y-68426000D01*
X167856500Y-68426000D01*
X167856500Y-71528000D01*
G37*
G36*
X161528085Y-68455802D02*
G01*
X161677910Y-68485604D01*
X161960174Y-68602521D01*
X162214205Y-68772259D01*
X162430241Y-68988295D01*
X162599979Y-69242326D01*
X162716896Y-69524590D01*
X162776500Y-69824240D01*
X162776500Y-70129760D01*
X162716896Y-70429410D01*
X162599979Y-70711674D01*
X162430241Y-70965705D01*
X162214205Y-71181741D01*
X161960174Y-71351479D01*
X161677910Y-71468396D01*
X161528085Y-71498198D01*
X161378261Y-71528000D01*
X161072739Y-71528000D01*
X160922915Y-71498198D01*
X160773090Y-71468396D01*
X160490826Y-71351479D01*
X160236795Y-71181741D01*
X160020759Y-70965705D01*
X159851021Y-70711674D01*
X159734104Y-70429410D01*
X159674500Y-70129760D01*
X159674500Y-69824240D01*
X159734104Y-69524590D01*
X159851021Y-69242326D01*
X160020759Y-68988295D01*
X160236795Y-68772259D01*
X160490826Y-68602521D01*
X160773090Y-68485604D01*
X160922915Y-68455802D01*
X161072739Y-68426000D01*
X161378261Y-68426000D01*
X161528085Y-68455802D01*
G37*
G36*
X156448085Y-68455802D02*
G01*
X156597910Y-68485604D01*
X156880174Y-68602521D01*
X157134205Y-68772259D01*
X157350241Y-68988295D01*
X157519979Y-69242326D01*
X157636896Y-69524590D01*
X157696500Y-69824240D01*
X157696500Y-70129760D01*
X157636896Y-70429410D01*
X157519979Y-70711674D01*
X157350241Y-70965705D01*
X157134205Y-71181741D01*
X156880174Y-71351479D01*
X156597910Y-71468396D01*
X156448085Y-71498198D01*
X156298261Y-71528000D01*
X155992739Y-71528000D01*
X155842915Y-71498198D01*
X155693090Y-71468396D01*
X155410826Y-71351479D01*
X155156795Y-71181741D01*
X154940759Y-70965705D01*
X154771021Y-70711674D01*
X154654104Y-70429410D01*
X154594500Y-70129760D01*
X154594500Y-69824240D01*
X154654104Y-69524590D01*
X154771021Y-69242326D01*
X154940759Y-68988295D01*
X155156795Y-68772259D01*
X155410826Y-68602521D01*
X155693090Y-68485604D01*
X155842915Y-68455802D01*
X155992739Y-68426000D01*
X156298261Y-68426000D01*
X156448085Y-68455802D01*
G37*
G36*
X190176500Y-71528000D02*
G01*
X187074500Y-71528000D01*
X187074500Y-68426000D01*
X190176500Y-68426000D01*
X190176500Y-71528000D01*
G37*
G36*
X183848085Y-68455802D02*
G01*
X183997910Y-68485604D01*
X184280174Y-68602521D01*
X184534205Y-68772259D01*
X184750241Y-68988295D01*
X184919979Y-69242326D01*
X185036896Y-69524590D01*
X185096500Y-69824240D01*
X185096500Y-70129760D01*
X185036896Y-70429410D01*
X184919979Y-70711674D01*
X184750241Y-70965705D01*
X184534205Y-71181741D01*
X184280174Y-71351479D01*
X183997910Y-71468396D01*
X183848085Y-71498198D01*
X183698261Y-71528000D01*
X183392739Y-71528000D01*
X183242915Y-71498198D01*
X183093090Y-71468396D01*
X182810826Y-71351479D01*
X182556795Y-71181741D01*
X182340759Y-70965705D01*
X182171021Y-70711674D01*
X182054104Y-70429410D01*
X181994500Y-70129760D01*
X181994500Y-69824240D01*
X182054104Y-69524590D01*
X182171021Y-69242326D01*
X182340759Y-68988295D01*
X182556795Y-68772259D01*
X182810826Y-68602521D01*
X183093090Y-68485604D01*
X183242915Y-68455802D01*
X183392739Y-68426000D01*
X183698261Y-68426000D01*
X183848085Y-68455802D01*
G37*
G36*
X234816500Y-71528000D02*
G01*
X231714500Y-71528000D01*
X231714500Y-68426000D01*
X234816500Y-68426000D01*
X234816500Y-71528000D01*
G37*
G36*
X228488085Y-68455802D02*
G01*
X228637910Y-68485604D01*
X228920174Y-68602521D01*
X229174205Y-68772259D01*
X229390241Y-68988295D01*
X229559979Y-69242326D01*
X229676896Y-69524590D01*
X229736500Y-69824240D01*
X229736500Y-70129760D01*
X229676896Y-70429410D01*
X229559979Y-70711674D01*
X229390241Y-70965705D01*
X229174205Y-71181741D01*
X228920174Y-71351479D01*
X228637910Y-71468396D01*
X228488085Y-71498198D01*
X228338261Y-71528000D01*
X228032739Y-71528000D01*
X227882915Y-71498198D01*
X227733090Y-71468396D01*
X227450826Y-71351479D01*
X227196795Y-71181741D01*
X226980759Y-70965705D01*
X226811021Y-70711674D01*
X226694104Y-70429410D01*
X226634500Y-70129760D01*
X226634500Y-69824240D01*
X226694104Y-69524590D01*
X226811021Y-69242326D01*
X226980759Y-68988295D01*
X227196795Y-68772259D01*
X227450826Y-68602521D01*
X227733090Y-68485604D01*
X227882915Y-68455802D01*
X228032739Y-68426000D01*
X228338261Y-68426000D01*
X228488085Y-68455802D01*
G37*
G36*
X223408085Y-68455802D02*
G01*
X223557910Y-68485604D01*
X223840174Y-68602521D01*
X224094205Y-68772259D01*
X224310241Y-68988295D01*
X224479979Y-69242326D01*
X224596896Y-69524590D01*
X224656500Y-69824240D01*
X224656500Y-70129760D01*
X224596896Y-70429410D01*
X224479979Y-70711674D01*
X224310241Y-70965705D01*
X224094205Y-71181741D01*
X223840174Y-71351479D01*
X223557910Y-71468396D01*
X223408085Y-71498198D01*
X223258261Y-71528000D01*
X222952739Y-71528000D01*
X222802915Y-71498198D01*
X222653090Y-71468396D01*
X222370826Y-71351479D01*
X222116795Y-71181741D01*
X221900759Y-70965705D01*
X221731021Y-70711674D01*
X221614104Y-70429410D01*
X221554500Y-70129760D01*
X221554500Y-69824240D01*
X221614104Y-69524590D01*
X221731021Y-69242326D01*
X221900759Y-68988295D01*
X222116795Y-68772259D01*
X222370826Y-68602521D01*
X222653090Y-68485604D01*
X222802915Y-68455802D01*
X222952739Y-68426000D01*
X223258261Y-68426000D01*
X223408085Y-68455802D01*
G37*
G36*
X116888085Y-68455802D02*
G01*
X117037910Y-68485604D01*
X117320174Y-68602521D01*
X117574205Y-68772259D01*
X117790241Y-68988295D01*
X117959979Y-69242326D01*
X118076896Y-69524590D01*
X118136500Y-69824240D01*
X118136500Y-70129760D01*
X118076896Y-70429410D01*
X117959979Y-70711674D01*
X117790241Y-70965705D01*
X117574205Y-71181741D01*
X117320174Y-71351479D01*
X117037910Y-71468396D01*
X116888085Y-71498198D01*
X116738261Y-71528000D01*
X116432739Y-71528000D01*
X116282915Y-71498198D01*
X116133090Y-71468396D01*
X115850826Y-71351479D01*
X115596795Y-71181741D01*
X115380759Y-70965705D01*
X115211021Y-70711674D01*
X115094104Y-70429410D01*
X115034500Y-70129760D01*
X115034500Y-69824240D01*
X115094104Y-69524590D01*
X115211021Y-69242326D01*
X115380759Y-68988295D01*
X115596795Y-68772259D01*
X115850826Y-68602521D01*
X116133090Y-68485604D01*
X116282915Y-68455802D01*
X116432739Y-68426000D01*
X116738261Y-68426000D01*
X116888085Y-68455802D01*
G37*
G36*
X78576500Y-71528000D02*
G01*
X75474500Y-71528000D01*
X75474500Y-68426000D01*
X78576500Y-68426000D01*
X78576500Y-71528000D01*
G37*
G36*
X72248085Y-68455802D02*
G01*
X72397910Y-68485604D01*
X72680174Y-68602521D01*
X72934205Y-68772259D01*
X73150241Y-68988295D01*
X73319979Y-69242326D01*
X73436896Y-69524590D01*
X73496500Y-69824240D01*
X73496500Y-70129760D01*
X73436896Y-70429410D01*
X73319979Y-70711674D01*
X73150241Y-70965705D01*
X72934205Y-71181741D01*
X72680174Y-71351479D01*
X72397910Y-71468396D01*
X72248085Y-71498198D01*
X72098261Y-71528000D01*
X71792739Y-71528000D01*
X71642915Y-71498198D01*
X71493090Y-71468396D01*
X71210826Y-71351479D01*
X70956795Y-71181741D01*
X70740759Y-70965705D01*
X70571021Y-70711674D01*
X70454104Y-70429410D01*
X70394500Y-70129760D01*
X70394500Y-69824240D01*
X70454104Y-69524590D01*
X70571021Y-69242326D01*
X70740759Y-68988295D01*
X70956795Y-68772259D01*
X71210826Y-68602521D01*
X71493090Y-68485604D01*
X71642915Y-68455802D01*
X71792739Y-68426000D01*
X72098261Y-68426000D01*
X72248085Y-68455802D01*
G37*
G36*
X67168085Y-68455802D02*
G01*
X67317910Y-68485604D01*
X67600174Y-68602521D01*
X67854205Y-68772259D01*
X68070241Y-68988295D01*
X68239979Y-69242326D01*
X68356896Y-69524590D01*
X68416500Y-69824240D01*
X68416500Y-70129760D01*
X68356896Y-70429410D01*
X68239979Y-70711674D01*
X68070241Y-70965705D01*
X67854205Y-71181741D01*
X67600174Y-71351479D01*
X67317910Y-71468396D01*
X67168085Y-71498198D01*
X67018261Y-71528000D01*
X66712739Y-71528000D01*
X66562915Y-71498198D01*
X66413090Y-71468396D01*
X66130826Y-71351479D01*
X65876795Y-71181741D01*
X65660759Y-70965705D01*
X65491021Y-70711674D01*
X65374104Y-70429410D01*
X65314500Y-70129760D01*
X65314500Y-69824240D01*
X65374104Y-69524590D01*
X65491021Y-69242326D01*
X65660759Y-68988295D01*
X65876795Y-68772259D01*
X66130826Y-68602521D01*
X66413090Y-68485604D01*
X66562915Y-68455802D01*
X66712739Y-68426000D01*
X67018261Y-68426000D01*
X67168085Y-68455802D01*
G37*
G36*
X178768085Y-68455802D02*
G01*
X178917910Y-68485604D01*
X179200174Y-68602521D01*
X179454205Y-68772259D01*
X179670241Y-68988295D01*
X179839979Y-69242326D01*
X179956896Y-69524590D01*
X180016500Y-69824240D01*
X180016500Y-70129760D01*
X179956896Y-70429410D01*
X179839979Y-70711674D01*
X179670241Y-70965705D01*
X179454205Y-71181741D01*
X179200174Y-71351479D01*
X178917910Y-71468396D01*
X178768085Y-71498198D01*
X178618261Y-71528000D01*
X178312739Y-71528000D01*
X178162915Y-71498198D01*
X178013090Y-71468396D01*
X177730826Y-71351479D01*
X177476795Y-71181741D01*
X177260759Y-70965705D01*
X177091021Y-70711674D01*
X176974104Y-70429410D01*
X176914500Y-70129760D01*
X176914500Y-69824240D01*
X176974104Y-69524590D01*
X177091021Y-69242326D01*
X177260759Y-68988295D01*
X177476795Y-68772259D01*
X177730826Y-68602521D01*
X178013090Y-68485604D01*
X178162915Y-68455802D01*
X178312739Y-68426000D01*
X178618261Y-68426000D01*
X178768085Y-68455802D01*
G37*
G36*
X212496500Y-71528000D02*
G01*
X209394500Y-71528000D01*
X209394500Y-68426000D01*
X212496500Y-68426000D01*
X212496500Y-71528000D01*
G37*
G36*
X206168085Y-68455802D02*
G01*
X206317910Y-68485604D01*
X206600174Y-68602521D01*
X206854205Y-68772259D01*
X207070241Y-68988295D01*
X207239979Y-69242326D01*
X207356896Y-69524590D01*
X207416500Y-69824240D01*
X207416500Y-70129760D01*
X207356896Y-70429410D01*
X207239979Y-70711674D01*
X207070241Y-70965705D01*
X206854205Y-71181741D01*
X206600174Y-71351479D01*
X206317910Y-71468396D01*
X206168085Y-71498198D01*
X206018261Y-71528000D01*
X205712739Y-71528000D01*
X205562915Y-71498198D01*
X205413090Y-71468396D01*
X205130826Y-71351479D01*
X204876795Y-71181741D01*
X204660759Y-70965705D01*
X204491021Y-70711674D01*
X204374104Y-70429410D01*
X204314500Y-70129760D01*
X204314500Y-69824240D01*
X204374104Y-69524590D01*
X204491021Y-69242326D01*
X204660759Y-68988295D01*
X204876795Y-68772259D01*
X205130826Y-68602521D01*
X205413090Y-68485604D01*
X205562915Y-68455802D01*
X205712739Y-68426000D01*
X206018261Y-68426000D01*
X206168085Y-68455802D01*
G37*
G36*
X201088085Y-68455802D02*
G01*
X201237910Y-68485604D01*
X201520174Y-68602521D01*
X201774205Y-68772259D01*
X201990241Y-68988295D01*
X202159979Y-69242326D01*
X202276896Y-69524590D01*
X202336500Y-69824240D01*
X202336500Y-70129760D01*
X202276896Y-70429410D01*
X202159979Y-70711674D01*
X201990241Y-70965705D01*
X201774205Y-71181741D01*
X201520174Y-71351479D01*
X201237910Y-71468396D01*
X201088085Y-71498198D01*
X200938261Y-71528000D01*
X200632739Y-71528000D01*
X200482915Y-71498198D01*
X200333090Y-71468396D01*
X200050826Y-71351479D01*
X199796795Y-71181741D01*
X199580759Y-70965705D01*
X199411021Y-70711674D01*
X199294104Y-70429410D01*
X199234500Y-70129760D01*
X199234500Y-69824240D01*
X199294104Y-69524590D01*
X199411021Y-69242326D01*
X199580759Y-68988295D01*
X199796795Y-68772259D01*
X200050826Y-68602521D01*
X200333090Y-68485604D01*
X200482915Y-68455802D01*
X200632739Y-68426000D01*
X200938261Y-68426000D01*
X201088085Y-68455802D01*
G37*
G36*
X100896500Y-71528000D02*
G01*
X97794500Y-71528000D01*
X97794500Y-68426000D01*
X100896500Y-68426000D01*
X100896500Y-71528000D01*
G37*
G36*
X94568085Y-68455802D02*
G01*
X94717910Y-68485604D01*
X95000174Y-68602521D01*
X95254205Y-68772259D01*
X95470241Y-68988295D01*
X95639979Y-69242326D01*
X95756896Y-69524590D01*
X95816500Y-69824240D01*
X95816500Y-70129760D01*
X95756896Y-70429410D01*
X95639979Y-70711674D01*
X95470241Y-70965705D01*
X95254205Y-71181741D01*
X95000174Y-71351479D01*
X94717910Y-71468396D01*
X94568085Y-71498198D01*
X94418261Y-71528000D01*
X94112739Y-71528000D01*
X93962915Y-71498198D01*
X93813090Y-71468396D01*
X93530826Y-71351479D01*
X93276795Y-71181741D01*
X93060759Y-70965705D01*
X92891021Y-70711674D01*
X92774104Y-70429410D01*
X92714500Y-70129760D01*
X92714500Y-69824240D01*
X92774104Y-69524590D01*
X92891021Y-69242326D01*
X93060759Y-68988295D01*
X93276795Y-68772259D01*
X93530826Y-68602521D01*
X93813090Y-68485604D01*
X93962915Y-68455802D01*
X94112739Y-68426000D01*
X94418261Y-68426000D01*
X94568085Y-68455802D01*
G37*
G36*
X89488085Y-68455802D02*
G01*
X89637910Y-68485604D01*
X89920174Y-68602521D01*
X90174205Y-68772259D01*
X90390241Y-68988295D01*
X90559979Y-69242326D01*
X90676896Y-69524590D01*
X90736500Y-69824240D01*
X90736500Y-70129760D01*
X90676896Y-70429410D01*
X90559979Y-70711674D01*
X90390241Y-70965705D01*
X90174205Y-71181741D01*
X89920174Y-71351479D01*
X89637910Y-71468396D01*
X89488085Y-71498198D01*
X89338261Y-71528000D01*
X89032739Y-71528000D01*
X88882915Y-71498198D01*
X88733090Y-71468396D01*
X88450826Y-71351479D01*
X88196795Y-71181741D01*
X87980759Y-70965705D01*
X87811021Y-70711674D01*
X87694104Y-70429410D01*
X87634500Y-70129760D01*
X87634500Y-69824240D01*
X87694104Y-69524590D01*
X87811021Y-69242326D01*
X87980759Y-68988295D01*
X88196795Y-68772259D01*
X88450826Y-68602521D01*
X88733090Y-68485604D01*
X88882915Y-68455802D01*
X89032739Y-68426000D01*
X89338261Y-68426000D01*
X89488085Y-68455802D01*
G37*
G36*
X111808085Y-68455802D02*
G01*
X111957910Y-68485604D01*
X112240174Y-68602521D01*
X112494205Y-68772259D01*
X112710241Y-68988295D01*
X112879979Y-69242326D01*
X112996896Y-69524590D01*
X113056500Y-69824240D01*
X113056500Y-70129760D01*
X112996896Y-70429410D01*
X112879979Y-70711674D01*
X112710241Y-70965705D01*
X112494205Y-71181741D01*
X112240174Y-71351479D01*
X111957910Y-71468396D01*
X111808085Y-71498198D01*
X111658261Y-71528000D01*
X111352739Y-71528000D01*
X111202915Y-71498198D01*
X111053090Y-71468396D01*
X110770826Y-71351479D01*
X110516795Y-71181741D01*
X110300759Y-70965705D01*
X110131021Y-70711674D01*
X110014104Y-70429410D01*
X109954500Y-70129760D01*
X109954500Y-69824240D01*
X110014104Y-69524590D01*
X110131021Y-69242326D01*
X110300759Y-68988295D01*
X110516795Y-68772259D01*
X110770826Y-68602521D01*
X111053090Y-68485604D01*
X111202915Y-68455802D01*
X111352739Y-68426000D01*
X111658261Y-68426000D01*
X111808085Y-68455802D01*
G37*
G36*
X127087294Y-69278155D02*
G01*
X127193650Y-69299311D01*
X127394020Y-69382307D01*
X127574344Y-69502795D01*
X127727705Y-69656156D01*
X127848193Y-69836480D01*
X127931189Y-70036851D01*
X127973500Y-70249560D01*
X127973500Y-70466440D01*
X127931189Y-70679149D01*
X127848193Y-70879520D01*
X127727705Y-71059844D01*
X127574344Y-71213205D01*
X127394020Y-71333693D01*
X127293834Y-71375191D01*
X127193650Y-71416689D01*
X127087295Y-71437844D01*
X126980940Y-71459000D01*
X126764060Y-71459000D01*
X126657705Y-71437844D01*
X126551350Y-71416689D01*
X126350980Y-71333693D01*
X126170656Y-71213205D01*
X126017295Y-71059844D01*
X125896807Y-70879520D01*
X125813811Y-70679149D01*
X125771500Y-70466440D01*
X125771500Y-70249560D01*
X125813811Y-70036851D01*
X125896807Y-69836480D01*
X126017295Y-69656156D01*
X126170656Y-69502795D01*
X126350980Y-69382307D01*
X126551350Y-69299311D01*
X126657706Y-69278155D01*
X126764060Y-69257000D01*
X126980940Y-69257000D01*
X127087294Y-69278155D01*
G37*
G36*
X238687294Y-69278155D02*
G01*
X238793650Y-69299311D01*
X238994020Y-69382307D01*
X239174344Y-69502795D01*
X239327705Y-69656156D01*
X239448193Y-69836480D01*
X239531189Y-70036851D01*
X239573500Y-70249560D01*
X239573500Y-70466440D01*
X239531189Y-70679149D01*
X239448193Y-70879520D01*
X239327705Y-71059844D01*
X239174344Y-71213205D01*
X238994020Y-71333693D01*
X238893834Y-71375191D01*
X238793650Y-71416689D01*
X238687295Y-71437844D01*
X238580940Y-71459000D01*
X238364060Y-71459000D01*
X238257705Y-71437844D01*
X238151350Y-71416689D01*
X237950980Y-71333693D01*
X237770656Y-71213205D01*
X237617295Y-71059844D01*
X237496807Y-70879520D01*
X237413811Y-70679149D01*
X237371500Y-70466440D01*
X237371500Y-70249560D01*
X237413811Y-70036851D01*
X237496807Y-69836480D01*
X237617295Y-69656156D01*
X237770656Y-69502795D01*
X237950980Y-69382307D01*
X238151350Y-69299311D01*
X238257706Y-69278155D01*
X238364060Y-69257000D01*
X238580940Y-69257000D01*
X238687294Y-69278155D01*
G37*
G36*
X216367294Y-69278155D02*
G01*
X216473650Y-69299311D01*
X216674020Y-69382307D01*
X216854344Y-69502795D01*
X217007705Y-69656156D01*
X217128193Y-69836480D01*
X217211189Y-70036851D01*
X217253500Y-70249560D01*
X217253500Y-70466440D01*
X217211189Y-70679149D01*
X217128193Y-70879520D01*
X217007705Y-71059844D01*
X216854344Y-71213205D01*
X216674020Y-71333693D01*
X216573834Y-71375191D01*
X216473650Y-71416689D01*
X216367295Y-71437844D01*
X216260940Y-71459000D01*
X216044060Y-71459000D01*
X215937705Y-71437844D01*
X215831350Y-71416689D01*
X215630980Y-71333693D01*
X215450656Y-71213205D01*
X215297295Y-71059844D01*
X215176807Y-70879520D01*
X215093811Y-70679149D01*
X215051500Y-70466440D01*
X215051500Y-70249560D01*
X215093811Y-70036851D01*
X215176807Y-69836480D01*
X215297295Y-69656156D01*
X215450656Y-69502795D01*
X215630980Y-69382307D01*
X215831350Y-69299311D01*
X215937706Y-69278155D01*
X216044060Y-69257000D01*
X216260940Y-69257000D01*
X216367294Y-69278155D01*
G37*
G36*
X194047294Y-69278155D02*
G01*
X194153650Y-69299311D01*
X194354020Y-69382307D01*
X194534344Y-69502795D01*
X194687705Y-69656156D01*
X194808193Y-69836480D01*
X194891189Y-70036851D01*
X194933500Y-70249560D01*
X194933500Y-70466440D01*
X194891189Y-70679149D01*
X194808193Y-70879520D01*
X194687705Y-71059844D01*
X194534344Y-71213205D01*
X194354020Y-71333693D01*
X194253834Y-71375191D01*
X194153650Y-71416689D01*
X194047295Y-71437844D01*
X193940940Y-71459000D01*
X193724060Y-71459000D01*
X193617705Y-71437844D01*
X193511350Y-71416689D01*
X193310980Y-71333693D01*
X193130656Y-71213205D01*
X192977295Y-71059844D01*
X192856807Y-70879520D01*
X192773811Y-70679149D01*
X192731500Y-70466440D01*
X192731500Y-70249560D01*
X192773811Y-70036851D01*
X192856807Y-69836480D01*
X192977295Y-69656156D01*
X193130656Y-69502795D01*
X193310980Y-69382307D01*
X193511350Y-69299311D01*
X193617706Y-69278155D01*
X193724060Y-69257000D01*
X193940940Y-69257000D01*
X194047294Y-69278155D01*
G37*
G36*
X171727294Y-69278155D02*
G01*
X171833650Y-69299311D01*
X172034020Y-69382307D01*
X172214344Y-69502795D01*
X172367705Y-69656156D01*
X172488193Y-69836480D01*
X172571189Y-70036851D01*
X172613500Y-70249560D01*
X172613500Y-70466440D01*
X172571189Y-70679149D01*
X172488193Y-70879520D01*
X172367705Y-71059844D01*
X172214344Y-71213205D01*
X172034020Y-71333693D01*
X171933834Y-71375191D01*
X171833650Y-71416689D01*
X171727295Y-71437844D01*
X171620940Y-71459000D01*
X171404060Y-71459000D01*
X171297705Y-71437844D01*
X171191350Y-71416689D01*
X170990980Y-71333693D01*
X170810656Y-71213205D01*
X170657295Y-71059844D01*
X170536807Y-70879520D01*
X170453811Y-70679149D01*
X170411500Y-70466440D01*
X170411500Y-70249560D01*
X170453811Y-70036851D01*
X170536807Y-69836480D01*
X170657295Y-69656156D01*
X170810656Y-69502795D01*
X170990980Y-69382307D01*
X171191350Y-69299311D01*
X171297706Y-69278155D01*
X171404060Y-69257000D01*
X171620940Y-69257000D01*
X171727294Y-69278155D01*
G37*
G36*
X149407294Y-69278155D02*
G01*
X149513650Y-69299311D01*
X149714020Y-69382307D01*
X149894344Y-69502795D01*
X150047705Y-69656156D01*
X150168193Y-69836480D01*
X150251189Y-70036851D01*
X150293500Y-70249560D01*
X150293500Y-70466440D01*
X150251189Y-70679149D01*
X150168193Y-70879520D01*
X150047705Y-71059844D01*
X149894344Y-71213205D01*
X149714020Y-71333693D01*
X149613834Y-71375191D01*
X149513650Y-71416689D01*
X149407295Y-71437844D01*
X149300940Y-71459000D01*
X149084060Y-71459000D01*
X148977705Y-71437844D01*
X148871350Y-71416689D01*
X148670980Y-71333693D01*
X148490656Y-71213205D01*
X148337295Y-71059844D01*
X148216807Y-70879520D01*
X148133811Y-70679149D01*
X148091500Y-70466440D01*
X148091500Y-70249560D01*
X148133811Y-70036851D01*
X148216807Y-69836480D01*
X148337295Y-69656156D01*
X148490656Y-69502795D01*
X148670980Y-69382307D01*
X148871350Y-69299311D01*
X148977706Y-69278155D01*
X149084060Y-69257000D01*
X149300940Y-69257000D01*
X149407294Y-69278155D01*
G37*
G36*
X104767294Y-69278155D02*
G01*
X104873650Y-69299311D01*
X105074020Y-69382307D01*
X105254344Y-69502795D01*
X105407705Y-69656156D01*
X105528193Y-69836480D01*
X105611189Y-70036851D01*
X105653500Y-70249560D01*
X105653500Y-70466440D01*
X105611189Y-70679149D01*
X105528193Y-70879520D01*
X105407705Y-71059844D01*
X105254344Y-71213205D01*
X105074020Y-71333693D01*
X104973834Y-71375191D01*
X104873650Y-71416689D01*
X104767295Y-71437844D01*
X104660940Y-71459000D01*
X104444060Y-71459000D01*
X104337705Y-71437844D01*
X104231350Y-71416689D01*
X104030980Y-71333693D01*
X103850656Y-71213205D01*
X103697295Y-71059844D01*
X103576807Y-70879520D01*
X103493811Y-70679149D01*
X103451500Y-70466440D01*
X103451500Y-70249560D01*
X103493811Y-70036851D01*
X103576807Y-69836480D01*
X103697295Y-69656156D01*
X103850656Y-69502795D01*
X104030980Y-69382307D01*
X104231350Y-69299311D01*
X104337706Y-69278155D01*
X104444060Y-69257000D01*
X104660940Y-69257000D01*
X104767294Y-69278155D01*
G37*
G36*
X82447294Y-69278155D02*
G01*
X82553650Y-69299311D01*
X82754020Y-69382307D01*
X82934344Y-69502795D01*
X83087705Y-69656156D01*
X83208193Y-69836480D01*
X83291189Y-70036851D01*
X83333500Y-70249560D01*
X83333500Y-70466440D01*
X83291189Y-70679149D01*
X83208193Y-70879520D01*
X83087705Y-71059844D01*
X82934344Y-71213205D01*
X82754020Y-71333693D01*
X82553650Y-71416689D01*
X82447295Y-71437844D01*
X82340940Y-71459000D01*
X82124060Y-71459000D01*
X82017705Y-71437844D01*
X81911350Y-71416689D01*
X81710980Y-71333693D01*
X81530656Y-71213205D01*
X81377295Y-71059844D01*
X81256807Y-70879520D01*
X81173811Y-70679149D01*
X81131500Y-70466440D01*
X81131500Y-70249560D01*
X81173811Y-70036851D01*
X81256807Y-69836480D01*
X81377295Y-69656156D01*
X81530656Y-69502795D01*
X81710980Y-69382307D01*
X81911350Y-69299311D01*
X82017706Y-69278155D01*
X82124060Y-69257000D01*
X82340940Y-69257000D01*
X82447294Y-69278155D01*
G37*
M02*
