M48
; DRILL file {KiCad 5.1.5-52549c5~86~ubuntu19.10.1} date Wed 08 Apr 2020 23:51:43 CEST
; FORMAT={-:-/ absolute / inch / decimal}
; #@! TF.CreationDate,2020-04-08T23:51:43+02:00
; #@! TF.GenerationSoftware,Kicad,Pcbnew,5.1.5-52549c5~86~ubuntu19.10.1
; #@! TF.FileFunction,NonPlated,1,2,NPTH
FMAT,2
INCH
T1C0.0197
T2C0.0827
%
G90
G05
T1
X8.6049Y-3.0205
X8.6049Y-3.05
X8.6049Y-3.0795
X8.664Y-3.0205
X8.664Y-3.05
X8.664Y-3.0795
X3.3325Y-3.0205
X3.3325Y-3.05
X3.3325Y-3.0795
X3.3916Y-3.0205
X3.3916Y-3.05
X3.3916Y-3.0795
X5.09Y-3.0205
X5.09Y-3.05
X5.09Y-3.0795
X5.149Y-3.0205
X5.149Y-3.05
X5.149Y-3.0795
X4.2112Y-3.0205
X4.2112Y-3.05
X4.2112Y-3.0795
X4.2703Y-3.0205
X4.2703Y-3.05
X4.2703Y-3.0795
X7.7262Y-3.0205
X7.7262Y-3.05
X7.7262Y-3.0795
X7.7853Y-3.0205
X7.7853Y-3.05
X7.7853Y-3.0795
X5.9687Y-3.0205
X5.9687Y-3.05
X5.9687Y-3.0795
X6.0278Y-3.0205
X6.0278Y-3.05
X6.0278Y-3.0795
X6.8475Y-3.0205
X6.8475Y-3.05
X6.8475Y-3.0795
X6.9065Y-3.0205
X6.9065Y-3.05
X6.9065Y-3.0795
T2
X6.1375Y-3.655
X5.8737Y-3.655
X3.2375Y-2.77
X6.7525Y-3.655
X2.6225Y-3.655
X7.6312Y-3.655
X5.2587Y-3.655
X4.38Y-3.655
X8.7737Y-3.655
X9.3887Y-3.655
X9.3887Y-2.77
X7.0162Y-3.655
X5.8737Y-2.77
X7.8949Y-3.655
X4.995Y-2.77
X3.5012Y-3.655
X8.5099Y-2.77
X8.5099Y-3.655
X3.2375Y-3.655
X7.6312Y-2.77
X4.1162Y-2.77
X4.1162Y-3.655
X6.7525Y-2.77
X4.995Y-3.655
T0
M30
