M48
; DRILL file {KiCad 5.1.5-52549c5~86~ubuntu19.10.1} date Wed 08 Apr 2020 23:51:43 CEST
; FORMAT={-:-/ absolute / inch / decimal}
; #@! TF.CreationDate,2020-04-08T23:51:43+02:00
; #@! TF.GenerationSoftware,Kicad,Pcbnew,5.1.5-52549c5~86~ubuntu19.10.1
; #@! TF.FileFunction,Plated,1,2,PTH
FMAT,2
INCH
T1C0.0394
T2C0.0512
T3C0.0598
%
G90
G05
T1
X6.3625Y-3.78
X6.4625Y-3.78
X6.5625Y-3.78
X3.1804Y-3.0068
X3.1804Y-3.4793
X6.6953Y-3.0068
X6.6953Y-3.4793
X4.9379Y-3.0068
X4.9379Y-3.4793
X8.4528Y-3.0068
X8.4528Y-3.4793
X3.7262Y-3.78
X3.8262Y-3.78
X3.9262Y-3.78
X5.8166Y-3.0068
X5.8166Y-3.4793
X9.3316Y-3.0068
X9.3316Y-3.4793
X2.8475Y-3.78
X2.9475Y-3.78
X3.0475Y-3.78
X8.9987Y-3.78
X9.0987Y-3.78
X9.1987Y-3.78
X5.4837Y-3.78
X5.5837Y-3.78
X5.6837Y-3.78
X4.0591Y-3.0068
X4.0591Y-3.4793
X7.2412Y-3.78
X7.3412Y-3.78
X7.4412Y-3.78
X4.605Y-3.78
X4.705Y-3.78
X4.805Y-3.78
X7.5741Y-3.0068
X7.5741Y-3.4793
X8.1199Y-3.78
X8.2199Y-3.78
X8.3199Y-3.78
T2
X2.6981Y-3.4812
X2.7001Y-3.0068
X3.2571Y-3.245
X6.2131Y-3.4812
X6.215Y-3.0068
X6.7721Y-3.245
X4.4556Y-3.4812
X4.4575Y-3.0068
X5.0146Y-3.245
X7.9705Y-3.4812
X7.9725Y-3.0068
X8.5296Y-3.245
X5.3343Y-3.4812
X5.3363Y-3.0068
X5.8934Y-3.245
X8.8493Y-3.4812
X8.8512Y-3.0068
X9.4083Y-3.245
X3.5768Y-3.4812
X3.5788Y-3.0068
X4.1359Y-3.245
X7.0918Y-3.4812
X7.0938Y-3.0068
X7.6508Y-3.245
T3
X7.0262Y-2.755
X7.2262Y-2.755
X7.4262Y-2.755
X2.6325Y-2.755
X2.8325Y-2.755
X3.0325Y-2.755
X4.39Y-2.755
X4.59Y-2.755
X4.79Y-2.755
X3.5112Y-2.755
X3.7112Y-2.755
X3.9112Y-2.755
X8.7837Y-2.755
X8.9837Y-2.755
X9.1837Y-2.755
X5.2687Y-2.755
X5.4687Y-2.755
X5.6687Y-2.755
X6.1475Y-2.755
X6.3475Y-2.755
X6.5475Y-2.755
X7.9049Y-2.755
X8.1049Y-2.755
X8.3049Y-2.755
T0
M30
