G04 #@! TF.GenerationSoftware,KiCad,Pcbnew,5.1.5-52549c5~86~ubuntu19.10.1*
G04 #@! TF.CreationDate,2020-04-08T21:24:30+02:00*
G04 #@! TF.ProjectId,Universal-Relay-Board,556e6976-6572-4736-916c-2d52656c6179,rev?*
G04 #@! TF.SameCoordinates,Original*
G04 #@! TF.FileFunction,Legend,Top*
G04 #@! TF.FilePolarity,Positive*
%FSLAX46Y46*%
G04 Gerber Fmt 4.6, Leading zero omitted, Abs format (unit mm)*
G04 Created by KiCad (PCBNEW 5.1.5-52549c5~86~ubuntu19.10.1) date 2020-04-08 21:24:30*
%MOMM*%
%LPD*%
G04 APERTURE LIST*
%ADD10C,0.120000*%
%ADD11C,0.150000*%
G04 APERTURE END LIST*
D10*
X119830000Y-57840000D02*
X123830000Y-57840000D01*
X119830000Y-61440000D02*
X119830000Y-57840000D01*
X123830000Y-61440000D02*
X119830000Y-61440000D01*
X123830000Y-57840000D02*
X123830000Y-61440000D01*
X119830000Y-57840000D02*
X123830000Y-61440000D01*
X121830000Y-57840000D02*
X121830000Y-53640000D01*
X121830000Y-65640000D02*
X121830000Y-61440000D01*
X125230000Y-59640000D02*
X125230000Y-56040000D01*
X118430000Y-59640000D02*
X118430000Y-56040000D01*
X118430000Y-56040000D02*
X125230000Y-56040000D01*
X116930000Y-59640000D02*
X112330000Y-62140000D01*
X118430000Y-59640000D02*
X116930000Y-59640000D01*
X121830000Y-65640000D02*
X124330000Y-65640000D01*
X125230000Y-59640000D02*
X126030000Y-59640000D01*
X124330000Y-53640000D02*
X121830000Y-53640000D01*
X113730000Y-63890000D02*
X113730000Y-61390000D01*
X113730000Y-55490000D02*
X113730000Y-57940000D01*
X109480000Y-51890000D02*
X129280000Y-51890000D01*
X109480000Y-67490000D02*
X109480000Y-51890000D01*
X129280000Y-67490000D02*
X109480000Y-67490000D01*
X129280000Y-67490000D02*
X129280000Y-60890000D01*
X129280000Y-58490000D02*
X129280000Y-51890000D01*
X119225000Y-69485000D02*
X114925000Y-69485000D01*
X114925000Y-69485000D02*
X114925000Y-71485000D01*
X114925000Y-71485000D02*
X119225000Y-71485000D01*
X123885000Y-74930000D02*
X123885000Y-76260000D01*
X123885000Y-76260000D02*
X122555000Y-76260000D01*
X121285000Y-76260000D02*
X116145000Y-76260000D01*
X116145000Y-73600000D02*
X116145000Y-76260000D01*
X121285000Y-73600000D02*
X116145000Y-73600000D01*
X121285000Y-73600000D02*
X121285000Y-76260000D01*
X124714000Y-43434000D02*
X124714000Y-51054000D01*
X109474000Y-43434000D02*
X109474000Y-51054000D01*
X124714000Y-44704000D02*
X109474000Y-44704000D01*
X124714000Y-51054000D02*
X109474000Y-51054000D01*
X124714000Y-43434000D02*
X109474000Y-43434000D01*
X124135000Y-69725000D02*
X123205000Y-69725000D01*
X120975000Y-69725000D02*
X121905000Y-69725000D01*
X120975000Y-69725000D02*
X120975000Y-71885000D01*
X124135000Y-69725000D02*
X124135000Y-71185000D01*
D11*
X127531904Y-51506380D02*
X127531904Y-50506380D01*
X128103333Y-51506380D02*
X127674761Y-50934952D01*
X128103333Y-50506380D02*
X127531904Y-51077809D01*
X129055714Y-51506380D02*
X128484285Y-51506380D01*
X128770000Y-51506380D02*
X128770000Y-50506380D01*
X128674761Y-50649238D01*
X128579523Y-50744476D01*
X128484285Y-50792095D01*
X116736904Y-72969380D02*
X116736904Y-71969380D01*
X116975000Y-71969380D01*
X117117857Y-72017000D01*
X117213095Y-72112238D01*
X117260714Y-72207476D01*
X117308333Y-72397952D01*
X117308333Y-72540809D01*
X117260714Y-72731285D01*
X117213095Y-72826523D01*
X117117857Y-72921761D01*
X116975000Y-72969380D01*
X116736904Y-72969380D01*
X118260714Y-72969380D02*
X117689285Y-72969380D01*
X117975000Y-72969380D02*
X117975000Y-71969380D01*
X117879761Y-72112238D01*
X117784523Y-72207476D01*
X117689285Y-72255095D01*
X124634666Y-74382380D02*
X124634666Y-75096666D01*
X124587047Y-75239523D01*
X124491809Y-75334761D01*
X124348952Y-75382380D01*
X124253714Y-75382380D01*
X125634666Y-75382380D02*
X125063238Y-75382380D01*
X125348952Y-75382380D02*
X125348952Y-74382380D01*
X125253714Y-74525238D01*
X125158476Y-74620476D01*
X125063238Y-74668095D01*
X125523666Y-49490380D02*
X125523666Y-50204666D01*
X125476047Y-50347523D01*
X125380809Y-50442761D01*
X125237952Y-50490380D01*
X125142714Y-50490380D01*
X125952238Y-49585619D02*
X125999857Y-49538000D01*
X126095095Y-49490380D01*
X126333190Y-49490380D01*
X126428428Y-49538000D01*
X126476047Y-49585619D01*
X126523666Y-49680857D01*
X126523666Y-49776095D01*
X126476047Y-49918952D01*
X125904619Y-50490380D01*
X126523666Y-50490380D01*
X122459761Y-73572619D02*
X122364523Y-73525000D01*
X122269285Y-73429761D01*
X122126428Y-73286904D01*
X122031190Y-73239285D01*
X121935952Y-73239285D01*
X121983571Y-73477380D02*
X121888333Y-73429761D01*
X121793095Y-73334523D01*
X121745476Y-73144047D01*
X121745476Y-72810714D01*
X121793095Y-72620238D01*
X121888333Y-72525000D01*
X121983571Y-72477380D01*
X122174047Y-72477380D01*
X122269285Y-72525000D01*
X122364523Y-72620238D01*
X122412142Y-72810714D01*
X122412142Y-73144047D01*
X122364523Y-73334523D01*
X122269285Y-73429761D01*
X122174047Y-73477380D01*
X121983571Y-73477380D01*
X123364523Y-73477380D02*
X122793095Y-73477380D01*
X123078809Y-73477380D02*
X123078809Y-72477380D01*
X122983571Y-72620238D01*
X122888333Y-72715476D01*
X122793095Y-72763095D01*
M02*
