G04 #@! TF.GenerationSoftware,KiCad,Pcbnew,5.1.5-52549c5~86~ubuntu19.10.1*
G04 #@! TF.CreationDate,2020-04-08T21:24:30+02:00*
G04 #@! TF.ProjectId,Universal-Relay-Board,556e6976-6572-4736-916c-2d52656c6179,rev?*
G04 #@! TF.SameCoordinates,Original*
G04 #@! TF.FileFunction,Copper,L1,Top*
G04 #@! TF.FilePolarity,Positive*
%FSLAX46Y46*%
G04 Gerber Fmt 4.6, Leading zero omitted, Abs format (unit mm)*
G04 Created by KiCad (PCBNEW 5.1.5-52549c5~86~ubuntu19.10.1) date 2020-04-08 21:24:30*
%MOMM*%
%LPD*%
G04 APERTURE LIST*
%ADD10C,3.000000*%
%ADD11C,2.500000*%
%ADD12R,1.300000X1.700000*%
%ADD13O,1.700000X1.700000*%
%ADD14R,1.700000X1.700000*%
%ADD15R,3.000000X3.000000*%
%ADD16R,0.800000X0.900000*%
%ADD17C,1.000000*%
%ADD18C,4.000000*%
G04 APERTURE END LIST*
D10*
X127880000Y-59690000D03*
D11*
X125930000Y-65640000D03*
D10*
X113680000Y-65690000D03*
X113730000Y-53640000D03*
D11*
X125930000Y-53640000D03*
D12*
X115725000Y-70485000D03*
X119225000Y-70485000D03*
D13*
X117475000Y-74930000D03*
X120015000Y-74930000D03*
D14*
X122555000Y-74930000D03*
D15*
X122174000Y-47244000D03*
D10*
X117094000Y-47244000D03*
X112014000Y-47244000D03*
D16*
X121605000Y-71485000D03*
X123505000Y-71485000D03*
X122555000Y-69485000D03*
D17*
X115725000Y-73180000D02*
X117475000Y-74930000D01*
X115725000Y-70485000D02*
X115725000Y-73180000D01*
X116459000Y-70485000D02*
X115725000Y-70485000D01*
X123825000Y-55745000D02*
X123825000Y-64113000D01*
X119003001Y-68934999D02*
X118014999Y-68934999D01*
X117099998Y-69850000D02*
X117094000Y-69850000D01*
X125930000Y-53640000D02*
X123825000Y-55745000D01*
X123825000Y-64113000D02*
X119003001Y-68934999D01*
X117094000Y-69850000D02*
X116459000Y-70485000D01*
X118014999Y-68934999D02*
X117099998Y-69850000D01*
X123505000Y-73980000D02*
X122555000Y-74930000D01*
X123505000Y-71485000D02*
X123505000Y-73980000D01*
X120015000Y-73075000D02*
X120015000Y-74930000D01*
X121605000Y-71485000D02*
X120015000Y-73075000D01*
X120225000Y-69485000D02*
X119225000Y-70485000D01*
X122555000Y-69485000D02*
X120225000Y-69485000D01*
X122555000Y-69015000D02*
X125930000Y-65640000D01*
X122555000Y-69485000D02*
X122555000Y-69015000D01*
D18*
X113680000Y-63358000D02*
X113680000Y-65690000D01*
X120142000Y-56896000D02*
X113680000Y-63358000D01*
X120142000Y-52413320D02*
X120142000Y-56896000D01*
X117094000Y-47244000D02*
X117094000Y-49365320D01*
X117094000Y-49365320D02*
X120142000Y-52413320D01*
M02*
